<svg width="1964" height="2425" xmlns="http://www.w3.org/2000/svg" xmlns:xlink="http://www.w3.org/1999/xlink" xml:space="preserve" overflow="hidden"><g transform="translate(-834 -71)"><path d="M1489.5 157.001C1489.5 128.006 1513.01 104.5 1542 104.5L2102 104.5C2130.99 104.5 2154.5 128.006 2154.5 157.001L2154.5 366.999C2154.5 395.994 2130.99 419.5 2102 419.5L1542 419.5C1513.01 419.5 1489.5 395.994 1489.5 366.999Z" stroke="#0F9ED5" stroke-width="3.4375" stroke-linejoin="round" stroke-miterlimit="10" fill="#FFFFFF" fill-rule="evenodd"/><rect x="1616" y="212" width="411" height="99" fill="#FFFFFF"/><text font-family="DengXian,DengXian_MSFontService,sans-serif" font-weight="400" font-size="55" transform="matrix(1 0 0 1 1669.4 279)">第</text><text font-family="DengXian,DengXian_MSFontService,sans-serif" font-weight="400" font-size="55" transform="matrix(1 0 0 1 1724.4 279)">1</text><text font-family="DengXian,DengXian_MSFontService,sans-serif" font-weight="400" font-size="55" transform="matrix(1 0 0 1 1753.62 279)">章：绪论</text><path d="M1489.5 572.835C1489.5 543.931 1512.93 520.5 1541.83 520.5L2102.17 520.5C2131.07 520.5 2154.5 543.931 2154.5 572.835L2154.5 782.165C2154.5 811.069 2131.07 834.5 2102.17 834.5L1541.83 834.5C1512.93 834.5 1489.5 811.069 1489.5 782.165Z" stroke="#0F9ED5" stroke-width="3.4375" stroke-linejoin="round" stroke-miterlimit="10" fill="#FFFFFF" fill-rule="evenodd"/><path d="M1489.5 987.835C1489.5 958.931 1512.93 935.5 1541.83 935.5L2102.17 935.5C2131.07 935.5 2154.5 958.931 2154.5 987.835L2154.5 1197.17C2154.5 1226.07 2131.07 1249.5 2102.17 1249.5L1541.83 1249.5C1512.93 1249.5 1489.5 1226.07 1489.5 1197.17Z" stroke="#0F9ED5" stroke-width="3.4375" stroke-linejoin="round" stroke-miterlimit="10" fill="#FFFFFF" fill-rule="evenodd"/><path d="M1489.5 1403C1489.5 1374.01 1513.01 1350.5 1542 1350.5L2102 1350.5C2130.99 1350.5 2154.5 1374.01 2154.5 1403L2154.5 1613C2154.5 1641.99 2130.99 1665.5 2102 1665.5L1542 1665.5C1513.01 1665.5 1489.5 1641.99 1489.5 1613Z" stroke="#0F9ED5" stroke-width="3.4375" stroke-linejoin="round" stroke-miterlimit="10" fill="#FFFFFF" fill-rule="evenodd"/><path d="M1489.5 1818C1489.5 1789.01 1513.01 1765.5 1542 1765.5L2102 1765.5C2130.99 1765.5 2154.5 1789.01 2154.5 1818L2154.5 2028C2154.5 2056.99 2130.99 2080.5 2102 2080.5L1542 2080.5C1513.01 2080.5 1489.5 2056.99 1489.5 2028Z" stroke="#0F9ED5" stroke-width="3.4375" stroke-linejoin="round" stroke-miterlimit="10" fill="#FFFFFF" fill-rule="evenodd"/><path d="M1489.5 2213.83C1489.5 2184.93 1512.93 2161.5 1541.83 2161.5L2102.17 2161.5C2131.07 2161.5 2154.5 2184.93 2154.5 2213.83L2154.5 2423.17C2154.5 2452.07 2131.07 2475.5 2102.17 2475.5L1541.83 2475.5C1512.93 2475.5 1489.5 2452.07 1489.5 2423.17Z" stroke="#0F9ED5" stroke-width="3.4375" stroke-linejoin="round" stroke-miterlimit="10" fill="none" fill-rule="evenodd"/><rect x="1524" y="631" width="596" height="100" fill="#FFFFFF"/><text font-family="DengXian,DengXian_MSFontService,sans-serif" font-weight="400" font-size="55" transform="matrix(1 0 0 1 1559.6 699)">第</text><text font-family="DengXian,DengXian_MSFontService,sans-serif" font-weight="400" font-size="55" transform="matrix(1 0 0 1 1614.6 699)">2</text><text font-family="DengXian,DengXian_MSFontService,sans-serif" font-weight="400" font-size="55" transform="matrix(1 0 0 1 1643.82 699)">章：论文相关工作</text><rect x="1506" y="1042" width="614" height="99" fill="#FFFFFF"/><text font-family="DengXian,DengXian_MSFontService,sans-serif" font-weight="400" font-size="55" transform="matrix(1 0 0 1 1551.03 1110)">第</text><text font-family="DengXian,DengXian_MSFontService,sans-serif" font-weight="400" font-size="55" transform="matrix(1 0 0 1 1606.03 1110)">3</text><text font-family="DengXian,DengXian_MSFontService,sans-serif" font-weight="400" font-size="55" transform="matrix(1 0 0 1 1635.25 1110)">章：方法框架介绍</text><rect x="1524" y="1454" width="592" height="100" fill="#FFFFFF"/><text font-family="DengXian,DengXian_MSFontService,sans-serif" font-weight="400" font-size="55" transform="matrix(1 0 0 1 1557.86 1522)">第</text><text font-family="DengXian,DengXian_MSFontService,sans-serif" font-weight="400" font-size="55" transform="matrix(1 0 0 1 1612.86 1522)">4</text><text font-family="DengXian,DengXian_MSFontService,sans-serif" font-weight="400" font-size="55" transform="matrix(1 0 0 1 1642.08 1522)">章：方法详细介绍</text><rect x="1616" y="1884" width="392" height="100" fill="#FFFFFF"/><text font-family="DengXian,DengXian_MSFontService,sans-serif" font-weight="400" font-size="55" transform="matrix(1 0 0 1 1660.26 1951)">第</text><text font-family="DengXian,DengXian_MSFontService,sans-serif" font-weight="400" font-size="55" transform="matrix(1 0 0 1 1715.26 1951)">5</text><text font-family="DengXian,DengXian_MSFontService,sans-serif" font-weight="400" font-size="55" transform="matrix(1 0 0 1 1744.47 1951)">章：实验</text><text font-family="DengXian,DengXian_MSFontService,sans-serif" font-weight="400" font-size="55" transform="matrix(1 0 0 1 1585.36 2346)">第</text><text font-family="DengXian,DengXian_MSFontService,sans-serif" font-weight="400" font-size="55" transform="matrix(1 0 0 1 1640.36 2346)">6</text><text font-family="DengXian,DengXian_MSFontService,sans-serif" font-weight="400" font-size="55" transform="matrix(1 0 0 1 1669.58 2346)">章</text><text font-family="DengXian,DengXian_MSFontService,sans-serif" font-weight="400" font-size="55" transform="matrix(1 0 0 1 1724.58 2346)">：</text><text font-family="DengXian,DengXian_MSFontService,sans-serif" font-weight="400" font-size="55" transform="matrix(1 0 0 1 1779.58 2346)">总结与展望</text><path d="M2281.5 90.3336C2281.5 80.4844 2289.48 72.5 2299.33 72.5L2778.67 72.5C2788.52 72.5 2796.5 80.4844 2796.5 90.3336L2796.5 161.666C2796.5 171.516 2788.52 179.5 2778.67 179.5L2299.33 179.5C2289.48 179.5 2281.5 171.516 2281.5 161.666Z" stroke="#E97132" stroke-width="3.4375" stroke-linejoin="round" stroke-miterlimit="10" fill="none" fill-rule="evenodd"/><text font-family="DengXian,DengXian_MSFontService,sans-serif" font-weight="400" font-size="41" transform="matrix(1 0 0 1 2394.04 140)">研究</text><text font-family="DengXian,DengXian_MSFontService,sans-serif" font-weight="400" font-size="41" transform="matrix(1 0 0 1 2476.54 140)">背景</text><text font-family="DengXian,DengXian_MSFontService,sans-serif" font-weight="400" font-size="41" transform="matrix(1 0 0 1 2559.04 140)">与</text><text font-family="DengXian,DengXian_MSFontService,sans-serif" font-weight="400" font-size="41" transform="matrix(1 0 0 1 2600.29 140)">意义</text><path d="M2281.5 243.5C2281.5 233.559 2289.56 225.5 2299.5 225.5L2778.5 225.5C2788.44 225.5 2796.5 233.559 2796.5 243.5L2796.5 315.5C2796.5 325.441 2788.44 333.5 2778.5 333.5L2299.5 333.5C2289.56 333.5 2281.5 325.441 2281.5 315.5Z" stroke="#E97132" stroke-width="3.4375" stroke-linejoin="round" stroke-miterlimit="10" fill="none" fill-rule="evenodd"/><text font-family="DengXian,DengXian_MSFontService,sans-serif" font-weight="400" font-size="41" transform="matrix(1 0 0 1 2414.67 293)">论文主要工作</text><path d="M2281.5 397.334C2281.5 387.484 2289.48 379.5 2299.33 379.5L2778.67 379.5C2788.52 379.5 2796.5 387.484 2796.5 397.334L2796.5 468.666C2796.5 478.516 2788.52 486.5 2778.67 486.5L2299.33 486.5C2289.48 486.5 2281.5 478.516 2281.5 468.666Z" stroke="#E97132" stroke-width="3.4375" stroke-linejoin="round" stroke-miterlimit="10" fill="none" fill-rule="evenodd"/><text font-family="DengXian,DengXian_MSFontService,sans-serif" font-weight="400" font-size="41" transform="matrix(1 0 0 1 2414.67 447)">论文</text><text font-family="DengXian,DengXian_MSFontService,sans-serif" font-weight="400" font-size="41" transform="matrix(1 0 0 1 2497.17 447)">组织</text><text font-family="DengXian,DengXian_MSFontService,sans-serif" font-weight="400" font-size="41" transform="matrix(1 0 0 1 2579.67 447)">结构</text><path d="M2177.5 84.5001C2190.48 84.5001 2201 86.2535 2201 88.4164L2201 257.584C2201 259.747 2211.52 261.5 2224.5 261.5 2211.52 261.5 2201 263.253 2201 265.416L2201 434.584C2201 436.747 2190.48 438.5 2177.5 438.5" stroke="#156082" stroke-width="6.875" stroke-miterlimit="8" fill="none" fill-rule="evenodd"/><path d="M835.5 906.334C835.5 896.484 843.484 888.5 853.334 888.5L1332.67 888.5C1342.52 888.5 1350.5 896.484 1350.5 906.334L1350.5 977.666C1350.5 987.516 1342.52 995.5 1332.67 995.5L853.334 995.5C843.484 995.5 835.5 987.516 835.5 977.666Z" stroke="#E97132" stroke-width="3.4375" stroke-linejoin="round" stroke-miterlimit="10" fill="none" fill-rule="evenodd"/><text font-family="DengXian,DengXian_MSFontService,sans-serif" font-weight="400" font-size="41" transform="matrix(1 0 0 1 1009.88 955)">符号说明</text><path d="M835.5 1059.33C835.5 1049.48 843.484 1041.5 853.334 1041.5L1332.67 1041.5C1342.52 1041.5 1350.5 1049.48 1350.5 1059.33L1350.5 1130.67C1350.5 1140.52 1342.52 1148.5 1332.67 1148.5L853.334 1148.5C843.484 1148.5 835.5 1140.52 835.5 1130.67Z" stroke="#E97132" stroke-width="3.4375" stroke-linejoin="round" stroke-miterlimit="10" fill="none" fill-rule="evenodd"/><text font-family="DengXian,DengXian_MSFontService,sans-serif" font-weight="400" font-size="41" transform="matrix(1 0 0 1 1009.88 1109)">框架介绍</text><path d="M835.5 1212.5C835.5 1202.56 843.559 1194.5 853.5 1194.5L1332.5 1194.5C1342.44 1194.5 1350.5 1202.56 1350.5 1212.5L1350.5 1284.5C1350.5 1294.44 1342.44 1302.5 1332.5 1302.5L853.5 1302.5C843.559 1302.5 835.5 1294.44 835.5 1284.5Z" stroke="#E97132" stroke-width="3.4375" stroke-linejoin="round" stroke-miterlimit="10" fill="none" fill-rule="evenodd"/><text font-family="DengXian,DengXian_MSFontService,sans-serif" font-weight="400" font-size="41" transform="matrix(1 0 0 1 1009.88 1262)">训练流程</text><path d="M2281.5 1221.33C2281.5 1211.48 2289.48 1203.5 2299.33 1203.5L2778.67 1203.5C2788.52 1203.5 2796.5 1211.48 2796.5 1221.33L2796.5 1292.67C2796.5 1302.52 2788.52 1310.5 2778.67 1310.5L2299.33 1310.5C2289.48 1310.5 2281.5 1302.52 2281.5 1292.67Z" stroke="#E97132" stroke-width="3.4375" stroke-linejoin="round" stroke-miterlimit="10" fill="none" fill-rule="evenodd"/><text font-family="DengXian,DengXian_MSFontService,sans-serif" font-weight="400" font-size="41" transform="matrix(1 0 0 1 2414.67 1271)">视图增强模块</text><path d="M2281.5 1374.5C2281.5 1364.56 2289.56 1356.5 2299.5 1356.5L2778.5 1356.5C2788.44 1356.5 2796.5 1364.56 2796.5 1374.5L2796.5 1446.5C2796.5 1456.44 2788.44 1464.5 2778.5 1464.5L2299.5 1464.5C2289.56 1464.5 2281.5 1456.44 2281.5 1446.5Z" stroke="#E97132" stroke-width="3.4375" stroke-linejoin="round" stroke-miterlimit="10" fill="none" fill-rule="evenodd"/><text font-family="DengXian,DengXian_MSFontService,sans-serif" font-weight="400" font-size="41" transform="matrix(1 0 0 1 2414.67 1424)">视图融合模块</text><path d="M2281.5 1528.33C2281.5 1518.48 2289.48 1510.5 2299.33 1510.5L2778.67 1510.5C2788.52 1510.5 2796.5 1518.48 2796.5 1528.33L2796.5 1599.67C2796.5 1609.52 2788.52 1617.5 2778.67 1617.5L2299.33 1617.5C2289.48 1617.5 2281.5 1609.52 2281.5 1599.67Z" stroke="#E97132" stroke-width="3.4375" stroke-linejoin="round" stroke-miterlimit="10" fill="none" fill-rule="evenodd"/><text font-family="DengXian,DengXian_MSFontService,sans-serif" font-weight="400" font-size="41" transform="matrix(1 0 0 1 2414.67 1578)">特征提取</text><text font-family="DengXian,DengXian_MSFontService,sans-serif" font-weight="400" font-size="41" transform="matrix(1 0 0 1 2579.67 1578)">模块</text><path d="M2281.5 1665.33C2281.5 1655.48 2289.48 1647.5 2299.33 1647.5L2778.67 1647.5C2788.52 1647.5 2796.5 1655.48 2796.5 1665.33L2796.5 1736.67C2796.5 1746.52 2788.52 1754.5 2778.67 1754.5L2299.33 1754.5C2289.48 1754.5 2281.5 1746.52 2281.5 1736.67Z" stroke="#E97132" stroke-width="3.4375" stroke-linejoin="round" stroke-miterlimit="10" fill="none" fill-rule="evenodd"/><text font-family="DengXian,DengXian_MSFontService,sans-serif" font-weight="400" font-size="41" transform="matrix(1 0 0 1 2414.67 1715)">对比学习模块</text><path d="M835.5 1635.5C835.5 1625.56 843.559 1617.5 853.5 1617.5L1332.5 1617.5C1342.44 1617.5 1350.5 1625.56 1350.5 1635.5L1350.5 1707.5C1350.5 1717.44 1342.44 1725.5 1332.5 1725.5L853.5 1725.5C843.559 1725.5 835.5 1717.44 835.5 1707.5Z" stroke="#E97132" stroke-width="3.4375" stroke-linejoin="round" stroke-miterlimit="10" fill="none" fill-rule="evenodd"/><text font-family="DengXian,DengXian_MSFontService,sans-serif" font-weight="400" font-size="41" transform="matrix(1 0 0 1 886.125 1686)">基准数据集和评估指标</text><path d="M835.5 1789.33C835.5 1779.48 843.484 1771.5 853.334 1771.5L1332.67 1771.5C1342.52 1771.5 1350.5 1779.48 1350.5 1789.33L1350.5 1860.67C1350.5 1870.52 1342.52 1878.5 1332.67 1878.5L853.334 1878.5C843.484 1878.5 835.5 1870.52 835.5 1860.67Z" stroke="#E97132" stroke-width="3.4375" stroke-linejoin="round" stroke-miterlimit="10" fill="none" fill-rule="evenodd"/><text font-family="DengXian,DengXian_MSFontService,sans-serif" font-weight="400" font-size="41" transform="matrix(1 0 0 1 1009.88 1839)">基线方法</text><path d="M835.5 1942.33C835.5 1932.48 843.484 1924.5 853.334 1924.5L1332.67 1924.5C1342.52 1924.5 1350.5 1932.48 1350.5 1942.33L1350.5 2013.67C1350.5 2023.52 1342.52 2031.5 1332.67 2031.5L853.334 2031.5C843.484 2031.5 835.5 2023.52 835.5 2013.67Z" stroke="#E97132" stroke-width="3.4375" stroke-linejoin="round" stroke-miterlimit="10" fill="none" fill-rule="evenodd"/><text font-family="DengXian,DengXian_MSFontService,sans-serif" font-weight="400" font-size="41" transform="matrix(1 0 0 1 1009.88 1992)">对比结果</text><path d="M835.5 2079.5C835.5 2069.56 843.559 2061.5 853.5 2061.5L1332.5 2061.5C1342.44 2061.5 1350.5 2069.56 1350.5 2079.5L1350.5 2151.5C1350.5 2161.44 1342.44 2169.5 1332.5 2169.5L853.5 2169.5C843.559 2169.5 835.5 2161.44 835.5 2151.5Z" stroke="#E97132" stroke-width="3.4375" stroke-linejoin="round" stroke-miterlimit="10" fill="none" fill-rule="evenodd"/><text font-family="DengXian,DengXian_MSFontService,sans-serif" font-weight="400" font-size="41" transform="matrix(1 0 0 1 1009.88 2129)">消融实验</text><path d="M2206.5 1317.5C2219.2 1317.5 2229.5 1319.22 2229.5 1321.33L2229.5 1490.67C2229.5 1492.78 2239.8 1494.5 2252.5 1494.5 2239.8 1494.5 2229.5 1496.22 2229.5 1498.33L2229.5 1667.67C2229.5 1669.78 2219.2 1671.5 2206.5 1671.5" stroke="#156082" stroke-width="6.875" stroke-miterlimit="8" fill="none" fill-rule="evenodd"/><path d="M1431.5 1298.5C1424.87 1298.5 1419.5 1297.6 1419.5 1296.5L1419.5 1095.5C1419.5 1094.4 1414.13 1093.5 1407.5 1093.5 1414.13 1093.5 1419.5 1092.6 1419.5 1091.5L1419.5 890.5C1419.5 889.395 1424.87 888.5 1431.5 888.5" stroke="#156082" stroke-width="6.875" stroke-miterlimit="8" fill="none" fill-rule="evenodd"/><path d="M1429.5 2117.5C1423.15 2117.5 1418 2116.64 1418 2115.58L1418 1913.92C1418 1912.86 1412.85 1912 1406.5 1912 1412.85 1912 1418 1911.14 1418 1910.08L1418 1708.42C1418 1707.36 1423.15 1706.5 1429.5 1706.5" stroke="#156082" stroke-width="6.875" stroke-miterlimit="8" fill="none" fill-rule="evenodd"/><path d="M1827.08 419.5 1827.08 497.501 1817.92 497.501 1817.92 419.5ZM1836.25 492.918 1822.5 520.418 1808.75 492.918Z" fill="#FF0000"/><path d="M1827.08 834.5 1827.08 912.501 1817.92 912.501 1817.92 834.5ZM1836.25 907.918 1822.5 935.418 1808.75 907.918Z" fill="#FF0000"/><path d="M1827.08 1249.5 1827.08 1327.5 1817.92 1327.5 1817.92 1249.5ZM1836.25 1322.92 1822.5 1350.42 1808.75 1322.92Z" fill="#FF0000"/><path d="M1827.08 1665.5 1827.08 1743.5 1817.92 1743.5 1817.92 1665.5ZM1836.25 1738.92 1822.5 1766.42 1808.75 1738.92Z" fill="#FF0000"/><path d="M1827.08 2080.5 1827.08 2138.32 1817.92 2138.32 1817.92 2080.5ZM1836.25 2133.73 1822.5 2161.23 1808.75 2133.73Z" fill="#FF0000"/><path d="M2273.5 2214.33C2273.5 2204.48 2281.48 2196.5 2291.33 2196.5L2771.67 2196.5C2781.52 2196.5 2789.5 2204.48 2789.5 2214.33L2789.5 2285.67C2789.5 2295.52 2781.52 2303.5 2771.67 2303.5L2291.33 2303.5C2281.48 2303.5 2273.5 2295.52 2273.5 2285.67Z" stroke="#E97132" stroke-width="3.4375" stroke-linejoin="round" stroke-miterlimit="10" fill="none" fill-rule="evenodd"/><text font-family="DengXian,DengXian_MSFontService,sans-serif" font-weight="400" font-size="41" transform="matrix(1 0 0 1 2489.83 2264)">总结</text><path d="M2273.5 2351.5C2273.5 2341.56 2281.56 2333.5 2291.5 2333.5L2771.5 2333.5C2781.44 2333.5 2789.5 2341.56 2789.5 2351.5L2789.5 2423.5C2789.5 2433.44 2781.44 2441.5 2771.5 2441.5L2291.5 2441.5C2281.56 2441.5 2273.5 2433.44 2273.5 2423.5Z" stroke="#E97132" stroke-width="3.4375" stroke-linejoin="round" stroke-miterlimit="10" fill="none" fill-rule="evenodd"/><text font-family="DengXian,DengXian_MSFontService,sans-serif" font-weight="400" font-size="41" transform="matrix(1 0 0 1 2489.83 2401)">展望</text><path d="M2206.5 2138.5C2219.2 2138.5 2229.5 2140.22 2229.5 2142.33L2229.5 2311.67C2229.5 2313.78 2239.8 2315.5 2252.5 2315.5 2239.8 2315.5 2229.5 2317.22 2229.5 2319.33L2229.5 2488.67C2229.5 2490.78 2219.2 2492.5 2206.5 2492.5" stroke="#156082" stroke-width="6.875" stroke-miterlimit="8" fill="none" fill-rule="evenodd"/></g></svg>