<?xml version="1.0" encoding="utf-8" standalone="no"?>
<!DOCTYPE svg PUBLIC "-//W3C//DTD SVG 1.1//EN"
  "http://www.w3.org/Graphics/SVG/1.1/DTD/svg11.dtd">
<svg xmlns:xlink="http://www.w3.org/1999/xlink" width="492.51pt" height="381.114pt" viewBox="0 0 492.51 381.114" xmlns="http://www.w3.org/2000/svg" version="1.1">
 <metadata>
  <rdf:RDF xmlns:dc="http://purl.org/dc/elements/1.1/" xmlns:cc="http://creativecommons.org/ns#" xmlns:rdf="http://www.w3.org/1999/02/22-rdf-syntax-ns#">
   <cc:Work>
    <dc:type rdf:resource="http://purl.org/dc/dcmitype/StillImage"/>
    <dc:date>2026-03-11T22:35:33.832651</dc:date>
    <dc:format>image/svg+xml</dc:format>
    <dc:creator>
     <cc:Agent>
      <dc:title>Matplotlib v3.7.1, https://matplotlib.org/</dc:title>
     </cc:Agent>
    </dc:creator>
   </cc:Work>
  </rdf:RDF>
 </metadata>
 <defs>
  <style type="text/css">*{stroke-linejoin: round; stroke-linecap: butt}</style>
 </defs>
 <g id="figure_1">
  <g id="patch_1">
   <path d="M 0 381.114 
L 492.51 381.114 
L 492.51 0 
L 0 0 
z
" style="fill: #ffffff"/>
  </g>
  <g id="axes_1">
   <g id="patch_2">
    <path d="M 26.2 340.144 
L 485.31 340.144 
L 485.31 7.2 
L 26.2 7.2 
z
" style="fill: #ffffff"/>
   </g>
   <g id="PolyCollection_1">
    <defs>
     <path id="m52f6bf9d98" d="M 47.068636 -342.314521 
L 47.068636 -56.103818 
L 50.57597 -56.103818 
L 54.083304 -56.103818 
L 57.590638 -56.103818 
L 61.097972 -56.103818 
L 64.605306 -56.103818 
L 68.112639 -56.103818 
L 71.619973 -56.103818 
L 75.127307 -56.103818 
L 78.634641 -56.103818 
L 82.141975 -56.103818 
L 85.649309 -56.103818 
L 89.156642 -56.103818 
L 92.663976 -56.103818 
L 96.17131 -56.103818 
L 99.678644 -56.103818 
L 103.185978 -56.103818 
L 106.693312 -56.103818 
L 110.200646 -56.103818 
L 113.707979 -56.103818 
L 117.215313 -56.103818 
L 120.722647 -56.103818 
L 124.229981 -56.103818 
L 127.737315 -56.103818 
L 131.244649 -56.103818 
L 134.751982 -56.103818 
L 138.259316 -56.103818 
L 141.76665 -56.103818 
L 145.273984 -56.103818 
L 148.781318 -56.103818 
L 152.288652 -56.103818 
L 155.795985 -56.103818 
L 159.303319 -56.103818 
L 162.810653 -56.103818 
L 166.317987 -56.103818 
L 169.825321 -56.103818 
L 173.332655 -56.103818 
L 176.839989 -56.103818 
L 180.347322 -56.103818 
L 183.854656 -56.103818 
L 187.36199 -56.103818 
L 190.869324 -56.103818 
L 194.376658 -56.103818 
L 197.883992 -56.103818 
L 201.391325 -56.103818 
L 204.898659 -56.103818 
L 208.405993 -56.103818 
L 211.913327 -56.103818 
L 215.420661 -56.103818 
L 218.927995 -56.103818 
L 222.435328 -56.103818 
L 225.942662 -56.103818 
L 229.449996 -56.103818 
L 232.95733 -56.103818 
L 236.464664 -56.103818 
L 239.971998 -56.103818 
L 243.479332 -56.103818 
L 246.986665 -56.103818 
L 250.493999 -56.103818 
L 254.001333 -56.103818 
L 257.508667 -56.103818 
L 261.016001 -56.103818 
L 264.523335 -56.103818 
L 268.030668 -56.103818 
L 271.538002 -56.103818 
L 275.045336 -56.103818 
L 278.55267 -56.103818 
L 282.060004 -56.103818 
L 285.567338 -56.103818 
L 289.074672 -56.103818 
L 292.582005 -56.103818 
L 296.089339 -56.103818 
L 299.596673 -56.103818 
L 303.104007 -56.103818 
L 306.611341 -56.103818 
L 310.118675 -56.103818 
L 313.626008 -56.103818 
L 317.133342 -56.103818 
L 320.640676 -56.103818 
L 324.14801 -56.103818 
L 327.655344 -56.103818 
L 331.162678 -56.103818 
L 334.670011 -56.103818 
L 338.177345 -56.103818 
L 341.684679 -56.103818 
L 345.192013 -56.103818 
L 348.699347 -56.103818 
L 352.206681 -56.103818 
L 355.714015 -56.103818 
L 359.221348 -56.103818 
L 362.728682 -56.103818 
L 366.236016 -56.103818 
L 369.74335 -56.103818 
L 373.250684 -56.103818 
L 376.758018 -56.103818 
L 380.265351 -56.103818 
L 383.772685 -56.103818 
L 387.280019 -56.103818 
L 390.787353 -56.103818 
L 394.294687 -56.103818 
L 397.802021 -56.103818 
L 401.309354 -56.103818 
L 404.816688 -56.103818 
L 408.324022 -56.103818 
L 411.831356 -56.103818 
L 415.33869 -56.103818 
L 418.846024 -56.103818 
L 422.353358 -56.103818 
L 425.860691 -56.103818 
L 429.368025 -56.103818 
L 432.875359 -56.103818 
L 436.382693 -56.103818 
L 439.890027 -56.103818 
L 443.397361 -56.103818 
L 446.904694 -56.103818 
L 450.412028 -56.103818 
L 453.919362 -56.103818 
L 457.426696 -56.103818 
L 460.93403 -56.103818 
L 464.441364 -56.103818 
L 464.441364 -351.860436 
L 464.441364 -351.860436 
L 460.93403 -352.151181 
L 457.426696 -352.441927 
L 453.919362 -352.732673 
L 450.412028 -353.023418 
L 446.904694 -353.314164 
L 443.397361 -353.60491 
L 439.890027 -353.895655 
L 436.382693 -354.186401 
L 432.875359 -354.477146 
L 429.368025 -354.767892 
L 425.860691 -355.058638 
L 422.353358 -355.349383 
L 418.846024 -355.640129 
L 415.33869 -355.930875 
L 411.831356 -356.22162 
L 408.324022 -356.512366 
L 404.816688 -356.803112 
L 401.309354 -357.093857 
L 397.802021 -357.384603 
L 394.294687 -357.675348 
L 390.787353 -357.966094 
L 387.280019 -358.25684 
L 383.772685 -358.547585 
L 380.265351 -358.734994 
L 376.758018 -358.509053 
L 373.250684 -358.283112 
L 369.74335 -358.057171 
L 366.236016 -357.83123 
L 362.728682 -357.605289 
L 359.221348 -357.379348 
L 355.714015 -357.153407 
L 352.206681 -356.927467 
L 348.699347 -356.701526 
L 345.192013 -356.475585 
L 341.684679 -356.249644 
L 338.177345 -356.023703 
L 334.670011 -355.797762 
L 331.162678 -355.571821 
L 327.655344 -355.34588 
L 324.14801 -355.119939 
L 320.640676 -354.893999 
L 317.133342 -354.668058 
L 313.626008 -354.442117 
L 310.118675 -354.216176 
L 306.611341 -353.990235 
L 303.104007 -353.764294 
L 299.596673 -353.538353 
L 296.089339 -353.205922 
L 292.582005 -352.713757 
L 289.074672 -352.221591 
L 285.567338 -351.729425 
L 282.060004 -351.237259 
L 278.55267 -350.745093 
L 275.045336 -350.252928 
L 271.538002 -349.760762 
L 268.030668 -349.268596 
L 264.523335 -348.77643 
L 261.016001 -348.284264 
L 257.508667 -347.792099 
L 254.001333 -347.299933 
L 250.493999 -346.807767 
L 246.986665 -346.315601 
L 243.479332 -345.823435 
L 239.971998 -345.33127 
L 236.464664 -344.839104 
L 232.95733 -344.346938 
L 229.449996 -343.854772 
L 225.942662 -343.362606 
L 222.435328 -342.870441 
L 218.927995 -342.378275 
L 215.420661 -341.886109 
L 211.913327 -341.581001 
L 208.405993 -341.400599 
L 204.898659 -341.220196 
L 201.391325 -341.039794 
L 197.883992 -340.859392 
L 194.376658 -340.678989 
L 190.869324 -340.498587 
L 187.36199 -340.318184 
L 183.854656 -340.137782 
L 180.347322 -339.95738 
L 176.839989 -339.776977 
L 173.332655 -339.596575 
L 169.825321 -339.416172 
L 166.317987 -339.23577 
L 162.810653 -339.055367 
L 159.303319 -338.874965 
L 155.795985 -338.694563 
L 152.288652 -338.51416 
L 148.781318 -338.333758 
L 145.273984 -338.153355 
L 141.76665 -337.972953 
L 138.259316 -337.792551 
L 134.751982 -337.612148 
L 131.244649 -337.431746 
L 127.737315 -337.561005 
L 124.229981 -337.76768 
L 120.722647 -337.974354 
L 117.215313 -338.181029 
L 113.707979 -338.387703 
L 110.200646 -338.594378 
L 106.693312 -338.801053 
L 103.185978 -339.007727 
L 99.678644 -339.214402 
L 96.17131 -339.421076 
L 92.663976 -339.627751 
L 89.156642 -339.834426 
L 85.649309 -340.0411 
L 82.141975 -340.247775 
L 78.634641 -340.454449 
L 75.127307 -340.661124 
L 71.619973 -340.867799 
L 68.112639 -341.074473 
L 64.605306 -341.281148 
L 61.097972 -341.487823 
L 57.590638 -341.694497 
L 54.083304 -341.901172 
L 50.57597 -342.107846 
L 47.068636 -342.314521 
z
" style="stroke: #66c2a5; stroke-opacity: 0.25"/>
    </defs>
    <g clip-path="url(#p5aa2b6a9a7)">
     <use xlink:href="#m52f6bf9d98" x="0" y="381.114" style="fill: #66c2a5; fill-opacity: 0.25; stroke: #66c2a5; stroke-opacity: 0.25"/>
    </g>
   </g>
   <g id="PolyCollection_2">
    <defs>
     <path id="mcab83f78ef" d="M 47.068636 -234.85003 
L 47.068636 -56.103818 
L 50.57597 -56.103818 
L 54.083304 -56.103818 
L 57.590638 -56.103818 
L 61.097972 -56.103818 
L 64.605306 -56.103818 
L 68.112639 -56.103818 
L 71.619973 -56.103818 
L 75.127307 -56.103818 
L 78.634641 -56.103818 
L 82.141975 -56.103818 
L 85.649309 -56.103818 
L 89.156642 -56.103818 
L 92.663976 -56.103818 
L 96.17131 -56.103818 
L 99.678644 -56.103818 
L 103.185978 -56.103818 
L 106.693312 -56.103818 
L 110.200646 -56.103818 
L 113.707979 -56.103818 
L 117.215313 -56.103818 
L 120.722647 -56.103818 
L 124.229981 -56.103818 
L 127.737315 -56.103818 
L 131.244649 -56.103818 
L 134.751982 -56.103818 
L 138.259316 -56.103818 
L 141.76665 -56.103818 
L 145.273984 -56.103818 
L 148.781318 -56.103818 
L 152.288652 -56.103818 
L 155.795985 -56.103818 
L 159.303319 -56.103818 
L 162.810653 -56.103818 
L 166.317987 -56.103818 
L 169.825321 -56.103818 
L 173.332655 -56.103818 
L 176.839989 -56.103818 
L 180.347322 -56.103818 
L 183.854656 -56.103818 
L 187.36199 -56.103818 
L 190.869324 -56.103818 
L 194.376658 -56.103818 
L 197.883992 -56.103818 
L 201.391325 -56.103818 
L 204.898659 -56.103818 
L 208.405993 -56.103818 
L 211.913327 -56.103818 
L 215.420661 -56.103818 
L 218.927995 -56.103818 
L 222.435328 -56.103818 
L 225.942662 -56.103818 
L 229.449996 -56.103818 
L 232.95733 -56.103818 
L 236.464664 -56.103818 
L 239.971998 -56.103818 
L 243.479332 -56.103818 
L 246.986665 -56.103818 
L 250.493999 -56.103818 
L 254.001333 -56.103818 
L 257.508667 -56.103818 
L 261.016001 -56.103818 
L 264.523335 -56.103818 
L 268.030668 -56.103818 
L 271.538002 -56.103818 
L 275.045336 -56.103818 
L 278.55267 -56.103818 
L 282.060004 -56.103818 
L 285.567338 -56.103818 
L 289.074672 -56.103818 
L 292.582005 -56.103818 
L 296.089339 -56.103818 
L 299.596673 -56.103818 
L 303.104007 -56.103818 
L 306.611341 -56.103818 
L 310.118675 -56.103818 
L 313.626008 -56.103818 
L 317.133342 -56.103818 
L 320.640676 -56.103818 
L 324.14801 -56.103818 
L 327.655344 -56.103818 
L 331.162678 -56.103818 
L 334.670011 -56.103818 
L 338.177345 -56.103818 
L 341.684679 -56.103818 
L 345.192013 -56.103818 
L 348.699347 -56.103818 
L 352.206681 -56.103818 
L 355.714015 -56.103818 
L 359.221348 -56.103818 
L 362.728682 -56.103818 
L 366.236016 -56.103818 
L 369.74335 -56.103818 
L 373.250684 -56.103818 
L 376.758018 -56.103818 
L 380.265351 -56.103818 
L 383.772685 -56.103818 
L 387.280019 -56.103818 
L 390.787353 -56.103818 
L 394.294687 -56.103818 
L 397.802021 -56.103818 
L 401.309354 -56.103818 
L 404.816688 -56.103818 
L 408.324022 -56.103818 
L 411.831356 -56.103818 
L 415.33869 -56.103818 
L 418.846024 -56.103818 
L 422.353358 -56.103818 
L 425.860691 -56.103818 
L 429.368025 -56.103818 
L 432.875359 -56.103818 
L 436.382693 -56.103818 
L 439.890027 -56.103818 
L 443.397361 -56.103818 
L 446.904694 -56.103818 
L 450.412028 -56.103818 
L 453.919362 -56.103818 
L 457.426696 -56.103818 
L 460.93403 -56.103818 
L 464.441364 -56.103818 
L 464.441364 -244.979538 
L 464.441364 -244.979538 
L 460.93403 -245.329834 
L 457.426696 -245.68013 
L 453.919362 -246.030426 
L 450.412028 -246.380722 
L 446.904694 -246.731018 
L 443.397361 -247.081314 
L 439.890027 -247.43161 
L 436.382693 -247.781906 
L 432.875359 -248.132202 
L 429.368025 -248.482498 
L 425.860691 -248.832794 
L 422.353358 -249.18309 
L 418.846024 -249.533386 
L 415.33869 -249.883682 
L 411.831356 -250.233977 
L 408.324022 -250.584273 
L 404.816688 -250.934569 
L 401.309354 -251.284865 
L 397.802021 -251.635161 
L 394.294687 -251.985457 
L 390.787353 -252.335753 
L 387.280019 -252.686049 
L 383.772685 -253.036345 
L 380.265351 -253.270693 
L 376.758018 -253.041249 
L 373.250684 -252.811805 
L 369.74335 -252.582361 
L 366.236016 -252.352918 
L 362.728682 -252.123474 
L 359.221348 -251.89403 
L 355.714015 -251.664586 
L 352.206681 -251.435142 
L 348.699347 -251.205698 
L 345.192013 -250.976255 
L 341.684679 -250.746811 
L 338.177345 -250.517367 
L 334.670011 -250.287923 
L 331.162678 -250.058479 
L 327.655344 -249.829035 
L 324.14801 -249.599591 
L 320.640676 -249.370148 
L 317.133342 -249.140704 
L 313.626008 -248.91126 
L 310.118675 -248.681816 
L 306.611341 -248.452372 
L 303.104007 -248.222928 
L 299.596673 -247.993485 
L 296.089339 -247.642138 
L 292.582005 -247.107936 
L 289.074672 -246.573735 
L 285.567338 -246.039534 
L 282.060004 -245.505332 
L 278.55267 -244.971131 
L 275.045336 -244.43693 
L 271.538002 -243.902729 
L 268.030668 -243.368527 
L 264.523335 -242.834326 
L 261.016001 -242.300125 
L 257.508667 -241.765923 
L 254.001333 -241.231722 
L 250.493999 -240.697521 
L 246.986665 -240.163319 
L 243.479332 -239.629118 
L 239.971998 -239.094917 
L 236.464664 -238.560715 
L 232.95733 -238.026514 
L 229.449996 -237.492313 
L 225.942662 -236.958111 
L 222.435328 -236.42391 
L 218.927995 -235.889709 
L 215.420661 -235.355507 
L 211.913327 -235.054603 
L 208.405993 -234.90923 
L 204.898659 -234.763858 
L 201.391325 -234.618485 
L 197.883992 -234.473112 
L 194.376658 -234.327739 
L 190.869324 -234.182366 
L 187.36199 -234.036994 
L 183.854656 -233.891621 
L 180.347322 -233.746248 
L 176.839989 -233.600875 
L 173.332655 -233.455502 
L 169.825321 -233.310129 
L 166.317987 -233.164757 
L 162.810653 -233.019384 
L 159.303319 -232.874011 
L 155.795985 -232.728638 
L 152.288652 -232.583265 
L 148.781318 -232.437893 
L 145.273984 -232.29252 
L 141.76665 -232.147147 
L 138.259316 -232.001774 
L 134.751982 -231.856401 
L 131.244649 -231.711028 
L 127.737315 -231.788444 
L 124.229981 -231.921556 
L 120.722647 -232.054669 
L 117.215313 -232.187781 
L 113.707979 -232.320894 
L 110.200646 -232.454006 
L 106.693312 -232.587119 
L 103.185978 -232.720231 
L 99.678644 -232.853344 
L 96.17131 -232.986456 
L 92.663976 -233.119568 
L 89.156642 -233.252681 
L 85.649309 -233.385793 
L 82.141975 -233.518906 
L 78.634641 -233.652018 
L 75.127307 -233.785131 
L 71.619973 -233.918243 
L 68.112639 -234.051356 
L 64.605306 -234.184468 
L 61.097972 -234.317581 
L 57.590638 -234.450693 
L 54.083304 -234.583806 
L 50.57597 -234.716918 
L 47.068636 -234.85003 
z
" style="stroke: #e78ac3; stroke-opacity: 0.25"/>
    </defs>
    <g clip-path="url(#p5aa2b6a9a7)">
     <use xlink:href="#mcab83f78ef" x="0" y="381.114" style="fill: #e78ac3; fill-opacity: 0.25; stroke: #e78ac3; stroke-opacity: 0.25"/>
    </g>
   </g>
   <g id="PolyCollection_3">
    <defs>
     <path id="me20c1a3ee3" d="M 47.068636 -239.185293 
L 47.068636 -56.103818 
L 50.57597 -56.103818 
L 54.083304 -56.103818 
L 57.590638 -56.103818 
L 61.097972 -56.103818 
L 64.605306 -56.103818 
L 68.112639 -56.103818 
L 71.619973 -56.103818 
L 75.127307 -56.103818 
L 78.634641 -56.103818 
L 82.141975 -56.103818 
L 85.649309 -56.103818 
L 89.156642 -56.103818 
L 92.663976 -56.103818 
L 96.17131 -56.103818 
L 99.678644 -56.103818 
L 103.185978 -56.103818 
L 106.693312 -56.103818 
L 110.200646 -56.103818 
L 113.707979 -56.103818 
L 117.215313 -56.103818 
L 120.722647 -56.103818 
L 124.229981 -56.103818 
L 127.737315 -56.103818 
L 131.244649 -56.103818 
L 134.751982 -56.103818 
L 138.259316 -56.103818 
L 141.76665 -56.103818 
L 145.273984 -56.103818 
L 148.781318 -56.103818 
L 152.288652 -56.103818 
L 155.795985 -56.103818 
L 159.303319 -56.103818 
L 162.810653 -56.103818 
L 166.317987 -56.103818 
L 169.825321 -56.103818 
L 173.332655 -56.103818 
L 176.839989 -56.103818 
L 180.347322 -56.103818 
L 183.854656 -56.103818 
L 187.36199 -56.103818 
L 190.869324 -56.103818 
L 194.376658 -56.103818 
L 197.883992 -56.103818 
L 201.391325 -56.103818 
L 204.898659 -56.103818 
L 208.405993 -56.103818 
L 211.913327 -56.103818 
L 215.420661 -56.103818 
L 218.927995 -56.103818 
L 222.435328 -56.103818 
L 225.942662 -56.103818 
L 229.449996 -56.103818 
L 232.95733 -56.103818 
L 236.464664 -56.103818 
L 239.971998 -56.103818 
L 243.479332 -56.103818 
L 246.986665 -56.103818 
L 250.493999 -56.103818 
L 254.001333 -56.103818 
L 257.508667 -56.103818 
L 261.016001 -56.103818 
L 264.523335 -56.103818 
L 268.030668 -56.103818 
L 271.538002 -56.103818 
L 275.045336 -56.103818 
L 278.55267 -56.103818 
L 282.060004 -56.103818 
L 285.567338 -56.103818 
L 289.074672 -56.103818 
L 292.582005 -56.103818 
L 296.089339 -56.103818 
L 299.596673 -56.103818 
L 303.104007 -56.103818 
L 306.611341 -56.103818 
L 310.118675 -56.103818 
L 313.626008 -56.103818 
L 317.133342 -56.103818 
L 320.640676 -56.103818 
L 324.14801 -56.103818 
L 327.655344 -56.103818 
L 331.162678 -56.103818 
L 334.670011 -56.103818 
L 338.177345 -56.103818 
L 341.684679 -56.103818 
L 345.192013 -56.103818 
L 348.699347 -56.103818 
L 352.206681 -56.103818 
L 355.714015 -56.103818 
L 359.221348 -56.103818 
L 362.728682 -56.103818 
L 366.236016 -56.103818 
L 369.74335 -56.103818 
L 373.250684 -56.103818 
L 376.758018 -56.103818 
L 380.265351 -56.103818 
L 383.772685 -56.103818 
L 387.280019 -56.103818 
L 390.787353 -56.103818 
L 394.294687 -56.103818 
L 397.802021 -56.103818 
L 401.309354 -56.103818 
L 404.816688 -56.103818 
L 408.324022 -56.103818 
L 411.831356 -56.103818 
L 415.33869 -56.103818 
L 418.846024 -56.103818 
L 422.353358 -56.103818 
L 425.860691 -56.103818 
L 429.368025 -56.103818 
L 432.875359 -56.103818 
L 436.382693 -56.103818 
L 439.890027 -56.103818 
L 443.397361 -56.103818 
L 446.904694 -56.103818 
L 450.412028 -56.103818 
L 453.919362 -56.103818 
L 457.426696 -56.103818 
L 460.93403 -56.103818 
L 464.441364 -56.103818 
L 464.441364 -254.150286 
L 464.441364 -254.150286 
L 460.93403 -254.491825 
L 457.426696 -254.833363 
L 453.919362 -255.174902 
L 450.412028 -255.51644 
L 446.904694 -255.857979 
L 443.397361 -256.199517 
L 439.890027 -256.541056 
L 436.382693 -256.882594 
L 432.875359 -257.224133 
L 429.368025 -257.565672 
L 425.860691 -257.90721 
L 422.353358 -258.248749 
L 418.846024 -258.590287 
L 415.33869 -258.931826 
L 411.831356 -259.273364 
L 408.324022 -259.614903 
L 404.816688 -259.956441 
L 401.309354 -260.29798 
L 397.802021 -260.639518 
L 394.294687 -260.981057 
L 390.787353 -261.322596 
L 387.280019 -261.664134 
L 383.772685 -262.005673 
L 380.265351 -262.234416 
L 376.758018 -262.011978 
L 373.250684 -261.78954 
L 369.74335 -261.567102 
L 366.236016 -261.344664 
L 362.728682 -261.122226 
L 359.221348 -260.899788 
L 355.714015 -260.67735 
L 352.206681 -260.454913 
L 348.699347 -260.232475 
L 345.192013 -260.010037 
L 341.684679 -259.787599 
L 338.177345 -259.565161 
L 334.670011 -259.342723 
L 331.162678 -259.120285 
L 327.655344 -258.897847 
L 324.14801 -258.675409 
L 320.640676 -258.452971 
L 317.133342 -258.230533 
L 313.626008 -258.008095 
L 310.118675 -257.785657 
L 306.611341 -257.56322 
L 303.104007 -257.340782 
L 299.596673 -257.118344 
L 296.089339 -256.716554 
L 292.582005 -256.045737 
L 289.074672 -255.374921 
L 285.567338 -254.704104 
L 282.060004 -254.033287 
L 278.55267 -253.362471 
L 275.045336 -252.691654 
L 271.538002 -252.020837 
L 268.030668 -251.35002 
L 264.523335 -250.679204 
L 261.016001 -250.008387 
L 257.508667 -249.33757 
L 254.001333 -248.666753 
L 250.493999 -247.995937 
L 246.986665 -247.32512 
L 243.479332 -246.654303 
L 239.971998 -245.983486 
L 236.464664 -245.31267 
L 232.95733 -244.641853 
L 229.449996 -243.971036 
L 225.942662 -243.30022 
L 222.435328 -242.629403 
L 218.927995 -241.958586 
L 215.420661 -241.287769 
L 211.913327 -240.870217 
L 208.405993 -240.621506 
L 204.898659 -240.372796 
L 201.391325 -240.124086 
L 197.883992 -239.875376 
L 194.376658 -239.626666 
L 190.869324 -239.377956 
L 187.36199 -239.129246 
L 183.854656 -238.880536 
L 180.347322 -238.631825 
L 176.839989 -238.383115 
L 173.332655 -238.134405 
L 169.825321 -237.885695 
L 166.317987 -237.636985 
L 162.810653 -237.388275 
L 159.303319 -237.139565 
L 155.795985 -236.890855 
L 152.288652 -236.642145 
L 148.781318 -236.393434 
L 145.273984 -236.144724 
L 141.76665 -235.896014 
L 138.259316 -235.647304 
L 134.751982 -235.398594 
L 131.244649 -235.149884 
L 127.737315 -235.237458 
L 124.229981 -235.409103 
L 120.722647 -235.580748 
L 117.215313 -235.752393 
L 113.707979 -235.924038 
L 110.200646 -236.095683 
L 106.693312 -236.267328 
L 103.185978 -236.438973 
L 99.678644 -236.610618 
L 96.17131 -236.782263 
L 92.663976 -236.953908 
L 89.156642 -237.125553 
L 85.649309 -237.297198 
L 82.141975 -237.468843 
L 78.634641 -237.640488 
L 75.127307 -237.812133 
L 71.619973 -237.983778 
L 68.112639 -238.155423 
L 64.605306 -238.327068 
L 61.097972 -238.498713 
L 57.590638 -238.670358 
L 54.083304 -238.842003 
L 50.57597 -239.013648 
L 47.068636 -239.185293 
z
" style="stroke: #e5c494; stroke-opacity: 0.25"/>
    </defs>
    <g clip-path="url(#p5aa2b6a9a7)">
     <use xlink:href="#me20c1a3ee3" x="0" y="381.114" style="fill: #e5c494; fill-opacity: 0.25; stroke: #e5c494; stroke-opacity: 0.25"/>
    </g>
   </g>
   <g id="matplotlib.axis_1">
    <g id="xtick_1">
     <g id="line2d_1">
      <path d="M 47.068636 340.144 
L 47.068636 7.2 
" clip-path="url(#p5aa2b6a9a7)" style="fill: none; stroke-dasharray: 2.96,1.28; stroke-dashoffset: 0; stroke: #b0b0b0; stroke-opacity: 0.5; stroke-width: 0.8"/>
     </g>
     <g id="line2d_2">
      <defs>
       <path id="mfece189f03" d="M 0 0 
L 0 3.5 
" style="stroke: #000000; stroke-width: 0.8"/>
      </defs>
      <g>
       <use xlink:href="#mfece189f03" x="47.068636" y="340.144" style="stroke: #000000; stroke-width: 0.8"/>
      </g>
     </g>
     <g id="text_1">
      <text style="font: 12px 'SimHei', 'Microsoft YaHei', 'DejaVu Sans', 'Bitstream Vera Sans', 'Computer Modern Sans Serif', 'Lucida Grande', 'Verdana', 'Geneva', 'Lucid', 'Arial', 'Helvetica', 'Avant Garde', sans-serif; text-anchor: middle" x="47.068636" y="355.394" transform="rotate(-0 47.068636 355.394)">0</text>
     </g>
    </g>
    <g id="xtick_2">
     <g id="line2d_3">
      <path d="M 130.543182 340.144 
L 130.543182 7.2 
" clip-path="url(#p5aa2b6a9a7)" style="fill: none; stroke-dasharray: 2.96,1.28; stroke-dashoffset: 0; stroke: #b0b0b0; stroke-opacity: 0.5; stroke-width: 0.8"/>
     </g>
     <g id="line2d_4">
      <g>
       <use xlink:href="#mfece189f03" x="130.543182" y="340.144" style="stroke: #000000; stroke-width: 0.8"/>
      </g>
     </g>
     <g id="text_2">
      <text style="font: 12px 'SimHei', 'Microsoft YaHei', 'DejaVu Sans', 'Bitstream Vera Sans', 'Computer Modern Sans Serif', 'Lucida Grande', 'Verdana', 'Geneva', 'Lucid', 'Arial', 'Helvetica', 'Avant Garde', sans-serif; text-anchor: middle" x="130.543182" y="355.394" transform="rotate(-0 130.543182 355.394)">1</text>
     </g>
    </g>
    <g id="xtick_3">
     <g id="line2d_5">
      <path d="M 214.017727 340.144 
L 214.017727 7.2 
" clip-path="url(#p5aa2b6a9a7)" style="fill: none; stroke-dasharray: 2.96,1.28; stroke-dashoffset: 0; stroke: #b0b0b0; stroke-opacity: 0.5; stroke-width: 0.8"/>
     </g>
     <g id="line2d_6">
      <g>
       <use xlink:href="#mfece189f03" x="214.017727" y="340.144" style="stroke: #000000; stroke-width: 0.8"/>
      </g>
     </g>
     <g id="text_3">
      <text style="font: 12px 'SimHei', 'Microsoft YaHei', 'DejaVu Sans', 'Bitstream Vera Sans', 'Computer Modern Sans Serif', 'Lucida Grande', 'Verdana', 'Geneva', 'Lucid', 'Arial', 'Helvetica', 'Avant Garde', sans-serif; text-anchor: middle" x="214.017727" y="355.394" transform="rotate(-0 214.017727 355.394)">2</text>
     </g>
    </g>
    <g id="xtick_4">
     <g id="line2d_7">
      <path d="M 297.492273 340.144 
L 297.492273 7.2 
" clip-path="url(#p5aa2b6a9a7)" style="fill: none; stroke-dasharray: 2.96,1.28; stroke-dashoffset: 0; stroke: #b0b0b0; stroke-opacity: 0.5; stroke-width: 0.8"/>
     </g>
     <g id="line2d_8">
      <g>
       <use xlink:href="#mfece189f03" x="297.492273" y="340.144" style="stroke: #000000; stroke-width: 0.8"/>
      </g>
     </g>
     <g id="text_4">
      <text style="font: 12px 'SimHei', 'Microsoft YaHei', 'DejaVu Sans', 'Bitstream Vera Sans', 'Computer Modern Sans Serif', 'Lucida Grande', 'Verdana', 'Geneva', 'Lucid', 'Arial', 'Helvetica', 'Avant Garde', sans-serif; text-anchor: middle" x="297.492273" y="355.394" transform="rotate(-0 297.492273 355.394)">3</text>
     </g>
    </g>
    <g id="xtick_5">
     <g id="line2d_9">
      <path d="M 380.966818 340.144 
L 380.966818 7.2 
" clip-path="url(#p5aa2b6a9a7)" style="fill: none; stroke-dasharray: 2.96,1.28; stroke-dashoffset: 0; stroke: #b0b0b0; stroke-opacity: 0.5; stroke-width: 0.8"/>
     </g>
     <g id="line2d_10">
      <g>
       <use xlink:href="#mfece189f03" x="380.966818" y="340.144" style="stroke: #000000; stroke-width: 0.8"/>
      </g>
     </g>
     <g id="text_5">
      <text style="font: 12px 'SimHei', 'Microsoft YaHei', 'DejaVu Sans', 'Bitstream Vera Sans', 'Computer Modern Sans Serif', 'Lucida Grande', 'Verdana', 'Geneva', 'Lucid', 'Arial', 'Helvetica', 'Avant Garde', sans-serif; text-anchor: middle" x="380.966818" y="355.394" transform="rotate(-0 380.966818 355.394)">4</text>
     </g>
    </g>
    <g id="xtick_6">
     <g id="line2d_11">
      <path d="M 464.441364 340.144 
L 464.441364 7.2 
" clip-path="url(#p5aa2b6a9a7)" style="fill: none; stroke-dasharray: 2.96,1.28; stroke-dashoffset: 0; stroke: #b0b0b0; stroke-opacity: 0.5; stroke-width: 0.8"/>
     </g>
     <g id="line2d_12">
      <g>
       <use xlink:href="#mfece189f03" x="464.441364" y="340.144" style="stroke: #000000; stroke-width: 0.8"/>
      </g>
     </g>
     <g id="text_6">
      <text style="font: 12px 'SimHei', 'Microsoft YaHei', 'DejaVu Sans', 'Bitstream Vera Sans', 'Computer Modern Sans Serif', 'Lucida Grande', 'Verdana', 'Geneva', 'Lucid', 'Arial', 'Helvetica', 'Avant Garde', sans-serif; text-anchor: middle" x="464.441364" y="355.394" transform="rotate(-0 464.441364 355.394)">5</text>
     </g>
    </g>
    <g id="text_7">
     <!-- $\lambda_{NE}$ -->
     <g transform="translate(244.625 371.534)">
      <text>
       <tspan style="font: oblique 14px 'DejaVu Sans'" x="0" y="-0.359375">λ</tspan>
       <tspan style="font: oblique 9.8px 'DejaVu Sans'" x="8.285156 15.616016" y="1.9375">NE</tspan>
      </text>
     </g>
    </g>
   </g>
   <g id="matplotlib.axis_2">
    <g id="ytick_1">
     <g id="line2d_13">
      <path d="M 26.2 325.010182 
L 485.31 325.010182 
" clip-path="url(#p5aa2b6a9a7)" style="fill: none; stroke-dasharray: 2.96,1.28; stroke-dashoffset: 0; stroke: #b0b0b0; stroke-opacity: 0.5; stroke-width: 0.8"/>
     </g>
     <g id="line2d_14">
      <defs>
       <path id="mc641b69477" d="M 0 0 
L -3.5 0 
" style="stroke: #000000; stroke-width: 0.8"/>
      </defs>
      <g>
       <use xlink:href="#mc641b69477" x="26.2" y="325.010182" style="stroke: #000000; stroke-width: 0.8"/>
      </g>
     </g>
     <g id="text_8">
      <text style="font: 12px 'SimHei', 'Microsoft YaHei', 'DejaVu Sans', 'Bitstream Vera Sans', 'Computer Modern Sans Serif', 'Lucida Grande', 'Verdana', 'Geneva', 'Lucid', 'Arial', 'Helvetica', 'Avant Garde', sans-serif; text-anchor: end" x="19.2" y="329.135182" transform="rotate(-0 19.2 329.135182)">0</text>
     </g>
    </g>
    <g id="ytick_2">
     <g id="line2d_15">
      <path d="M 26.2 283.324964 
L 485.31 283.324964 
" clip-path="url(#p5aa2b6a9a7)" style="fill: none; stroke-dasharray: 2.96,1.28; stroke-dashoffset: 0; stroke: #b0b0b0; stroke-opacity: 0.5; stroke-width: 0.8"/>
     </g>
     <g id="line2d_16">
      <g>
       <use xlink:href="#mc641b69477" x="26.2" y="283.324964" style="stroke: #000000; stroke-width: 0.8"/>
      </g>
     </g>
     <g id="text_9">
      <text style="font: 12px 'SimHei', 'Microsoft YaHei', 'DejaVu Sans', 'Bitstream Vera Sans', 'Computer Modern Sans Serif', 'Lucida Grande', 'Verdana', 'Geneva', 'Lucid', 'Arial', 'Helvetica', 'Avant Garde', sans-serif; text-anchor: end" x="19.2" y="287.449964" transform="rotate(-0 19.2 287.449964)">10</text>
     </g>
    </g>
    <g id="ytick_3">
     <g id="line2d_17">
      <path d="M 26.2 241.639747 
L 485.31 241.639747 
" clip-path="url(#p5aa2b6a9a7)" style="fill: none; stroke-dasharray: 2.96,1.28; stroke-dashoffset: 0; stroke: #b0b0b0; stroke-opacity: 0.5; stroke-width: 0.8"/>
     </g>
     <g id="line2d_18">
      <g>
       <use xlink:href="#mc641b69477" x="26.2" y="241.639747" style="stroke: #000000; stroke-width: 0.8"/>
      </g>
     </g>
     <g id="text_10">
      <text style="font: 12px 'SimHei', 'Microsoft YaHei', 'DejaVu Sans', 'Bitstream Vera Sans', 'Computer Modern Sans Serif', 'Lucida Grande', 'Verdana', 'Geneva', 'Lucid', 'Arial', 'Helvetica', 'Avant Garde', sans-serif; text-anchor: end" x="19.2" y="245.764747" transform="rotate(-0 19.2 245.764747)">20</text>
     </g>
    </g>
    <g id="ytick_4">
     <g id="line2d_19">
      <path d="M 26.2 199.95453 
L 485.31 199.95453 
" clip-path="url(#p5aa2b6a9a7)" style="fill: none; stroke-dasharray: 2.96,1.28; stroke-dashoffset: 0; stroke: #b0b0b0; stroke-opacity: 0.5; stroke-width: 0.8"/>
     </g>
     <g id="line2d_20">
      <g>
       <use xlink:href="#mc641b69477" x="26.2" y="199.95453" style="stroke: #000000; stroke-width: 0.8"/>
      </g>
     </g>
     <g id="text_11">
      <text style="font: 12px 'SimHei', 'Microsoft YaHei', 'DejaVu Sans', 'Bitstream Vera Sans', 'Computer Modern Sans Serif', 'Lucida Grande', 'Verdana', 'Geneva', 'Lucid', 'Arial', 'Helvetica', 'Avant Garde', sans-serif; text-anchor: end" x="19.2" y="204.07953" transform="rotate(-0 19.2 204.07953)">30</text>
     </g>
    </g>
    <g id="ytick_5">
     <g id="line2d_21">
      <path d="M 26.2 158.269312 
L 485.31 158.269312 
" clip-path="url(#p5aa2b6a9a7)" style="fill: none; stroke-dasharray: 2.96,1.28; stroke-dashoffset: 0; stroke: #b0b0b0; stroke-opacity: 0.5; stroke-width: 0.8"/>
     </g>
     <g id="line2d_22">
      <g>
       <use xlink:href="#mc641b69477" x="26.2" y="158.269312" style="stroke: #000000; stroke-width: 0.8"/>
      </g>
     </g>
     <g id="text_12">
      <text style="font: 12px 'SimHei', 'Microsoft YaHei', 'DejaVu Sans', 'Bitstream Vera Sans', 'Computer Modern Sans Serif', 'Lucida Grande', 'Verdana', 'Geneva', 'Lucid', 'Arial', 'Helvetica', 'Avant Garde', sans-serif; text-anchor: end" x="19.2" y="162.394312" transform="rotate(-0 19.2 162.394312)">40</text>
     </g>
    </g>
    <g id="ytick_6">
     <g id="line2d_23">
      <path d="M 26.2 116.584095 
L 485.31 116.584095 
" clip-path="url(#p5aa2b6a9a7)" style="fill: none; stroke-dasharray: 2.96,1.28; stroke-dashoffset: 0; stroke: #b0b0b0; stroke-opacity: 0.5; stroke-width: 0.8"/>
     </g>
     <g id="line2d_24">
      <g>
       <use xlink:href="#mc641b69477" x="26.2" y="116.584095" style="stroke: #000000; stroke-width: 0.8"/>
      </g>
     </g>
     <g id="text_13">
      <text style="font: 12px 'SimHei', 'Microsoft YaHei', 'DejaVu Sans', 'Bitstream Vera Sans', 'Computer Modern Sans Serif', 'Lucida Grande', 'Verdana', 'Geneva', 'Lucid', 'Arial', 'Helvetica', 'Avant Garde', sans-serif; text-anchor: end" x="19.2" y="120.709095" transform="rotate(-0 19.2 120.709095)">50</text>
     </g>
    </g>
    <g id="ytick_7">
     <g id="line2d_25">
      <path d="M 26.2 74.898877 
L 485.31 74.898877 
" clip-path="url(#p5aa2b6a9a7)" style="fill: none; stroke-dasharray: 2.96,1.28; stroke-dashoffset: 0; stroke: #b0b0b0; stroke-opacity: 0.5; stroke-width: 0.8"/>
     </g>
     <g id="line2d_26">
      <g>
       <use xlink:href="#mc641b69477" x="26.2" y="74.898877" style="stroke: #000000; stroke-width: 0.8"/>
      </g>
     </g>
     <g id="text_14">
      <text style="font: 12px 'SimHei', 'Microsoft YaHei', 'DejaVu Sans', 'Bitstream Vera Sans', 'Computer Modern Sans Serif', 'Lucida Grande', 'Verdana', 'Geneva', 'Lucid', 'Arial', 'Helvetica', 'Avant Garde', sans-serif; text-anchor: end" x="19.2" y="79.023877" transform="rotate(-0 19.2 79.023877)">60</text>
     </g>
    </g>
    <g id="ytick_8">
     <g id="line2d_27">
      <path d="M 26.2 33.21366 
L 485.31 33.21366 
" clip-path="url(#p5aa2b6a9a7)" style="fill: none; stroke-dasharray: 2.96,1.28; stroke-dashoffset: 0; stroke: #b0b0b0; stroke-opacity: 0.5; stroke-width: 0.8"/>
     </g>
     <g id="line2d_28">
      <g>
       <use xlink:href="#mc641b69477" x="26.2" y="33.21366" style="stroke: #000000; stroke-width: 0.8"/>
      </g>
     </g>
     <g id="text_15">
      <text style="font: 12px 'SimHei', 'Microsoft YaHei', 'DejaVu Sans', 'Bitstream Vera Sans', 'Computer Modern Sans Serif', 'Lucida Grande', 'Verdana', 'Geneva', 'Lucid', 'Arial', 'Helvetica', 'Avant Garde', sans-serif; text-anchor: end" x="19.2" y="37.33866" transform="rotate(-0 19.2 37.33866)">70</text>
     </g>
    </g>
   </g>
   <g id="line2d_29">
    <path d="M 47.068636 38.799479 
L 50.57597 39.006154 
L 54.083304 39.212828 
L 57.590638 39.419503 
L 61.097972 39.626177 
L 64.605306 39.832852 
L 68.112639 40.039527 
L 71.619973 40.246201 
L 75.127307 40.452876 
L 78.634641 40.659551 
L 82.141975 40.866225 
L 85.649309 41.0729 
L 89.156642 41.279574 
L 92.663976 41.486249 
L 96.17131 41.692924 
L 99.678644 41.899598 
L 103.185978 42.106273 
L 106.693312 42.312947 
L 110.200646 42.519622 
L 113.707979 42.726297 
L 117.215313 42.932971 
L 120.722647 43.139646 
L 124.229981 43.34632 
L 127.737315 43.552995 
L 131.244649 43.682254 
L 134.751982 43.501852 
L 138.259316 43.321449 
L 141.76665 43.141047 
L 145.273984 42.960645 
L 148.781318 42.780242 
L 152.288652 42.59984 
L 155.795985 42.419437 
L 159.303319 42.239035 
L 162.810653 42.058633 
L 166.317987 41.87823 
L 169.825321 41.697828 
L 173.332655 41.517425 
L 176.839989 41.337023 
L 180.347322 41.15662 
L 183.854656 40.976218 
L 187.36199 40.795816 
L 190.869324 40.615413 
L 194.376658 40.435011 
L 197.883992 40.254608 
L 201.391325 40.074206 
L 204.898659 39.893804 
L 208.405993 39.713401 
L 211.913327 39.532999 
L 215.420661 39.227891 
L 218.927995 38.735725 
L 222.435328 38.243559 
L 225.942662 37.751394 
L 229.449996 37.259228 
L 232.95733 36.767062 
L 236.464664 36.274896 
L 239.971998 35.78273 
L 243.479332 35.290565 
L 246.986665 34.798399 
L 250.493999 34.306233 
L 254.001333 33.814067 
L 257.508667 33.321901 
L 261.016001 32.829736 
L 264.523335 32.33757 
L 268.030668 31.845404 
L 271.538002 31.353238 
L 275.045336 30.861072 
L 278.55267 30.368907 
L 282.060004 29.876741 
L 285.567338 29.384575 
L 289.074672 28.892409 
L 292.582005 28.400243 
L 296.089339 27.908078 
L 299.596673 27.575647 
L 303.104007 27.349706 
L 306.611341 27.123765 
L 310.118675 26.897824 
L 313.626008 26.671883 
L 317.133342 26.445942 
L 320.640676 26.220001 
L 324.14801 25.994061 
L 327.655344 25.76812 
L 331.162678 25.542179 
L 334.670011 25.316238 
L 338.177345 25.090297 
L 341.684679 24.864356 
L 345.192013 24.638415 
L 348.699347 24.412474 
L 352.206681 24.186533 
L 355.714015 23.960593 
L 359.221348 23.734652 
L 362.728682 23.508711 
L 366.236016 23.28277 
L 369.74335 23.056829 
L 373.250684 22.830888 
L 376.758018 22.604947 
L 380.265351 22.379006 
L 383.772685 22.566415 
L 387.280019 22.85716 
L 390.787353 23.147906 
L 394.294687 23.438652 
L 397.802021 23.729397 
L 401.309354 24.020143 
L 404.816688 24.310888 
L 408.324022 24.601634 
L 411.831356 24.89238 
L 415.33869 25.183125 
L 418.846024 25.473871 
L 422.353358 25.764617 
L 425.860691 26.055362 
L 429.368025 26.346108 
L 432.875359 26.636854 
L 436.382693 26.927599 
L 439.890027 27.218345 
L 443.397361 27.50909 
L 446.904694 27.799836 
L 450.412028 28.090582 
L 453.919362 28.381327 
L 457.426696 28.672073 
L 460.93403 28.962819 
L 464.441364 29.253564 
" clip-path="url(#p5aa2b6a9a7)" style="fill: none; stroke: #66c2a5; stroke-width: 2; stroke-linecap: square"/>
   </g>
   <g id="line2d_30">
    <path d="M 47.068636 146.26397 
L 50.57597 146.397082 
L 54.083304 146.530194 
L 57.590638 146.663307 
L 61.097972 146.796419 
L 64.605306 146.929532 
L 68.112639 147.062644 
L 71.619973 147.195757 
L 75.127307 147.328869 
L 78.634641 147.461982 
L 82.141975 147.595094 
L 85.649309 147.728207 
L 89.156642 147.861319 
L 92.663976 147.994432 
L 96.17131 148.127544 
L 99.678644 148.260656 
L 103.185978 148.393769 
L 106.693312 148.526881 
L 110.200646 148.659994 
L 113.707979 148.793106 
L 117.215313 148.926219 
L 120.722647 149.059331 
L 124.229981 149.192444 
L 127.737315 149.325556 
L 131.244649 149.402972 
L 134.751982 149.257599 
L 138.259316 149.112226 
L 141.76665 148.966853 
L 145.273984 148.82148 
L 148.781318 148.676107 
L 152.288652 148.530735 
L 155.795985 148.385362 
L 159.303319 148.239989 
L 162.810653 148.094616 
L 166.317987 147.949243 
L 169.825321 147.803871 
L 173.332655 147.658498 
L 176.839989 147.513125 
L 180.347322 147.367752 
L 183.854656 147.222379 
L 187.36199 147.077006 
L 190.869324 146.931634 
L 194.376658 146.786261 
L 197.883992 146.640888 
L 201.391325 146.495515 
L 204.898659 146.350142 
L 208.405993 146.20477 
L 211.913327 146.059397 
L 215.420661 145.758493 
L 218.927995 145.224291 
L 222.435328 144.69009 
L 225.942662 144.155889 
L 229.449996 143.621687 
L 232.95733 143.087486 
L 236.464664 142.553285 
L 239.971998 142.019083 
L 243.479332 141.484882 
L 246.986665 140.950681 
L 250.493999 140.416479 
L 254.001333 139.882278 
L 257.508667 139.348077 
L 261.016001 138.813875 
L 264.523335 138.279674 
L 268.030668 137.745473 
L 271.538002 137.211271 
L 275.045336 136.67707 
L 278.55267 136.142869 
L 282.060004 135.608668 
L 285.567338 135.074466 
L 289.074672 134.540265 
L 292.582005 134.006064 
L 296.089339 133.471862 
L 299.596673 133.120515 
L 303.104007 132.891072 
L 306.611341 132.661628 
L 310.118675 132.432184 
L 313.626008 132.20274 
L 317.133342 131.973296 
L 320.640676 131.743852 
L 324.14801 131.514409 
L 327.655344 131.284965 
L 331.162678 131.055521 
L 334.670011 130.826077 
L 338.177345 130.596633 
L 341.684679 130.367189 
L 345.192013 130.137745 
L 348.699347 129.908302 
L 352.206681 129.678858 
L 355.714015 129.449414 
L 359.221348 129.21997 
L 362.728682 128.990526 
L 366.236016 128.761082 
L 369.74335 128.531639 
L 373.250684 128.302195 
L 376.758018 128.072751 
L 380.265351 127.843307 
L 383.772685 128.077655 
L 387.280019 128.427951 
L 390.787353 128.778247 
L 394.294687 129.128543 
L 397.802021 129.478839 
L 401.309354 129.829135 
L 404.816688 130.179431 
L 408.324022 130.529727 
L 411.831356 130.880023 
L 415.33869 131.230318 
L 418.846024 131.580614 
L 422.353358 131.93091 
L 425.860691 132.281206 
L 429.368025 132.631502 
L 432.875359 132.981798 
L 436.382693 133.332094 
L 439.890027 133.68239 
L 443.397361 134.032686 
L 446.904694 134.382982 
L 450.412028 134.733278 
L 453.919362 135.083574 
L 457.426696 135.43387 
L 460.93403 135.784166 
L 464.441364 136.134462 
" clip-path="url(#p5aa2b6a9a7)" style="fill: none; stroke: #e78ac3; stroke-width: 2; stroke-linecap: square"/>
   </g>
   <g id="line2d_31">
    <path d="M 47.068636 141.928707 
L 50.57597 142.100352 
L 54.083304 142.271997 
L 57.590638 142.443642 
L 61.097972 142.615287 
L 64.605306 142.786932 
L 68.112639 142.958577 
L 71.619973 143.130222 
L 75.127307 143.301867 
L 78.634641 143.473512 
L 82.141975 143.645157 
L 85.649309 143.816802 
L 89.156642 143.988447 
L 92.663976 144.160092 
L 96.17131 144.331737 
L 99.678644 144.503382 
L 103.185978 144.675027 
L 106.693312 144.846672 
L 110.200646 145.018317 
L 113.707979 145.189962 
L 117.215313 145.361607 
L 120.722647 145.533252 
L 124.229981 145.704897 
L 127.737315 145.876542 
L 131.244649 145.964116 
L 134.751982 145.715406 
L 138.259316 145.466696 
L 141.76665 145.217986 
L 145.273984 144.969276 
L 148.781318 144.720566 
L 152.288652 144.471855 
L 155.795985 144.223145 
L 159.303319 143.974435 
L 162.810653 143.725725 
L 166.317987 143.477015 
L 169.825321 143.228305 
L 173.332655 142.979595 
L 176.839989 142.730885 
L 180.347322 142.482175 
L 183.854656 142.233464 
L 187.36199 141.984754 
L 190.869324 141.736044 
L 194.376658 141.487334 
L 197.883992 141.238624 
L 201.391325 140.989914 
L 204.898659 140.741204 
L 208.405993 140.492494 
L 211.913327 140.243783 
L 215.420661 139.826231 
L 218.927995 139.155414 
L 222.435328 138.484597 
L 225.942662 137.81378 
L 229.449996 137.142964 
L 232.95733 136.472147 
L 236.464664 135.80133 
L 239.971998 135.130514 
L 243.479332 134.459697 
L 246.986665 133.78888 
L 250.493999 133.118063 
L 254.001333 132.447247 
L 257.508667 131.77643 
L 261.016001 131.105613 
L 264.523335 130.434796 
L 268.030668 129.76398 
L 271.538002 129.093163 
L 275.045336 128.422346 
L 278.55267 127.751529 
L 282.060004 127.080713 
L 285.567338 126.409896 
L 289.074672 125.739079 
L 292.582005 125.068263 
L 296.089339 124.397446 
L 299.596673 123.995656 
L 303.104007 123.773218 
L 306.611341 123.55078 
L 310.118675 123.328343 
L 313.626008 123.105905 
L 317.133342 122.883467 
L 320.640676 122.661029 
L 324.14801 122.438591 
L 327.655344 122.216153 
L 331.162678 121.993715 
L 334.670011 121.771277 
L 338.177345 121.548839 
L 341.684679 121.326401 
L 345.192013 121.103963 
L 348.699347 120.881525 
L 352.206681 120.659087 
L 355.714015 120.43665 
L 359.221348 120.214212 
L 362.728682 119.991774 
L 366.236016 119.769336 
L 369.74335 119.546898 
L 373.250684 119.32446 
L 376.758018 119.102022 
L 380.265351 118.879584 
L 383.772685 119.108327 
L 387.280019 119.449866 
L 390.787353 119.791404 
L 394.294687 120.132943 
L 397.802021 120.474482 
L 401.309354 120.81602 
L 404.816688 121.157559 
L 408.324022 121.499097 
L 411.831356 121.840636 
L 415.33869 122.182174 
L 418.846024 122.523713 
L 422.353358 122.865251 
L 425.860691 123.20679 
L 429.368025 123.548328 
L 432.875359 123.889867 
L 436.382693 124.231406 
L 439.890027 124.572944 
L 443.397361 124.914483 
L 446.904694 125.256021 
L 450.412028 125.59756 
L 453.919362 125.939098 
L 457.426696 126.280637 
L 460.93403 126.622175 
L 464.441364 126.963714 
" clip-path="url(#p5aa2b6a9a7)" style="fill: none; stroke: #e5c494; stroke-width: 2; stroke-linecap: square"/>
   </g>
   <g id="patch_3">
    <path d="M 26.2 340.144 
L 26.2 7.2 
" style="fill: none; stroke: #000000; stroke-width: 0.8; stroke-linejoin: miter; stroke-linecap: square"/>
   </g>
   <g id="patch_4">
    <path d="M 485.31 340.144 
L 485.31 7.2 
" style="fill: none; stroke: #000000; stroke-width: 0.8; stroke-linejoin: miter; stroke-linecap: square"/>
   </g>
   <g id="patch_5">
    <path d="M 26.2 340.144 
L 485.31 340.144 
" style="fill: none; stroke: #000000; stroke-width: 0.8; stroke-linejoin: miter; stroke-linecap: square"/>
   </g>
   <g id="patch_6">
    <path d="M 26.2 7.2 
L 485.31 7.2 
" style="fill: none; stroke: #000000; stroke-width: 0.8; stroke-linejoin: miter; stroke-linecap: square"/>
   </g>
   <g id="text_16">
    <text style="fill: #66c2a5; font: 700 10px 'SimHei', 'Microsoft YaHei', 'DejaVu Sans', 'Bitstream Vera Sans', 'Computer Modern Sans Serif', 'Lucida Grande', 'Verdana', 'Geneva', 'Lucid', 'Arial', 'Helvetica', 'Avant Garde', sans-serif; text-anchor: middle" x="380.966818" y="21.083818" transform="rotate(-0 380.966818 21.083818)">72.61</text>
   </g>
   <g id="text_17">
    <text style="fill: #e78ac3; font: 700 10px 'SimHei', 'Microsoft YaHei', 'DejaVu Sans', 'Bitstream Vera Sans', 'Computer Modern Sans Serif', 'Lucida Grande', 'Verdana', 'Geneva', 'Lucid', 'Arial', 'Helvetica', 'Avant Garde', sans-serif; text-anchor: middle" x="380.966818" y="126.547418" transform="rotate(-0 380.966818 126.547418)">47.31</text>
   </g>
   <g id="text_18">
    <text style="fill: #e5c494; font: 700 10px 'SimHei', 'Microsoft YaHei', 'DejaVu Sans', 'Bitstream Vera Sans', 'Computer Modern Sans Serif', 'Lucida Grande', 'Verdana', 'Geneva', 'Lucid', 'Arial', 'Helvetica', 'Avant Garde', sans-serif; text-anchor: middle" x="380.966818" y="117.585096" transform="rotate(-0 380.966818 117.585096)">49.46</text>
   </g>
   <g id="PathCollection_1">
    <defs>
     <path id="m72e211ceec" d="M 0 2.95804 
C 0.784481 2.95804 1.536938 2.646362 2.09165 2.09165 
C 2.646362 1.536938 2.95804 0.784481 2.95804 0 
C 2.95804 -0.784481 2.646362 -1.536938 2.09165 -2.09165 
C 1.536938 -2.646362 0.784481 -2.95804 0 -2.95804 
C -0.784481 -2.95804 -1.536938 -2.646362 -2.09165 -2.09165 
C -2.646362 -1.536938 -2.95804 -0.784481 -2.95804 0 
C -2.95804 0.784481 -2.646362 1.536938 -2.09165 2.09165 
C -1.536938 2.646362 -0.784481 2.95804 0 2.95804 
z
" style="stroke: #66c2a5"/>
    </defs>
    <g clip-path="url(#p5aa2b6a9a7)">
     <use xlink:href="#m72e211ceec" x="380.966818" y="22.333818" style="fill: #66c2a5; stroke: #66c2a5"/>
    </g>
   </g>
   <g id="PathCollection_2">
    <defs>
     <path id="mcdcf3bc936" d="M 0 2.95804 
C 0.784481 2.95804 1.536938 2.646362 2.09165 2.09165 
C 2.646362 1.536938 2.95804 0.784481 2.95804 0 
C 2.95804 -0.784481 2.646362 -1.536938 2.09165 -2.09165 
C 1.536938 -2.646362 0.784481 -2.95804 0 -2.95804 
C -0.784481 -2.95804 -1.536938 -2.646362 -2.09165 -2.09165 
C -2.646362 -1.536938 -2.95804 -0.784481 -2.95804 0 
C -2.95804 0.784481 -2.646362 1.536938 -2.09165 2.09165 
C -1.536938 2.646362 -0.784481 2.95804 0 2.95804 
z
" style="stroke: #e78ac3"/>
    </defs>
    <g clip-path="url(#p5aa2b6a9a7)">
     <use xlink:href="#mcdcf3bc936" x="380.966818" y="127.797418" style="fill: #e78ac3; stroke: #e78ac3"/>
    </g>
   </g>
   <g id="PathCollection_3">
    <defs>
     <path id="mead50fec25" d="M 0 2.95804 
C 0.784481 2.95804 1.536938 2.646362 2.09165 2.09165 
C 2.646362 1.536938 2.95804 0.784481 2.95804 0 
C 2.95804 -0.784481 2.646362 -1.536938 2.09165 -2.09165 
C 1.536938 -2.646362 0.784481 -2.95804 0 -2.95804 
C -0.784481 -2.95804 -1.536938 -2.646362 -2.09165 -2.09165 
C -2.646362 -1.536938 -2.95804 -0.784481 -2.95804 0 
C -2.95804 0.784481 -2.646362 1.536938 -2.09165 2.09165 
C -1.536938 2.646362 -0.784481 2.95804 0 2.95804 
z
" style="stroke: #e5c494"/>
    </defs>
    <g clip-path="url(#p5aa2b6a9a7)">
     <use xlink:href="#mead50fec25" x="380.966818" y="118.835096" style="fill: #e5c494; stroke: #e5c494"/>
    </g>
   </g>
   <g id="legend_1">
    <g id="patch_7">
     <path d="M 34.6 334.144 
L 91 334.144 
Q 93.4 334.144 93.4 331.744 
L 93.4 285.244 
Q 93.4 282.844 91 282.844 
L 34.6 282.844 
Q 32.2 282.844 32.2 285.244 
L 32.2 331.744 
Q 32.2 334.144 34.6 334.144 
z
" style="fill: #ffffff; opacity: 0.8; stroke: #cccccc; stroke-linejoin: miter"/>
    </g>
    <g id="line2d_32">
     <path d="M 37 291.844 
L 49 291.844 
L 61 291.844 
" style="fill: none; stroke: #66c2a5; stroke-width: 2; stroke-linecap: square"/>
    </g>
    <g id="text_19">
     <text style="font: 12px 'SimHei', 'Microsoft YaHei', 'DejaVu Sans', 'Bitstream Vera Sans', 'Computer Modern Sans Serif', 'Lucida Grande', 'Verdana', 'Geneva', 'Lucid', 'Arial', 'Helvetica', 'Avant Garde', sans-serif; text-anchor: start" x="70.6" y="296.044" transform="rotate(-0 70.6 296.044)">ACC</text>
    </g>
    <g id="line2d_33">
     <path d="M 37 307.744 
L 49 307.744 
L 61 307.744 
" style="fill: none; stroke: #e78ac3; stroke-width: 2; stroke-linecap: square"/>
    </g>
    <g id="text_20">
     <text style="font: 12px 'SimHei', 'Microsoft YaHei', 'DejaVu Sans', 'Bitstream Vera Sans', 'Computer Modern Sans Serif', 'Lucida Grande', 'Verdana', 'Geneva', 'Lucid', 'Arial', 'Helvetica', 'Avant Garde', sans-serif; text-anchor: start" x="70.6" y="311.944" transform="rotate(-0 70.6 311.944)">NMI</text>
    </g>
    <g id="line2d_34">
     <path d="M 37 323.644 
L 49 323.644 
L 61 323.644 
" style="fill: none; stroke: #e5c494; stroke-width: 2; stroke-linecap: square"/>
    </g>
    <g id="text_21">
     <text style="font: 12px 'SimHei', 'Microsoft YaHei', 'DejaVu Sans', 'Bitstream Vera Sans', 'Computer Modern Sans Serif', 'Lucida Grande', 'Verdana', 'Geneva', 'Lucid', 'Arial', 'Helvetica', 'Avant Garde', sans-serif; text-anchor: start" x="70.6" y="327.844" transform="rotate(-0 70.6 327.844)">ARI</text>
    </g>
   </g>
  </g>
 </g>
 <defs>
  <clipPath id="p5aa2b6a9a7">
   <rect x="26.2" y="7.2" width="459.11" height="332.944"/>
  </clipPath>
 </defs>
</svg>
