<?xml version="1.0" encoding="utf-8" standalone="no"?>
<!DOCTYPE svg PUBLIC "-//W3C//DTD SVG 1.1//EN"
  "http://www.w3.org/Graphics/SVG/1.1/DTD/svg11.dtd">
<svg xmlns:xlink="http://www.w3.org/1999/xlink" width="521.31pt" height="391.095592pt" viewBox="0 0 521.31 391.095592" xmlns="http://www.w3.org/2000/svg" version="1.1">
 <metadata>
  <rdf:RDF xmlns:dc="http://purl.org/dc/elements/1.1/" xmlns:cc="http://creativecommons.org/ns#" xmlns:rdf="http://www.w3.org/1999/02/22-rdf-syntax-ns#">
   <cc:Work>
    <dc:type rdf:resource="http://purl.org/dc/dcmitype/StillImage"/>
    <dc:date>2026-03-11T22:35:33.398855</dc:date>
    <dc:format>image/svg+xml</dc:format>
    <dc:creator>
     <cc:Agent>
      <dc:title>Matplotlib v3.7.1, https://matplotlib.org/</dc:title>
     </cc:Agent>
    </dc:creator>
   </cc:Work>
  </rdf:RDF>
 </metadata>
 <defs>
  <style type="text/css">*{stroke-linejoin: round; stroke-linecap: butt}</style>
 </defs>
 <g id="figure_1">
  <g id="patch_1">
   <path d="M 0 391.095592 
L 521.31 391.095592 
L 521.31 0 
L 0 0 
z
" style="fill: #ffffff"/>
  </g>
  <g id="axes_1">
   <g id="patch_2">
    <path d="M 26.2 351.661217 
L 514.11 351.661217 
L 514.11 10.797874 
L 26.2 10.797874 
z
" style="fill: #ffffff"/>
   </g>
   <g id="PolyCollection_1">
    <defs>
     <path id="mcbc654a1d6" d="M 48.377727 -366.228573 
L 48.377727 -39.434375 
L 49.861187 -39.434375 
L 51.344647 -39.434375 
L 52.828107 -39.434375 
L 54.311567 -39.434375 
L 55.795027 -39.434375 
L 57.278487 -39.434375 
L 58.761947 -39.434375 
L 60.245407 -39.434375 
L 61.728867 -39.434375 
L 63.212327 -39.434375 
L 64.695787 -39.434375 
L 66.179247 -39.434375 
L 67.662708 -39.434375 
L 69.146168 -39.434375 
L 70.629628 -39.434375 
L 72.113088 -39.434375 
L 73.596548 -39.434375 
L 75.080008 -39.434375 
L 76.563468 -39.434375 
L 78.046928 -39.434375 
L 79.530388 -39.434375 
L 81.013848 -39.434375 
L 82.497308 -39.434375 
L 83.980768 -39.434375 
L 85.464228 -39.434375 
L 86.947688 -39.434375 
L 88.431148 -39.434375 
L 89.914608 -39.434375 
L 91.398068 -39.434375 
L 92.881528 -39.434375 
L 94.364988 -39.434375 
L 95.848448 -39.434375 
L 97.331908 -39.434375 
L 98.815368 -39.434375 
L 100.298828 -39.434375 
L 101.782288 -39.434375 
L 103.265748 -39.434375 
L 104.749208 -39.434375 
L 106.232668 -39.434375 
L 107.716128 -39.434375 
L 109.199588 -39.434375 
L 110.683048 -39.434375 
L 112.166508 -39.434375 
L 113.649968 -39.434375 
L 115.133428 -39.434375 
L 116.616888 -39.434375 
L 118.100348 -39.434375 
L 119.583808 -39.434375 
L 121.067268 -39.434375 
L 122.550728 -39.434375 
L 124.034188 -39.434375 
L 125.517648 -39.434375 
L 127.001108 -39.434375 
L 128.484568 -39.434375 
L 129.968028 -39.434375 
L 131.451488 -39.434375 
L 132.934948 -39.434375 
L 134.418408 -39.434375 
L 135.901868 -39.434375 
L 137.385328 -39.434375 
L 138.868788 -39.434375 
L 140.352248 -39.434375 
L 141.835708 -39.434375 
L 143.319168 -39.434375 
L 144.802628 -39.434375 
L 146.286088 -39.434375 
L 147.769548 -39.434375 
L 149.253009 -39.434375 
L 150.736469 -39.434375 
L 152.219929 -39.434375 
L 153.703389 -39.434375 
L 155.186849 -39.434375 
L 156.670309 -39.434375 
L 158.153769 -39.434375 
L 159.637229 -39.434375 
L 161.120689 -39.434375 
L 162.604149 -39.434375 
L 164.087609 -39.434375 
L 165.571069 -39.434375 
L 167.054529 -39.434375 
L 168.537989 -39.434375 
L 170.021449 -39.434375 
L 171.504909 -39.434375 
L 172.988369 -39.434375 
L 174.471829 -39.434375 
L 175.955289 -39.434375 
L 177.438749 -39.434375 
L 178.922209 -39.434375 
L 180.405669 -39.434375 
L 181.889129 -39.434375 
L 183.372589 -39.434375 
L 184.856049 -39.434375 
L 186.339509 -39.434375 
L 187.822969 -39.434375 
L 189.306429 -39.434375 
L 190.789889 -39.434375 
L 192.273349 -39.434375 
L 193.756809 -39.434375 
L 195.240269 -39.434375 
L 196.723729 -39.434375 
L 198.207189 -39.434375 
L 199.690649 -39.434375 
L 201.174109 -39.434375 
L 202.657569 -39.434375 
L 204.141029 -39.434375 
L 205.624489 -39.434375 
L 207.107949 -39.434375 
L 208.591409 -39.434375 
L 210.074869 -39.434375 
L 211.558329 -39.434375 
L 213.041789 -39.434375 
L 214.525249 -39.434375 
L 216.008709 -39.434375 
L 217.492169 -39.434375 
L 218.975629 -39.434375 
L 220.459089 -39.434375 
L 221.942549 -39.434375 
L 223.426009 -39.434375 
L 224.909469 -39.434375 
L 226.392929 -39.434375 
L 227.876389 -39.434375 
L 229.359849 -39.434375 
L 230.84331 -39.434375 
L 232.32677 -39.434375 
L 233.81023 -39.434375 
L 235.29369 -39.434375 
L 236.77715 -39.434375 
L 238.26061 -39.434375 
L 239.74407 -39.434375 
L 241.22753 -39.434375 
L 242.71099 -39.434375 
L 244.19445 -39.434375 
L 245.67791 -39.434375 
L 247.16137 -39.434375 
L 248.64483 -39.434375 
L 250.12829 -39.434375 
L 251.61175 -39.434375 
L 253.09521 -39.434375 
L 254.57867 -39.434375 
L 256.06213 -39.434375 
L 257.54559 -39.434375 
L 259.02905 -39.434375 
L 260.51251 -39.434375 
L 261.99597 -39.434375 
L 263.47943 -39.434375 
L 264.96289 -39.434375 
L 266.44635 -39.434375 
L 267.92981 -39.434375 
L 269.41327 -39.434375 
L 270.89673 -39.434375 
L 272.38019 -39.434375 
L 273.86365 -39.434375 
L 275.34711 -39.434375 
L 276.83057 -39.434375 
L 278.31403 -39.434375 
L 279.79749 -39.434375 
L 281.28095 -39.434375 
L 282.76441 -39.434375 
L 284.24787 -39.434375 
L 285.73133 -39.434375 
L 287.21479 -39.434375 
L 288.69825 -39.434375 
L 290.18171 -39.434375 
L 291.66517 -39.434375 
L 293.14863 -39.434375 
L 294.63209 -39.434375 
L 296.11555 -39.434375 
L 297.59901 -39.434375 
L 299.08247 -39.434375 
L 300.56593 -39.434375 
L 302.04939 -39.434375 
L 303.53285 -39.434375 
L 305.01631 -39.434375 
L 306.49977 -39.434375 
L 307.98323 -39.434375 
L 309.46669 -39.434375 
L 310.950151 -39.434375 
L 312.433611 -39.434375 
L 313.917071 -39.434375 
L 315.400531 -39.434375 
L 316.883991 -39.434375 
L 318.367451 -39.434375 
L 319.850911 -39.434375 
L 321.334371 -39.434375 
L 322.817831 -39.434375 
L 324.301291 -39.434375 
L 325.784751 -39.434375 
L 327.268211 -39.434375 
L 328.751671 -39.434375 
L 330.235131 -39.434375 
L 331.718591 -39.434375 
L 333.202051 -39.434375 
L 334.685511 -39.434375 
L 336.168971 -39.434375 
L 337.652431 -39.434375 
L 339.135891 -39.434375 
L 340.619351 -39.434375 
L 342.102811 -39.434375 
L 343.586271 -39.434375 
L 345.069731 -39.434375 
L 346.553191 -39.434375 
L 348.036651 -39.434375 
L 349.520111 -39.434375 
L 351.003571 -39.434375 
L 352.487031 -39.434375 
L 353.970491 -39.434375 
L 355.453951 -39.434375 
L 356.937411 -39.434375 
L 358.420871 -39.434375 
L 359.904331 -39.434375 
L 361.387791 -39.434375 
L 362.871251 -39.434375 
L 364.354711 -39.434375 
L 365.838171 -39.434375 
L 367.321631 -39.434375 
L 368.805091 -39.434375 
L 370.288551 -39.434375 
L 371.772011 -39.434375 
L 373.255471 -39.434375 
L 374.738931 -39.434375 
L 376.222391 -39.434375 
L 377.705851 -39.434375 
L 379.189311 -39.434375 
L 380.672771 -39.434375 
L 382.156231 -39.434375 
L 383.639691 -39.434375 
L 385.123151 -39.434375 
L 386.606611 -39.434375 
L 388.090071 -39.434375 
L 389.573531 -39.434375 
L 391.056991 -39.434375 
L 392.540452 -39.434375 
L 394.023912 -39.434375 
L 395.507372 -39.434375 
L 396.990832 -39.434375 
L 398.474292 -39.434375 
L 399.957752 -39.434375 
L 401.441212 -39.434375 
L 402.924672 -39.434375 
L 404.408132 -39.434375 
L 405.891592 -39.434375 
L 407.375052 -39.434375 
L 408.858512 -39.434375 
L 410.341972 -39.434375 
L 411.825432 -39.434375 
L 413.308892 -39.434375 
L 414.792352 -39.434375 
L 416.275812 -39.434375 
L 417.759272 -39.434375 
L 419.242732 -39.434375 
L 420.726192 -39.434375 
L 422.209652 -39.434375 
L 423.693112 -39.434375 
L 425.176572 -39.434375 
L 426.660032 -39.434375 
L 428.143492 -39.434375 
L 429.626952 -39.434375 
L 431.110412 -39.434375 
L 432.593872 -39.434375 
L 434.077332 -39.434375 
L 435.560792 -39.434375 
L 437.044252 -39.434375 
L 438.527712 -39.434375 
L 440.011172 -39.434375 
L 441.494632 -39.434375 
L 442.978092 -39.434375 
L 444.461552 -39.434375 
L 445.945012 -39.434375 
L 447.428472 -39.434375 
L 448.911932 -39.434375 
L 450.395392 -39.434375 
L 451.878852 -39.434375 
L 453.362312 -39.434375 
L 454.845772 -39.434375 
L 456.329232 -39.434375 
L 457.812692 -39.434375 
L 459.296152 -39.434375 
L 460.779612 -39.434375 
L 462.263072 -39.434375 
L 463.746532 -39.434375 
L 465.229992 -39.434375 
L 466.713452 -39.434375 
L 468.196912 -39.434375 
L 469.680372 -39.434375 
L 471.163832 -39.434375 
L 472.647292 -39.434375 
L 474.130753 -39.434375 
L 475.614213 -39.434375 
L 477.097673 -39.434375 
L 478.581133 -39.434375 
L 480.064593 -39.434375 
L 481.548053 -39.434375 
L 483.031513 -39.434375 
L 484.514973 -39.434375 
L 485.998433 -39.434375 
L 487.481893 -39.434375 
L 488.965353 -39.434375 
L 490.448813 -39.434375 
L 491.932273 -39.434375 
L 491.932273 -370.314661 
L 491.932273 -370.314661 
L 490.448813 -370.562032 
L 488.965353 -370.803919 
L 487.481893 -371.040367 
L 485.998433 -371.271419 
L 484.514973 -371.497117 
L 483.031513 -371.717505 
L 481.548053 -371.932627 
L 480.064593 -372.142525 
L 478.581133 -372.347243 
L 477.097673 -372.546824 
L 475.614213 -372.741312 
L 474.130753 -372.930749 
L 472.647292 -373.115178 
L 471.163832 -373.294644 
L 469.680372 -373.469189 
L 468.196912 -373.638856 
L 466.713452 -373.803689 
L 465.229992 -373.963732 
L 463.746532 -374.119026 
L 462.263072 -374.269616 
L 460.779612 -374.415545 
L 459.296152 -374.556855 
L 457.812692 -374.693591 
L 456.329232 -374.825796 
L 454.845772 -374.953512 
L 453.362312 -375.076783 
L 451.878852 -375.195652 
L 450.395392 -375.310163 
L 448.911932 -375.420358 
L 447.428472 -375.526282 
L 445.945012 -375.627976 
L 444.461552 -375.725485 
L 442.978092 -375.818852 
L 441.494632 -375.908119 
L 440.011172 -375.993331 
L 438.527712 -376.07453 
L 437.044252 -376.15176 
L 435.560792 -376.225064 
L 434.077332 -376.294485 
L 432.593872 -376.360066 
L 431.110412 -376.421851 
L 429.626952 -376.479883 
L 428.143492 -376.534205 
L 426.660032 -376.584861 
L 425.176572 -376.631893 
L 423.693112 -376.675345 
L 422.209652 -376.71526 
L 420.726192 -376.751681 
L 419.242732 -376.784652 
L 417.759272 -376.814216 
L 416.275812 -376.840416 
L 414.792352 -376.863296 
L 413.308892 -376.882898 
L 411.825432 -376.899265 
L 410.341972 -376.912442 
L 408.858512 -376.922472 
L 407.375052 -376.929396 
L 405.891592 -376.93326 
L 404.408132 -376.934106 
L 402.924672 -376.931977 
L 401.441212 -376.926916 
L 399.957752 -376.918968 
L 398.474292 -376.908174 
L 396.990832 -376.894579 
L 395.507372 -376.878225 
L 394.023912 -376.859156 
L 392.540452 -376.837415 
L 391.056991 -376.813046 
L 389.573531 -376.78609 
L 388.090071 -376.756593 
L 386.606611 -376.724597 
L 385.123151 -376.690145 
L 383.639691 -376.65328 
L 382.156231 -376.614046 
L 380.672771 -376.572486 
L 379.189311 -376.528644 
L 377.705851 -376.482562 
L 376.222391 -376.434283 
L 374.738931 -376.383852 
L 373.255471 -376.331311 
L 371.772011 -376.276703 
L 370.288551 -376.220072 
L 368.805091 -376.161461 
L 367.321631 -376.100914 
L 365.838171 -376.038472 
L 364.354711 -375.974181 
L 362.871251 -375.908082 
L 361.387791 -375.840219 
L 359.904331 -375.770636 
L 358.420871 -375.699376 
L 356.937411 -375.626481 
L 355.453951 -375.551996 
L 353.970491 -375.475963 
L 352.487031 -375.398426 
L 351.003571 -375.319428 
L 349.520111 -375.239011 
L 348.036651 -375.157221 
L 346.553191 -375.074099 
L 345.069731 -374.989688 
L 343.586271 -374.904033 
L 342.102811 -374.817177 
L 340.619351 -374.729161 
L 339.135891 -374.640031 
L 337.652431 -374.549829 
L 336.168971 -374.458598 
L 334.685511 -374.366382 
L 333.202051 -374.273224 
L 331.718591 -374.179167 
L 330.235131 -374.084254 
L 328.751671 -373.988529 
L 327.268211 -373.892034 
L 325.784751 -373.794814 
L 324.301291 -373.696911 
L 322.817831 -373.598369 
L 321.334371 -373.49923 
L 319.850911 -373.399538 
L 318.367451 -373.299337 
L 316.883991 -373.19867 
L 315.400531 -373.097579 
L 313.917071 -372.996108 
L 312.433611 -372.8943 
L 310.950151 -372.792199 
L 309.46669 -372.689848 
L 307.98323 -372.58729 
L 306.49977 -372.484568 
L 305.01631 -372.381725 
L 303.53285 -372.278806 
L 302.04939 -372.175852 
L 300.56593 -372.072908 
L 299.08247 -371.970016 
L 297.59901 -371.86722 
L 296.11555 -371.764563 
L 294.63209 -371.662088 
L 293.14863 -371.559838 
L 291.66517 -371.457858 
L 290.18171 -371.356189 
L 288.69825 -371.254875 
L 287.21479 -371.15396 
L 285.73133 -371.053487 
L 284.24787 -370.953499 
L 282.76441 -370.854039 
L 281.28095 -370.75515 
L 279.79749 -370.656876 
L 278.31403 -370.55926 
L 276.83057 -370.462345 
L 275.34711 -370.366174 
L 273.86365 -370.270791 
L 272.38019 -370.17624 
L 270.89673 -370.082562 
L 269.41327 -369.989801 
L 267.92981 -369.897977 
L 266.44635 -369.807091 
L 264.96289 -369.717143 
L 263.47943 -369.628131 
L 261.99597 -369.540054 
L 260.51251 -369.452912 
L 259.02905 -369.366704 
L 257.54559 -369.281429 
L 256.06213 -369.197087 
L 254.57867 -369.113676 
L 253.09521 -369.031196 
L 251.61175 -368.949647 
L 250.12829 -368.869026 
L 248.64483 -368.789334 
L 247.16137 -368.71057 
L 245.67791 -368.632733 
L 244.19445 -368.555822 
L 242.71099 -368.479836 
L 241.22753 -368.404775 
L 239.74407 -368.330638 
L 238.26061 -368.257424 
L 236.77715 -368.185132 
L 235.29369 -368.113762 
L 233.81023 -368.043313 
L 232.32677 -367.973783 
L 230.84331 -367.905173 
L 229.359849 -367.837481 
L 227.876389 -367.770707 
L 226.392929 -367.704849 
L 224.909469 -367.639908 
L 223.426009 -367.575882 
L 221.942549 -367.51277 
L 220.459089 -367.450573 
L 218.975629 -367.389288 
L 217.492169 -367.328915 
L 216.008709 -367.269454 
L 214.525249 -367.210903 
L 213.041789 -367.153263 
L 211.558329 -367.096531 
L 210.074869 -367.040708 
L 208.591409 -366.985792 
L 207.107949 -366.931783 
L 205.624489 -366.87868 
L 204.141029 -366.826482 
L 202.657569 -366.775188 
L 201.174109 -366.724798 
L 199.690649 -366.675311 
L 198.207189 -366.626726 
L 196.723729 -366.579042 
L 195.240269 -366.532259 
L 193.756809 -366.486376 
L 192.273349 -366.441391 
L 190.789889 -366.397305 
L 189.306429 -366.354116 
L 187.822969 -366.311823 
L 186.339509 -366.270427 
L 184.856049 -366.229926 
L 183.372589 -366.190318 
L 181.889129 -366.151605 
L 180.405669 -366.113784 
L 178.922209 -366.076855 
L 177.438749 -366.040817 
L 175.955289 -366.00567 
L 174.471829 -365.971412 
L 172.988369 -365.938043 
L 171.504909 -365.905562 
L 170.021449 -365.873969 
L 168.537989 -365.843262 
L 167.054529 -365.81344 
L 165.571069 -365.784504 
L 164.087609 -365.756452 
L 162.604149 -365.729283 
L 161.120689 -365.702997 
L 159.637229 -365.677592 
L 158.153769 -365.653069 
L 156.670309 -365.629426 
L 155.186849 -365.606663 
L 153.703389 -365.584778 
L 152.219929 -365.563771 
L 150.736469 -365.543641 
L 149.253009 -365.524388 
L 147.769548 -365.50601 
L 146.286088 -365.488507 
L 144.802628 -365.471879 
L 143.319168 -365.456123 
L 141.835708 -365.44124 
L 140.352248 -365.427229 
L 138.868788 -365.414088 
L 137.385328 -365.401818 
L 135.901868 -365.390417 
L 134.418408 -365.379885 
L 132.934948 -365.370221 
L 131.451488 -365.361423 
L 129.968028 -365.353492 
L 128.484568 -365.346427 
L 127.001108 -365.340226 
L 125.517648 -365.334889 
L 124.034188 -365.330415 
L 122.550728 -365.326804 
L 121.067268 -365.324054 
L 119.583808 -365.322165 
L 118.100348 -365.321136 
L 116.616888 -365.320967 
L 115.133428 -365.321655 
L 113.649968 -365.323202 
L 112.166508 -365.325606 
L 110.683048 -365.328865 
L 109.199588 -365.33298 
L 107.716128 -365.33795 
L 106.232668 -365.343773 
L 104.749208 -365.35045 
L 103.265748 -365.357979 
L 101.782288 -365.366359 
L 100.298828 -365.37559 
L 98.815368 -365.385671 
L 97.331908 -365.396601 
L 95.848448 -365.408379 
L 94.364988 -365.421005 
L 92.881528 -365.434478 
L 91.398068 -365.448797 
L 89.914608 -365.463961 
L 88.431148 -365.47997 
L 86.947688 -365.496822 
L 85.464228 -365.514517 
L 83.980768 -365.533055 
L 82.497308 -365.552433 
L 81.013848 -365.572653 
L 79.530388 -365.593712 
L 78.046928 -365.61561 
L 76.563468 -365.638346 
L 75.080008 -365.66192 
L 73.596548 -365.686331 
L 72.113088 -365.711578 
L 70.629628 -365.737659 
L 69.146168 -365.764575 
L 67.662708 -365.792325 
L 66.179247 -365.820907 
L 64.695787 -365.850322 
L 63.212327 -365.880568 
L 61.728867 -365.911644 
L 60.245407 -365.94355 
L 58.761947 -365.976285 
L 57.278487 -366.009848 
L 55.795027 -366.044238 
L 54.311567 -366.079455 
L 52.828107 -366.115498 
L 51.344647 -366.152365 
L 49.861187 -366.190057 
L 48.377727 -366.228573 
z
" style="stroke: #94d4c0; stroke-opacity: 0.5"/>
    </defs>
    <g clip-path="url(#p0fb0616244)">
     <use xlink:href="#mcbc654a1d6" x="0" y="391.095592" style="fill: #94d4c0; fill-opacity: 0.5; stroke: #94d4c0; stroke-opacity: 0.5"/>
    </g>
   </g>
   <g id="PolyCollection_2">
    <defs>
     <path id="mce796bd2b7" d="M 48.377727 -245.688968 
L 48.377727 -39.434375 
L 49.861187 -39.434375 
L 51.344647 -39.434375 
L 52.828107 -39.434375 
L 54.311567 -39.434375 
L 55.795027 -39.434375 
L 57.278487 -39.434375 
L 58.761947 -39.434375 
L 60.245407 -39.434375 
L 61.728867 -39.434375 
L 63.212327 -39.434375 
L 64.695787 -39.434375 
L 66.179247 -39.434375 
L 67.662708 -39.434375 
L 69.146168 -39.434375 
L 70.629628 -39.434375 
L 72.113088 -39.434375 
L 73.596548 -39.434375 
L 75.080008 -39.434375 
L 76.563468 -39.434375 
L 78.046928 -39.434375 
L 79.530388 -39.434375 
L 81.013848 -39.434375 
L 82.497308 -39.434375 
L 83.980768 -39.434375 
L 85.464228 -39.434375 
L 86.947688 -39.434375 
L 88.431148 -39.434375 
L 89.914608 -39.434375 
L 91.398068 -39.434375 
L 92.881528 -39.434375 
L 94.364988 -39.434375 
L 95.848448 -39.434375 
L 97.331908 -39.434375 
L 98.815368 -39.434375 
L 100.298828 -39.434375 
L 101.782288 -39.434375 
L 103.265748 -39.434375 
L 104.749208 -39.434375 
L 106.232668 -39.434375 
L 107.716128 -39.434375 
L 109.199588 -39.434375 
L 110.683048 -39.434375 
L 112.166508 -39.434375 
L 113.649968 -39.434375 
L 115.133428 -39.434375 
L 116.616888 -39.434375 
L 118.100348 -39.434375 
L 119.583808 -39.434375 
L 121.067268 -39.434375 
L 122.550728 -39.434375 
L 124.034188 -39.434375 
L 125.517648 -39.434375 
L 127.001108 -39.434375 
L 128.484568 -39.434375 
L 129.968028 -39.434375 
L 131.451488 -39.434375 
L 132.934948 -39.434375 
L 134.418408 -39.434375 
L 135.901868 -39.434375 
L 137.385328 -39.434375 
L 138.868788 -39.434375 
L 140.352248 -39.434375 
L 141.835708 -39.434375 
L 143.319168 -39.434375 
L 144.802628 -39.434375 
L 146.286088 -39.434375 
L 147.769548 -39.434375 
L 149.253009 -39.434375 
L 150.736469 -39.434375 
L 152.219929 -39.434375 
L 153.703389 -39.434375 
L 155.186849 -39.434375 
L 156.670309 -39.434375 
L 158.153769 -39.434375 
L 159.637229 -39.434375 
L 161.120689 -39.434375 
L 162.604149 -39.434375 
L 164.087609 -39.434375 
L 165.571069 -39.434375 
L 167.054529 -39.434375 
L 168.537989 -39.434375 
L 170.021449 -39.434375 
L 171.504909 -39.434375 
L 172.988369 -39.434375 
L 174.471829 -39.434375 
L 175.955289 -39.434375 
L 177.438749 -39.434375 
L 178.922209 -39.434375 
L 180.405669 -39.434375 
L 181.889129 -39.434375 
L 183.372589 -39.434375 
L 184.856049 -39.434375 
L 186.339509 -39.434375 
L 187.822969 -39.434375 
L 189.306429 -39.434375 
L 190.789889 -39.434375 
L 192.273349 -39.434375 
L 193.756809 -39.434375 
L 195.240269 -39.434375 
L 196.723729 -39.434375 
L 198.207189 -39.434375 
L 199.690649 -39.434375 
L 201.174109 -39.434375 
L 202.657569 -39.434375 
L 204.141029 -39.434375 
L 205.624489 -39.434375 
L 207.107949 -39.434375 
L 208.591409 -39.434375 
L 210.074869 -39.434375 
L 211.558329 -39.434375 
L 213.041789 -39.434375 
L 214.525249 -39.434375 
L 216.008709 -39.434375 
L 217.492169 -39.434375 
L 218.975629 -39.434375 
L 220.459089 -39.434375 
L 221.942549 -39.434375 
L 223.426009 -39.434375 
L 224.909469 -39.434375 
L 226.392929 -39.434375 
L 227.876389 -39.434375 
L 229.359849 -39.434375 
L 230.84331 -39.434375 
L 232.32677 -39.434375 
L 233.81023 -39.434375 
L 235.29369 -39.434375 
L 236.77715 -39.434375 
L 238.26061 -39.434375 
L 239.74407 -39.434375 
L 241.22753 -39.434375 
L 242.71099 -39.434375 
L 244.19445 -39.434375 
L 245.67791 -39.434375 
L 247.16137 -39.434375 
L 248.64483 -39.434375 
L 250.12829 -39.434375 
L 251.61175 -39.434375 
L 253.09521 -39.434375 
L 254.57867 -39.434375 
L 256.06213 -39.434375 
L 257.54559 -39.434375 
L 259.02905 -39.434375 
L 260.51251 -39.434375 
L 261.99597 -39.434375 
L 263.47943 -39.434375 
L 264.96289 -39.434375 
L 266.44635 -39.434375 
L 267.92981 -39.434375 
L 269.41327 -39.434375 
L 270.89673 -39.434375 
L 272.38019 -39.434375 
L 273.86365 -39.434375 
L 275.34711 -39.434375 
L 276.83057 -39.434375 
L 278.31403 -39.434375 
L 279.79749 -39.434375 
L 281.28095 -39.434375 
L 282.76441 -39.434375 
L 284.24787 -39.434375 
L 285.73133 -39.434375 
L 287.21479 -39.434375 
L 288.69825 -39.434375 
L 290.18171 -39.434375 
L 291.66517 -39.434375 
L 293.14863 -39.434375 
L 294.63209 -39.434375 
L 296.11555 -39.434375 
L 297.59901 -39.434375 
L 299.08247 -39.434375 
L 300.56593 -39.434375 
L 302.04939 -39.434375 
L 303.53285 -39.434375 
L 305.01631 -39.434375 
L 306.49977 -39.434375 
L 307.98323 -39.434375 
L 309.46669 -39.434375 
L 310.950151 -39.434375 
L 312.433611 -39.434375 
L 313.917071 -39.434375 
L 315.400531 -39.434375 
L 316.883991 -39.434375 
L 318.367451 -39.434375 
L 319.850911 -39.434375 
L 321.334371 -39.434375 
L 322.817831 -39.434375 
L 324.301291 -39.434375 
L 325.784751 -39.434375 
L 327.268211 -39.434375 
L 328.751671 -39.434375 
L 330.235131 -39.434375 
L 331.718591 -39.434375 
L 333.202051 -39.434375 
L 334.685511 -39.434375 
L 336.168971 -39.434375 
L 337.652431 -39.434375 
L 339.135891 -39.434375 
L 340.619351 -39.434375 
L 342.102811 -39.434375 
L 343.586271 -39.434375 
L 345.069731 -39.434375 
L 346.553191 -39.434375 
L 348.036651 -39.434375 
L 349.520111 -39.434375 
L 351.003571 -39.434375 
L 352.487031 -39.434375 
L 353.970491 -39.434375 
L 355.453951 -39.434375 
L 356.937411 -39.434375 
L 358.420871 -39.434375 
L 359.904331 -39.434375 
L 361.387791 -39.434375 
L 362.871251 -39.434375 
L 364.354711 -39.434375 
L 365.838171 -39.434375 
L 367.321631 -39.434375 
L 368.805091 -39.434375 
L 370.288551 -39.434375 
L 371.772011 -39.434375 
L 373.255471 -39.434375 
L 374.738931 -39.434375 
L 376.222391 -39.434375 
L 377.705851 -39.434375 
L 379.189311 -39.434375 
L 380.672771 -39.434375 
L 382.156231 -39.434375 
L 383.639691 -39.434375 
L 385.123151 -39.434375 
L 386.606611 -39.434375 
L 388.090071 -39.434375 
L 389.573531 -39.434375 
L 391.056991 -39.434375 
L 392.540452 -39.434375 
L 394.023912 -39.434375 
L 395.507372 -39.434375 
L 396.990832 -39.434375 
L 398.474292 -39.434375 
L 399.957752 -39.434375 
L 401.441212 -39.434375 
L 402.924672 -39.434375 
L 404.408132 -39.434375 
L 405.891592 -39.434375 
L 407.375052 -39.434375 
L 408.858512 -39.434375 
L 410.341972 -39.434375 
L 411.825432 -39.434375 
L 413.308892 -39.434375 
L 414.792352 -39.434375 
L 416.275812 -39.434375 
L 417.759272 -39.434375 
L 419.242732 -39.434375 
L 420.726192 -39.434375 
L 422.209652 -39.434375 
L 423.693112 -39.434375 
L 425.176572 -39.434375 
L 426.660032 -39.434375 
L 428.143492 -39.434375 
L 429.626952 -39.434375 
L 431.110412 -39.434375 
L 432.593872 -39.434375 
L 434.077332 -39.434375 
L 435.560792 -39.434375 
L 437.044252 -39.434375 
L 438.527712 -39.434375 
L 440.011172 -39.434375 
L 441.494632 -39.434375 
L 442.978092 -39.434375 
L 444.461552 -39.434375 
L 445.945012 -39.434375 
L 447.428472 -39.434375 
L 448.911932 -39.434375 
L 450.395392 -39.434375 
L 451.878852 -39.434375 
L 453.362312 -39.434375 
L 454.845772 -39.434375 
L 456.329232 -39.434375 
L 457.812692 -39.434375 
L 459.296152 -39.434375 
L 460.779612 -39.434375 
L 462.263072 -39.434375 
L 463.746532 -39.434375 
L 465.229992 -39.434375 
L 466.713452 -39.434375 
L 468.196912 -39.434375 
L 469.680372 -39.434375 
L 471.163832 -39.434375 
L 472.647292 -39.434375 
L 474.130753 -39.434375 
L 475.614213 -39.434375 
L 477.097673 -39.434375 
L 478.581133 -39.434375 
L 480.064593 -39.434375 
L 481.548053 -39.434375 
L 483.031513 -39.434375 
L 484.514973 -39.434375 
L 485.998433 -39.434375 
L 487.481893 -39.434375 
L 488.965353 -39.434375 
L 490.448813 -39.434375 
L 491.932273 -39.434375 
L 491.932273 -251.121608 
L 491.932273 -251.121608 
L 490.448813 -251.432343 
L 488.965353 -251.736265 
L 487.481893 -252.033426 
L 485.998433 -252.323881 
L 484.514973 -252.60768 
L 483.031513 -252.884879 
L 481.548053 -253.155528 
L 480.064593 -253.419683 
L 478.581133 -253.677394 
L 477.097673 -253.928716 
L 475.614213 -254.173702 
L 474.130753 -254.412403 
L 472.647292 -254.644874 
L 471.163832 -254.871167 
L 469.680372 -255.091334 
L 468.196912 -255.30543 
L 466.713452 -255.513507 
L 465.229992 -255.715618 
L 463.746532 -255.911816 
L 462.263072 -256.102153 
L 460.779612 -256.286683 
L 459.296152 -256.465459 
L 457.812692 -256.638533 
L 456.329232 -256.80596 
L 454.845772 -256.96779 
L 453.362312 -257.124078 
L 451.878852 -257.274877 
L 450.395392 -257.420238 
L 448.911932 -257.560216 
L 447.428472 -257.694864 
L 445.945012 -257.824233 
L 444.461552 -257.948378 
L 442.978092 -258.067351 
L 441.494632 -258.181204 
L 440.011172 -258.289992 
L 438.527712 -258.393767 
L 437.044252 -258.492581 
L 435.560792 -258.586489 
L 434.077332 -258.675542 
L 432.593872 -258.759794 
L 431.110412 -258.839297 
L 429.626952 -258.914105 
L 428.143492 -258.984271 
L 426.660032 -259.049847 
L 425.176572 -259.110886 
L 423.693112 -259.167442 
L 422.209652 -259.219567 
L 420.726192 -259.267315 
L 419.242732 -259.310737 
L 417.759272 -259.349888 
L 416.275812 -259.38482 
L 414.792352 -259.415586 
L 413.308892 -259.442239 
L 411.825432 -259.464831 
L 410.341972 -259.483417 
L 408.858512 -259.498049 
L 407.375052 -259.508779 
L 405.891592 -259.515661 
L 404.408132 -259.518748 
L 402.924672 -259.518092 
L 401.441212 -259.513747 
L 399.957752 -259.505765 
L 398.474292 -259.4942 
L 396.990832 -259.479104 
L 395.507372 -259.46053 
L 394.023912 -259.438532 
L 392.540452 -259.413162 
L 391.056991 -259.384473 
L 389.573531 -259.352518 
L 388.090071 -259.31735 
L 386.606611 -259.279023 
L 385.123151 -259.237588 
L 383.639691 -259.193099 
L 382.156231 -259.145609 
L 380.672771 -259.095171 
L 379.189311 -259.041837 
L 377.705851 -258.985661 
L 376.222391 -258.926696 
L 374.738931 -258.864994 
L 373.255471 -258.800609 
L 371.772011 -258.733593 
L 370.288551 -258.664 
L 368.805091 -258.591882 
L 367.321631 -258.517292 
L 365.838171 -258.440284 
L 364.354711 -258.360909 
L 362.871251 -258.279222 
L 361.387791 -258.195275 
L 359.904331 -258.109121 
L 358.420871 -258.020813 
L 356.937411 -257.930403 
L 355.453951 -257.837946 
L 353.970491 -257.743493 
L 352.487031 -257.647098 
L 351.003571 -257.548814 
L 349.520111 -257.448694 
L 348.036651 -257.34679 
L 346.553191 -257.243155 
L 345.069731 -257.137843 
L 343.586271 -257.030906 
L 342.102811 -256.922398 
L 340.619351 -256.812371 
L 339.135891 -256.700879 
L 337.652431 -256.587973 
L 336.168971 -256.473708 
L 334.685511 -256.358135 
L 333.202051 -256.241309 
L 331.718591 -256.123282 
L 330.235131 -256.004106 
L 328.751671 -255.883836 
L 327.268211 -255.762523 
L 325.784751 -255.640221 
L 324.301291 -255.516983 
L 322.817831 -255.392861 
L 321.334371 -255.267909 
L 319.850911 -255.14218 
L 318.367451 -255.015726 
L 316.883991 -254.8886 
L 315.400531 -254.760856 
L 313.917071 -254.632546 
L 312.433611 -254.503723 
L 310.950151 -254.374441 
L 309.46669 -254.244752 
L 307.98323 -254.114708 
L 306.49977 -253.984364 
L 305.01631 -253.853772 
L 303.53285 -253.722985 
L 302.04939 -253.592055 
L 300.56593 -253.461037 
L 299.08247 -253.329982 
L 297.59901 -253.198944 
L 296.11555 -253.067975 
L 294.63209 -252.93713 
L 293.14863 -252.806459 
L 291.66517 -252.676017 
L 290.18171 -252.545857 
L 288.69825 -252.416031 
L 287.21479 -252.286592 
L 285.73133 -252.157594 
L 284.24787 -252.029089 
L 282.76441 -251.90113 
L 281.28095 -251.77377 
L 279.79749 -251.647062 
L 278.31403 -251.521059 
L 276.83057 -251.395814 
L 275.34711 -251.27138 
L 273.86365 -251.14781 
L 272.38019 -251.025157 
L 270.89673 -250.903473 
L 269.41327 -250.782811 
L 267.92981 -250.663198 
L 266.44635 -250.544637 
L 264.96289 -250.427131 
L 263.47943 -250.310681 
L 261.99597 -250.19529 
L 260.51251 -250.080959 
L 259.02905 -249.967691 
L 257.54559 -249.855488 
L 256.06213 -249.744351 
L 254.57867 -249.634284 
L 253.09521 -249.525287 
L 251.61175 -249.417364 
L 250.12829 -249.310516 
L 248.64483 -249.204745 
L 247.16137 -249.100053 
L 245.67791 -248.996443 
L 244.19445 -248.893917 
L 242.71099 -248.792476 
L 241.22753 -248.692123 
L 239.74407 -248.592859 
L 238.26061 -248.494688 
L 236.77715 -248.39761 
L 235.29369 -248.301629 
L 233.81023 -248.206745 
L 232.32677 -248.112962 
L 230.84331 -248.020281 
L 229.359849 -247.928705 
L 227.876389 -247.838235 
L 226.392929 -247.748873 
L 224.909469 -247.660622 
L 223.426009 -247.573484 
L 221.942549 -247.487461 
L 220.459089 -247.402554 
L 218.975629 -247.318767 
L 217.492169 -247.2361 
L 216.008709 -247.154557 
L 214.525249 -247.074139 
L 213.041789 -246.994848 
L 211.558329 -246.916687 
L 210.074869 -246.839657 
L 208.591409 -246.76376 
L 207.107949 -246.689 
L 205.624489 -246.615377 
L 204.141029 -246.542894 
L 202.657569 -246.471552 
L 201.174109 -246.401355 
L 199.690649 -246.332304 
L 198.207189 -246.264401 
L 196.723729 -246.197648 
L 195.240269 -246.132047 
L 193.756809 -246.067601 
L 192.273349 -246.004312 
L 190.789889 -245.942181 
L 189.306429 -245.88121 
L 187.822969 -245.821403 
L 186.339509 -245.76276 
L 184.856049 -245.705284 
L 183.372589 -245.648977 
L 181.889129 -245.593842 
L 180.405669 -245.539879 
L 178.922209 -245.487092 
L 177.438749 -245.435482 
L 175.955289 -245.385051 
L 174.471829 -245.335802 
L 172.988369 -245.287736 
L 171.504909 -245.240856 
L 170.021449 -245.195164 
L 168.537989 -245.150662 
L 167.054529 -245.107352 
L 165.571069 -245.065235 
L 164.087609 -245.024315 
L 162.604149 -244.984593 
L 161.120689 -244.946071 
L 159.637229 -244.908752 
L 158.153769 -244.872637 
L 156.670309 -244.837729 
L 155.186849 -244.804029 
L 153.703389 -244.77154 
L 152.219929 -244.740263 
L 150.736469 -244.710202 
L 149.253009 -244.681357 
L 147.769548 -244.653731 
L 146.286088 -244.627327 
L 144.802628 -244.602146 
L 143.319168 -244.57819 
L 141.835708 -244.555461 
L 140.352248 -244.533962 
L 138.868788 -244.513694 
L 137.385328 -244.49466 
L 135.901868 -244.476862 
L 134.418408 -244.460301 
L 132.934948 -244.44498 
L 131.451488 -244.430902 
L 129.968028 -244.418067 
L 128.484568 -244.406478 
L 127.001108 -244.396138 
L 125.517648 -244.387048 
L 124.034188 -244.37921 
L 122.550728 -244.372627 
L 121.067268 -244.3673 
L 119.583808 -244.363232 
L 118.100348 -244.360425 
L 116.616888 -244.35888 
L 115.133428 -244.358601 
L 113.649968 -244.359588 
L 112.166508 -244.361844 
L 110.683048 -244.365372 
L 109.199588 -244.370172 
L 107.716128 -244.376248 
L 106.232668 -244.383602 
L 104.749208 -244.392235 
L 103.265748 -244.402149 
L 101.782288 -244.413347 
L 100.298828 -244.425831 
L 98.815368 -244.439603 
L 97.331908 -244.454664 
L 95.848448 -244.471018 
L 94.364988 -244.488665 
L 92.881528 -244.507609 
L 91.398068 -244.527851 
L 89.914608 -244.549393 
L 88.431148 -244.572238 
L 86.947688 -244.596387 
L 85.464228 -244.621843 
L 83.980768 -244.648607 
L 82.497308 -244.676682 
L 81.013848 -244.70607 
L 79.530388 -244.736773 
L 78.046928 -244.768793 
L 76.563468 -244.802132 
L 75.080008 -244.836792 
L 73.596548 -244.872775 
L 72.113088 -244.910084 
L 70.629628 -244.94872 
L 69.146168 -244.988685 
L 67.662708 -245.029982 
L 66.179247 -245.072613 
L 64.695787 -245.11658 
L 63.212327 -245.161884 
L 61.728867 -245.208529 
L 60.245407 -245.256515 
L 58.761947 -245.305845 
L 57.278487 -245.356522 
L 55.795027 -245.408547 
L 54.311567 -245.461922 
L 52.828107 -245.51665 
L 51.344647 -245.572732 
L 49.861187 -245.630171 
L 48.377727 -245.688968 
z
" style="stroke: #eeadd5; stroke-opacity: 0.5"/>
    </defs>
    <g clip-path="url(#p0fb0616244)">
     <use xlink:href="#mce796bd2b7" x="0" y="391.095592" style="fill: #eeadd5; fill-opacity: 0.5; stroke: #eeadd5; stroke-opacity: 0.5"/>
    </g>
   </g>
   <g id="PolyCollection_3">
    <defs>
     <path id="m6f5cf4471b" d="M 48.377727 -260.268874 
L 48.377727 -39.434375 
L 49.861187 -39.434375 
L 51.344647 -39.434375 
L 52.828107 -39.434375 
L 54.311567 -39.434375 
L 55.795027 -39.434375 
L 57.278487 -39.434375 
L 58.761947 -39.434375 
L 60.245407 -39.434375 
L 61.728867 -39.434375 
L 63.212327 -39.434375 
L 64.695787 -39.434375 
L 66.179247 -39.434375 
L 67.662708 -39.434375 
L 69.146168 -39.434375 
L 70.629628 -39.434375 
L 72.113088 -39.434375 
L 73.596548 -39.434375 
L 75.080008 -39.434375 
L 76.563468 -39.434375 
L 78.046928 -39.434375 
L 79.530388 -39.434375 
L 81.013848 -39.434375 
L 82.497308 -39.434375 
L 83.980768 -39.434375 
L 85.464228 -39.434375 
L 86.947688 -39.434375 
L 88.431148 -39.434375 
L 89.914608 -39.434375 
L 91.398068 -39.434375 
L 92.881528 -39.434375 
L 94.364988 -39.434375 
L 95.848448 -39.434375 
L 97.331908 -39.434375 
L 98.815368 -39.434375 
L 100.298828 -39.434375 
L 101.782288 -39.434375 
L 103.265748 -39.434375 
L 104.749208 -39.434375 
L 106.232668 -39.434375 
L 107.716128 -39.434375 
L 109.199588 -39.434375 
L 110.683048 -39.434375 
L 112.166508 -39.434375 
L 113.649968 -39.434375 
L 115.133428 -39.434375 
L 116.616888 -39.434375 
L 118.100348 -39.434375 
L 119.583808 -39.434375 
L 121.067268 -39.434375 
L 122.550728 -39.434375 
L 124.034188 -39.434375 
L 125.517648 -39.434375 
L 127.001108 -39.434375 
L 128.484568 -39.434375 
L 129.968028 -39.434375 
L 131.451488 -39.434375 
L 132.934948 -39.434375 
L 134.418408 -39.434375 
L 135.901868 -39.434375 
L 137.385328 -39.434375 
L 138.868788 -39.434375 
L 140.352248 -39.434375 
L 141.835708 -39.434375 
L 143.319168 -39.434375 
L 144.802628 -39.434375 
L 146.286088 -39.434375 
L 147.769548 -39.434375 
L 149.253009 -39.434375 
L 150.736469 -39.434375 
L 152.219929 -39.434375 
L 153.703389 -39.434375 
L 155.186849 -39.434375 
L 156.670309 -39.434375 
L 158.153769 -39.434375 
L 159.637229 -39.434375 
L 161.120689 -39.434375 
L 162.604149 -39.434375 
L 164.087609 -39.434375 
L 165.571069 -39.434375 
L 167.054529 -39.434375 
L 168.537989 -39.434375 
L 170.021449 -39.434375 
L 171.504909 -39.434375 
L 172.988369 -39.434375 
L 174.471829 -39.434375 
L 175.955289 -39.434375 
L 177.438749 -39.434375 
L 178.922209 -39.434375 
L 180.405669 -39.434375 
L 181.889129 -39.434375 
L 183.372589 -39.434375 
L 184.856049 -39.434375 
L 186.339509 -39.434375 
L 187.822969 -39.434375 
L 189.306429 -39.434375 
L 190.789889 -39.434375 
L 192.273349 -39.434375 
L 193.756809 -39.434375 
L 195.240269 -39.434375 
L 196.723729 -39.434375 
L 198.207189 -39.434375 
L 199.690649 -39.434375 
L 201.174109 -39.434375 
L 202.657569 -39.434375 
L 204.141029 -39.434375 
L 205.624489 -39.434375 
L 207.107949 -39.434375 
L 208.591409 -39.434375 
L 210.074869 -39.434375 
L 211.558329 -39.434375 
L 213.041789 -39.434375 
L 214.525249 -39.434375 
L 216.008709 -39.434375 
L 217.492169 -39.434375 
L 218.975629 -39.434375 
L 220.459089 -39.434375 
L 221.942549 -39.434375 
L 223.426009 -39.434375 
L 224.909469 -39.434375 
L 226.392929 -39.434375 
L 227.876389 -39.434375 
L 229.359849 -39.434375 
L 230.84331 -39.434375 
L 232.32677 -39.434375 
L 233.81023 -39.434375 
L 235.29369 -39.434375 
L 236.77715 -39.434375 
L 238.26061 -39.434375 
L 239.74407 -39.434375 
L 241.22753 -39.434375 
L 242.71099 -39.434375 
L 244.19445 -39.434375 
L 245.67791 -39.434375 
L 247.16137 -39.434375 
L 248.64483 -39.434375 
L 250.12829 -39.434375 
L 251.61175 -39.434375 
L 253.09521 -39.434375 
L 254.57867 -39.434375 
L 256.06213 -39.434375 
L 257.54559 -39.434375 
L 259.02905 -39.434375 
L 260.51251 -39.434375 
L 261.99597 -39.434375 
L 263.47943 -39.434375 
L 264.96289 -39.434375 
L 266.44635 -39.434375 
L 267.92981 -39.434375 
L 269.41327 -39.434375 
L 270.89673 -39.434375 
L 272.38019 -39.434375 
L 273.86365 -39.434375 
L 275.34711 -39.434375 
L 276.83057 -39.434375 
L 278.31403 -39.434375 
L 279.79749 -39.434375 
L 281.28095 -39.434375 
L 282.76441 -39.434375 
L 284.24787 -39.434375 
L 285.73133 -39.434375 
L 287.21479 -39.434375 
L 288.69825 -39.434375 
L 290.18171 -39.434375 
L 291.66517 -39.434375 
L 293.14863 -39.434375 
L 294.63209 -39.434375 
L 296.11555 -39.434375 
L 297.59901 -39.434375 
L 299.08247 -39.434375 
L 300.56593 -39.434375 
L 302.04939 -39.434375 
L 303.53285 -39.434375 
L 305.01631 -39.434375 
L 306.49977 -39.434375 
L 307.98323 -39.434375 
L 309.46669 -39.434375 
L 310.950151 -39.434375 
L 312.433611 -39.434375 
L 313.917071 -39.434375 
L 315.400531 -39.434375 
L 316.883991 -39.434375 
L 318.367451 -39.434375 
L 319.850911 -39.434375 
L 321.334371 -39.434375 
L 322.817831 -39.434375 
L 324.301291 -39.434375 
L 325.784751 -39.434375 
L 327.268211 -39.434375 
L 328.751671 -39.434375 
L 330.235131 -39.434375 
L 331.718591 -39.434375 
L 333.202051 -39.434375 
L 334.685511 -39.434375 
L 336.168971 -39.434375 
L 337.652431 -39.434375 
L 339.135891 -39.434375 
L 340.619351 -39.434375 
L 342.102811 -39.434375 
L 343.586271 -39.434375 
L 345.069731 -39.434375 
L 346.553191 -39.434375 
L 348.036651 -39.434375 
L 349.520111 -39.434375 
L 351.003571 -39.434375 
L 352.487031 -39.434375 
L 353.970491 -39.434375 
L 355.453951 -39.434375 
L 356.937411 -39.434375 
L 358.420871 -39.434375 
L 359.904331 -39.434375 
L 361.387791 -39.434375 
L 362.871251 -39.434375 
L 364.354711 -39.434375 
L 365.838171 -39.434375 
L 367.321631 -39.434375 
L 368.805091 -39.434375 
L 370.288551 -39.434375 
L 371.772011 -39.434375 
L 373.255471 -39.434375 
L 374.738931 -39.434375 
L 376.222391 -39.434375 
L 377.705851 -39.434375 
L 379.189311 -39.434375 
L 380.672771 -39.434375 
L 382.156231 -39.434375 
L 383.639691 -39.434375 
L 385.123151 -39.434375 
L 386.606611 -39.434375 
L 388.090071 -39.434375 
L 389.573531 -39.434375 
L 391.056991 -39.434375 
L 392.540452 -39.434375 
L 394.023912 -39.434375 
L 395.507372 -39.434375 
L 396.990832 -39.434375 
L 398.474292 -39.434375 
L 399.957752 -39.434375 
L 401.441212 -39.434375 
L 402.924672 -39.434375 
L 404.408132 -39.434375 
L 405.891592 -39.434375 
L 407.375052 -39.434375 
L 408.858512 -39.434375 
L 410.341972 -39.434375 
L 411.825432 -39.434375 
L 413.308892 -39.434375 
L 414.792352 -39.434375 
L 416.275812 -39.434375 
L 417.759272 -39.434375 
L 419.242732 -39.434375 
L 420.726192 -39.434375 
L 422.209652 -39.434375 
L 423.693112 -39.434375 
L 425.176572 -39.434375 
L 426.660032 -39.434375 
L 428.143492 -39.434375 
L 429.626952 -39.434375 
L 431.110412 -39.434375 
L 432.593872 -39.434375 
L 434.077332 -39.434375 
L 435.560792 -39.434375 
L 437.044252 -39.434375 
L 438.527712 -39.434375 
L 440.011172 -39.434375 
L 441.494632 -39.434375 
L 442.978092 -39.434375 
L 444.461552 -39.434375 
L 445.945012 -39.434375 
L 447.428472 -39.434375 
L 448.911932 -39.434375 
L 450.395392 -39.434375 
L 451.878852 -39.434375 
L 453.362312 -39.434375 
L 454.845772 -39.434375 
L 456.329232 -39.434375 
L 457.812692 -39.434375 
L 459.296152 -39.434375 
L 460.779612 -39.434375 
L 462.263072 -39.434375 
L 463.746532 -39.434375 
L 465.229992 -39.434375 
L 466.713452 -39.434375 
L 468.196912 -39.434375 
L 469.680372 -39.434375 
L 471.163832 -39.434375 
L 472.647292 -39.434375 
L 474.130753 -39.434375 
L 475.614213 -39.434375 
L 477.097673 -39.434375 
L 478.581133 -39.434375 
L 480.064593 -39.434375 
L 481.548053 -39.434375 
L 483.031513 -39.434375 
L 484.514973 -39.434375 
L 485.998433 -39.434375 
L 487.481893 -39.434375 
L 488.965353 -39.434375 
L 490.448813 -39.434375 
L 491.932273 -39.434375 
L 491.932273 -261.568993 
L 491.932273 -261.568993 
L 490.448813 -261.771765 
L 488.965353 -261.971358 
L 487.481893 -262.16779 
L 485.998433 -262.361077 
L 484.514973 -262.551237 
L 483.031513 -262.738285 
L 481.548053 -262.922239 
L 480.064593 -263.103116 
L 478.581133 -263.280932 
L 477.097673 -263.455705 
L 475.614213 -263.627451 
L 474.130753 -263.796187 
L 472.647292 -263.96193 
L 471.163832 -264.124697 
L 469.680372 -264.284504 
L 468.196912 -264.441369 
L 466.713452 -264.595308 
L 465.229992 -264.746338 
L 463.746532 -264.894476 
L 462.263072 -265.039739 
L 460.779612 -265.182143 
L 459.296152 -265.321706 
L 457.812692 -265.458445 
L 456.329232 -265.592375 
L 454.845772 -265.723515 
L 453.362312 -265.85188 
L 451.878852 -265.977488 
L 450.395392 -266.100356 
L 448.911932 -266.2205 
L 447.428472 -266.337937 
L 445.945012 -266.452684 
L 444.461552 -266.564758 
L 442.978092 -266.674176 
L 441.494632 -266.780955 
L 440.011172 -266.88511 
L 438.527712 -266.986661 
L 437.044252 -267.085622 
L 435.560792 -267.182011 
L 434.077332 -267.275845 
L 432.593872 -267.367141 
L 431.110412 -267.455915 
L 429.626952 -267.542185 
L 428.143492 -267.625967 
L 426.660032 -267.707277 
L 425.176572 -267.786134 
L 423.693112 -267.862553 
L 422.209652 -267.936552 
L 420.726192 -268.008147 
L 419.242732 -268.077356 
L 417.759272 -268.144194 
L 416.275812 -268.20868 
L 414.792352 -268.270829 
L 413.308892 -268.330659 
L 411.825432 -268.388186 
L 410.341972 -268.443427 
L 408.858512 -268.4964 
L 407.375052 -268.547121 
L 405.891592 -268.595606 
L 404.408132 -268.641873 
L 402.924672 -268.685939 
L 401.441212 -268.72782 
L 399.957752 -268.767533 
L 398.474292 -268.805095 
L 396.990832 -268.840523 
L 395.507372 -268.873834 
L 394.023912 -268.905044 
L 392.540452 -268.93417 
L 391.056991 -268.96123 
L 389.573531 -268.98624 
L 388.090071 -269.009217 
L 386.606611 -269.030178 
L 385.123151 -269.049139 
L 383.639691 -269.066118 
L 382.156231 -269.08113 
L 380.672771 -269.094195 
L 379.189311 -269.105327 
L 377.705851 -269.114543 
L 376.222391 -269.121862 
L 374.738931 -269.127299 
L 373.255471 -269.130871 
L 371.772011 -269.132596 
L 370.288551 -269.13249 
L 368.805091 -269.130569 
L 367.321631 -269.126851 
L 365.838171 -269.121353 
L 364.354711 -269.114091 
L 362.871251 -269.105082 
L 361.387791 -269.094344 
L 359.904331 -269.081892 
L 358.420871 -269.067744 
L 356.937411 -269.051917 
L 355.453951 -269.034427 
L 353.970491 -269.015292 
L 352.487031 -268.994527 
L 351.003571 -268.972151 
L 349.520111 -268.948179 
L 348.036651 -268.922629 
L 346.553191 -268.895518 
L 345.069731 -268.866862 
L 343.586271 -268.836678 
L 342.102811 -268.804983 
L 340.619351 -268.771794 
L 339.135891 -268.737128 
L 337.652431 -268.701001 
L 336.168971 -268.663431 
L 334.685511 -268.624434 
L 333.202051 -268.584027 
L 331.718591 -268.542227 
L 330.235131 -268.499051 
L 328.751671 -268.454515 
L 327.268211 -268.408637 
L 325.784751 -268.361433 
L 324.301291 -268.31292 
L 322.817831 -268.263116 
L 321.334371 -268.212036 
L 319.850911 -268.159698 
L 318.367451 -268.106118 
L 316.883991 -268.051313 
L 315.400531 -267.995301 
L 313.917071 -267.938098 
L 312.433611 -267.879721 
L 310.950151 -267.820186 
L 309.46669 -267.759511 
L 307.98323 -267.697713 
L 306.49977 -267.634807 
L 305.01631 -267.570812 
L 303.53285 -267.505744 
L 302.04939 -267.439619 
L 300.56593 -267.372456 
L 299.08247 -267.304269 
L 297.59901 -267.235077 
L 296.11555 -267.164896 
L 294.63209 -267.093743 
L 293.14863 -267.021635 
L 291.66517 -266.948588 
L 290.18171 -266.87462 
L 288.69825 -266.799748 
L 287.21479 -266.723987 
L 285.73133 -266.647356 
L 284.24787 -266.569871 
L 282.76441 -266.491548 
L 281.28095 -266.412405 
L 279.79749 -266.332458 
L 278.31403 -266.251725 
L 276.83057 -266.170221 
L 275.34711 -266.087965 
L 273.86365 -266.004972 
L 272.38019 -265.92126 
L 270.89673 -265.836845 
L 269.41327 -265.751745 
L 267.92981 -265.665982 
L 266.44635 -265.57958 
L 264.96289 -265.492568 
L 263.47943 -265.404971 
L 261.99597 -265.316816 
L 260.51251 -265.22813 
L 259.02905 -265.138939 
L 257.54559 -265.049269 
L 256.06213 -264.959148 
L 254.57867 -264.868601 
L 253.09521 -264.777655 
L 251.61175 -264.686337 
L 250.12829 -264.594674 
L 248.64483 -264.50269 
L 247.16137 -264.410414 
L 245.67791 -264.317872 
L 244.19445 -264.22509 
L 242.71099 -264.132095 
L 241.22753 -264.038912 
L 239.74407 -263.94557 
L 238.26061 -263.852094 
L 236.77715 -263.758511 
L 235.29369 -263.664847 
L 233.81023 -263.571129 
L 232.32677 -263.477383 
L 230.84331 -263.383636 
L 229.359849 -263.289914 
L 227.876389 -263.196244 
L 226.392929 -263.102653 
L 224.909469 -263.009167 
L 223.426009 -262.915812 
L 221.942549 -262.822615 
L 220.459089 -262.729602 
L 218.975629 -262.6368 
L 217.492169 -262.544236 
L 216.008709 -262.451936 
L 214.525249 -262.359926 
L 213.041789 -262.268233 
L 211.558329 -262.176884 
L 210.074869 -262.085905 
L 208.591409 -261.995322 
L 207.107949 -261.905163 
L 205.624489 -261.815453 
L 204.141029 -261.726219 
L 202.657569 -261.637488 
L 201.174109 -261.549286 
L 199.690649 -261.46164 
L 198.207189 -261.374575 
L 196.723729 -261.28812 
L 195.240269 -261.202299 
L 193.756809 -261.117141 
L 192.273349 -261.03267 
L 190.789889 -260.948915 
L 189.306429 -260.8659 
L 187.822969 -260.783653 
L 186.339509 -260.702201 
L 184.856049 -260.621569 
L 183.372589 -260.541785 
L 181.889129 -260.462874 
L 180.405669 -260.384864 
L 178.922209 -260.307781 
L 177.438749 -260.231651 
L 175.955289 -260.156501 
L 174.471829 -260.082357 
L 172.988369 -260.009246 
L 171.504909 -259.937195 
L 170.021449 -259.866229 
L 168.537989 -259.796376 
L 167.054529 -259.727662 
L 165.571069 -259.660114 
L 164.087609 -259.593757 
L 162.604149 -259.528619 
L 161.120689 -259.464726 
L 159.637229 -259.402104 
L 158.153769 -259.340781 
L 156.670309 -259.280782 
L 155.186849 -259.222134 
L 153.703389 -259.164864 
L 152.219929 -259.108997 
L 150.736469 -259.054562 
L 149.253009 -259.001583 
L 147.769548 -258.950089 
L 146.286088 -258.900104 
L 144.802628 -258.851656 
L 143.319168 -258.804771 
L 141.835708 -258.759476 
L 140.352248 -258.715797 
L 138.868788 -258.673761 
L 137.385328 -258.633395 
L 135.901868 -258.594723 
L 134.418408 -258.557775 
L 132.934948 -258.522575 
L 131.451488 -258.48915 
L 129.968028 -258.457527 
L 128.484568 -258.427732 
L 127.001108 -258.399793 
L 125.517648 -258.373734 
L 124.034188 -258.349584 
L 122.550728 -258.327368 
L 121.067268 -258.307112 
L 119.583808 -258.288845 
L 118.100348 -258.272591 
L 116.616888 -258.258377 
L 115.133428 -258.246231 
L 113.649968 -258.236178 
L 112.166508 -258.228245 
L 110.683048 -258.222459 
L 109.199588 -258.218845 
L 107.716128 -258.217431 
L 106.232668 -258.218243 
L 104.749208 -258.221308 
L 103.265748 -258.226652 
L 101.782288 -258.234301 
L 100.298828 -258.244282 
L 98.815368 -258.256623 
L 97.331908 -258.271348 
L 95.848448 -258.288485 
L 94.364988 -258.30806 
L 92.881528 -258.330099 
L 91.398068 -258.35463 
L 89.914608 -258.381679 
L 88.431148 -258.411271 
L 86.947688 -258.443435 
L 85.464228 -258.478196 
L 83.980768 -258.51558 
L 82.497308 -258.555615 
L 81.013848 -258.598327 
L 79.530388 -258.643742 
L 78.046928 -258.691886 
L 76.563468 -258.742787 
L 75.080008 -258.796471 
L 73.596548 -258.852964 
L 72.113088 -258.912294 
L 70.629628 -258.974485 
L 69.146168 -259.039566 
L 67.662708 -259.107561 
L 66.179247 -259.178499 
L 64.695787 -259.252405 
L 63.212327 -259.329307 
L 61.728867 -259.409229 
L 60.245407 -259.4922 
L 58.761947 -259.578245 
L 57.278487 -259.667391 
L 55.795027 -259.759665 
L 54.311567 -259.855093 
L 52.828107 -259.953701 
L 51.344647 -260.055516 
L 49.861187 -260.160565 
L 48.377727 -260.268874 
z
" style="stroke: #edd6b4; stroke-opacity: 0.5"/>
    </defs>
    <g clip-path="url(#p0fb0616244)">
     <use xlink:href="#m6f5cf4471b" x="0" y="391.095592" style="fill: #edd6b4; fill-opacity: 0.5; stroke: #edd6b4; stroke-opacity: 0.5"/>
    </g>
   </g>
   <g id="matplotlib.axis_1">
    <g id="xtick_1">
     <g id="line2d_1">
      <path d="M 48.377727 351.661217 
L 48.377727 10.797874 
" clip-path="url(#p0fb0616244)" style="fill: none; stroke-dasharray: 2.96,1.28; stroke-dashoffset: 0; stroke: #b0b0b0; stroke-opacity: 0.4; stroke-width: 0.8"/>
     </g>
     <g id="line2d_2">
      <defs>
       <path id="mb85102720e" d="M 0 0 
L 0 3.5 
" style="stroke: #000000; stroke-width: 0.8"/>
      </defs>
      <g>
       <use xlink:href="#mb85102720e" x="48.377727" y="351.661217" style="stroke: #000000; stroke-width: 0.8"/>
      </g>
     </g>
     <g id="text_1">
      <text style="font: 12px 'SimHei', 'Microsoft YaHei', 'DejaVu Sans', 'Bitstream Vera Sans', 'Computer Modern Sans Serif', 'Lucida Grande', 'Verdana', 'Geneva', 'Lucid', 'Arial', 'Helvetica', 'Avant Garde', sans-serif; text-anchor: middle" x="48.377727" y="366.911217" transform="rotate(-0 48.377727 366.911217)">0%</text>
     </g>
    </g>
    <g id="xtick_2">
     <g id="line2d_3">
      <path d="M 159.266364 351.661217 
L 159.266364 10.797874 
" clip-path="url(#p0fb0616244)" style="fill: none; stroke-dasharray: 2.96,1.28; stroke-dashoffset: 0; stroke: #b0b0b0; stroke-opacity: 0.4; stroke-width: 0.8"/>
     </g>
     <g id="line2d_4">
      <g>
       <use xlink:href="#mb85102720e" x="159.266364" y="351.661217" style="stroke: #000000; stroke-width: 0.8"/>
      </g>
     </g>
     <g id="text_2">
      <text style="font: 12px 'SimHei', 'Microsoft YaHei', 'DejaVu Sans', 'Bitstream Vera Sans', 'Computer Modern Sans Serif', 'Lucida Grande', 'Verdana', 'Geneva', 'Lucid', 'Arial', 'Helvetica', 'Avant Garde', sans-serif; text-anchor: middle" x="159.266364" y="366.911217" transform="rotate(-0 159.266364 366.911217)">10%</text>
     </g>
    </g>
    <g id="xtick_3">
     <g id="line2d_5">
      <path d="M 270.155 351.661217 
L 270.155 10.797874 
" clip-path="url(#p0fb0616244)" style="fill: none; stroke-dasharray: 2.96,1.28; stroke-dashoffset: 0; stroke: #b0b0b0; stroke-opacity: 0.4; stroke-width: 0.8"/>
     </g>
     <g id="line2d_6">
      <g>
       <use xlink:href="#mb85102720e" x="270.155" y="351.661217" style="stroke: #000000; stroke-width: 0.8"/>
      </g>
     </g>
     <g id="text_3">
      <text style="font: 12px 'SimHei', 'Microsoft YaHei', 'DejaVu Sans', 'Bitstream Vera Sans', 'Computer Modern Sans Serif', 'Lucida Grande', 'Verdana', 'Geneva', 'Lucid', 'Arial', 'Helvetica', 'Avant Garde', sans-serif; text-anchor: middle" x="270.155" y="366.911217" transform="rotate(-0 270.155 366.911217)">20%</text>
     </g>
    </g>
    <g id="xtick_4">
     <g id="line2d_7">
      <path d="M 381.043636 351.661217 
L 381.043636 10.797874 
" clip-path="url(#p0fb0616244)" style="fill: none; stroke-dasharray: 2.96,1.28; stroke-dashoffset: 0; stroke: #b0b0b0; stroke-opacity: 0.4; stroke-width: 0.8"/>
     </g>
     <g id="line2d_8">
      <g>
       <use xlink:href="#mb85102720e" x="381.043636" y="351.661217" style="stroke: #000000; stroke-width: 0.8"/>
      </g>
     </g>
     <g id="text_4">
      <text style="font: 12px 'SimHei', 'Microsoft YaHei', 'DejaVu Sans', 'Bitstream Vera Sans', 'Computer Modern Sans Serif', 'Lucida Grande', 'Verdana', 'Geneva', 'Lucid', 'Arial', 'Helvetica', 'Avant Garde', sans-serif; text-anchor: middle" x="381.043636" y="366.911217" transform="rotate(-0 381.043636 366.911217)">30%</text>
     </g>
    </g>
    <g id="xtick_5">
     <g id="line2d_9">
      <path d="M 491.932273 351.661217 
L 491.932273 10.797874 
" clip-path="url(#p0fb0616244)" style="fill: none; stroke-dasharray: 2.96,1.28; stroke-dashoffset: 0; stroke: #b0b0b0; stroke-opacity: 0.4; stroke-width: 0.8"/>
     </g>
     <g id="line2d_10">
      <g>
       <use xlink:href="#mb85102720e" x="491.932273" y="351.661217" style="stroke: #000000; stroke-width: 0.8"/>
      </g>
     </g>
     <g id="text_5">
      <text style="font: 12px 'SimHei', 'Microsoft YaHei', 'DejaVu Sans', 'Bitstream Vera Sans', 'Computer Modern Sans Serif', 'Lucida Grande', 'Verdana', 'Geneva', 'Lucid', 'Arial', 'Helvetica', 'Avant Garde', sans-serif; text-anchor: middle" x="491.932273" y="366.911217" transform="rotate(-0 491.932273 366.911217)">40%</text>
     </g>
    </g>
    <g id="text_6">
     <text style="font: 700 14px 'SimHei', 'Microsoft YaHei', 'DejaVu Sans', 'Bitstream Vera Sans', 'Computer Modern Sans Serif', 'Lucida Grande', 'Verdana', 'Geneva', 'Lucid', 'Arial', 'Helvetica', 'Avant Garde', sans-serif; text-anchor: middle" x="270.155" y="382.145592" transform="rotate(-0 270.155 382.145592)">dropout feat</text>
    </g>
   </g>
   <g id="matplotlib.axis_2">
    <g id="ytick_1">
     <g id="line2d_11">
      <path d="M 26.2 351.661217 
L 514.11 351.661217 
" clip-path="url(#p0fb0616244)" style="fill: none; stroke-dasharray: 2.96,1.28; stroke-dashoffset: 0; stroke: #b0b0b0; stroke-opacity: 0.4; stroke-width: 0.8"/>
     </g>
     <g id="line2d_12">
      <defs>
       <path id="m4cfa89a74c" d="M 0 0 
L -3.5 0 
" style="stroke: #000000; stroke-width: 0.8"/>
      </defs>
      <g>
       <use xlink:href="#m4cfa89a74c" x="26.2" y="351.661217" style="stroke: #000000; stroke-width: 0.8"/>
      </g>
     </g>
     <g id="text_7">
      <text style="font: 12px 'SimHei', 'Microsoft YaHei', 'DejaVu Sans', 'Bitstream Vera Sans', 'Computer Modern Sans Serif', 'Lucida Grande', 'Verdana', 'Geneva', 'Lucid', 'Arial', 'Helvetica', 'Avant Garde', sans-serif; text-anchor: end" x="19.2" y="355.786217" transform="rotate(-0 19.2 355.786217)">0</text>
     </g>
    </g>
    <g id="ytick_2">
     <g id="line2d_13">
      <path d="M 26.2 305.228396 
L 514.11 305.228396 
" clip-path="url(#p0fb0616244)" style="fill: none; stroke-dasharray: 2.96,1.28; stroke-dashoffset: 0; stroke: #b0b0b0; stroke-opacity: 0.4; stroke-width: 0.8"/>
     </g>
     <g id="line2d_14">
      <g>
       <use xlink:href="#m4cfa89a74c" x="26.2" y="305.228396" style="stroke: #000000; stroke-width: 0.8"/>
      </g>
     </g>
     <g id="text_8">
      <text style="font: 12px 'SimHei', 'Microsoft YaHei', 'DejaVu Sans', 'Bitstream Vera Sans', 'Computer Modern Sans Serif', 'Lucida Grande', 'Verdana', 'Geneva', 'Lucid', 'Arial', 'Helvetica', 'Avant Garde', sans-serif; text-anchor: end" x="19.2" y="309.353396" transform="rotate(-0 19.2 309.353396)">10</text>
     </g>
    </g>
    <g id="ytick_3">
     <g id="line2d_15">
      <path d="M 26.2 258.795574 
L 514.11 258.795574 
" clip-path="url(#p0fb0616244)" style="fill: none; stroke-dasharray: 2.96,1.28; stroke-dashoffset: 0; stroke: #b0b0b0; stroke-opacity: 0.4; stroke-width: 0.8"/>
     </g>
     <g id="line2d_16">
      <g>
       <use xlink:href="#m4cfa89a74c" x="26.2" y="258.795574" style="stroke: #000000; stroke-width: 0.8"/>
      </g>
     </g>
     <g id="text_9">
      <text style="font: 12px 'SimHei', 'Microsoft YaHei', 'DejaVu Sans', 'Bitstream Vera Sans', 'Computer Modern Sans Serif', 'Lucida Grande', 'Verdana', 'Geneva', 'Lucid', 'Arial', 'Helvetica', 'Avant Garde', sans-serif; text-anchor: end" x="19.2" y="262.920574" transform="rotate(-0 19.2 262.920574)">20</text>
     </g>
    </g>
    <g id="ytick_4">
     <g id="line2d_17">
      <path d="M 26.2 212.362753 
L 514.11 212.362753 
" clip-path="url(#p0fb0616244)" style="fill: none; stroke-dasharray: 2.96,1.28; stroke-dashoffset: 0; stroke: #b0b0b0; stroke-opacity: 0.4; stroke-width: 0.8"/>
     </g>
     <g id="line2d_18">
      <g>
       <use xlink:href="#m4cfa89a74c" x="26.2" y="212.362753" style="stroke: #000000; stroke-width: 0.8"/>
      </g>
     </g>
     <g id="text_10">
      <text style="font: 12px 'SimHei', 'Microsoft YaHei', 'DejaVu Sans', 'Bitstream Vera Sans', 'Computer Modern Sans Serif', 'Lucida Grande', 'Verdana', 'Geneva', 'Lucid', 'Arial', 'Helvetica', 'Avant Garde', sans-serif; text-anchor: end" x="19.2" y="216.487753" transform="rotate(-0 19.2 216.487753)">30</text>
     </g>
    </g>
    <g id="ytick_5">
     <g id="line2d_19">
      <path d="M 26.2 165.929931 
L 514.11 165.929931 
" clip-path="url(#p0fb0616244)" style="fill: none; stroke-dasharray: 2.96,1.28; stroke-dashoffset: 0; stroke: #b0b0b0; stroke-opacity: 0.4; stroke-width: 0.8"/>
     </g>
     <g id="line2d_20">
      <g>
       <use xlink:href="#m4cfa89a74c" x="26.2" y="165.929931" style="stroke: #000000; stroke-width: 0.8"/>
      </g>
     </g>
     <g id="text_11">
      <text style="font: 12px 'SimHei', 'Microsoft YaHei', 'DejaVu Sans', 'Bitstream Vera Sans', 'Computer Modern Sans Serif', 'Lucida Grande', 'Verdana', 'Geneva', 'Lucid', 'Arial', 'Helvetica', 'Avant Garde', sans-serif; text-anchor: end" x="19.2" y="170.054931" transform="rotate(-0 19.2 170.054931)">40</text>
     </g>
    </g>
    <g id="ytick_6">
     <g id="line2d_21">
      <path d="M 26.2 119.497109 
L 514.11 119.497109 
" clip-path="url(#p0fb0616244)" style="fill: none; stroke-dasharray: 2.96,1.28; stroke-dashoffset: 0; stroke: #b0b0b0; stroke-opacity: 0.4; stroke-width: 0.8"/>
     </g>
     <g id="line2d_22">
      <g>
       <use xlink:href="#m4cfa89a74c" x="26.2" y="119.497109" style="stroke: #000000; stroke-width: 0.8"/>
      </g>
     </g>
     <g id="text_12">
      <text style="font: 12px 'SimHei', 'Microsoft YaHei', 'DejaVu Sans', 'Bitstream Vera Sans', 'Computer Modern Sans Serif', 'Lucida Grande', 'Verdana', 'Geneva', 'Lucid', 'Arial', 'Helvetica', 'Avant Garde', sans-serif; text-anchor: end" x="19.2" y="123.622109" transform="rotate(-0 19.2 123.622109)">50</text>
     </g>
    </g>
    <g id="ytick_7">
     <g id="line2d_23">
      <path d="M 26.2 73.064288 
L 514.11 73.064288 
" clip-path="url(#p0fb0616244)" style="fill: none; stroke-dasharray: 2.96,1.28; stroke-dashoffset: 0; stroke: #b0b0b0; stroke-opacity: 0.4; stroke-width: 0.8"/>
     </g>
     <g id="line2d_24">
      <g>
       <use xlink:href="#m4cfa89a74c" x="26.2" y="73.064288" style="stroke: #000000; stroke-width: 0.8"/>
      </g>
     </g>
     <g id="text_13">
      <text style="font: 12px 'SimHei', 'Microsoft YaHei', 'DejaVu Sans', 'Bitstream Vera Sans', 'Computer Modern Sans Serif', 'Lucida Grande', 'Verdana', 'Geneva', 'Lucid', 'Arial', 'Helvetica', 'Avant Garde', sans-serif; text-anchor: end" x="19.2" y="77.189288" transform="rotate(-0 19.2 77.189288)">60</text>
     </g>
    </g>
    <g id="ytick_8">
     <g id="line2d_25">
      <path d="M 26.2 26.631466 
L 514.11 26.631466 
" clip-path="url(#p0fb0616244)" style="fill: none; stroke-dasharray: 2.96,1.28; stroke-dashoffset: 0; stroke: #b0b0b0; stroke-opacity: 0.4; stroke-width: 0.8"/>
     </g>
     <g id="line2d_26">
      <g>
       <use xlink:href="#m4cfa89a74c" x="26.2" y="26.631466" style="stroke: #000000; stroke-width: 0.8"/>
      </g>
     </g>
     <g id="text_14">
      <text style="font: 12px 'SimHei', 'Microsoft YaHei', 'DejaVu Sans', 'Bitstream Vera Sans', 'Computer Modern Sans Serif', 'Lucida Grande', 'Verdana', 'Geneva', 'Lucid', 'Arial', 'Helvetica', 'Avant Garde', sans-serif; text-anchor: end" x="19.2" y="30.756466" transform="rotate(-0 19.2 30.756466)">70</text>
     </g>
    </g>
   </g>
   <g id="line2d_27">
    <path d="M 48.377727 24.867019 
L 72.113088 25.384015 
L 95.848448 25.687213 
L 119.583808 25.773427 
L 143.319168 25.639469 
L 167.054529 25.282152 
L 190.789889 24.698287 
L 214.525249 23.884689 
L 238.26061 22.838168 
L 261.99597 21.555538 
L 285.73133 20.042105 
L 346.553191 16.021494 
L 364.354711 15.121412 
L 380.672771 14.523106 
L 395.507372 14.217367 
L 408.858512 14.173121 
L 420.726192 14.343911 
L 432.593872 14.735526 
L 444.461552 15.370107 
L 454.845772 16.14208 
L 465.229992 17.131861 
L 475.614213 18.35428 
L 485.998433 19.824173 
L 491.932273 20.780931 
L 491.932273 20.780931 
" clip-path="url(#p0fb0616244)" style="fill: none; stroke: #66c2a5; stroke-width: 2.8; stroke-linecap: square"/>
   </g>
   <g id="line2d_28">
    <path d="M 48.377727 24.867019 
L 72.113088 25.384015 
L 95.848448 25.687213 
L 119.583808 25.773427 
L 143.319168 25.639469 
L 167.054529 25.282152 
L 190.789889 24.698287 
L 214.525249 23.884689 
L 238.26061 22.838168 
L 261.99597 21.555538 
L 285.73133 20.042105 
L 346.553191 16.021494 
L 364.354711 15.121412 
L 380.672771 14.523106 
L 395.507372 14.217367 
L 408.858512 14.173121 
L 420.726192 14.343911 
L 432.593872 14.735526 
L 444.461552 15.370107 
L 454.845772 16.14208 
L 465.229992 17.131861 
L 475.614213 18.35428 
L 485.998433 19.824173 
L 491.932273 20.780931 
L 491.932273 20.780931 
" clip-path="url(#p0fb0616244)" style="fill: none; stroke: #c2e7db; stroke-opacity: 0.12; stroke-width: 6; stroke-linecap: square"/>
   </g>
   <g id="line2d_29">
    <path d="M 48.377727 145.406624 
L 67.662708 146.06561 
L 86.947688 146.499205 
L 106.232668 146.71199 
L 125.517648 146.708544 
L 144.802628 146.493447 
L 165.571069 146.030357 
L 186.339509 145.332832 
L 207.107949 144.406592 
L 227.876389 143.257358 
L 248.64483 141.890847 
L 269.41327 140.312781 
L 294.63209 138.158463 
L 333.202051 134.854283 
L 351.003571 133.546778 
L 365.838171 132.655309 
L 379.189311 132.053755 
L 392.540452 131.68243 
L 404.408132 131.576845 
L 416.275812 131.710772 
L 426.660032 132.045745 
L 437.044252 132.603011 
L 447.428472 133.400728 
L 456.329232 134.289633 
L 465.229992 135.379974 
L 474.130753 136.683189 
L 483.031513 138.210714 
L 491.932273 139.973984 
L 491.932273 139.973984 
" clip-path="url(#p0fb0616244)" style="fill: none; stroke: #e78ac3; stroke-width: 2.8; stroke-linecap: square"/>
   </g>
   <g id="line2d_30">
    <path d="M 48.377727 145.406624 
L 67.662708 146.06561 
L 86.947688 146.499205 
L 106.232668 146.71199 
L 125.517648 146.708544 
L 144.802628 146.493447 
L 165.571069 146.030357 
L 186.339509 145.332832 
L 207.107949 144.406592 
L 227.876389 143.257358 
L 248.64483 141.890847 
L 269.41327 140.312781 
L 294.63209 138.158463 
L 333.202051 134.854283 
L 351.003571 133.546778 
L 365.838171 132.655309 
L 379.189311 132.053755 
L 392.540452 131.68243 
L 404.408132 131.576845 
L 416.275812 131.710772 
L 426.660032 132.045745 
L 437.044252 132.603011 
L 447.428472 133.400728 
L 456.329232 134.289633 
L 465.229992 135.379974 
L 474.130753 136.683189 
L 483.031513 138.210714 
L 491.932273 139.973984 
L 491.932273 139.973984 
" clip-path="url(#p0fb0616244)" style="fill: none; stroke: #f5d0e7; stroke-opacity: 0.12; stroke-width: 6; stroke-linecap: square"/>
   </g>
   <g id="line2d_31">
    <path d="M 48.377727 130.826718 
L 60.245407 131.603392 
L 73.596548 132.242628 
L 86.947688 132.652157 
L 100.298828 132.85131 
L 115.133428 132.849361 
L 131.451488 132.606442 
L 147.769548 132.145503 
L 167.054529 131.36793 
L 189.306429 130.229692 
L 218.975629 128.458792 
L 279.79749 124.763134 
L 303.53285 123.589848 
L 324.301291 122.782672 
L 343.586271 122.258914 
L 361.387791 122.001248 
L 377.705851 121.981049 
L 394.023912 122.190548 
L 408.858512 122.599192 
L 423.693112 123.233039 
L 437.044252 124.00997 
L 450.395392 124.995237 
L 463.746532 126.201116 
L 477.097673 127.639887 
L 490.448813 129.323827 
L 491.932273 129.526599 
L 491.932273 129.526599 
" clip-path="url(#p0fb0616244)" style="fill: none; stroke: #e5c494; stroke-width: 2.8; stroke-linecap: square"/>
   </g>
   <g id="line2d_32">
    <path d="M 48.377727 130.826718 
L 60.245407 131.603392 
L 73.596548 132.242628 
L 86.947688 132.652157 
L 100.298828 132.85131 
L 115.133428 132.849361 
L 131.451488 132.606442 
L 147.769548 132.145503 
L 167.054529 131.36793 
L 189.306429 130.229692 
L 218.975629 128.458792 
L 279.79749 124.763134 
L 303.53285 123.589848 
L 324.301291 122.782672 
L 343.586271 122.258914 
L 361.387791 122.001248 
L 377.705851 121.981049 
L 394.023912 122.190548 
L 408.858512 122.599192 
L 423.693112 123.233039 
L 437.044252 124.00997 
L 450.395392 124.995237 
L 463.746532 126.201116 
L 477.097673 127.639887 
L 490.448813 129.323827 
L 491.932273 129.526599 
L 491.932273 129.526599 
" clip-path="url(#p0fb0616244)" style="fill: none; stroke: #f5e7d4; stroke-opacity: 0.12; stroke-width: 6; stroke-linecap: square"/>
   </g>
   <g id="patch_3">
    <path d="M 26.2 351.661217 
L 26.2 10.797874 
" style="fill: none; stroke: #000000; stroke-width: 0.8; stroke-linejoin: miter; stroke-linecap: square"/>
   </g>
   <g id="patch_4">
    <path d="M 514.11 351.661217 
L 514.11 10.797874 
" style="fill: none; stroke: #000000; stroke-width: 0.8; stroke-linejoin: miter; stroke-linecap: square"/>
   </g>
   <g id="patch_5">
    <path d="M 26.2 351.661217 
L 514.11 351.661217 
" style="fill: none; stroke: #000000; stroke-width: 0.8; stroke-linejoin: miter; stroke-linecap: square"/>
   </g>
   <g id="patch_6">
    <path d="M 26.2 10.797874 
L 514.11 10.797874 
" style="fill: none; stroke: #000000; stroke-width: 0.8; stroke-linejoin: miter; stroke-linecap: square"/>
   </g>
   <g id="text_15">
    <text style="fill: #66c2a5; font: 9px 'SimHei', 'Microsoft YaHei', 'DejaVu Sans', 'Bitstream Vera Sans', 'Computer Modern Sans Serif', 'Lucida Grande', 'Verdana', 'Geneva', 'Lucid', 'Arial', 'Helvetica', 'Avant Garde', sans-serif; text-anchor: middle" x="381.043636" y="13.3875" transform="rotate(-0 381.043636 13.3875)">72.61</text>
   </g>
   <g id="text_16">
    <text style="fill: #e78ac3; font: 9px 'SimHei', 'Microsoft YaHei', 'DejaVu Sans', 'Bitstream Vera Sans', 'Computer Modern Sans Serif', 'Lucida Grande', 'Verdana', 'Geneva', 'Lucid', 'Arial', 'Helvetica', 'Avant Garde', sans-serif; text-anchor: middle" x="381.043636" y="130.862538" transform="rotate(-0 381.043636 130.862538)">47.31</text>
   </g>
   <g id="text_17">
    <text style="fill: #e5c494; font: 9px 'SimHei', 'Microsoft YaHei', 'DejaVu Sans', 'Bitstream Vera Sans', 'Computer Modern Sans Serif', 'Lucida Grande', 'Verdana', 'Geneva', 'Lucid', 'Arial', 'Helvetica', 'Avant Garde', sans-serif; text-anchor: middle" x="381.043636" y="120.879482" transform="rotate(-0 381.043636 120.879482)">49.46</text>
   </g>
   <g id="PathCollection_1">
    <defs>
     <path id="m75c348f162" d="M 0 2.915476 
C 0.773193 2.915476 1.514823 2.608283 2.061553 2.061553 
C 2.608283 1.514823 2.915476 0.773193 2.915476 0 
C 2.915476 -0.773193 2.608283 -1.514823 2.061553 -2.061553 
C 1.514823 -2.608283 0.773193 -2.915476 0 -2.915476 
C -0.773193 -2.915476 -1.514823 -2.608283 -2.061553 -2.061553 
C -2.608283 -1.514823 -2.915476 -0.773193 -2.915476 0 
C -2.915476 0.773193 -2.608283 1.514823 -2.061553 2.061553 
C -1.514823 2.608283 -0.773193 2.915476 0 2.915476 
z
" style="stroke: #66c2a5"/>
    </defs>
    <g clip-path="url(#p0fb0616244)">
     <use xlink:href="#m75c348f162" x="381.043636" y="14.5125" style="fill: #66c2a5; stroke: #66c2a5"/>
    </g>
   </g>
   <g id="PathCollection_2">
    <defs>
     <path id="m8cfa0f8b8c" d="M 0 2.915476 
C 0.773193 2.915476 1.514823 2.608283 2.061553 2.061553 
C 2.608283 1.514823 2.915476 0.773193 2.915476 0 
C 2.915476 -0.773193 2.608283 -1.514823 2.061553 -2.061553 
C 1.514823 -2.608283 0.773193 -2.915476 0 -2.915476 
C -0.773193 -2.915476 -1.514823 -2.608283 -2.061553 -2.061553 
C -2.608283 -1.514823 -2.915476 -0.773193 -2.915476 0 
C -2.915476 0.773193 -2.608283 1.514823 -2.061553 2.061553 
C -1.514823 2.608283 -0.773193 2.915476 0 2.915476 
z
" style="stroke: #e78ac3"/>
    </defs>
    <g clip-path="url(#p0fb0616244)">
     <use xlink:href="#m8cfa0f8b8c" x="381.043636" y="131.987538" style="fill: #e78ac3; stroke: #e78ac3"/>
    </g>
   </g>
   <g id="PathCollection_3">
    <defs>
     <path id="mcdebd237e2" d="M 0 2.915476 
C 0.773193 2.915476 1.514823 2.608283 2.061553 2.061553 
C 2.608283 1.514823 2.915476 0.773193 2.915476 0 
C 2.915476 -0.773193 2.608283 -1.514823 2.061553 -2.061553 
C 1.514823 -2.608283 0.773193 -2.915476 0 -2.915476 
C -0.773193 -2.915476 -1.514823 -2.608283 -2.061553 -2.061553 
C -2.608283 -1.514823 -2.915476 -0.773193 -2.915476 0 
C -2.915476 0.773193 -2.608283 1.514823 -2.061553 2.061553 
C -1.514823 2.608283 -0.773193 2.915476 0 2.915476 
z
" style="stroke: #e5c494"/>
    </defs>
    <g clip-path="url(#p0fb0616244)">
     <use xlink:href="#mcdebd237e2" x="381.043636" y="122.004482" style="fill: #e5c494; stroke: #e5c494"/>
    </g>
   </g>
  </g>
 </g>
 <defs>
  <clipPath id="p0fb0616244">
   <rect x="26.2" y="10.797874" width="487.91" height="340.863343"/>
  </clipPath>
 </defs>
</svg>
