<?xml version="1.0" encoding="utf-8" standalone="no"?>
<!DOCTYPE svg PUBLIC "-//W3C//DTD SVG 1.1//EN"
  "http://www.w3.org/Graphics/SVG/1.1/DTD/svg11.dtd">
<svg xmlns:xlink="http://www.w3.org/1999/xlink" width="492.51pt" height="381.254pt" viewBox="0 0 492.51 381.254" xmlns="http://www.w3.org/2000/svg" version="1.1">
 <metadata>
  <rdf:RDF xmlns:dc="http://purl.org/dc/elements/1.1/" xmlns:cc="http://creativecommons.org/ns#" xmlns:rdf="http://www.w3.org/1999/02/22-rdf-syntax-ns#">
   <cc:Work>
    <dc:type rdf:resource="http://purl.org/dc/dcmitype/StillImage"/>
    <dc:date>2026-03-11T22:35:33.670812</dc:date>
    <dc:format>image/svg+xml</dc:format>
    <dc:creator>
     <cc:Agent>
      <dc:title>Matplotlib v3.7.1, https://matplotlib.org/</dc:title>
     </cc:Agent>
    </dc:creator>
   </cc:Work>
  </rdf:RDF>
 </metadata>
 <defs>
  <style type="text/css">*{stroke-linejoin: round; stroke-linecap: butt}</style>
 </defs>
 <g id="figure_1">
  <g id="patch_1">
   <path d="M 0 381.254 
L 492.51 381.254 
L 492.51 0 
L 0 0 
z
" style="fill: #ffffff"/>
  </g>
  <g id="axes_1">
   <g id="patch_2">
    <path d="M 26.2 340.144 
L 485.31 340.144 
L 485.31 7.2 
L 26.2 7.2 
z
" style="fill: #ffffff"/>
   </g>
   <g id="PolyCollection_1">
    <defs>
     <path id="m4446c0cce0" d="M 47.068636 -342.079354 
L 47.068636 -56.243818 
L 50.57597 -56.243818 
L 54.083304 -56.243818 
L 57.590638 -56.243818 
L 61.097972 -56.243818 
L 64.605306 -56.243818 
L 68.112639 -56.243818 
L 71.619973 -56.243818 
L 75.127307 -56.243818 
L 78.634641 -56.243818 
L 82.141975 -56.243818 
L 85.649309 -56.243818 
L 89.156642 -56.243818 
L 92.663976 -56.243818 
L 96.17131 -56.243818 
L 99.678644 -56.243818 
L 103.185978 -56.243818 
L 106.693312 -56.243818 
L 110.200646 -56.243818 
L 113.707979 -56.243818 
L 117.215313 -56.243818 
L 120.722647 -56.243818 
L 124.229981 -56.243818 
L 127.737315 -56.243818 
L 131.244649 -56.243818 
L 134.751982 -56.243818 
L 138.259316 -56.243818 
L 141.76665 -56.243818 
L 145.273984 -56.243818 
L 148.781318 -56.243818 
L 152.288652 -56.243818 
L 155.795985 -56.243818 
L 159.303319 -56.243818 
L 162.810653 -56.243818 
L 166.317987 -56.243818 
L 169.825321 -56.243818 
L 173.332655 -56.243818 
L 176.839989 -56.243818 
L 180.347322 -56.243818 
L 183.854656 -56.243818 
L 187.36199 -56.243818 
L 190.869324 -56.243818 
L 194.376658 -56.243818 
L 197.883992 -56.243818 
L 201.391325 -56.243818 
L 204.898659 -56.243818 
L 208.405993 -56.243818 
L 211.913327 -56.243818 
L 215.420661 -56.243818 
L 218.927995 -56.243818 
L 222.435328 -56.243818 
L 225.942662 -56.243818 
L 229.449996 -56.243818 
L 232.95733 -56.243818 
L 236.464664 -56.243818 
L 239.971998 -56.243818 
L 243.479332 -56.243818 
L 246.986665 -56.243818 
L 250.493999 -56.243818 
L 254.001333 -56.243818 
L 257.508667 -56.243818 
L 261.016001 -56.243818 
L 264.523335 -56.243818 
L 268.030668 -56.243818 
L 271.538002 -56.243818 
L 275.045336 -56.243818 
L 278.55267 -56.243818 
L 282.060004 -56.243818 
L 285.567338 -56.243818 
L 289.074672 -56.243818 
L 292.582005 -56.243818 
L 296.089339 -56.243818 
L 299.596673 -56.243818 
L 303.104007 -56.243818 
L 306.611341 -56.243818 
L 310.118675 -56.243818 
L 313.626008 -56.243818 
L 317.133342 -56.243818 
L 320.640676 -56.243818 
L 324.14801 -56.243818 
L 327.655344 -56.243818 
L 331.162678 -56.243818 
L 334.670011 -56.243818 
L 338.177345 -56.243818 
L 341.684679 -56.243818 
L 345.192013 -56.243818 
L 348.699347 -56.243818 
L 352.206681 -56.243818 
L 355.714015 -56.243818 
L 359.221348 -56.243818 
L 362.728682 -56.243818 
L 366.236016 -56.243818 
L 369.74335 -56.243818 
L 373.250684 -56.243818 
L 376.758018 -56.243818 
L 380.265351 -56.243818 
L 383.772685 -56.243818 
L 387.280019 -56.243818 
L 390.787353 -56.243818 
L 394.294687 -56.243818 
L 397.802021 -56.243818 
L 401.309354 -56.243818 
L 404.816688 -56.243818 
L 408.324022 -56.243818 
L 411.831356 -56.243818 
L 415.33869 -56.243818 
L 418.846024 -56.243818 
L 422.353358 -56.243818 
L 425.860691 -56.243818 
L 429.368025 -56.243818 
L 432.875359 -56.243818 
L 436.382693 -56.243818 
L 439.890027 -56.243818 
L 443.397361 -56.243818 
L 446.904694 -56.243818 
L 450.412028 -56.243818 
L 453.919362 -56.243818 
L 457.426696 -56.243818 
L 460.93403 -56.243818 
L 464.441364 -56.243818 
L 464.441364 -339.703297 
L 464.441364 -339.703297 
L 460.93403 -340.20422 
L 457.426696 -340.705143 
L 453.919362 -341.206066 
L 450.412028 -341.706989 
L 446.904694 -342.207913 
L 443.397361 -342.708836 
L 439.890027 -343.209759 
L 436.382693 -343.710682 
L 432.875359 -344.211605 
L 429.368025 -344.712529 
L 425.860691 -345.213452 
L 422.353358 -345.714375 
L 418.846024 -346.215298 
L 415.33869 -346.716221 
L 411.831356 -347.217145 
L 408.324022 -347.718068 
L 404.816688 -348.218991 
L 401.309354 -348.719914 
L 397.802021 -349.220837 
L 394.294687 -349.721761 
L 390.787353 -350.222684 
L 387.280019 -350.723607 
L 383.772685 -351.22453 
L 380.265351 -351.686571 
L 376.758018 -351.99308 
L 373.250684 -352.299588 
L 369.74335 -352.606097 
L 366.236016 -352.912606 
L 362.728682 -353.219115 
L 359.221348 -353.525624 
L 355.714015 -353.832133 
L 352.206681 -354.138642 
L 348.699347 -354.445151 
L 345.192013 -354.75166 
L 341.684679 -355.058169 
L 338.177345 -355.364678 
L 334.670011 -355.671187 
L 331.162678 -355.977696 
L 327.655344 -356.284205 
L 324.14801 -356.590714 
L 320.640676 -356.897223 
L 317.133342 -357.203732 
L 313.626008 -357.510241 
L 310.118675 -357.81675 
L 306.611341 -358.123259 
L 303.104007 -358.429767 
L 299.596673 -358.736276 
L 296.089339 -358.805985 
L 292.582005 -358.520494 
L 289.074672 -358.235003 
L 285.567338 -357.949512 
L 282.060004 -357.664021 
L 278.55267 -357.378529 
L 275.045336 -357.093038 
L 271.538002 -356.807547 
L 268.030668 -356.522056 
L 264.523335 -356.236565 
L 261.016001 -355.951073 
L 257.508667 -355.665582 
L 254.001333 -355.380091 
L 250.493999 -355.0946 
L 246.986665 -354.809109 
L 243.479332 -354.523617 
L 239.971998 -354.238126 
L 236.464664 -353.952635 
L 232.95733 -353.667144 
L 229.449996 -353.381653 
L 225.942662 -353.096161 
L 222.435328 -352.81067 
L 218.927995 -352.525179 
L 215.420661 -352.239688 
L 211.913327 -351.916365 
L 208.405993 -351.56782 
L 204.898659 -351.219276 
L 201.391325 -350.870731 
L 197.883992 -350.522187 
L 194.376658 -350.173642 
L 190.869324 -349.825098 
L 187.36199 -349.476553 
L 183.854656 -349.128009 
L 180.347322 -348.779465 
L 176.839989 -348.43092 
L 173.332655 -348.082376 
L 169.825321 -347.733831 
L 166.317987 -347.385287 
L 162.810653 -347.036742 
L 159.303319 -346.688198 
L 155.795985 -346.339653 
L 152.288652 -345.991109 
L 148.781318 -345.642564 
L 145.273984 -345.29402 
L 141.76665 -344.945475 
L 138.259316 -344.596931 
L 134.751982 -344.248386 
L 131.244649 -343.899842 
L 127.737315 -343.771283 
L 124.229981 -343.697721 
L 120.722647 -343.624159 
L 117.215313 -343.550597 
L 113.707979 -343.477035 
L 110.200646 -343.403473 
L 106.693312 -343.329911 
L 103.185978 -343.256348 
L 99.678644 -343.182786 
L 96.17131 -343.109224 
L 92.663976 -343.035662 
L 89.156642 -342.9621 
L 85.649309 -342.888538 
L 82.141975 -342.814975 
L 78.634641 -342.741413 
L 75.127307 -342.667851 
L 71.619973 -342.594289 
L 68.112639 -342.520727 
L 64.605306 -342.447165 
L 61.097972 -342.373603 
L 57.590638 -342.30004 
L 54.083304 -342.226478 
L 50.57597 -342.152916 
L 47.068636 -342.079354 
z
" style="stroke: #66c2a5; stroke-opacity: 0.25"/>
    </defs>
    <g clip-path="url(#p61fb718430)">
     <use xlink:href="#m4446c0cce0" x="0" y="381.254" style="fill: #66c2a5; fill-opacity: 0.25; stroke: #66c2a5; stroke-opacity: 0.25"/>
    </g>
   </g>
   <g id="PolyCollection_2">
    <defs>
     <path id="m8475a24fa2" d="M 47.068636 -238.199792 
L 47.068636 -56.243818 
L 50.57597 -56.243818 
L 54.083304 -56.243818 
L 57.590638 -56.243818 
L 61.097972 -56.243818 
L 64.605306 -56.243818 
L 68.112639 -56.243818 
L 71.619973 -56.243818 
L 75.127307 -56.243818 
L 78.634641 -56.243818 
L 82.141975 -56.243818 
L 85.649309 -56.243818 
L 89.156642 -56.243818 
L 92.663976 -56.243818 
L 96.17131 -56.243818 
L 99.678644 -56.243818 
L 103.185978 -56.243818 
L 106.693312 -56.243818 
L 110.200646 -56.243818 
L 113.707979 -56.243818 
L 117.215313 -56.243818 
L 120.722647 -56.243818 
L 124.229981 -56.243818 
L 127.737315 -56.243818 
L 131.244649 -56.243818 
L 134.751982 -56.243818 
L 138.259316 -56.243818 
L 141.76665 -56.243818 
L 145.273984 -56.243818 
L 148.781318 -56.243818 
L 152.288652 -56.243818 
L 155.795985 -56.243818 
L 159.303319 -56.243818 
L 162.810653 -56.243818 
L 166.317987 -56.243818 
L 169.825321 -56.243818 
L 173.332655 -56.243818 
L 176.839989 -56.243818 
L 180.347322 -56.243818 
L 183.854656 -56.243818 
L 187.36199 -56.243818 
L 190.869324 -56.243818 
L 194.376658 -56.243818 
L 197.883992 -56.243818 
L 201.391325 -56.243818 
L 204.898659 -56.243818 
L 208.405993 -56.243818 
L 211.913327 -56.243818 
L 215.420661 -56.243818 
L 218.927995 -56.243818 
L 222.435328 -56.243818 
L 225.942662 -56.243818 
L 229.449996 -56.243818 
L 232.95733 -56.243818 
L 236.464664 -56.243818 
L 239.971998 -56.243818 
L 243.479332 -56.243818 
L 246.986665 -56.243818 
L 250.493999 -56.243818 
L 254.001333 -56.243818 
L 257.508667 -56.243818 
L 261.016001 -56.243818 
L 264.523335 -56.243818 
L 268.030668 -56.243818 
L 271.538002 -56.243818 
L 275.045336 -56.243818 
L 278.55267 -56.243818 
L 282.060004 -56.243818 
L 285.567338 -56.243818 
L 289.074672 -56.243818 
L 292.582005 -56.243818 
L 296.089339 -56.243818 
L 299.596673 -56.243818 
L 303.104007 -56.243818 
L 306.611341 -56.243818 
L 310.118675 -56.243818 
L 313.626008 -56.243818 
L 317.133342 -56.243818 
L 320.640676 -56.243818 
L 324.14801 -56.243818 
L 327.655344 -56.243818 
L 331.162678 -56.243818 
L 334.670011 -56.243818 
L 338.177345 -56.243818 
L 341.684679 -56.243818 
L 345.192013 -56.243818 
L 348.699347 -56.243818 
L 352.206681 -56.243818 
L 355.714015 -56.243818 
L 359.221348 -56.243818 
L 362.728682 -56.243818 
L 366.236016 -56.243818 
L 369.74335 -56.243818 
L 373.250684 -56.243818 
L 376.758018 -56.243818 
L 380.265351 -56.243818 
L 383.772685 -56.243818 
L 387.280019 -56.243818 
L 390.787353 -56.243818 
L 394.294687 -56.243818 
L 397.802021 -56.243818 
L 401.309354 -56.243818 
L 404.816688 -56.243818 
L 408.324022 -56.243818 
L 411.831356 -56.243818 
L 415.33869 -56.243818 
L 418.846024 -56.243818 
L 422.353358 -56.243818 
L 425.860691 -56.243818 
L 429.368025 -56.243818 
L 432.875359 -56.243818 
L 436.382693 -56.243818 
L 439.890027 -56.243818 
L 443.397361 -56.243818 
L 446.904694 -56.243818 
L 450.412028 -56.243818 
L 453.919362 -56.243818 
L 457.426696 -56.243818 
L 460.93403 -56.243818 
L 464.441364 -56.243818 
L 464.441364 -231.07162 
L 464.441364 -231.07162 
L 460.93403 -231.65136 
L 457.426696 -232.2311 
L 453.919362 -232.810839 
L 450.412028 -233.390579 
L 446.904694 -233.970319 
L 443.397361 -234.550059 
L 439.890027 -235.129799 
L 436.382693 -235.709538 
L 432.875359 -236.289278 
L 429.368025 -236.869018 
L 425.860691 -237.448758 
L 422.353358 -238.028497 
L 418.846024 -238.608237 
L 415.33869 -239.187977 
L 411.831356 -239.767717 
L 408.324022 -240.347457 
L 404.816688 -240.927196 
L 401.309354 -241.506936 
L 397.802021 -242.086676 
L 394.294687 -242.666416 
L 390.787353 -243.246156 
L 387.280019 -243.825895 
L 383.772685 -244.405635 
L 380.265351 -244.941588 
L 376.758018 -245.302393 
L 373.250684 -245.663198 
L 369.74335 -246.024002 
L 366.236016 -246.384807 
L 362.728682 -246.745612 
L 359.221348 -247.106417 
L 355.714015 -247.467222 
L 352.206681 -247.828027 
L 348.699347 -248.188831 
L 345.192013 -248.549636 
L 341.684679 -248.910441 
L 338.177345 -249.271246 
L 334.670011 -249.632051 
L 331.162678 -249.992855 
L 327.655344 -250.35366 
L 324.14801 -250.714465 
L 320.640676 -251.07527 
L 317.133342 -251.436075 
L 313.626008 -251.79688 
L 310.118675 -252.157684 
L 306.611341 -252.518489 
L 303.104007 -252.879294 
L 299.596673 -253.240099 
L 296.089339 -253.314362 
L 292.582005 -252.958811 
L 289.074672 -252.603261 
L 285.567338 -252.24771 
L 282.060004 -251.89216 
L 278.55267 -251.53661 
L 275.045336 -251.181059 
L 271.538002 -250.825509 
L 268.030668 -250.469959 
L 264.523335 -250.114408 
L 261.016001 -249.758858 
L 257.508667 -249.403307 
L 254.001333 -249.047757 
L 250.493999 -248.692207 
L 246.986665 -248.336656 
L 243.479332 -247.981106 
L 239.971998 -247.625555 
L 236.464664 -247.270005 
L 232.95733 -246.914455 
L 229.449996 -246.558904 
L 225.942662 -246.203354 
L 222.435328 -245.847804 
L 218.927995 -245.492253 
L 215.420661 -245.136703 
L 211.913327 -244.797967 
L 208.405993 -244.47044 
L 204.898659 -244.142913 
L 201.391325 -243.815386 
L 197.883992 -243.48786 
L 194.376658 -243.160333 
L 190.869324 -242.832806 
L 187.36199 -242.50528 
L 183.854656 -242.177753 
L 180.347322 -241.850226 
L 176.839989 -241.5227 
L 173.332655 -241.195173 
L 169.825321 -240.867646 
L 166.317987 -240.540119 
L 162.810653 -240.212593 
L 159.303319 -239.885066 
L 155.795985 -239.557539 
L 152.288652 -239.230013 
L 148.781318 -238.902486 
L 145.273984 -238.574959 
L 141.76665 -238.247432 
L 138.259316 -237.919906 
L 134.751982 -237.592379 
L 131.244649 -237.264852 
L 127.737315 -237.232975 
L 124.229981 -237.275011 
L 120.722647 -237.317046 
L 117.215313 -237.359082 
L 113.707979 -237.401117 
L 110.200646 -237.443153 
L 106.693312 -237.485188 
L 103.185978 -237.527224 
L 99.678644 -237.569259 
L 96.17131 -237.611295 
L 92.663976 -237.653331 
L 89.156642 -237.695366 
L 85.649309 -237.737402 
L 82.141975 -237.779437 
L 78.634641 -237.821473 
L 75.127307 -237.863508 
L 71.619973 -237.905544 
L 68.112639 -237.947579 
L 64.605306 -237.989615 
L 61.097972 -238.03165 
L 57.590638 -238.073686 
L 54.083304 -238.115721 
L 50.57597 -238.157757 
L 47.068636 -238.199792 
z
" style="stroke: #e78ac3; stroke-opacity: 0.25"/>
    </defs>
    <g clip-path="url(#p61fb718430)">
     <use xlink:href="#m8475a24fa2" x="0" y="381.254" style="fill: #e78ac3; fill-opacity: 0.25; stroke: #e78ac3; stroke-opacity: 0.25"/>
    </g>
   </g>
   <g id="PolyCollection_3">
    <defs>
     <path id="mbaa97bc57a" d="M 47.068636 -242.993592 
L 47.068636 -56.243818 
L 50.57597 -56.243818 
L 54.083304 -56.243818 
L 57.590638 -56.243818 
L 61.097972 -56.243818 
L 64.605306 -56.243818 
L 68.112639 -56.243818 
L 71.619973 -56.243818 
L 75.127307 -56.243818 
L 78.634641 -56.243818 
L 82.141975 -56.243818 
L 85.649309 -56.243818 
L 89.156642 -56.243818 
L 92.663976 -56.243818 
L 96.17131 -56.243818 
L 99.678644 -56.243818 
L 103.185978 -56.243818 
L 106.693312 -56.243818 
L 110.200646 -56.243818 
L 113.707979 -56.243818 
L 117.215313 -56.243818 
L 120.722647 -56.243818 
L 124.229981 -56.243818 
L 127.737315 -56.243818 
L 131.244649 -56.243818 
L 134.751982 -56.243818 
L 138.259316 -56.243818 
L 141.76665 -56.243818 
L 145.273984 -56.243818 
L 148.781318 -56.243818 
L 152.288652 -56.243818 
L 155.795985 -56.243818 
L 159.303319 -56.243818 
L 162.810653 -56.243818 
L 166.317987 -56.243818 
L 169.825321 -56.243818 
L 173.332655 -56.243818 
L 176.839989 -56.243818 
L 180.347322 -56.243818 
L 183.854656 -56.243818 
L 187.36199 -56.243818 
L 190.869324 -56.243818 
L 194.376658 -56.243818 
L 197.883992 -56.243818 
L 201.391325 -56.243818 
L 204.898659 -56.243818 
L 208.405993 -56.243818 
L 211.913327 -56.243818 
L 215.420661 -56.243818 
L 218.927995 -56.243818 
L 222.435328 -56.243818 
L 225.942662 -56.243818 
L 229.449996 -56.243818 
L 232.95733 -56.243818 
L 236.464664 -56.243818 
L 239.971998 -56.243818 
L 243.479332 -56.243818 
L 246.986665 -56.243818 
L 250.493999 -56.243818 
L 254.001333 -56.243818 
L 257.508667 -56.243818 
L 261.016001 -56.243818 
L 264.523335 -56.243818 
L 268.030668 -56.243818 
L 271.538002 -56.243818 
L 275.045336 -56.243818 
L 278.55267 -56.243818 
L 282.060004 -56.243818 
L 285.567338 -56.243818 
L 289.074672 -56.243818 
L 292.582005 -56.243818 
L 296.089339 -56.243818 
L 299.596673 -56.243818 
L 303.104007 -56.243818 
L 306.611341 -56.243818 
L 310.118675 -56.243818 
L 313.626008 -56.243818 
L 317.133342 -56.243818 
L 320.640676 -56.243818 
L 324.14801 -56.243818 
L 327.655344 -56.243818 
L 331.162678 -56.243818 
L 334.670011 -56.243818 
L 338.177345 -56.243818 
L 341.684679 -56.243818 
L 345.192013 -56.243818 
L 348.699347 -56.243818 
L 352.206681 -56.243818 
L 355.714015 -56.243818 
L 359.221348 -56.243818 
L 362.728682 -56.243818 
L 366.236016 -56.243818 
L 369.74335 -56.243818 
L 373.250684 -56.243818 
L 376.758018 -56.243818 
L 380.265351 -56.243818 
L 383.772685 -56.243818 
L 387.280019 -56.243818 
L 390.787353 -56.243818 
L 394.294687 -56.243818 
L 397.802021 -56.243818 
L 401.309354 -56.243818 
L 404.816688 -56.243818 
L 408.324022 -56.243818 
L 411.831356 -56.243818 
L 415.33869 -56.243818 
L 418.846024 -56.243818 
L 422.353358 -56.243818 
L 425.860691 -56.243818 
L 429.368025 -56.243818 
L 432.875359 -56.243818 
L 436.382693 -56.243818 
L 439.890027 -56.243818 
L 443.397361 -56.243818 
L 446.904694 -56.243818 
L 450.412028 -56.243818 
L 453.919362 -56.243818 
L 457.426696 -56.243818 
L 460.93403 -56.243818 
L 464.441364 -56.243818 
L 464.441364 -236.615754 
L 464.441364 -236.615754 
L 460.93403 -237.398665 
L 457.426696 -238.181577 
L 453.919362 -238.964488 
L 450.412028 -239.7474 
L 446.904694 -240.530311 
L 443.397361 -241.313223 
L 439.890027 -242.096134 
L 436.382693 -242.879045 
L 432.875359 -243.661957 
L 429.368025 -244.444868 
L 425.860691 -245.22778 
L 422.353358 -246.010691 
L 418.846024 -246.793603 
L 415.33869 -247.576514 
L 411.831356 -248.359425 
L 408.324022 -249.142337 
L 404.816688 -249.925248 
L 401.309354 -250.70816 
L 397.802021 -251.491071 
L 394.294687 -252.273983 
L 390.787353 -253.056894 
L 387.280019 -253.839806 
L 383.772685 -254.622717 
L 380.265351 -255.309297 
L 376.758018 -255.610552 
L 373.250684 -255.911806 
L 369.74335 -256.213061 
L 366.236016 -256.514315 
L 362.728682 -256.81557 
L 359.221348 -257.116824 
L 355.714015 -257.418079 
L 352.206681 -257.719333 
L 348.699347 -258.020588 
L 345.192013 -258.321842 
L 341.684679 -258.623097 
L 338.177345 -258.924351 
L 334.670011 -259.225606 
L 331.162678 -259.52686 
L 327.655344 -259.828115 
L 324.14801 -260.129369 
L 320.640676 -260.430624 
L 317.133342 -260.731878 
L 313.626008 -261.033133 
L 310.118675 -261.334387 
L 306.611341 -261.635642 
L 303.104007 -261.936896 
L 299.596673 -262.238151 
L 296.089339 -262.34324 
L 292.582005 -262.15408 
L 289.074672 -261.96492 
L 285.567338 -261.77576 
L 282.060004 -261.5866 
L 278.55267 -261.397441 
L 275.045336 -261.208281 
L 271.538002 -261.019121 
L 268.030668 -260.829961 
L 264.523335 -260.640801 
L 261.016001 -260.451641 
L 257.508667 -260.262482 
L 254.001333 -260.073322 
L 250.493999 -259.884162 
L 246.986665 -259.695002 
L 243.479332 -259.505842 
L 239.971998 -259.316683 
L 236.464664 -259.127523 
L 232.95733 -258.938363 
L 229.449996 -258.749203 
L 225.942662 -258.560043 
L 222.435328 -258.370884 
L 218.927995 -258.181724 
L 215.420661 -257.992564 
L 211.913327 -257.546988 
L 208.405993 -256.930467 
L 204.898659 -256.313946 
L 201.391325 -255.697425 
L 197.883992 -255.080904 
L 194.376658 -254.464383 
L 190.869324 -253.847862 
L 187.36199 -253.231341 
L 183.854656 -252.614821 
L 180.347322 -251.9983 
L 176.839989 -251.381779 
L 173.332655 -250.765258 
L 169.825321 -250.148737 
L 166.317987 -249.532216 
L 162.810653 -248.915695 
L 159.303319 -248.299175 
L 155.795985 -247.682654 
L 152.288652 -247.066133 
L 148.781318 -246.449612 
L 145.273984 -245.833091 
L 141.76665 -245.21657 
L 138.259316 -244.600049 
L 134.751982 -243.983529 
L 131.244649 -243.367008 
L 127.737315 -243.235296 
L 124.229981 -243.224788 
L 120.722647 -243.214279 
L 117.215313 -243.20377 
L 113.707979 -243.193261 
L 110.200646 -243.182752 
L 106.693312 -243.172243 
L 103.185978 -243.161734 
L 99.678644 -243.151225 
L 96.17131 -243.140716 
L 92.663976 -243.130208 
L 89.156642 -243.119699 
L 85.649309 -243.10919 
L 82.141975 -243.098681 
L 78.634641 -243.088172 
L 75.127307 -243.077663 
L 71.619973 -243.067154 
L 68.112639 -243.056645 
L 64.605306 -243.046137 
L 61.097972 -243.035628 
L 57.590638 -243.025119 
L 54.083304 -243.01461 
L 50.57597 -243.004101 
L 47.068636 -242.993592 
z
" style="stroke: #e5c494; stroke-opacity: 0.25"/>
    </defs>
    <g clip-path="url(#p61fb718430)">
     <use xlink:href="#mbaa97bc57a" x="0" y="381.254" style="fill: #e5c494; fill-opacity: 0.25; stroke: #e5c494; stroke-opacity: 0.25"/>
    </g>
   </g>
   <g id="matplotlib.axis_1">
    <g id="xtick_1">
     <g id="line2d_1">
      <path d="M 47.068636 340.144 
L 47.068636 7.2 
" clip-path="url(#p61fb718430)" style="fill: none; stroke-dasharray: 2.96,1.28; stroke-dashoffset: 0; stroke: #b0b0b0; stroke-opacity: 0.5; stroke-width: 0.8"/>
     </g>
     <g id="line2d_2">
      <defs>
       <path id="m733e89884d" d="M 0 0 
L 0 3.5 
" style="stroke: #000000; stroke-width: 0.8"/>
      </defs>
      <g>
       <use xlink:href="#m733e89884d" x="47.068636" y="340.144" style="stroke: #000000; stroke-width: 0.8"/>
      </g>
     </g>
     <g id="text_1">
      <text style="font: 12px 'SimHei', 'Microsoft YaHei', 'DejaVu Sans', 'Bitstream Vera Sans', 'Computer Modern Sans Serif', 'Lucida Grande', 'Verdana', 'Geneva', 'Lucid', 'Arial', 'Helvetica', 'Avant Garde', sans-serif; text-anchor: middle" x="47.068636" y="355.394" transform="rotate(-0 47.068636 355.394)">0</text>
     </g>
    </g>
    <g id="xtick_2">
     <g id="line2d_3">
      <path d="M 130.543182 340.144 
L 130.543182 7.2 
" clip-path="url(#p61fb718430)" style="fill: none; stroke-dasharray: 2.96,1.28; stroke-dashoffset: 0; stroke: #b0b0b0; stroke-opacity: 0.5; stroke-width: 0.8"/>
     </g>
     <g id="line2d_4">
      <g>
       <use xlink:href="#m733e89884d" x="130.543182" y="340.144" style="stroke: #000000; stroke-width: 0.8"/>
      </g>
     </g>
     <g id="text_2">
      <text style="font: 12px 'SimHei', 'Microsoft YaHei', 'DejaVu Sans', 'Bitstream Vera Sans', 'Computer Modern Sans Serif', 'Lucida Grande', 'Verdana', 'Geneva', 'Lucid', 'Arial', 'Helvetica', 'Avant Garde', sans-serif; text-anchor: middle" x="130.543182" y="355.394" transform="rotate(-0 130.543182 355.394)">1</text>
     </g>
    </g>
    <g id="xtick_3">
     <g id="line2d_5">
      <path d="M 214.017727 340.144 
L 214.017727 7.2 
" clip-path="url(#p61fb718430)" style="fill: none; stroke-dasharray: 2.96,1.28; stroke-dashoffset: 0; stroke: #b0b0b0; stroke-opacity: 0.5; stroke-width: 0.8"/>
     </g>
     <g id="line2d_6">
      <g>
       <use xlink:href="#m733e89884d" x="214.017727" y="340.144" style="stroke: #000000; stroke-width: 0.8"/>
      </g>
     </g>
     <g id="text_3">
      <text style="font: 12px 'SimHei', 'Microsoft YaHei', 'DejaVu Sans', 'Bitstream Vera Sans', 'Computer Modern Sans Serif', 'Lucida Grande', 'Verdana', 'Geneva', 'Lucid', 'Arial', 'Helvetica', 'Avant Garde', sans-serif; text-anchor: middle" x="214.017727" y="355.394" transform="rotate(-0 214.017727 355.394)">2</text>
     </g>
    </g>
    <g id="xtick_4">
     <g id="line2d_7">
      <path d="M 297.492273 340.144 
L 297.492273 7.2 
" clip-path="url(#p61fb718430)" style="fill: none; stroke-dasharray: 2.96,1.28; stroke-dashoffset: 0; stroke: #b0b0b0; stroke-opacity: 0.5; stroke-width: 0.8"/>
     </g>
     <g id="line2d_8">
      <g>
       <use xlink:href="#m733e89884d" x="297.492273" y="340.144" style="stroke: #000000; stroke-width: 0.8"/>
      </g>
     </g>
     <g id="text_4">
      <text style="font: 12px 'SimHei', 'Microsoft YaHei', 'DejaVu Sans', 'Bitstream Vera Sans', 'Computer Modern Sans Serif', 'Lucida Grande', 'Verdana', 'Geneva', 'Lucid', 'Arial', 'Helvetica', 'Avant Garde', sans-serif; text-anchor: middle" x="297.492273" y="355.394" transform="rotate(-0 297.492273 355.394)">3</text>
     </g>
    </g>
    <g id="xtick_5">
     <g id="line2d_9">
      <path d="M 380.966818 340.144 
L 380.966818 7.2 
" clip-path="url(#p61fb718430)" style="fill: none; stroke-dasharray: 2.96,1.28; stroke-dashoffset: 0; stroke: #b0b0b0; stroke-opacity: 0.5; stroke-width: 0.8"/>
     </g>
     <g id="line2d_10">
      <g>
       <use xlink:href="#m733e89884d" x="380.966818" y="340.144" style="stroke: #000000; stroke-width: 0.8"/>
      </g>
     </g>
     <g id="text_5">
      <text style="font: 12px 'SimHei', 'Microsoft YaHei', 'DejaVu Sans', 'Bitstream Vera Sans', 'Computer Modern Sans Serif', 'Lucida Grande', 'Verdana', 'Geneva', 'Lucid', 'Arial', 'Helvetica', 'Avant Garde', sans-serif; text-anchor: middle" x="380.966818" y="355.394" transform="rotate(-0 380.966818 355.394)">4</text>
     </g>
    </g>
    <g id="xtick_6">
     <g id="line2d_11">
      <path d="M 464.441364 340.144 
L 464.441364 7.2 
" clip-path="url(#p61fb718430)" style="fill: none; stroke-dasharray: 2.96,1.28; stroke-dashoffset: 0; stroke: #b0b0b0; stroke-opacity: 0.5; stroke-width: 0.8"/>
     </g>
     <g id="line2d_12">
      <g>
       <use xlink:href="#m733e89884d" x="464.441364" y="340.144" style="stroke: #000000; stroke-width: 0.8"/>
      </g>
     </g>
     <g id="text_6">
      <text style="font: 12px 'SimHei', 'Microsoft YaHei', 'DejaVu Sans', 'Bitstream Vera Sans', 'Computer Modern Sans Serif', 'Lucida Grande', 'Verdana', 'Geneva', 'Lucid', 'Arial', 'Helvetica', 'Avant Garde', sans-serif; text-anchor: middle" x="464.441364" y="355.394" transform="rotate(-0 464.441364 355.394)">5</text>
     </g>
    </g>
    <g id="text_7">
     <!-- $\lambda_{c}$ -->
     <g transform="translate(248.685 371.534)">
      <text>
       <tspan style="font: oblique 14px 'DejaVu Sans'" x="0" y="-0.359375">λ</tspan>
       <tspan style="font: oblique 9.8px 'DejaVu Sans'" x="8.285156" y="1.9375">c</tspan>
      </text>
     </g>
    </g>
   </g>
   <g id="matplotlib.axis_2">
    <g id="ytick_1">
     <g id="line2d_13">
      <path d="M 26.2 325.010182 
L 485.31 325.010182 
" clip-path="url(#p61fb718430)" style="fill: none; stroke-dasharray: 2.96,1.28; stroke-dashoffset: 0; stroke: #b0b0b0; stroke-opacity: 0.5; stroke-width: 0.8"/>
     </g>
     <g id="line2d_14">
      <defs>
       <path id="m750124f9e8" d="M 0 0 
L -3.5 0 
" style="stroke: #000000; stroke-width: 0.8"/>
      </defs>
      <g>
       <use xlink:href="#m750124f9e8" x="26.2" y="325.010182" style="stroke: #000000; stroke-width: 0.8"/>
      </g>
     </g>
     <g id="text_8">
      <text style="font: 12px 'SimHei', 'Microsoft YaHei', 'DejaVu Sans', 'Bitstream Vera Sans', 'Computer Modern Sans Serif', 'Lucida Grande', 'Verdana', 'Geneva', 'Lucid', 'Arial', 'Helvetica', 'Avant Garde', sans-serif; text-anchor: end" x="19.2" y="329.135182" transform="rotate(-0 19.2 329.135182)">0</text>
     </g>
    </g>
    <g id="ytick_2">
     <g id="line2d_15">
      <path d="M 26.2 283.324964 
L 485.31 283.324964 
" clip-path="url(#p61fb718430)" style="fill: none; stroke-dasharray: 2.96,1.28; stroke-dashoffset: 0; stroke: #b0b0b0; stroke-opacity: 0.5; stroke-width: 0.8"/>
     </g>
     <g id="line2d_16">
      <g>
       <use xlink:href="#m750124f9e8" x="26.2" y="283.324964" style="stroke: #000000; stroke-width: 0.8"/>
      </g>
     </g>
     <g id="text_9">
      <text style="font: 12px 'SimHei', 'Microsoft YaHei', 'DejaVu Sans', 'Bitstream Vera Sans', 'Computer Modern Sans Serif', 'Lucida Grande', 'Verdana', 'Geneva', 'Lucid', 'Arial', 'Helvetica', 'Avant Garde', sans-serif; text-anchor: end" x="19.2" y="287.449964" transform="rotate(-0 19.2 287.449964)">10</text>
     </g>
    </g>
    <g id="ytick_3">
     <g id="line2d_17">
      <path d="M 26.2 241.639747 
L 485.31 241.639747 
" clip-path="url(#p61fb718430)" style="fill: none; stroke-dasharray: 2.96,1.28; stroke-dashoffset: 0; stroke: #b0b0b0; stroke-opacity: 0.5; stroke-width: 0.8"/>
     </g>
     <g id="line2d_18">
      <g>
       <use xlink:href="#m750124f9e8" x="26.2" y="241.639747" style="stroke: #000000; stroke-width: 0.8"/>
      </g>
     </g>
     <g id="text_10">
      <text style="font: 12px 'SimHei', 'Microsoft YaHei', 'DejaVu Sans', 'Bitstream Vera Sans', 'Computer Modern Sans Serif', 'Lucida Grande', 'Verdana', 'Geneva', 'Lucid', 'Arial', 'Helvetica', 'Avant Garde', sans-serif; text-anchor: end" x="19.2" y="245.764747" transform="rotate(-0 19.2 245.764747)">20</text>
     </g>
    </g>
    <g id="ytick_4">
     <g id="line2d_19">
      <path d="M 26.2 199.95453 
L 485.31 199.95453 
" clip-path="url(#p61fb718430)" style="fill: none; stroke-dasharray: 2.96,1.28; stroke-dashoffset: 0; stroke: #b0b0b0; stroke-opacity: 0.5; stroke-width: 0.8"/>
     </g>
     <g id="line2d_20">
      <g>
       <use xlink:href="#m750124f9e8" x="26.2" y="199.95453" style="stroke: #000000; stroke-width: 0.8"/>
      </g>
     </g>
     <g id="text_11">
      <text style="font: 12px 'SimHei', 'Microsoft YaHei', 'DejaVu Sans', 'Bitstream Vera Sans', 'Computer Modern Sans Serif', 'Lucida Grande', 'Verdana', 'Geneva', 'Lucid', 'Arial', 'Helvetica', 'Avant Garde', sans-serif; text-anchor: end" x="19.2" y="204.07953" transform="rotate(-0 19.2 204.07953)">30</text>
     </g>
    </g>
    <g id="ytick_5">
     <g id="line2d_21">
      <path d="M 26.2 158.269312 
L 485.31 158.269312 
" clip-path="url(#p61fb718430)" style="fill: none; stroke-dasharray: 2.96,1.28; stroke-dashoffset: 0; stroke: #b0b0b0; stroke-opacity: 0.5; stroke-width: 0.8"/>
     </g>
     <g id="line2d_22">
      <g>
       <use xlink:href="#m750124f9e8" x="26.2" y="158.269312" style="stroke: #000000; stroke-width: 0.8"/>
      </g>
     </g>
     <g id="text_12">
      <text style="font: 12px 'SimHei', 'Microsoft YaHei', 'DejaVu Sans', 'Bitstream Vera Sans', 'Computer Modern Sans Serif', 'Lucida Grande', 'Verdana', 'Geneva', 'Lucid', 'Arial', 'Helvetica', 'Avant Garde', sans-serif; text-anchor: end" x="19.2" y="162.394312" transform="rotate(-0 19.2 162.394312)">40</text>
     </g>
    </g>
    <g id="ytick_6">
     <g id="line2d_23">
      <path d="M 26.2 116.584095 
L 485.31 116.584095 
" clip-path="url(#p61fb718430)" style="fill: none; stroke-dasharray: 2.96,1.28; stroke-dashoffset: 0; stroke: #b0b0b0; stroke-opacity: 0.5; stroke-width: 0.8"/>
     </g>
     <g id="line2d_24">
      <g>
       <use xlink:href="#m750124f9e8" x="26.2" y="116.584095" style="stroke: #000000; stroke-width: 0.8"/>
      </g>
     </g>
     <g id="text_13">
      <text style="font: 12px 'SimHei', 'Microsoft YaHei', 'DejaVu Sans', 'Bitstream Vera Sans', 'Computer Modern Sans Serif', 'Lucida Grande', 'Verdana', 'Geneva', 'Lucid', 'Arial', 'Helvetica', 'Avant Garde', sans-serif; text-anchor: end" x="19.2" y="120.709095" transform="rotate(-0 19.2 120.709095)">50</text>
     </g>
    </g>
    <g id="ytick_7">
     <g id="line2d_25">
      <path d="M 26.2 74.898877 
L 485.31 74.898877 
" clip-path="url(#p61fb718430)" style="fill: none; stroke-dasharray: 2.96,1.28; stroke-dashoffset: 0; stroke: #b0b0b0; stroke-opacity: 0.5; stroke-width: 0.8"/>
     </g>
     <g id="line2d_26">
      <g>
       <use xlink:href="#m750124f9e8" x="26.2" y="74.898877" style="stroke: #000000; stroke-width: 0.8"/>
      </g>
     </g>
     <g id="text_14">
      <text style="font: 12px 'SimHei', 'Microsoft YaHei', 'DejaVu Sans', 'Bitstream Vera Sans', 'Computer Modern Sans Serif', 'Lucida Grande', 'Verdana', 'Geneva', 'Lucid', 'Arial', 'Helvetica', 'Avant Garde', sans-serif; text-anchor: end" x="19.2" y="79.023877" transform="rotate(-0 19.2 79.023877)">60</text>
     </g>
    </g>
    <g id="ytick_8">
     <g id="line2d_27">
      <path d="M 26.2 33.21366 
L 485.31 33.21366 
" clip-path="url(#p61fb718430)" style="fill: none; stroke-dasharray: 2.96,1.28; stroke-dashoffset: 0; stroke: #b0b0b0; stroke-opacity: 0.5; stroke-width: 0.8"/>
     </g>
     <g id="line2d_28">
      <g>
       <use xlink:href="#m750124f9e8" x="26.2" y="33.21366" style="stroke: #000000; stroke-width: 0.8"/>
      </g>
     </g>
     <g id="text_15">
      <text style="font: 12px 'SimHei', 'Microsoft YaHei', 'DejaVu Sans', 'Bitstream Vera Sans', 'Computer Modern Sans Serif', 'Lucida Grande', 'Verdana', 'Geneva', 'Lucid', 'Arial', 'Helvetica', 'Avant Garde', sans-serif; text-anchor: end" x="19.2" y="37.33866" transform="rotate(-0 19.2 37.33866)">70</text>
     </g>
    </g>
   </g>
   <g id="line2d_29">
    <path d="M 47.068636 39.174646 
L 50.57597 39.101084 
L 54.083304 39.027522 
L 57.590638 38.95396 
L 61.097972 38.880397 
L 64.605306 38.806835 
L 68.112639 38.733273 
L 71.619973 38.659711 
L 75.127307 38.586149 
L 78.634641 38.512587 
L 82.141975 38.439025 
L 85.649309 38.365462 
L 89.156642 38.2919 
L 92.663976 38.218338 
L 96.17131 38.144776 
L 99.678644 38.071214 
L 103.185978 37.997652 
L 106.693312 37.924089 
L 110.200646 37.850527 
L 113.707979 37.776965 
L 117.215313 37.703403 
L 120.722647 37.629841 
L 124.229981 37.556279 
L 127.737315 37.482717 
L 131.244649 37.354158 
L 134.751982 37.005614 
L 138.259316 36.657069 
L 141.76665 36.308525 
L 145.273984 35.95998 
L 148.781318 35.611436 
L 152.288652 35.262891 
L 155.795985 34.914347 
L 159.303319 34.565802 
L 162.810653 34.217258 
L 166.317987 33.868713 
L 169.825321 33.520169 
L 173.332655 33.171624 
L 176.839989 32.82308 
L 180.347322 32.474535 
L 183.854656 32.125991 
L 187.36199 31.777447 
L 190.869324 31.428902 
L 194.376658 31.080358 
L 197.883992 30.731813 
L 201.391325 30.383269 
L 204.898659 30.034724 
L 208.405993 29.68618 
L 211.913327 29.337635 
L 215.420661 29.014312 
L 218.927995 28.728821 
L 222.435328 28.44333 
L 225.942662 28.157839 
L 229.449996 27.872347 
L 232.95733 27.586856 
L 236.464664 27.301365 
L 239.971998 27.015874 
L 243.479332 26.730383 
L 246.986665 26.444891 
L 250.493999 26.1594 
L 254.001333 25.873909 
L 257.508667 25.588418 
L 261.016001 25.302927 
L 264.523335 25.017435 
L 268.030668 24.731944 
L 271.538002 24.446453 
L 275.045336 24.160962 
L 278.55267 23.875471 
L 282.060004 23.589979 
L 285.567338 23.304488 
L 289.074672 23.018997 
L 292.582005 22.733506 
L 296.089339 22.448015 
L 299.596673 22.517724 
L 303.104007 22.824233 
L 306.611341 23.130741 
L 310.118675 23.43725 
L 313.626008 23.743759 
L 317.133342 24.050268 
L 320.640676 24.356777 
L 324.14801 24.663286 
L 327.655344 24.969795 
L 331.162678 25.276304 
L 334.670011 25.582813 
L 338.177345 25.889322 
L 341.684679 26.195831 
L 345.192013 26.50234 
L 348.699347 26.808849 
L 352.206681 27.115358 
L 355.714015 27.421867 
L 359.221348 27.728376 
L 362.728682 28.034885 
L 366.236016 28.341394 
L 369.74335 28.647903 
L 373.250684 28.954412 
L 376.758018 29.26092 
L 380.265351 29.567429 
L 383.772685 30.02947 
L 387.280019 30.530393 
L 390.787353 31.031316 
L 394.294687 31.532239 
L 397.802021 32.033163 
L 401.309354 32.534086 
L 404.816688 33.035009 
L 408.324022 33.535932 
L 411.831356 34.036855 
L 415.33869 34.537779 
L 418.846024 35.038702 
L 422.353358 35.539625 
L 425.860691 36.040548 
L 429.368025 36.541471 
L 432.875359 37.042395 
L 436.382693 37.543318 
L 439.890027 38.044241 
L 443.397361 38.545164 
L 446.904694 39.046087 
L 450.412028 39.547011 
L 453.919362 40.047934 
L 457.426696 40.548857 
L 460.93403 41.04978 
L 464.441364 41.550703 
" clip-path="url(#p61fb718430)" style="fill: none; stroke: #66c2a5; stroke-width: 2; stroke-linecap: square"/>
   </g>
   <g id="line2d_30">
    <path d="M 47.068636 143.054208 
L 50.57597 143.096243 
L 54.083304 143.138279 
L 57.590638 143.180314 
L 61.097972 143.22235 
L 64.605306 143.264385 
L 68.112639 143.306421 
L 71.619973 143.348456 
L 75.127307 143.390492 
L 78.634641 143.432527 
L 82.141975 143.474563 
L 85.649309 143.516598 
L 89.156642 143.558634 
L 92.663976 143.600669 
L 96.17131 143.642705 
L 99.678644 143.684741 
L 103.185978 143.726776 
L 106.693312 143.768812 
L 110.200646 143.810847 
L 113.707979 143.852883 
L 117.215313 143.894918 
L 120.722647 143.936954 
L 124.229981 143.978989 
L 127.737315 144.021025 
L 131.244649 143.989148 
L 134.751982 143.661621 
L 138.259316 143.334094 
L 141.76665 143.006568 
L 145.273984 142.679041 
L 148.781318 142.351514 
L 152.288652 142.023987 
L 155.795985 141.696461 
L 159.303319 141.368934 
L 162.810653 141.041407 
L 166.317987 140.713881 
L 169.825321 140.386354 
L 173.332655 140.058827 
L 176.839989 139.7313 
L 180.347322 139.403774 
L 183.854656 139.076247 
L 187.36199 138.74872 
L 190.869324 138.421194 
L 194.376658 138.093667 
L 197.883992 137.76614 
L 201.391325 137.438614 
L 204.898659 137.111087 
L 208.405993 136.78356 
L 211.913327 136.456033 
L 215.420661 136.117297 
L 218.927995 135.761747 
L 222.435328 135.406196 
L 225.942662 135.050646 
L 229.449996 134.695096 
L 232.95733 134.339545 
L 236.464664 133.983995 
L 239.971998 133.628445 
L 243.479332 133.272894 
L 246.986665 132.917344 
L 250.493999 132.561793 
L 254.001333 132.206243 
L 257.508667 131.850693 
L 261.016001 131.495142 
L 264.523335 131.139592 
L 268.030668 130.784041 
L 271.538002 130.428491 
L 275.045336 130.072941 
L 278.55267 129.71739 
L 282.060004 129.36184 
L 285.567338 129.00629 
L 289.074672 128.650739 
L 292.582005 128.295189 
L 296.089339 127.939638 
L 299.596673 128.013901 
L 303.104007 128.374706 
L 306.611341 128.735511 
L 310.118675 129.096316 
L 313.626008 129.45712 
L 317.133342 129.817925 
L 320.640676 130.17873 
L 324.14801 130.539535 
L 327.655344 130.90034 
L 331.162678 131.261145 
L 334.670011 131.621949 
L 338.177345 131.982754 
L 341.684679 132.343559 
L 345.192013 132.704364 
L 348.699347 133.065169 
L 352.206681 133.425973 
L 355.714015 133.786778 
L 359.221348 134.147583 
L 362.728682 134.508388 
L 366.236016 134.869193 
L 369.74335 135.229998 
L 373.250684 135.590802 
L 376.758018 135.951607 
L 380.265351 136.312412 
L 383.772685 136.848365 
L 387.280019 137.428105 
L 390.787353 138.007844 
L 394.294687 138.587584 
L 397.802021 139.167324 
L 401.309354 139.747064 
L 404.816688 140.326804 
L 408.324022 140.906543 
L 411.831356 141.486283 
L 415.33869 142.066023 
L 418.846024 142.645763 
L 422.353358 143.225503 
L 425.860691 143.805242 
L 429.368025 144.384982 
L 432.875359 144.964722 
L 436.382693 145.544462 
L 439.890027 146.124201 
L 443.397361 146.703941 
L 446.904694 147.283681 
L 450.412028 147.863421 
L 453.919362 148.443161 
L 457.426696 149.0229 
L 460.93403 149.60264 
L 464.441364 150.18238 
" clip-path="url(#p61fb718430)" style="fill: none; stroke: #e78ac3; stroke-width: 2; stroke-linecap: square"/>
   </g>
   <g id="line2d_31">
    <path d="M 47.068636 138.260408 
L 50.57597 138.249899 
L 54.083304 138.23939 
L 57.590638 138.228881 
L 61.097972 138.218372 
L 64.605306 138.207863 
L 68.112639 138.197355 
L 71.619973 138.186846 
L 75.127307 138.176337 
L 78.634641 138.165828 
L 82.141975 138.155319 
L 85.649309 138.14481 
L 89.156642 138.134301 
L 92.663976 138.123792 
L 96.17131 138.113284 
L 99.678644 138.102775 
L 103.185978 138.092266 
L 106.693312 138.081757 
L 110.200646 138.071248 
L 113.707979 138.060739 
L 117.215313 138.05023 
L 120.722647 138.039721 
L 124.229981 138.029212 
L 127.737315 138.018704 
L 131.244649 137.886992 
L 134.751982 137.270471 
L 138.259316 136.653951 
L 141.76665 136.03743 
L 145.273984 135.420909 
L 148.781318 134.804388 
L 152.288652 134.187867 
L 155.795985 133.571346 
L 159.303319 132.954825 
L 162.810653 132.338305 
L 166.317987 131.721784 
L 169.825321 131.105263 
L 173.332655 130.488742 
L 176.839989 129.872221 
L 180.347322 129.2557 
L 183.854656 128.639179 
L 187.36199 128.022659 
L 190.869324 127.406138 
L 194.376658 126.789617 
L 197.883992 126.173096 
L 201.391325 125.556575 
L 204.898659 124.940054 
L 208.405993 124.323533 
L 211.913327 123.707012 
L 215.420661 123.261436 
L 218.927995 123.072276 
L 222.435328 122.883116 
L 225.942662 122.693957 
L 229.449996 122.504797 
L 232.95733 122.315637 
L 236.464664 122.126477 
L 239.971998 121.937317 
L 243.479332 121.748158 
L 246.986665 121.558998 
L 250.493999 121.369838 
L 254.001333 121.180678 
L 257.508667 120.991518 
L 261.016001 120.802359 
L 264.523335 120.613199 
L 268.030668 120.424039 
L 271.538002 120.234879 
L 275.045336 120.045719 
L 278.55267 119.856559 
L 282.060004 119.6674 
L 285.567338 119.47824 
L 289.074672 119.28908 
L 292.582005 119.09992 
L 296.089339 118.91076 
L 299.596673 119.015849 
L 303.104007 119.317104 
L 306.611341 119.618358 
L 310.118675 119.919613 
L 313.626008 120.220867 
L 317.133342 120.522122 
L 320.640676 120.823376 
L 324.14801 121.124631 
L 327.655344 121.425885 
L 331.162678 121.72714 
L 334.670011 122.028394 
L 338.177345 122.329649 
L 341.684679 122.630903 
L 345.192013 122.932158 
L 348.699347 123.233412 
L 352.206681 123.534667 
L 355.714015 123.835921 
L 359.221348 124.137176 
L 362.728682 124.43843 
L 366.236016 124.739685 
L 369.74335 125.040939 
L 373.250684 125.342194 
L 376.758018 125.643448 
L 380.265351 125.944703 
L 383.772685 126.631283 
L 387.280019 127.414194 
L 390.787353 128.197106 
L 394.294687 128.980017 
L 397.802021 129.762929 
L 401.309354 130.54584 
L 404.816688 131.328752 
L 408.324022 132.111663 
L 411.831356 132.894575 
L 415.33869 133.677486 
L 418.846024 134.460397 
L 422.353358 135.243309 
L 425.860691 136.02622 
L 429.368025 136.809132 
L 432.875359 137.592043 
L 436.382693 138.374955 
L 439.890027 139.157866 
L 443.397361 139.940777 
L 446.904694 140.723689 
L 450.412028 141.5066 
L 453.919362 142.289512 
L 457.426696 143.072423 
L 460.93403 143.855335 
L 464.441364 144.638246 
" clip-path="url(#p61fb718430)" style="fill: none; stroke: #e5c494; stroke-width: 2; stroke-linecap: square"/>
   </g>
   <g id="patch_3">
    <path d="M 26.2 340.144 
L 26.2 7.2 
" style="fill: none; stroke: #000000; stroke-width: 0.8; stroke-linejoin: miter; stroke-linecap: square"/>
   </g>
   <g id="patch_4">
    <path d="M 485.31 340.144 
L 485.31 7.2 
" style="fill: none; stroke: #000000; stroke-width: 0.8; stroke-linejoin: miter; stroke-linecap: square"/>
   </g>
   <g id="patch_5">
    <path d="M 26.2 340.144 
L 485.31 340.144 
" style="fill: none; stroke: #000000; stroke-width: 0.8; stroke-linejoin: miter; stroke-linecap: square"/>
   </g>
   <g id="patch_6">
    <path d="M 26.2 7.2 
L 485.31 7.2 
" style="fill: none; stroke: #000000; stroke-width: 0.8; stroke-linejoin: miter; stroke-linecap: square"/>
   </g>
   <g id="text_16">
    <text style="fill: #66c2a5; font: 700 10px 'SimHei', 'Microsoft YaHei', 'DejaVu Sans', 'Bitstream Vera Sans', 'Computer Modern Sans Serif', 'Lucida Grande', 'Verdana', 'Geneva', 'Lucid', 'Arial', 'Helvetica', 'Avant Garde', sans-serif; text-anchor: middle" x="297.492273" y="21.083818" transform="rotate(-0 297.492273 21.083818)">72.61</text>
   </g>
   <g id="text_17">
    <text style="fill: #e78ac3; font: 700 10px 'SimHei', 'Microsoft YaHei', 'DejaVu Sans', 'Bitstream Vera Sans', 'Computer Modern Sans Serif', 'Lucida Grande', 'Verdana', 'Geneva', 'Lucid', 'Arial', 'Helvetica', 'Avant Garde', sans-serif; text-anchor: middle" x="297.492273" y="126.547418" transform="rotate(-0 297.492273 126.547418)">47.31</text>
   </g>
   <g id="text_18">
    <text style="fill: #e5c494; font: 700 10px 'SimHei', 'Microsoft YaHei', 'DejaVu Sans', 'Bitstream Vera Sans', 'Computer Modern Sans Serif', 'Lucida Grande', 'Verdana', 'Geneva', 'Lucid', 'Arial', 'Helvetica', 'Avant Garde', sans-serif; text-anchor: middle" x="297.492273" y="117.585096" transform="rotate(-0 297.492273 117.585096)">49.46</text>
   </g>
   <g id="PathCollection_1">
    <defs>
     <path id="m71b282e92b" d="M 0 2.95804 
C 0.784481 2.95804 1.536938 2.646362 2.09165 2.09165 
C 2.646362 1.536938 2.95804 0.784481 2.95804 0 
C 2.95804 -0.784481 2.646362 -1.536938 2.09165 -2.09165 
C 1.536938 -2.646362 0.784481 -2.95804 0 -2.95804 
C -0.784481 -2.95804 -1.536938 -2.646362 -2.09165 -2.09165 
C -2.646362 -1.536938 -2.95804 -0.784481 -2.95804 0 
C -2.95804 0.784481 -2.646362 1.536938 -2.09165 2.09165 
C -1.536938 2.646362 -0.784481 2.95804 0 2.95804 
z
" style="stroke: #66c2a5"/>
    </defs>
    <g clip-path="url(#p61fb718430)">
     <use xlink:href="#m71b282e92b" x="297.492273" y="22.333818" style="fill: #66c2a5; stroke: #66c2a5"/>
    </g>
   </g>
   <g id="PathCollection_2">
    <defs>
     <path id="m2e746515af" d="M 0 2.95804 
C 0.784481 2.95804 1.536938 2.646362 2.09165 2.09165 
C 2.646362 1.536938 2.95804 0.784481 2.95804 0 
C 2.95804 -0.784481 2.646362 -1.536938 2.09165 -2.09165 
C 1.536938 -2.646362 0.784481 -2.95804 0 -2.95804 
C -0.784481 -2.95804 -1.536938 -2.646362 -2.09165 -2.09165 
C -2.646362 -1.536938 -2.95804 -0.784481 -2.95804 0 
C -2.95804 0.784481 -2.646362 1.536938 -2.09165 2.09165 
C -1.536938 2.646362 -0.784481 2.95804 0 2.95804 
z
" style="stroke: #e78ac3"/>
    </defs>
    <g clip-path="url(#p61fb718430)">
     <use xlink:href="#m2e746515af" x="297.492273" y="127.797418" style="fill: #e78ac3; stroke: #e78ac3"/>
    </g>
   </g>
   <g id="PathCollection_3">
    <defs>
     <path id="m15e04a3c66" d="M 0 2.95804 
C 0.784481 2.95804 1.536938 2.646362 2.09165 2.09165 
C 2.646362 1.536938 2.95804 0.784481 2.95804 0 
C 2.95804 -0.784481 2.646362 -1.536938 2.09165 -2.09165 
C 1.536938 -2.646362 0.784481 -2.95804 0 -2.95804 
C -0.784481 -2.95804 -1.536938 -2.646362 -2.09165 -2.09165 
C -2.646362 -1.536938 -2.95804 -0.784481 -2.95804 0 
C -2.95804 0.784481 -2.646362 1.536938 -2.09165 2.09165 
C -1.536938 2.646362 -0.784481 2.95804 0 2.95804 
z
" style="stroke: #e5c494"/>
    </defs>
    <g clip-path="url(#p61fb718430)">
     <use xlink:href="#m15e04a3c66" x="297.492273" y="118.835096" style="fill: #e5c494; stroke: #e5c494"/>
    </g>
   </g>
   <g id="legend_1">
    <g id="patch_7">
     <path d="M 34.6 334.144 
L 91 334.144 
Q 93.4 334.144 93.4 331.744 
L 93.4 285.244 
Q 93.4 282.844 91 282.844 
L 34.6 282.844 
Q 32.2 282.844 32.2 285.244 
L 32.2 331.744 
Q 32.2 334.144 34.6 334.144 
z
" style="fill: #ffffff; opacity: 0.8; stroke: #cccccc; stroke-linejoin: miter"/>
    </g>
    <g id="line2d_32">
     <path d="M 37 291.844 
L 49 291.844 
L 61 291.844 
" style="fill: none; stroke: #66c2a5; stroke-width: 2; stroke-linecap: square"/>
    </g>
    <g id="text_19">
     <text style="font: 12px 'SimHei', 'Microsoft YaHei', 'DejaVu Sans', 'Bitstream Vera Sans', 'Computer Modern Sans Serif', 'Lucida Grande', 'Verdana', 'Geneva', 'Lucid', 'Arial', 'Helvetica', 'Avant Garde', sans-serif; text-anchor: start" x="70.6" y="296.044" transform="rotate(-0 70.6 296.044)">ACC</text>
    </g>
    <g id="line2d_33">
     <path d="M 37 307.744 
L 49 307.744 
L 61 307.744 
" style="fill: none; stroke: #e78ac3; stroke-width: 2; stroke-linecap: square"/>
    </g>
    <g id="text_20">
     <text style="font: 12px 'SimHei', 'Microsoft YaHei', 'DejaVu Sans', 'Bitstream Vera Sans', 'Computer Modern Sans Serif', 'Lucida Grande', 'Verdana', 'Geneva', 'Lucid', 'Arial', 'Helvetica', 'Avant Garde', sans-serif; text-anchor: start" x="70.6" y="311.944" transform="rotate(-0 70.6 311.944)">NMI</text>
    </g>
    <g id="line2d_34">
     <path d="M 37 323.644 
L 49 323.644 
L 61 323.644 
" style="fill: none; stroke: #e5c494; stroke-width: 2; stroke-linecap: square"/>
    </g>
    <g id="text_21">
     <text style="font: 12px 'SimHei', 'Microsoft YaHei', 'DejaVu Sans', 'Bitstream Vera Sans', 'Computer Modern Sans Serif', 'Lucida Grande', 'Verdana', 'Geneva', 'Lucid', 'Arial', 'Helvetica', 'Avant Garde', sans-serif; text-anchor: start" x="70.6" y="327.844" transform="rotate(-0 70.6 327.844)">ARI</text>
    </g>
   </g>
  </g>
 </g>
 <defs>
  <clipPath id="p61fb718430">
   <rect x="26.2" y="7.2" width="459.11" height="332.944"/>
  </clipPath>
 </defs>
</svg>
