<?xml version="1.0" encoding="utf-8" standalone="no"?>
<!DOCTYPE svg PUBLIC "-//W3C//DTD SVG 1.1//EN"
  "http://www.w3.org/Graphics/SVG/1.1/DTD/svg11.dtd">
<svg xmlns:xlink="http://www.w3.org/1999/xlink" width="492.51pt" height="381.114pt" viewBox="0 0 492.51 381.114" xmlns="http://www.w3.org/2000/svg" version="1.1">
 <metadata>
  <rdf:RDF xmlns:dc="http://purl.org/dc/elements/1.1/" xmlns:cc="http://creativecommons.org/ns#" xmlns:rdf="http://www.w3.org/1999/02/22-rdf-syntax-ns#">
   <cc:Work>
    <dc:type rdf:resource="http://purl.org/dc/dcmitype/StillImage"/>
    <dc:date>2026-03-11T22:35:33.997217</dc:date>
    <dc:format>image/svg+xml</dc:format>
    <dc:creator>
     <cc:Agent>
      <dc:title>Matplotlib v3.7.1, https://matplotlib.org/</dc:title>
     </cc:Agent>
    </dc:creator>
   </cc:Work>
  </rdf:RDF>
 </metadata>
 <defs>
  <style type="text/css">*{stroke-linejoin: round; stroke-linecap: butt}</style>
 </defs>
 <g id="figure_1">
  <g id="patch_1">
   <path d="M 0 381.114 
L 492.51 381.114 
L 492.51 0 
L 0 0 
z
" style="fill: #ffffff"/>
  </g>
  <g id="axes_1">
   <g id="patch_2">
    <path d="M 26.2 340.144 
L 485.31 340.144 
L 485.31 7.2 
L 26.2 7.2 
z
" style="fill: #ffffff"/>
   </g>
   <g id="PolyCollection_1">
    <defs>
     <path id="m5a938262d0" d="M 47.068636 -354.153123 
L 47.068636 -56.103818 
L 50.57597 -56.103818 
L 54.083304 -56.103818 
L 57.590638 -56.103818 
L 61.097972 -56.103818 
L 64.605306 -56.103818 
L 68.112639 -56.103818 
L 71.619973 -56.103818 
L 75.127307 -56.103818 
L 78.634641 -56.103818 
L 82.141975 -56.103818 
L 85.649309 -56.103818 
L 89.156642 -56.103818 
L 92.663976 -56.103818 
L 96.17131 -56.103818 
L 99.678644 -56.103818 
L 103.185978 -56.103818 
L 106.693312 -56.103818 
L 110.200646 -56.103818 
L 113.707979 -56.103818 
L 117.215313 -56.103818 
L 120.722647 -56.103818 
L 124.229981 -56.103818 
L 127.737315 -56.103818 
L 131.244649 -56.103818 
L 134.751982 -56.103818 
L 138.259316 -56.103818 
L 141.76665 -56.103818 
L 145.273984 -56.103818 
L 148.781318 -56.103818 
L 152.288652 -56.103818 
L 155.795985 -56.103818 
L 159.303319 -56.103818 
L 162.810653 -56.103818 
L 166.317987 -56.103818 
L 169.825321 -56.103818 
L 173.332655 -56.103818 
L 176.839989 -56.103818 
L 180.347322 -56.103818 
L 183.854656 -56.103818 
L 187.36199 -56.103818 
L 190.869324 -56.103818 
L 194.376658 -56.103818 
L 197.883992 -56.103818 
L 201.391325 -56.103818 
L 204.898659 -56.103818 
L 208.405993 -56.103818 
L 211.913327 -56.103818 
L 215.420661 -56.103818 
L 218.927995 -56.103818 
L 222.435328 -56.103818 
L 225.942662 -56.103818 
L 229.449996 -56.103818 
L 232.95733 -56.103818 
L 236.464664 -56.103818 
L 239.971998 -56.103818 
L 243.479332 -56.103818 
L 246.986665 -56.103818 
L 250.493999 -56.103818 
L 254.001333 -56.103818 
L 257.508667 -56.103818 
L 261.016001 -56.103818 
L 264.523335 -56.103818 
L 268.030668 -56.103818 
L 271.538002 -56.103818 
L 275.045336 -56.103818 
L 278.55267 -56.103818 
L 282.060004 -56.103818 
L 285.567338 -56.103818 
L 289.074672 -56.103818 
L 292.582005 -56.103818 
L 296.089339 -56.103818 
L 299.596673 -56.103818 
L 303.104007 -56.103818 
L 306.611341 -56.103818 
L 310.118675 -56.103818 
L 313.626008 -56.103818 
L 317.133342 -56.103818 
L 320.640676 -56.103818 
L 324.14801 -56.103818 
L 327.655344 -56.103818 
L 331.162678 -56.103818 
L 334.670011 -56.103818 
L 338.177345 -56.103818 
L 341.684679 -56.103818 
L 345.192013 -56.103818 
L 348.699347 -56.103818 
L 352.206681 -56.103818 
L 355.714015 -56.103818 
L 359.221348 -56.103818 
L 362.728682 -56.103818 
L 366.236016 -56.103818 
L 369.74335 -56.103818 
L 373.250684 -56.103818 
L 376.758018 -56.103818 
L 380.265351 -56.103818 
L 383.772685 -56.103818 
L 387.280019 -56.103818 
L 390.787353 -56.103818 
L 394.294687 -56.103818 
L 397.802021 -56.103818 
L 401.309354 -56.103818 
L 404.816688 -56.103818 
L 408.324022 -56.103818 
L 411.831356 -56.103818 
L 415.33869 -56.103818 
L 418.846024 -56.103818 
L 422.353358 -56.103818 
L 425.860691 -56.103818 
L 429.368025 -56.103818 
L 432.875359 -56.103818 
L 436.382693 -56.103818 
L 439.890027 -56.103818 
L 443.397361 -56.103818 
L 446.904694 -56.103818 
L 450.412028 -56.103818 
L 453.919362 -56.103818 
L 457.426696 -56.103818 
L 460.93403 -56.103818 
L 464.441364 -56.103818 
L 464.441364 -351.110102 
L 464.441364 -351.110102 
L 460.93403 -351.299262 
L 457.426696 -351.488421 
L 453.919362 -351.677581 
L 450.412028 -351.866741 
L 446.904694 -352.055901 
L 443.397361 -352.245061 
L 439.890027 -352.43422 
L 436.382693 -352.62338 
L 432.875359 -352.81254 
L 429.368025 -353.0017 
L 425.860691 -353.19086 
L 422.353358 -353.38002 
L 418.846024 -353.569179 
L 415.33869 -353.758339 
L 411.831356 -353.947499 
L 408.324022 -354.136659 
L 404.816688 -354.325819 
L 401.309354 -354.514978 
L 397.802021 -354.704138 
L 394.294687 -354.893298 
L 390.787353 -355.082458 
L 387.280019 -355.271618 
L 383.772685 -355.460777 
L 380.265351 -355.573222 
L 376.758018 -355.378808 
L 373.250684 -355.184394 
L 369.74335 -354.98998 
L 366.236016 -354.795565 
L 362.728682 -354.601151 
L 359.221348 -354.406737 
L 355.714015 -354.212323 
L 352.206681 -354.017908 
L 348.699347 -353.823494 
L 345.192013 -353.62908 
L 341.684679 -353.434666 
L 338.177345 -353.240251 
L 334.670011 -353.045837 
L 331.162678 -352.851423 
L 327.655344 -352.657009 
L 324.14801 -352.462594 
L 320.640676 -352.26818 
L 317.133342 -352.073766 
L 313.626008 -351.879352 
L 310.118675 -351.684937 
L 306.611341 -351.490523 
L 303.104007 -351.296109 
L 299.596673 -351.101695 
L 296.089339 -351.116057 
L 292.582005 -351.443584 
L 289.074672 -351.77111 
L 285.567338 -352.098637 
L 282.060004 -352.426164 
L 278.55267 -352.75369 
L 275.045336 -353.081217 
L 271.538002 -353.408744 
L 268.030668 -353.736271 
L 264.523335 -354.063797 
L 261.016001 -354.391324 
L 257.508667 -354.718851 
L 254.001333 -355.046377 
L 250.493999 -355.373904 
L 246.986665 -355.701431 
L 243.479332 -356.028957 
L 239.971998 -356.356484 
L 236.464664 -356.684011 
L 232.95733 -357.011538 
L 229.449996 -357.339064 
L 225.942662 -357.666591 
L 222.435328 -357.994118 
L 218.927995 -358.321644 
L 215.420661 -358.649171 
L 211.913327 -358.679297 
L 208.405993 -358.511155 
L 204.898659 -358.343012 
L 201.391325 -358.17487 
L 197.883992 -358.006728 
L 194.376658 -357.838586 
L 190.869324 -357.670444 
L 187.36199 -357.502302 
L 183.854656 -357.33416 
L 180.347322 -357.166018 
L 176.839989 -356.997876 
L 173.332655 -356.829734 
L 169.825321 -356.661592 
L 166.317987 -356.49345 
L 162.810653 -356.325308 
L 159.303319 -356.157166 
L 155.795985 -355.989024 
L 152.288652 -355.820882 
L 148.781318 -355.65274 
L 145.273984 -355.484598 
L 141.76665 -355.316456 
L 138.259316 -355.148313 
L 134.751982 -354.980171 
L 131.244649 -354.812029 
L 127.737315 -354.757383 
L 124.229981 -354.731111 
L 120.722647 -354.704839 
L 117.215313 -354.678567 
L 113.707979 -354.652294 
L 110.200646 -354.626022 
L 106.693312 -354.59975 
L 103.185978 -354.573478 
L 99.678644 -354.547206 
L 96.17131 -354.520933 
L 92.663976 -354.494661 
L 89.156642 -354.468389 
L 85.649309 -354.442117 
L 82.141975 -354.415845 
L 78.634641 -354.389572 
L 75.127307 -354.3633 
L 71.619973 -354.337028 
L 68.112639 -354.310756 
L 64.605306 -354.284484 
L 61.097972 -354.258211 
L 57.590638 -354.231939 
L 54.083304 -354.205667 
L 50.57597 -354.179395 
L 47.068636 -354.153123 
z
" style="stroke: #66c2a5; stroke-opacity: 0.25"/>
    </defs>
    <g clip-path="url(#p20a1ea95d0)">
     <use xlink:href="#m5a938262d0" x="0" y="381.114" style="fill: #66c2a5; fill-opacity: 0.25; stroke: #66c2a5; stroke-opacity: 0.25"/>
    </g>
   </g>
   <g id="PolyCollection_2">
    <defs>
     <path id="m17b6019e9d" d="M 47.068636 -245.938298 
L 47.068636 -56.103818 
L 50.57597 -56.103818 
L 54.083304 -56.103818 
L 57.590638 -56.103818 
L 61.097972 -56.103818 
L 64.605306 -56.103818 
L 68.112639 -56.103818 
L 71.619973 -56.103818 
L 75.127307 -56.103818 
L 78.634641 -56.103818 
L 82.141975 -56.103818 
L 85.649309 -56.103818 
L 89.156642 -56.103818 
L 92.663976 -56.103818 
L 96.17131 -56.103818 
L 99.678644 -56.103818 
L 103.185978 -56.103818 
L 106.693312 -56.103818 
L 110.200646 -56.103818 
L 113.707979 -56.103818 
L 117.215313 -56.103818 
L 120.722647 -56.103818 
L 124.229981 -56.103818 
L 127.737315 -56.103818 
L 131.244649 -56.103818 
L 134.751982 -56.103818 
L 138.259316 -56.103818 
L 141.76665 -56.103818 
L 145.273984 -56.103818 
L 148.781318 -56.103818 
L 152.288652 -56.103818 
L 155.795985 -56.103818 
L 159.303319 -56.103818 
L 162.810653 -56.103818 
L 166.317987 -56.103818 
L 169.825321 -56.103818 
L 173.332655 -56.103818 
L 176.839989 -56.103818 
L 180.347322 -56.103818 
L 183.854656 -56.103818 
L 187.36199 -56.103818 
L 190.869324 -56.103818 
L 194.376658 -56.103818 
L 197.883992 -56.103818 
L 201.391325 -56.103818 
L 204.898659 -56.103818 
L 208.405993 -56.103818 
L 211.913327 -56.103818 
L 215.420661 -56.103818 
L 218.927995 -56.103818 
L 222.435328 -56.103818 
L 225.942662 -56.103818 
L 229.449996 -56.103818 
L 232.95733 -56.103818 
L 236.464664 -56.103818 
L 239.971998 -56.103818 
L 243.479332 -56.103818 
L 246.986665 -56.103818 
L 250.493999 -56.103818 
L 254.001333 -56.103818 
L 257.508667 -56.103818 
L 261.016001 -56.103818 
L 264.523335 -56.103818 
L 268.030668 -56.103818 
L 271.538002 -56.103818 
L 275.045336 -56.103818 
L 278.55267 -56.103818 
L 282.060004 -56.103818 
L 285.567338 -56.103818 
L 289.074672 -56.103818 
L 292.582005 -56.103818 
L 296.089339 -56.103818 
L 299.596673 -56.103818 
L 303.104007 -56.103818 
L 306.611341 -56.103818 
L 310.118675 -56.103818 
L 313.626008 -56.103818 
L 317.133342 -56.103818 
L 320.640676 -56.103818 
L 324.14801 -56.103818 
L 327.655344 -56.103818 
L 331.162678 -56.103818 
L 334.670011 -56.103818 
L 338.177345 -56.103818 
L 341.684679 -56.103818 
L 345.192013 -56.103818 
L 348.699347 -56.103818 
L 352.206681 -56.103818 
L 355.714015 -56.103818 
L 359.221348 -56.103818 
L 362.728682 -56.103818 
L 366.236016 -56.103818 
L 369.74335 -56.103818 
L 373.250684 -56.103818 
L 376.758018 -56.103818 
L 380.265351 -56.103818 
L 383.772685 -56.103818 
L 387.280019 -56.103818 
L 390.787353 -56.103818 
L 394.294687 -56.103818 
L 397.802021 -56.103818 
L 401.309354 -56.103818 
L 404.816688 -56.103818 
L 408.324022 -56.103818 
L 411.831356 -56.103818 
L 415.33869 -56.103818 
L 418.846024 -56.103818 
L 422.353358 -56.103818 
L 425.860691 -56.103818 
L 429.368025 -56.103818 
L 432.875359 -56.103818 
L 436.382693 -56.103818 
L 439.890027 -56.103818 
L 443.397361 -56.103818 
L 446.904694 -56.103818 
L 450.412028 -56.103818 
L 453.919362 -56.103818 
L 457.426696 -56.103818 
L 460.93403 -56.103818 
L 464.441364 -56.103818 
L 464.441364 -245.688187 
L 464.441364 -245.688187 
L 460.93403 -245.807288 
L 457.426696 -245.926388 
L 453.919362 -246.045489 
L 450.412028 -246.164589 
L 446.904694 -246.28369 
L 443.397361 -246.402791 
L 439.890027 -246.521891 
L 436.382693 -246.640992 
L 432.875359 -246.760093 
L 429.368025 -246.879193 
L 425.860691 -246.998294 
L 422.353358 -247.117394 
L 418.846024 -247.236495 
L 415.33869 -247.355596 
L 411.831356 -247.474696 
L 408.324022 -247.593797 
L 404.816688 -247.712898 
L 401.309354 -247.831998 
L 397.802021 -247.951099 
L 394.294687 -248.070199 
L 390.787353 -248.1893 
L 387.280019 -248.308401 
L 383.772685 -248.427501 
L 380.265351 -248.47339 
L 376.758018 -248.226431 
L 373.250684 -247.979473 
L 369.74335 -247.732514 
L 366.236016 -247.485555 
L 362.728682 -247.238597 
L 359.221348 -246.991638 
L 355.714015 -246.74468 
L 352.206681 -246.497721 
L 348.699347 -246.250762 
L 345.192013 -246.003804 
L 341.684679 -245.756845 
L 338.177345 -245.509886 
L 334.670011 -245.262928 
L 331.162678 -245.015969 
L 327.655344 -244.76901 
L 324.14801 -244.522052 
L 320.640676 -244.275093 
L 317.133342 -244.028134 
L 313.626008 -243.781176 
L 310.118675 -243.534217 
L 306.611341 -243.287259 
L 303.104007 -243.0403 
L 299.596673 -242.793341 
L 296.089339 -242.824518 
L 292.582005 -243.272896 
L 289.074672 -243.721275 
L 285.567338 -244.169654 
L 282.060004 -244.618033 
L 278.55267 -245.066412 
L 275.045336 -245.51479 
L 271.538002 -245.963169 
L 268.030668 -246.411548 
L 264.523335 -246.859927 
L 261.016001 -247.308306 
L 257.508667 -247.756685 
L 254.001333 -248.205063 
L 250.493999 -248.653442 
L 246.986665 -249.101821 
L 243.479332 -249.5502 
L 239.971998 -249.998579 
L 236.464664 -250.446957 
L 232.95733 -250.895336 
L 229.449996 -251.343715 
L 225.942662 -251.792094 
L 222.435328 -252.240473 
L 218.927995 -252.688851 
L 215.420661 -253.13723 
L 211.913327 -253.211493 
L 208.405993 -253.036345 
L 204.898659 -252.861197 
L 201.391325 -252.686049 
L 197.883992 -252.510901 
L 194.376658 -252.335753 
L 190.869324 -252.160605 
L 187.36199 -251.985457 
L 183.854656 -251.810309 
L 180.347322 -251.635161 
L 176.839989 -251.460013 
L 173.332655 -251.284865 
L 169.825321 -251.109717 
L 166.317987 -250.934569 
L 162.810653 -250.759421 
L 159.303319 -250.584273 
L 155.795985 -250.409125 
L 152.288652 -250.233977 
L 148.781318 -250.058829 
L 145.273984 -249.883682 
L 141.76665 -249.708534 
L 138.259316 -249.533386 
L 134.751982 -249.358238 
L 131.244649 -249.18309 
L 127.737315 -249.040169 
L 124.229981 -248.905305 
L 120.722647 -248.770441 
L 117.215313 -248.635577 
L 113.707979 -248.500713 
L 110.200646 -248.365849 
L 106.693312 -248.230985 
L 103.185978 -248.096121 
L 99.678644 -247.961257 
L 96.17131 -247.826393 
L 92.663976 -247.691529 
L 89.156642 -247.556666 
L 85.649309 -247.421802 
L 82.141975 -247.286938 
L 78.634641 -247.152074 
L 75.127307 -247.01721 
L 71.619973 -246.882346 
L 68.112639 -246.747482 
L 64.605306 -246.612618 
L 61.097972 -246.477754 
L 57.590638 -246.34289 
L 54.083304 -246.208026 
L 50.57597 -246.073162 
L 47.068636 -245.938298 
z
" style="stroke: #e78ac3; stroke-opacity: 0.25"/>
    </defs>
    <g clip-path="url(#p20a1ea95d0)">
     <use xlink:href="#m17b6019e9d" x="0" y="381.114" style="fill: #e78ac3; fill-opacity: 0.25; stroke: #e78ac3; stroke-opacity: 0.25"/>
    </g>
   </g>
   <g id="PolyCollection_3">
    <defs>
     <path id="ma04932ed3f" d="M 47.068636 -256.73477 
L 47.068636 -56.103818 
L 50.57597 -56.103818 
L 54.083304 -56.103818 
L 57.590638 -56.103818 
L 61.097972 -56.103818 
L 64.605306 -56.103818 
L 68.112639 -56.103818 
L 71.619973 -56.103818 
L 75.127307 -56.103818 
L 78.634641 -56.103818 
L 82.141975 -56.103818 
L 85.649309 -56.103818 
L 89.156642 -56.103818 
L 92.663976 -56.103818 
L 96.17131 -56.103818 
L 99.678644 -56.103818 
L 103.185978 -56.103818 
L 106.693312 -56.103818 
L 110.200646 -56.103818 
L 113.707979 -56.103818 
L 117.215313 -56.103818 
L 120.722647 -56.103818 
L 124.229981 -56.103818 
L 127.737315 -56.103818 
L 131.244649 -56.103818 
L 134.751982 -56.103818 
L 138.259316 -56.103818 
L 141.76665 -56.103818 
L 145.273984 -56.103818 
L 148.781318 -56.103818 
L 152.288652 -56.103818 
L 155.795985 -56.103818 
L 159.303319 -56.103818 
L 162.810653 -56.103818 
L 166.317987 -56.103818 
L 169.825321 -56.103818 
L 173.332655 -56.103818 
L 176.839989 -56.103818 
L 180.347322 -56.103818 
L 183.854656 -56.103818 
L 187.36199 -56.103818 
L 190.869324 -56.103818 
L 194.376658 -56.103818 
L 197.883992 -56.103818 
L 201.391325 -56.103818 
L 204.898659 -56.103818 
L 208.405993 -56.103818 
L 211.913327 -56.103818 
L 215.420661 -56.103818 
L 218.927995 -56.103818 
L 222.435328 -56.103818 
L 225.942662 -56.103818 
L 229.449996 -56.103818 
L 232.95733 -56.103818 
L 236.464664 -56.103818 
L 239.971998 -56.103818 
L 243.479332 -56.103818 
L 246.986665 -56.103818 
L 250.493999 -56.103818 
L 254.001333 -56.103818 
L 257.508667 -56.103818 
L 261.016001 -56.103818 
L 264.523335 -56.103818 
L 268.030668 -56.103818 
L 271.538002 -56.103818 
L 275.045336 -56.103818 
L 278.55267 -56.103818 
L 282.060004 -56.103818 
L 285.567338 -56.103818 
L 289.074672 -56.103818 
L 292.582005 -56.103818 
L 296.089339 -56.103818 
L 299.596673 -56.103818 
L 303.104007 -56.103818 
L 306.611341 -56.103818 
L 310.118675 -56.103818 
L 313.626008 -56.103818 
L 317.133342 -56.103818 
L 320.640676 -56.103818 
L 324.14801 -56.103818 
L 327.655344 -56.103818 
L 331.162678 -56.103818 
L 334.670011 -56.103818 
L 338.177345 -56.103818 
L 341.684679 -56.103818 
L 345.192013 -56.103818 
L 348.699347 -56.103818 
L 352.206681 -56.103818 
L 355.714015 -56.103818 
L 359.221348 -56.103818 
L 362.728682 -56.103818 
L 366.236016 -56.103818 
L 369.74335 -56.103818 
L 373.250684 -56.103818 
L 376.758018 -56.103818 
L 380.265351 -56.103818 
L 383.772685 -56.103818 
L 387.280019 -56.103818 
L 390.787353 -56.103818 
L 394.294687 -56.103818 
L 397.802021 -56.103818 
L 401.309354 -56.103818 
L 404.816688 -56.103818 
L 408.324022 -56.103818 
L 411.831356 -56.103818 
L 415.33869 -56.103818 
L 418.846024 -56.103818 
L 422.353358 -56.103818 
L 425.860691 -56.103818 
L 429.368025 -56.103818 
L 432.875359 -56.103818 
L 436.382693 -56.103818 
L 439.890027 -56.103818 
L 443.397361 -56.103818 
L 446.904694 -56.103818 
L 450.412028 -56.103818 
L 453.919362 -56.103818 
L 457.426696 -56.103818 
L 460.93403 -56.103818 
L 464.441364 -56.103818 
L 464.441364 -254.275342 
L 464.441364 -254.275342 
L 460.93403 -254.411957 
L 457.426696 -254.548573 
L 453.919362 -254.685188 
L 450.412028 -254.821803 
L 446.904694 -254.958419 
L 443.397361 -255.095034 
L 439.890027 -255.23165 
L 436.382693 -255.368265 
L 432.875359 -255.504881 
L 429.368025 -255.641496 
L 425.860691 -255.778111 
L 422.353358 -255.914727 
L 418.846024 -256.051342 
L 415.33869 -256.187958 
L 411.831356 -256.324573 
L 408.324022 -256.461188 
L 404.816688 -256.597804 
L 401.309354 -256.734419 
L 397.802021 -256.871035 
L 394.294687 -257.00765 
L 390.787353 -257.144266 
L 387.280019 -257.280881 
L 383.772685 -257.417496 
L 380.265351 -257.526789 
L 376.758018 -257.526789 
L 373.250684 -257.526789 
L 369.74335 -257.526789 
L 366.236016 -257.526789 
L 362.728682 -257.526789 
L 359.221348 -257.526789 
L 355.714015 -257.526789 
L 352.206681 -257.526789 
L 348.699347 -257.526789 
L 345.192013 -257.526789 
L 341.684679 -257.526789 
L 338.177345 -257.526789 
L 334.670011 -257.526789 
L 331.162678 -257.526789 
L 327.655344 -257.526789 
L 324.14801 -257.526789 
L 320.640676 -257.526789 
L 317.133342 -257.526789 
L 313.626008 -257.526789 
L 310.118675 -257.526789 
L 306.611341 -257.526789 
L 303.104007 -257.526789 
L 299.596673 -257.526789 
L 296.089339 -257.606656 
L 292.582005 -257.806325 
L 289.074672 -258.005994 
L 285.567338 -258.205662 
L 282.060004 -258.405331 
L 278.55267 -258.605 
L 275.045336 -258.804668 
L 271.538002 -259.004337 
L 268.030668 -259.204006 
L 264.523335 -259.403674 
L 261.016001 -259.603343 
L 257.508667 -259.803012 
L 254.001333 -260.00268 
L 250.493999 -260.202349 
L 246.986665 -260.402018 
L 243.479332 -260.601687 
L 239.971998 -260.801355 
L 236.464664 -261.001024 
L 232.95733 -261.200693 
L 229.449996 -261.400361 
L 225.942662 -261.60003 
L 222.435328 -261.799699 
L 218.927995 -261.999367 
L 215.420661 -262.199036 
L 211.913327 -262.185374 
L 208.405993 -262.029493 
L 204.898659 -261.873611 
L 201.391325 -261.717729 
L 197.883992 -261.561848 
L 194.376658 -261.405966 
L 190.869324 -261.250084 
L 187.36199 -261.094203 
L 183.854656 -260.938321 
L 180.347322 -260.782439 
L 176.839989 -260.626558 
L 173.332655 -260.470676 
L 169.825321 -260.314794 
L 166.317987 -260.158912 
L 162.810653 -260.003031 
L 159.303319 -259.847149 
L 155.795985 -259.691267 
L 152.288652 -259.535386 
L 148.781318 -259.379504 
L 145.273984 -259.223622 
L 141.76665 -259.067741 
L 138.259316 -258.911859 
L 134.751982 -258.755977 
L 131.244649 -258.600095 
L 127.737315 -258.507267 
L 124.229981 -258.430202 
L 120.722647 -258.353137 
L 117.215313 -258.276072 
L 113.707979 -258.199007 
L 110.200646 -258.121942 
L 106.693312 -258.044876 
L 103.185978 -257.967811 
L 99.678644 -257.890746 
L 96.17131 -257.813681 
L 92.663976 -257.736616 
L 89.156642 -257.659551 
L 85.649309 -257.582486 
L 82.141975 -257.505421 
L 78.634641 -257.428356 
L 75.127307 -257.35129 
L 71.619973 -257.274225 
L 68.112639 -257.19716 
L 64.605306 -257.120095 
L 61.097972 -257.04303 
L 57.590638 -256.965965 
L 54.083304 -256.8889 
L 50.57597 -256.811835 
L 47.068636 -256.73477 
z
" style="stroke: #e5c494; stroke-opacity: 0.25"/>
    </defs>
    <g clip-path="url(#p20a1ea95d0)">
     <use xlink:href="#ma04932ed3f" x="0" y="381.114" style="fill: #e5c494; fill-opacity: 0.25; stroke: #e5c494; stroke-opacity: 0.25"/>
    </g>
   </g>
   <g id="matplotlib.axis_1">
    <g id="xtick_1">
     <g id="line2d_1">
      <path d="M 47.068636 340.144 
L 47.068636 7.2 
" clip-path="url(#p20a1ea95d0)" style="fill: none; stroke-dasharray: 2.96,1.28; stroke-dashoffset: 0; stroke: #b0b0b0; stroke-opacity: 0.5; stroke-width: 0.8"/>
     </g>
     <g id="line2d_2">
      <defs>
       <path id="me37004d452" d="M 0 0 
L 0 3.5 
" style="stroke: #000000; stroke-width: 0.8"/>
      </defs>
      <g>
       <use xlink:href="#me37004d452" x="47.068636" y="340.144" style="stroke: #000000; stroke-width: 0.8"/>
      </g>
     </g>
     <g id="text_1">
      <text style="font: 12px 'SimHei', 'Microsoft YaHei', 'DejaVu Sans', 'Bitstream Vera Sans', 'Computer Modern Sans Serif', 'Lucida Grande', 'Verdana', 'Geneva', 'Lucid', 'Arial', 'Helvetica', 'Avant Garde', sans-serif; text-anchor: middle" x="47.068636" y="355.394" transform="rotate(-0 47.068636 355.394)">3</text>
     </g>
    </g>
    <g id="xtick_2">
     <g id="line2d_3">
      <path d="M 130.543182 340.144 
L 130.543182 7.2 
" clip-path="url(#p20a1ea95d0)" style="fill: none; stroke-dasharray: 2.96,1.28; stroke-dashoffset: 0; stroke: #b0b0b0; stroke-opacity: 0.5; stroke-width: 0.8"/>
     </g>
     <g id="line2d_4">
      <g>
       <use xlink:href="#me37004d452" x="130.543182" y="340.144" style="stroke: #000000; stroke-width: 0.8"/>
      </g>
     </g>
     <g id="text_2">
      <text style="font: 12px 'SimHei', 'Microsoft YaHei', 'DejaVu Sans', 'Bitstream Vera Sans', 'Computer Modern Sans Serif', 'Lucida Grande', 'Verdana', 'Geneva', 'Lucid', 'Arial', 'Helvetica', 'Avant Garde', sans-serif; text-anchor: middle" x="130.543182" y="355.394" transform="rotate(-0 130.543182 355.394)">4</text>
     </g>
    </g>
    <g id="xtick_3">
     <g id="line2d_5">
      <path d="M 214.017727 340.144 
L 214.017727 7.2 
" clip-path="url(#p20a1ea95d0)" style="fill: none; stroke-dasharray: 2.96,1.28; stroke-dashoffset: 0; stroke: #b0b0b0; stroke-opacity: 0.5; stroke-width: 0.8"/>
     </g>
     <g id="line2d_6">
      <g>
       <use xlink:href="#me37004d452" x="214.017727" y="340.144" style="stroke: #000000; stroke-width: 0.8"/>
      </g>
     </g>
     <g id="text_3">
      <text style="font: 12px 'SimHei', 'Microsoft YaHei', 'DejaVu Sans', 'Bitstream Vera Sans', 'Computer Modern Sans Serif', 'Lucida Grande', 'Verdana', 'Geneva', 'Lucid', 'Arial', 'Helvetica', 'Avant Garde', sans-serif; text-anchor: middle" x="214.017727" y="355.394" transform="rotate(-0 214.017727 355.394)">5</text>
     </g>
    </g>
    <g id="xtick_4">
     <g id="line2d_7">
      <path d="M 297.492273 340.144 
L 297.492273 7.2 
" clip-path="url(#p20a1ea95d0)" style="fill: none; stroke-dasharray: 2.96,1.28; stroke-dashoffset: 0; stroke: #b0b0b0; stroke-opacity: 0.5; stroke-width: 0.8"/>
     </g>
     <g id="line2d_8">
      <g>
       <use xlink:href="#me37004d452" x="297.492273" y="340.144" style="stroke: #000000; stroke-width: 0.8"/>
      </g>
     </g>
     <g id="text_4">
      <text style="font: 12px 'SimHei', 'Microsoft YaHei', 'DejaVu Sans', 'Bitstream Vera Sans', 'Computer Modern Sans Serif', 'Lucida Grande', 'Verdana', 'Geneva', 'Lucid', 'Arial', 'Helvetica', 'Avant Garde', sans-serif; text-anchor: middle" x="297.492273" y="355.394" transform="rotate(-0 297.492273 355.394)">6</text>
     </g>
    </g>
    <g id="xtick_5">
     <g id="line2d_9">
      <path d="M 380.966818 340.144 
L 380.966818 7.2 
" clip-path="url(#p20a1ea95d0)" style="fill: none; stroke-dasharray: 2.96,1.28; stroke-dashoffset: 0; stroke: #b0b0b0; stroke-opacity: 0.5; stroke-width: 0.8"/>
     </g>
     <g id="line2d_10">
      <g>
       <use xlink:href="#me37004d452" x="380.966818" y="340.144" style="stroke: #000000; stroke-width: 0.8"/>
      </g>
     </g>
     <g id="text_5">
      <text style="font: 12px 'SimHei', 'Microsoft YaHei', 'DejaVu Sans', 'Bitstream Vera Sans', 'Computer Modern Sans Serif', 'Lucida Grande', 'Verdana', 'Geneva', 'Lucid', 'Arial', 'Helvetica', 'Avant Garde', sans-serif; text-anchor: middle" x="380.966818" y="355.394" transform="rotate(-0 380.966818 355.394)">7</text>
     </g>
    </g>
    <g id="xtick_6">
     <g id="line2d_11">
      <path d="M 464.441364 340.144 
L 464.441364 7.2 
" clip-path="url(#p20a1ea95d0)" style="fill: none; stroke-dasharray: 2.96,1.28; stroke-dashoffset: 0; stroke: #b0b0b0; stroke-opacity: 0.5; stroke-width: 0.8"/>
     </g>
     <g id="line2d_12">
      <g>
       <use xlink:href="#me37004d452" x="464.441364" y="340.144" style="stroke: #000000; stroke-width: 0.8"/>
      </g>
     </g>
     <g id="text_6">
      <text style="font: 12px 'SimHei', 'Microsoft YaHei', 'DejaVu Sans', 'Bitstream Vera Sans', 'Computer Modern Sans Serif', 'Lucida Grande', 'Verdana', 'Geneva', 'Lucid', 'Arial', 'Helvetica', 'Avant Garde', sans-serif; text-anchor: middle" x="464.441364" y="355.394" transform="rotate(-0 464.441364 355.394)">8</text>
     </g>
    </g>
    <g id="text_7">
     <!-- $\lambda_{KL}$ -->
     <g transform="translate(245.465 371.534)">
      <text>
       <tspan style="font: oblique 14px 'DejaVu Sans'" x="0" y="-0.359375">λ</tspan>
       <tspan style="font: oblique 9.8px 'DejaVu Sans'" x="8.285156 14.711621" y="1.9375">KL</tspan>
      </text>
     </g>
    </g>
   </g>
   <g id="matplotlib.axis_2">
    <g id="ytick_1">
     <g id="line2d_13">
      <path d="M 26.2 325.010182 
L 485.31 325.010182 
" clip-path="url(#p20a1ea95d0)" style="fill: none; stroke-dasharray: 2.96,1.28; stroke-dashoffset: 0; stroke: #b0b0b0; stroke-opacity: 0.5; stroke-width: 0.8"/>
     </g>
     <g id="line2d_14">
      <defs>
       <path id="mc4ccae40e4" d="M 0 0 
L -3.5 0 
" style="stroke: #000000; stroke-width: 0.8"/>
      </defs>
      <g>
       <use xlink:href="#mc4ccae40e4" x="26.2" y="325.010182" style="stroke: #000000; stroke-width: 0.8"/>
      </g>
     </g>
     <g id="text_8">
      <text style="font: 12px 'SimHei', 'Microsoft YaHei', 'DejaVu Sans', 'Bitstream Vera Sans', 'Computer Modern Sans Serif', 'Lucida Grande', 'Verdana', 'Geneva', 'Lucid', 'Arial', 'Helvetica', 'Avant Garde', sans-serif; text-anchor: end" x="19.2" y="329.135182" transform="rotate(-0 19.2 329.135182)">0</text>
     </g>
    </g>
    <g id="ytick_2">
     <g id="line2d_15">
      <path d="M 26.2 283.324964 
L 485.31 283.324964 
" clip-path="url(#p20a1ea95d0)" style="fill: none; stroke-dasharray: 2.96,1.28; stroke-dashoffset: 0; stroke: #b0b0b0; stroke-opacity: 0.5; stroke-width: 0.8"/>
     </g>
     <g id="line2d_16">
      <g>
       <use xlink:href="#mc4ccae40e4" x="26.2" y="283.324964" style="stroke: #000000; stroke-width: 0.8"/>
      </g>
     </g>
     <g id="text_9">
      <text style="font: 12px 'SimHei', 'Microsoft YaHei', 'DejaVu Sans', 'Bitstream Vera Sans', 'Computer Modern Sans Serif', 'Lucida Grande', 'Verdana', 'Geneva', 'Lucid', 'Arial', 'Helvetica', 'Avant Garde', sans-serif; text-anchor: end" x="19.2" y="287.449964" transform="rotate(-0 19.2 287.449964)">10</text>
     </g>
    </g>
    <g id="ytick_3">
     <g id="line2d_17">
      <path d="M 26.2 241.639747 
L 485.31 241.639747 
" clip-path="url(#p20a1ea95d0)" style="fill: none; stroke-dasharray: 2.96,1.28; stroke-dashoffset: 0; stroke: #b0b0b0; stroke-opacity: 0.5; stroke-width: 0.8"/>
     </g>
     <g id="line2d_18">
      <g>
       <use xlink:href="#mc4ccae40e4" x="26.2" y="241.639747" style="stroke: #000000; stroke-width: 0.8"/>
      </g>
     </g>
     <g id="text_10">
      <text style="font: 12px 'SimHei', 'Microsoft YaHei', 'DejaVu Sans', 'Bitstream Vera Sans', 'Computer Modern Sans Serif', 'Lucida Grande', 'Verdana', 'Geneva', 'Lucid', 'Arial', 'Helvetica', 'Avant Garde', sans-serif; text-anchor: end" x="19.2" y="245.764747" transform="rotate(-0 19.2 245.764747)">20</text>
     </g>
    </g>
    <g id="ytick_4">
     <g id="line2d_19">
      <path d="M 26.2 199.95453 
L 485.31 199.95453 
" clip-path="url(#p20a1ea95d0)" style="fill: none; stroke-dasharray: 2.96,1.28; stroke-dashoffset: 0; stroke: #b0b0b0; stroke-opacity: 0.5; stroke-width: 0.8"/>
     </g>
     <g id="line2d_20">
      <g>
       <use xlink:href="#mc4ccae40e4" x="26.2" y="199.95453" style="stroke: #000000; stroke-width: 0.8"/>
      </g>
     </g>
     <g id="text_11">
      <text style="font: 12px 'SimHei', 'Microsoft YaHei', 'DejaVu Sans', 'Bitstream Vera Sans', 'Computer Modern Sans Serif', 'Lucida Grande', 'Verdana', 'Geneva', 'Lucid', 'Arial', 'Helvetica', 'Avant Garde', sans-serif; text-anchor: end" x="19.2" y="204.07953" transform="rotate(-0 19.2 204.07953)">30</text>
     </g>
    </g>
    <g id="ytick_5">
     <g id="line2d_21">
      <path d="M 26.2 158.269312 
L 485.31 158.269312 
" clip-path="url(#p20a1ea95d0)" style="fill: none; stroke-dasharray: 2.96,1.28; stroke-dashoffset: 0; stroke: #b0b0b0; stroke-opacity: 0.5; stroke-width: 0.8"/>
     </g>
     <g id="line2d_22">
      <g>
       <use xlink:href="#mc4ccae40e4" x="26.2" y="158.269312" style="stroke: #000000; stroke-width: 0.8"/>
      </g>
     </g>
     <g id="text_12">
      <text style="font: 12px 'SimHei', 'Microsoft YaHei', 'DejaVu Sans', 'Bitstream Vera Sans', 'Computer Modern Sans Serif', 'Lucida Grande', 'Verdana', 'Geneva', 'Lucid', 'Arial', 'Helvetica', 'Avant Garde', sans-serif; text-anchor: end" x="19.2" y="162.394312" transform="rotate(-0 19.2 162.394312)">40</text>
     </g>
    </g>
    <g id="ytick_6">
     <g id="line2d_23">
      <path d="M 26.2 116.584095 
L 485.31 116.584095 
" clip-path="url(#p20a1ea95d0)" style="fill: none; stroke-dasharray: 2.96,1.28; stroke-dashoffset: 0; stroke: #b0b0b0; stroke-opacity: 0.5; stroke-width: 0.8"/>
     </g>
     <g id="line2d_24">
      <g>
       <use xlink:href="#mc4ccae40e4" x="26.2" y="116.584095" style="stroke: #000000; stroke-width: 0.8"/>
      </g>
     </g>
     <g id="text_13">
      <text style="font: 12px 'SimHei', 'Microsoft YaHei', 'DejaVu Sans', 'Bitstream Vera Sans', 'Computer Modern Sans Serif', 'Lucida Grande', 'Verdana', 'Geneva', 'Lucid', 'Arial', 'Helvetica', 'Avant Garde', sans-serif; text-anchor: end" x="19.2" y="120.709095" transform="rotate(-0 19.2 120.709095)">50</text>
     </g>
    </g>
    <g id="ytick_7">
     <g id="line2d_25">
      <path d="M 26.2 74.898877 
L 485.31 74.898877 
" clip-path="url(#p20a1ea95d0)" style="fill: none; stroke-dasharray: 2.96,1.28; stroke-dashoffset: 0; stroke: #b0b0b0; stroke-opacity: 0.5; stroke-width: 0.8"/>
     </g>
     <g id="line2d_26">
      <g>
       <use xlink:href="#mc4ccae40e4" x="26.2" y="74.898877" style="stroke: #000000; stroke-width: 0.8"/>
      </g>
     </g>
     <g id="text_14">
      <text style="font: 12px 'SimHei', 'Microsoft YaHei', 'DejaVu Sans', 'Bitstream Vera Sans', 'Computer Modern Sans Serif', 'Lucida Grande', 'Verdana', 'Geneva', 'Lucid', 'Arial', 'Helvetica', 'Avant Garde', sans-serif; text-anchor: end" x="19.2" y="79.023877" transform="rotate(-0 19.2 79.023877)">60</text>
     </g>
    </g>
    <g id="ytick_8">
     <g id="line2d_27">
      <path d="M 26.2 33.21366 
L 485.31 33.21366 
" clip-path="url(#p20a1ea95d0)" style="fill: none; stroke-dasharray: 2.96,1.28; stroke-dashoffset: 0; stroke: #b0b0b0; stroke-opacity: 0.5; stroke-width: 0.8"/>
     </g>
     <g id="line2d_28">
      <g>
       <use xlink:href="#mc4ccae40e4" x="26.2" y="33.21366" style="stroke: #000000; stroke-width: 0.8"/>
      </g>
     </g>
     <g id="text_15">
      <text style="font: 12px 'SimHei', 'Microsoft YaHei', 'DejaVu Sans', 'Bitstream Vera Sans', 'Computer Modern Sans Serif', 'Lucida Grande', 'Verdana', 'Geneva', 'Lucid', 'Arial', 'Helvetica', 'Avant Garde', sans-serif; text-anchor: end" x="19.2" y="37.33866" transform="rotate(-0 19.2 37.33866)">70</text>
     </g>
    </g>
   </g>
   <g id="line2d_29">
    <path d="M 47.068636 26.960877 
L 50.57597 26.934605 
L 54.083304 26.908333 
L 57.590638 26.882061 
L 61.097972 26.855789 
L 64.605306 26.829516 
L 68.112639 26.803244 
L 71.619973 26.776972 
L 75.127307 26.7507 
L 78.634641 26.724428 
L 82.141975 26.698155 
L 85.649309 26.671883 
L 89.156642 26.645611 
L 92.663976 26.619339 
L 96.17131 26.593067 
L 99.678644 26.566794 
L 103.185978 26.540522 
L 106.693312 26.51425 
L 110.200646 26.487978 
L 113.707979 26.461706 
L 117.215313 26.435433 
L 120.722647 26.409161 
L 124.229981 26.382889 
L 127.737315 26.356617 
L 131.244649 26.301971 
L 134.751982 26.133829 
L 138.259316 25.965687 
L 141.76665 25.797544 
L 145.273984 25.629402 
L 148.781318 25.46126 
L 152.288652 25.293118 
L 155.795985 25.124976 
L 159.303319 24.956834 
L 162.810653 24.788692 
L 166.317987 24.62055 
L 169.825321 24.452408 
L 173.332655 24.284266 
L 176.839989 24.116124 
L 180.347322 23.947982 
L 183.854656 23.77984 
L 187.36199 23.611698 
L 190.869324 23.443556 
L 194.376658 23.275414 
L 197.883992 23.107272 
L 201.391325 22.93913 
L 204.898659 22.770988 
L 208.405993 22.602845 
L 211.913327 22.434703 
L 215.420661 22.464829 
L 218.927995 22.792356 
L 222.435328 23.119882 
L 225.942662 23.447409 
L 229.449996 23.774936 
L 232.95733 24.102462 
L 236.464664 24.429989 
L 239.971998 24.757516 
L 243.479332 25.085043 
L 246.986665 25.412569 
L 250.493999 25.740096 
L 254.001333 26.067623 
L 257.508667 26.395149 
L 261.016001 26.722676 
L 264.523335 27.050203 
L 268.030668 27.377729 
L 271.538002 27.705256 
L 275.045336 28.032783 
L 278.55267 28.36031 
L 282.060004 28.687836 
L 285.567338 29.015363 
L 289.074672 29.34289 
L 292.582005 29.670416 
L 296.089339 29.997943 
L 299.596673 30.012305 
L 303.104007 29.817891 
L 306.611341 29.623477 
L 310.118675 29.429063 
L 313.626008 29.234648 
L 317.133342 29.040234 
L 320.640676 28.84582 
L 324.14801 28.651406 
L 327.655344 28.456991 
L 331.162678 28.262577 
L 334.670011 28.068163 
L 338.177345 27.873749 
L 341.684679 27.679334 
L 345.192013 27.48492 
L 348.699347 27.290506 
L 352.206681 27.096092 
L 355.714015 26.901677 
L 359.221348 26.707263 
L 362.728682 26.512849 
L 366.236016 26.318435 
L 369.74335 26.12402 
L 373.250684 25.929606 
L 376.758018 25.735192 
L 380.265351 25.540778 
L 383.772685 25.653223 
L 387.280019 25.842382 
L 390.787353 26.031542 
L 394.294687 26.220702 
L 397.802021 26.409862 
L 401.309354 26.599022 
L 404.816688 26.788181 
L 408.324022 26.977341 
L 411.831356 27.166501 
L 415.33869 27.355661 
L 418.846024 27.544821 
L 422.353358 27.73398 
L 425.860691 27.92314 
L 429.368025 28.1123 
L 432.875359 28.30146 
L 436.382693 28.49062 
L 439.890027 28.67978 
L 443.397361 28.868939 
L 446.904694 29.058099 
L 450.412028 29.247259 
L 453.919362 29.436419 
L 457.426696 29.625579 
L 460.93403 29.814738 
L 464.441364 30.003898 
" clip-path="url(#p20a1ea95d0)" style="fill: none; stroke: #66c2a5; stroke-width: 2; stroke-linecap: square"/>
   </g>
   <g id="line2d_30">
    <path d="M 47.068636 135.175702 
L 50.57597 135.040838 
L 54.083304 134.905974 
L 57.590638 134.77111 
L 61.097972 134.636246 
L 64.605306 134.501382 
L 68.112639 134.366518 
L 71.619973 134.231654 
L 75.127307 134.09679 
L 78.634641 133.961926 
L 82.141975 133.827062 
L 85.649309 133.692198 
L 89.156642 133.557334 
L 92.663976 133.422471 
L 96.17131 133.287607 
L 99.678644 133.152743 
L 103.185978 133.017879 
L 106.693312 132.883015 
L 110.200646 132.748151 
L 113.707979 132.613287 
L 117.215313 132.478423 
L 120.722647 132.343559 
L 124.229981 132.208695 
L 127.737315 132.073831 
L 131.244649 131.93091 
L 134.751982 131.755762 
L 138.259316 131.580614 
L 141.76665 131.405466 
L 145.273984 131.230318 
L 148.781318 131.055171 
L 152.288652 130.880023 
L 155.795985 130.704875 
L 159.303319 130.529727 
L 162.810653 130.354579 
L 166.317987 130.179431 
L 169.825321 130.004283 
L 173.332655 129.829135 
L 176.839989 129.653987 
L 180.347322 129.478839 
L 183.854656 129.303691 
L 187.36199 129.128543 
L 190.869324 128.953395 
L 194.376658 128.778247 
L 197.883992 128.603099 
L 201.391325 128.427951 
L 204.898659 128.252803 
L 208.405993 128.077655 
L 211.913327 127.902507 
L 215.420661 127.97677 
L 218.927995 128.425149 
L 222.435328 128.873527 
L 225.942662 129.321906 
L 229.449996 129.770285 
L 232.95733 130.218664 
L 236.464664 130.667043 
L 239.971998 131.115421 
L 243.479332 131.5638 
L 246.986665 132.012179 
L 250.493999 132.460558 
L 254.001333 132.908937 
L 257.508667 133.357315 
L 261.016001 133.805694 
L 264.523335 134.254073 
L 268.030668 134.702452 
L 271.538002 135.150831 
L 275.045336 135.59921 
L 278.55267 136.047588 
L 282.060004 136.495967 
L 285.567338 136.944346 
L 289.074672 137.392725 
L 292.582005 137.841104 
L 296.089339 138.289482 
L 299.596673 138.320659 
L 303.104007 138.0737 
L 306.611341 137.826741 
L 310.118675 137.579783 
L 313.626008 137.332824 
L 317.133342 137.085866 
L 320.640676 136.838907 
L 324.14801 136.591948 
L 327.655344 136.34499 
L 331.162678 136.098031 
L 334.670011 135.851072 
L 338.177345 135.604114 
L 341.684679 135.357155 
L 345.192013 135.110196 
L 348.699347 134.863238 
L 352.206681 134.616279 
L 355.714015 134.36932 
L 359.221348 134.122362 
L 362.728682 133.875403 
L 366.236016 133.628445 
L 369.74335 133.381486 
L 373.250684 133.134527 
L 376.758018 132.887569 
L 380.265351 132.64061 
L 383.772685 132.686499 
L 387.280019 132.805599 
L 390.787353 132.9247 
L 394.294687 133.043801 
L 397.802021 133.162901 
L 401.309354 133.282002 
L 404.816688 133.401102 
L 408.324022 133.520203 
L 411.831356 133.639304 
L 415.33869 133.758404 
L 418.846024 133.877505 
L 422.353358 133.996606 
L 425.860691 134.115706 
L 429.368025 134.234807 
L 432.875359 134.353907 
L 436.382693 134.473008 
L 439.890027 134.592109 
L 443.397361 134.711209 
L 446.904694 134.83031 
L 450.412028 134.949411 
L 453.919362 135.068511 
L 457.426696 135.187612 
L 460.93403 135.306712 
L 464.441364 135.425813 
" clip-path="url(#p20a1ea95d0)" style="fill: none; stroke: #e78ac3; stroke-width: 2; stroke-linecap: square"/>
   </g>
   <g id="line2d_31">
    <path d="M 47.068636 124.37923 
L 50.57597 124.302165 
L 54.083304 124.2251 
L 57.590638 124.148035 
L 61.097972 124.07097 
L 64.605306 123.993905 
L 68.112639 123.91684 
L 71.619973 123.839775 
L 75.127307 123.76271 
L 78.634641 123.685644 
L 82.141975 123.608579 
L 85.649309 123.531514 
L 89.156642 123.454449 
L 92.663976 123.377384 
L 96.17131 123.300319 
L 99.678644 123.223254 
L 103.185978 123.146189 
L 106.693312 123.069124 
L 110.200646 122.992058 
L 113.707979 122.914993 
L 117.215313 122.837928 
L 120.722647 122.760863 
L 124.229981 122.683798 
L 127.737315 122.606733 
L 131.244649 122.513905 
L 134.751982 122.358023 
L 138.259316 122.202141 
L 141.76665 122.046259 
L 145.273984 121.890378 
L 148.781318 121.734496 
L 152.288652 121.578614 
L 155.795985 121.422733 
L 159.303319 121.266851 
L 162.810653 121.110969 
L 166.317987 120.955088 
L 169.825321 120.799206 
L 173.332655 120.643324 
L 176.839989 120.487442 
L 180.347322 120.331561 
L 183.854656 120.175679 
L 187.36199 120.019797 
L 190.869324 119.863916 
L 194.376658 119.708034 
L 197.883992 119.552152 
L 201.391325 119.396271 
L 204.898659 119.240389 
L 208.405993 119.084507 
L 211.913327 118.928626 
L 215.420661 118.914964 
L 218.927995 119.114633 
L 222.435328 119.314301 
L 225.942662 119.51397 
L 229.449996 119.713639 
L 232.95733 119.913307 
L 236.464664 120.112976 
L 239.971998 120.312645 
L 243.479332 120.512313 
L 246.986665 120.711982 
L 250.493999 120.911651 
L 254.001333 121.11132 
L 257.508667 121.310988 
L 261.016001 121.510657 
L 264.523335 121.710326 
L 268.030668 121.909994 
L 271.538002 122.109663 
L 275.045336 122.309332 
L 278.55267 122.509 
L 282.060004 122.708669 
L 285.567338 122.908338 
L 289.074672 123.108006 
L 292.582005 123.307675 
L 296.089339 123.507344 
L 299.596673 123.587211 
L 303.104007 123.587211 
L 306.611341 123.587211 
L 310.118675 123.587211 
L 313.626008 123.587211 
L 317.133342 123.587211 
L 320.640676 123.587211 
L 324.14801 123.587211 
L 327.655344 123.587211 
L 331.162678 123.587211 
L 334.670011 123.587211 
L 338.177345 123.587211 
L 341.684679 123.587211 
L 345.192013 123.587211 
L 348.699347 123.587211 
L 352.206681 123.587211 
L 355.714015 123.587211 
L 359.221348 123.587211 
L 362.728682 123.587211 
L 366.236016 123.587211 
L 369.74335 123.587211 
L 373.250684 123.587211 
L 376.758018 123.587211 
L 380.265351 123.587211 
L 383.772685 123.696504 
L 387.280019 123.833119 
L 390.787353 123.969734 
L 394.294687 124.10635 
L 397.802021 124.242965 
L 401.309354 124.379581 
L 404.816688 124.516196 
L 408.324022 124.652812 
L 411.831356 124.789427 
L 415.33869 124.926042 
L 418.846024 125.062658 
L 422.353358 125.199273 
L 425.860691 125.335889 
L 429.368025 125.472504 
L 432.875359 125.609119 
L 436.382693 125.745735 
L 439.890027 125.88235 
L 443.397361 126.018966 
L 446.904694 126.155581 
L 450.412028 126.292197 
L 453.919362 126.428812 
L 457.426696 126.565427 
L 460.93403 126.702043 
L 464.441364 126.838658 
" clip-path="url(#p20a1ea95d0)" style="fill: none; stroke: #e5c494; stroke-width: 2; stroke-linecap: square"/>
   </g>
   <g id="patch_3">
    <path d="M 26.2 340.144 
L 26.2 7.2 
" style="fill: none; stroke: #000000; stroke-width: 0.8; stroke-linejoin: miter; stroke-linecap: square"/>
   </g>
   <g id="patch_4">
    <path d="M 485.31 340.144 
L 485.31 7.2 
" style="fill: none; stroke: #000000; stroke-width: 0.8; stroke-linejoin: miter; stroke-linecap: square"/>
   </g>
   <g id="patch_5">
    <path d="M 26.2 340.144 
L 485.31 340.144 
" style="fill: none; stroke: #000000; stroke-width: 0.8; stroke-linejoin: miter; stroke-linecap: square"/>
   </g>
   <g id="patch_6">
    <path d="M 26.2 7.2 
L 485.31 7.2 
" style="fill: none; stroke: #000000; stroke-width: 0.8; stroke-linejoin: miter; stroke-linecap: square"/>
   </g>
   <g id="text_16">
    <text style="fill: #66c2a5; font: 700 10px 'SimHei', 'Microsoft YaHei', 'DejaVu Sans', 'Bitstream Vera Sans', 'Computer Modern Sans Serif', 'Lucida Grande', 'Verdana', 'Geneva', 'Lucid', 'Arial', 'Helvetica', 'Avant Garde', sans-serif; text-anchor: middle" x="214.017727" y="21.083818" transform="rotate(-0 214.017727 21.083818)">72.61</text>
   </g>
   <g id="text_17">
    <text style="fill: #e78ac3; font: 700 10px 'SimHei', 'Microsoft YaHei', 'DejaVu Sans', 'Bitstream Vera Sans', 'Computer Modern Sans Serif', 'Lucida Grande', 'Verdana', 'Geneva', 'Lucid', 'Arial', 'Helvetica', 'Avant Garde', sans-serif; text-anchor: middle" x="214.017727" y="126.547418" transform="rotate(-0 214.017727 126.547418)">47.31</text>
   </g>
   <g id="text_18">
    <text style="fill: #e5c494; font: 700 10px 'SimHei', 'Microsoft YaHei', 'DejaVu Sans', 'Bitstream Vera Sans', 'Computer Modern Sans Serif', 'Lucida Grande', 'Verdana', 'Geneva', 'Lucid', 'Arial', 'Helvetica', 'Avant Garde', sans-serif; text-anchor: middle" x="214.017727" y="117.585096" transform="rotate(-0 214.017727 117.585096)">49.46</text>
   </g>
   <g id="PathCollection_1">
    <defs>
     <path id="mfa146ab0b0" d="M 0 2.95804 
C 0.784481 2.95804 1.536938 2.646362 2.09165 2.09165 
C 2.646362 1.536938 2.95804 0.784481 2.95804 0 
C 2.95804 -0.784481 2.646362 -1.536938 2.09165 -2.09165 
C 1.536938 -2.646362 0.784481 -2.95804 0 -2.95804 
C -0.784481 -2.95804 -1.536938 -2.646362 -2.09165 -2.09165 
C -2.646362 -1.536938 -2.95804 -0.784481 -2.95804 0 
C -2.95804 0.784481 -2.646362 1.536938 -2.09165 2.09165 
C -1.536938 2.646362 -0.784481 2.95804 0 2.95804 
z
" style="stroke: #66c2a5"/>
    </defs>
    <g clip-path="url(#p20a1ea95d0)">
     <use xlink:href="#mfa146ab0b0" x="214.017727" y="22.333818" style="fill: #66c2a5; stroke: #66c2a5"/>
    </g>
   </g>
   <g id="PathCollection_2">
    <defs>
     <path id="m6068555c03" d="M 0 2.95804 
C 0.784481 2.95804 1.536938 2.646362 2.09165 2.09165 
C 2.646362 1.536938 2.95804 0.784481 2.95804 0 
C 2.95804 -0.784481 2.646362 -1.536938 2.09165 -2.09165 
C 1.536938 -2.646362 0.784481 -2.95804 0 -2.95804 
C -0.784481 -2.95804 -1.536938 -2.646362 -2.09165 -2.09165 
C -2.646362 -1.536938 -2.95804 -0.784481 -2.95804 0 
C -2.95804 0.784481 -2.646362 1.536938 -2.09165 2.09165 
C -1.536938 2.646362 -0.784481 2.95804 0 2.95804 
z
" style="stroke: #e78ac3"/>
    </defs>
    <g clip-path="url(#p20a1ea95d0)">
     <use xlink:href="#m6068555c03" x="214.017727" y="127.797418" style="fill: #e78ac3; stroke: #e78ac3"/>
    </g>
   </g>
   <g id="PathCollection_3">
    <defs>
     <path id="med20371a55" d="M 0 2.95804 
C 0.784481 2.95804 1.536938 2.646362 2.09165 2.09165 
C 2.646362 1.536938 2.95804 0.784481 2.95804 0 
C 2.95804 -0.784481 2.646362 -1.536938 2.09165 -2.09165 
C 1.536938 -2.646362 0.784481 -2.95804 0 -2.95804 
C -0.784481 -2.95804 -1.536938 -2.646362 -2.09165 -2.09165 
C -2.646362 -1.536938 -2.95804 -0.784481 -2.95804 0 
C -2.95804 0.784481 -2.646362 1.536938 -2.09165 2.09165 
C -1.536938 2.646362 -0.784481 2.95804 0 2.95804 
z
" style="stroke: #e5c494"/>
    </defs>
    <g clip-path="url(#p20a1ea95d0)">
     <use xlink:href="#med20371a55" x="214.017727" y="118.835096" style="fill: #e5c494; stroke: #e5c494"/>
    </g>
   </g>
   <g id="legend_1">
    <g id="patch_7">
     <path d="M 34.6 334.144 
L 91 334.144 
Q 93.4 334.144 93.4 331.744 
L 93.4 285.244 
Q 93.4 282.844 91 282.844 
L 34.6 282.844 
Q 32.2 282.844 32.2 285.244 
L 32.2 331.744 
Q 32.2 334.144 34.6 334.144 
z
" style="fill: #ffffff; opacity: 0.8; stroke: #cccccc; stroke-linejoin: miter"/>
    </g>
    <g id="line2d_32">
     <path d="M 37 291.844 
L 49 291.844 
L 61 291.844 
" style="fill: none; stroke: #66c2a5; stroke-width: 2; stroke-linecap: square"/>
    </g>
    <g id="text_19">
     <text style="font: 12px 'SimHei', 'Microsoft YaHei', 'DejaVu Sans', 'Bitstream Vera Sans', 'Computer Modern Sans Serif', 'Lucida Grande', 'Verdana', 'Geneva', 'Lucid', 'Arial', 'Helvetica', 'Avant Garde', sans-serif; text-anchor: start" x="70.6" y="296.044" transform="rotate(-0 70.6 296.044)">ACC</text>
    </g>
    <g id="line2d_33">
     <path d="M 37 307.744 
L 49 307.744 
L 61 307.744 
" style="fill: none; stroke: #e78ac3; stroke-width: 2; stroke-linecap: square"/>
    </g>
    <g id="text_20">
     <text style="font: 12px 'SimHei', 'Microsoft YaHei', 'DejaVu Sans', 'Bitstream Vera Sans', 'Computer Modern Sans Serif', 'Lucida Grande', 'Verdana', 'Geneva', 'Lucid', 'Arial', 'Helvetica', 'Avant Garde', sans-serif; text-anchor: start" x="70.6" y="311.944" transform="rotate(-0 70.6 311.944)">NMI</text>
    </g>
    <g id="line2d_34">
     <path d="M 37 323.644 
L 49 323.644 
L 61 323.644 
" style="fill: none; stroke: #e5c494; stroke-width: 2; stroke-linecap: square"/>
    </g>
    <g id="text_21">
     <text style="font: 12px 'SimHei', 'Microsoft YaHei', 'DejaVu Sans', 'Bitstream Vera Sans', 'Computer Modern Sans Serif', 'Lucida Grande', 'Verdana', 'Geneva', 'Lucid', 'Arial', 'Helvetica', 'Avant Garde', sans-serif; text-anchor: start" x="70.6" y="327.844" transform="rotate(-0 70.6 327.844)">ARI</text>
    </g>
   </g>
  </g>
 </g>
 <defs>
  <clipPath id="p20a1ea95d0">
   <rect x="26.2" y="7.2" width="459.11" height="332.944"/>
  </clipPath>
 </defs>
</svg>
