<?xml version="1.0" encoding="utf-8" standalone="no"?>
<!DOCTYPE svg PUBLIC "-//W3C//DTD SVG 1.1//EN"
  "http://www.w3.org/Graphics/SVG/1.1/DTD/svg11.dtd">
<svg xmlns:xlink="http://www.w3.org/1999/xlink" width="532.8pt" height="532.8pt" viewBox="0 0 532.8 532.8" xmlns="http://www.w3.org/2000/svg" version="1.1">
 <metadata>
  <rdf:RDF xmlns:dc="http://purl.org/dc/elements/1.1/" xmlns:cc="http://creativecommons.org/ns#" xmlns:rdf="http://www.w3.org/1999/02/22-rdf-syntax-ns#">
   <cc:Work>
    <dc:type rdf:resource="http://purl.org/dc/dcmitype/StillImage"/>
    <dc:date>2026-03-11T23:08:11.316073</dc:date>
    <dc:format>image/svg+xml</dc:format>
    <dc:creator>
     <cc:Agent>
      <dc:title>Matplotlib v3.7.1, https://matplotlib.org/</dc:title>
     </cc:Agent>
    </dc:creator>
   </cc:Work>
  </rdf:RDF>
 </metadata>
 <defs>
  <style type="text/css">*{stroke-linejoin: round; stroke-linecap: butt}</style>
 </defs>
 <g id="figure_1">
  <g id="patch_1">
   <path d="M 0 532.8 
L 532.8 532.8 
L 532.8 0 
L 0 0 
z
" style="fill: #ffffff"/>
  </g>
  <g id="patch_2">
   <path d="M 7.2 525.6 
L 525.6 525.6 
L 525.6 7.2 
L 7.2 7.2 
z
" style="fill: #ffffff"/>
  </g>
  <g id="pane3d_1">
   <g id="patch_3">
    <path d="M 273.405405 271.892278 
L 504.921684 370.671108 
L 513.825657 143.838455 
L 273.405405 57.900544 
" style="fill: none; opacity: 0.5; stroke: #f2f2f2; stroke-linejoin: miter"/>
   </g>
  </g>
  <g id="pane3d_2">
   <g id="patch_4">
    <path d="M 273.405405 271.892278 
L 41.889126 370.671108 
L 32.985153 143.838455 
L 273.405405 57.900544 
" style="fill: none; opacity: 0.5; stroke: #e6e6e6; stroke-linejoin: miter"/>
   </g>
  </g>
  <g id="pane3d_3">
   <g id="patch_5">
    <path d="M 273.405405 271.892278 
L 41.889126 370.671108 
L 273.405405 485.44035 
L 504.921684 370.671108 
" style="fill: none; opacity: 0.5; stroke: #ececec; stroke-linejoin: miter"/>
   </g>
  </g>
  <g id="axis3d_1">
   <g id="line2d_1">
    <path d="M 504.921684 370.671108 
L 273.405405 485.44035 
" style="fill: none; stroke: #000000; stroke-width: 0.8; stroke-linecap: square"/>
   </g>
   <g id="Line3DCollection_1">
    <path d="M 491.226764 377.460072 
L 259.637858 277.766346 
L 259.144302 62.998157 
" style="fill: none; stroke: #b0b0b0; stroke-width: 0.8"/>
    <path d="M 449.607612 398.091876 
L 217.854277 295.593745 
L 215.835048 78.478994 
" style="fill: none; stroke: #b0b0b0; stroke-width: 0.8"/>
    <path d="M 406.765361 419.330005 
L 174.931032 313.907394 
L 171.300971 94.397643 
" style="fill: none; stroke: #b0b0b0; stroke-width: 0.8"/>
    <path d="M 362.645292 441.201586 
L 130.820851 332.727462 
L 125.489366 110.772942 
" style="fill: none; stroke: #b0b0b0; stroke-width: 0.8"/>
    <path d="M 317.189369 463.735386 
L 85.473811 352.075249 
L 78.344463 127.624828 
" style="fill: none; stroke: #b0b0b0; stroke-width: 0.8"/>
   </g>
   <g id="xtick_1">
    <g id="line2d_2">
     <path d="M 489.235857 376.603032 
L 495.215778 379.177251 
" style="fill: none; stroke: #000000; stroke-width: 0.8; stroke-linecap: square"/>
    </g>
    <g id="text_1">
     <text style="font: 700 12px 'SimHei', 'Microsoft YaHei', 'DejaVu Sans', 'Bitstream Vera Sans', 'Computer Modern Sans Serif', 'Lucida Grande', 'Verdana', 'Geneva', 'Lucid', 'Arial', 'Helvetica', 'Avant Garde', sans-serif; text-anchor: middle" x="501.504289" y="399.635683" transform="rotate(-0 501.504289 399.635683)">co</text>
    </g>
   </g>
   <g id="xtick_2">
    <g id="line2d_3">
     <path d="M 447.613289 397.209842 
L 453.603573 399.85918 
" style="fill: none; stroke: #000000; stroke-width: 0.8; stroke-linecap: square"/>
    </g>
    <g id="text_2">
     <text style="font: 700 12px 'SimHei', 'Microsoft YaHei', 'DejaVu Sans', 'Bitstream Vera Sans', 'Computer Modern Sans Serif', 'Lucida Grande', 'Verdana', 'Geneva', 'Lucid', 'Arial', 'Helvetica', 'Avant Garde', sans-serif; text-anchor: middle" x="459.965716" y="420.503433" transform="rotate(-0 459.965716 420.503433)">nkl</text>
    </g>
   </g>
   <g id="xtick_3">
    <g id="line2d_4">
     <path d="M 404.768281 418.421868 
L 410.766956 421.14966 
" style="fill: none; stroke: #000000; stroke-width: 0.8; stroke-linecap: square"/>
    </g>
    <g id="text_3">
     <text style="font: 700 12px 'SimHei', 'Microsoft YaHei', 'DejaVu Sans', 'Bitstream Vera Sans', 'Computer Modern Sans Serif', 'Lucida Grande', 'Verdana', 'Geneva', 'Lucid', 'Arial', 'Helvetica', 'Avant Garde', sans-serif; text-anchor: middle" x="417.204374" y="441.985466" transform="rotate(-0 417.204374 441.985466)">nne</text>
    </g>
   </g>
   <g id="xtick_4">
    <g id="line2d_5">
     <path d="M 360.646174 440.266169 
L 366.651079 443.075953 
" style="fill: none; stroke: #000000; stroke-width: 0.8; stroke-linecap: square"/>
    </g>
    <g id="text_4">
     <text style="font: 700 12px 'SimHei', 'Microsoft YaHei', 'DejaVu Sans', 'Bitstream Vera Sans', 'Computer Modern Sans Serif', 'Lucida Grande', 'Verdana', 'Geneva', 'Lucid', 'Arial', 'Helvetica', 'Avant Garde', sans-serif; text-anchor: middle" x="373.165465" y="464.109312" transform="rotate(-0 373.165465 464.109312)">ncl</text>
    </g>
   </g>
   <g id="xtick_5">
    <g id="line2d_6">
     <path d="M 315.189005 462.771442 
L 321.197769 465.666972 
" style="fill: none; stroke: #000000; stroke-width: 0.8; stroke-linecap: square"/>
    </g>
    <g id="text_5">
     <text style="font: 700 12px 'SimHei', 'Microsoft YaHei', 'DejaVu Sans', 'Bitstream Vera Sans', 'Computer Modern Sans Serif', 'Lucida Grande', 'Verdana', 'Geneva', 'Lucid', 'Arial', 'Helvetica', 'Avant Garde', sans-serif; text-anchor: middle" x="327.790866" y="486.904168" transform="rotate(-0 327.790866 486.904168)">nsl</text>
    </g>
   </g>
  </g>
  <g id="axis3d_2">
   <g id="line2d_7">
    <path d="M 41.889126 370.671108 
L 273.405405 485.44035 
" style="fill: none; stroke: #000000; stroke-width: 0.8; stroke-linecap: square"/>
   </g>
   <g id="Line3DCollection_2">
    <path d="M 287.666508 62.998157 
L 287.172953 277.766346 
L 55.584046 377.460072 
" style="fill: none; stroke: #b0b0b0; stroke-width: 0.8"/>
    <path d="M 365.121322 90.684281 
L 361.870828 309.636971 
L 130.047405 414.373688 
" style="fill: none; stroke: #b0b0b0; stroke-width: 0.8"/>
    <path d="M 446.537801 119.786497 
L 440.25061 343.078521 
L 208.471952 453.25098 
" style="fill: none; stroke: #b0b0b0; stroke-width: 0.8"/>
   </g>
   <g id="xtick_6">
    <g id="line2d_8">
     <path d="M 57.574954 376.603032 
L 51.595033 379.177251 
" style="fill: none; stroke: #000000; stroke-width: 0.8; stroke-linecap: square"/>
    </g>
    <g id="text_6">
     <text style="font: 700 12px 'SimHei', 'Microsoft YaHei', 'DejaVu Sans', 'Bitstream Vera Sans', 'Computer Modern Sans Serif', 'Lucida Grande', 'Verdana', 'Geneva', 'Lucid', 'Arial', 'Helvetica', 'Avant Garde', sans-serif; text-anchor: middle" x="45.306522" y="399.635683" transform="rotate(-0 45.306522 399.635683)">ACC</text>
    </g>
   </g>
   <g id="xtick_7">
    <g id="line2d_9">
     <path d="M 132.04391 413.471677 
L 126.046987 416.181058 
" style="fill: none; stroke: #000000; stroke-width: 0.8; stroke-linecap: square"/>
    </g>
    <g id="text_7">
     <text style="font: 700 12px 'SimHei', 'Microsoft YaHei', 'DejaVu Sans', 'Bitstream Vera Sans', 'Computer Modern Sans Serif', 'Lucida Grande', 'Verdana', 'Geneva', 'Lucid', 'Arial', 'Helvetica', 'Avant Garde', sans-serif; text-anchor: middle" x="119.627088" y="436.972137" transform="rotate(-0 119.627088 436.972137)">NMI</text>
    </g>
   </g>
   <g id="xtick_8">
    <g id="line2d_10">
     <path d="M 210.471844 452.300362 
L 204.464552 455.155836 
" style="fill: none; stroke: #000000; stroke-width: 0.8; stroke-linecap: square"/>
    </g>
    <g id="text_8">
     <text style="font: 700 12px 'SimHei', 'Microsoft YaHei', 'DejaVu Sans', 'Bitstream Vera Sans', 'Computer Modern Sans Serif', 'Lucida Grande', 'Verdana', 'Geneva', 'Lucid', 'Arial', 'Helvetica', 'Avant Garde', sans-serif; text-anchor: middle" x="197.908004" y="476.298153" transform="rotate(-0 197.908004 476.298153)">ARI</text>
    </g>
   </g>
  </g>
  <g id="axis3d_3">
   <g id="line2d_11">
    <path d="M 41.889126 370.671108 
L 32.985153 143.838455 
" style="fill: none; stroke: #000000; stroke-width: 0.8; stroke-linecap: square"/>
   </g>
   <g id="text_9">
    <text style="font: 700 14px 'SimHei', 'Microsoft YaHei', 'DejaVu Sans', 'Bitstream Vera Sans', 'Computer Modern Sans Serif', 'Lucida Grande', 'Verdana', 'Geneva', 'Lucid', 'Arial', 'Helvetica', 'Avant Garde', sans-serif; text-anchor: middle" x="-25.381337" y="264.015688" transform="rotate(-0 -25.381337 264.015688)">分数</text>
   </g>
   <g id="Line3DCollection_3">
    <path d="M 41.717515 366.299232 
L 273.405405 267.757056 
L 505.093296 366.299232 
" style="fill: none; stroke: #b0b0b0; stroke-width: 0.8"/>
    <path d="M 40.610925 338.108365 
L 273.405405 241.102439 
L 506.199886 338.108365 
" style="fill: none; stroke: #b0b0b0; stroke-width: 0.8"/>
    <path d="M 39.493714 309.646915 
L 273.405405 214.209979 
L 507.317097 309.646915 
" style="fill: none; stroke: #b0b0b0; stroke-width: 0.8"/>
    <path d="M 38.365728 280.910966 
L 273.405405 187.076476 
L 508.445083 280.910966 
" style="fill: none; stroke: #b0b0b0; stroke-width: 0.8"/>
    <path d="M 37.22681 251.89653 
L 273.405405 159.698677 
L 509.584001 251.89653 
" style="fill: none; stroke: #b0b0b0; stroke-width: 0.8"/>
    <path d="M 36.076801 222.599538 
L 273.405405 132.073266 
L 510.73401 222.599538 
" style="fill: none; stroke: #b0b0b0; stroke-width: 0.8"/>
    <path d="M 34.915537 193.015841 
L 273.405405 104.196869 
L 511.895274 193.015841 
" style="fill: none; stroke: #b0b0b0; stroke-width: 0.8"/>
    <path d="M 33.742854 163.141211 
L 273.405405 76.06605 
L 513.067957 163.141211 
" style="fill: none; stroke: #b0b0b0; stroke-width: 0.8"/>
   </g>
   <g id="xtick_9">
    <g id="line2d_12">
     <path d="M 43.708717 365.452328 
L 37.72794 367.99609 
" style="fill: none; stroke: #000000; stroke-width: 0.8; stroke-linecap: square"/>
    </g>
    <g id="text_10">
     <text style="font: 12px 'SimHei', 'Microsoft YaHei', 'DejaVu Sans', 'Bitstream Vera Sans', 'Computer Modern Sans Serif', 'Lucida Grande', 'Verdana', 'Geneva', 'Lucid', 'Arial', 'Helvetica', 'Avant Garde', sans-serif; text-anchor: middle" x="21.981139" y="374.549232" transform="rotate(-0 21.981139 374.549232)">0</text>
    </g>
   </g>
   <g id="xtick_10">
    <g id="line2d_13">
     <path d="M 42.612298 337.274389 
L 36.600938 339.779335 
" style="fill: none; stroke: #000000; stroke-width: 0.8; stroke-linecap: square"/>
    </g>
    <g id="text_11">
     <text style="font: 12px 'SimHei', 'Microsoft YaHei', 'DejaVu Sans', 'Bitstream Vera Sans', 'Computer Modern Sans Serif', 'Lucida Grande', 'Verdana', 'Geneva', 'Lucid', 'Arial', 'Helvetica', 'Avant Garde', sans-serif; text-anchor: middle" x="20.780284" y="346.358365" transform="rotate(-0 20.780284 346.358365)">10</text>
    </g>
   </g>
   <g id="xtick_11">
    <g id="line2d_14">
     <path d="M 41.505362 308.826154 
L 35.463105 311.29142 
" style="fill: none; stroke: #000000; stroke-width: 0.8; stroke-linecap: square"/>
    </g>
    <g id="text_12">
     <text style="font: 12px 'SimHei', 'Microsoft YaHei', 'DejaVu Sans', 'Bitstream Vera Sans', 'Computer Modern Sans Serif', 'Lucida Grande', 'Verdana', 'Geneva', 'Lucid', 'Arial', 'Helvetica', 'Avant Garde', sans-serif; text-anchor: middle" x="19.567903" y="317.896915" transform="rotate(-0 19.567903 317.896915)">20</text>
    </g>
   </g>
   <g id="xtick_12">
    <g id="line2d_15">
     <path d="M 40.387756 280.103716 
L 34.314284 282.528417 
" style="fill: none; stroke: #000000; stroke-width: 0.8; stroke-linecap: square"/>
    </g>
    <g id="text_13">
     <text style="font: 12px 'SimHei', 'Microsoft YaHei', 'DejaVu Sans', 'Bitstream Vera Sans', 'Computer Modern Sans Serif', 'Lucida Grande', 'Verdana', 'Geneva', 'Lucid', 'Arial', 'Helvetica', 'Avant Garde', sans-serif; text-anchor: middle" x="18.343829" y="289.160966" transform="rotate(-0 18.343829 289.160966)">30</text>
    </g>
   </g>
   <g id="xtick_13">
    <g id="line2d_16">
     <path d="M 39.259325 251.10309 
L 33.154317 253.486323 
" style="fill: none; stroke: #000000; stroke-width: 0.8; stroke-linecap: square"/>
    </g>
    <g id="text_14">
     <text style="font: 12px 'SimHei', 'Microsoft YaHei', 'DejaVu Sans', 'Bitstream Vera Sans', 'Computer Modern Sans Serif', 'Lucida Grande', 'Verdana', 'Geneva', 'Lucid', 'Arial', 'Helvetica', 'Avant Garde', sans-serif; text-anchor: middle" x="17.107892" y="260.14653" transform="rotate(-0 17.107892 260.14653)">40</text>
    </g>
   </g>
   <g id="xtick_14">
    <g id="line2d_17">
     <path d="M 38.119913 221.820216 
L 31.983039 224.161056 
" style="fill: none; stroke: #000000; stroke-width: 0.8; stroke-linecap: square"/>
    </g>
    <g id="text_15">
     <text style="font: 12px 'SimHei', 'Microsoft YaHei', 'DejaVu Sans', 'Bitstream Vera Sans', 'Computer Modern Sans Serif', 'Lucida Grande', 'Verdana', 'Geneva', 'Lucid', 'Arial', 'Helvetica', 'Avant Garde', sans-serif; text-anchor: middle" x="15.859919" y="230.849538" transform="rotate(-0 15.859919 230.849538)">50</text>
    </g>
   </g>
   <g id="xtick_15">
    <g id="line2d_18">
     <path d="M 36.969357 192.250953 
L 30.800285 194.548453 
" style="fill: none; stroke: #000000; stroke-width: 0.8; stroke-linecap: square"/>
    </g>
    <g id="text_16">
     <text style="font: 12px 'SimHei', 'Microsoft YaHei', 'DejaVu Sans', 'Bitstream Vera Sans', 'Computer Modern Sans Serif', 'Lucida Grande', 'Verdana', 'Geneva', 'Lucid', 'Arial', 'Helvetica', 'Avant Garde', sans-serif; text-anchor: middle" x="14.599734" y="201.265841" transform="rotate(-0 14.599734 201.265841)">60</text>
    </g>
   </g>
   <g id="xtick_16">
    <g id="line2d_19">
     <path d="M 35.807492 162.391078 
L 29.605885 164.644271 
" style="fill: none; stroke: #000000; stroke-width: 0.8; stroke-linecap: square"/>
    </g>
    <g id="text_17">
     <text style="font: 12px 'SimHei', 'Microsoft YaHei', 'DejaVu Sans', 'Bitstream Vera Sans', 'Computer Modern Sans Serif', 'Lucida Grande', 'Verdana', 'Geneva', 'Lucid', 'Arial', 'Helvetica', 'Avant Garde', sans-serif; text-anchor: middle" x="13.327155" y="171.391211" transform="rotate(-0 13.327155 171.391211)">70</text>
    </g>
   </g>
  </g>
  <g id="axes_1">
   <g id="Poly3DCollection_1">
    <path d="M 273.405405 279.528931 
L 317.832088 298.593768 
L 292.879515 309.613884 
L 248.450574 290.237806 
z
" clip-path="url(#pb575d2bb65)" style="fill: #39005a; fill-opacity: 0.9; stroke: #000000; stroke-opacity: 0.9; stroke-width: 0.5"/>
    <path d="M 273.405405 279.528931 
L 248.450574 290.237806 
L 247.581189 81.959718 
L 273.405405 72.606059 
z
" clip-path="url(#pb575d2bb65)" style="fill: #5e0094; fill-opacity: 0.9; stroke: #000000; stroke-opacity: 0.9; stroke-width: 0.5"/>
    <path d="M 273.405405 279.528931 
L 273.405405 72.606059 
L 319.389849 89.261852 
L 317.832088 298.593768 
z
" clip-path="url(#pb575d2bb65)" style="fill: #5e0094; fill-opacity: 0.9; stroke: #000000; stroke-opacity: 0.9; stroke-width: 0.5"/>
    <path d="M 231.589015 297.473612 
L 276.016205 317.061438 
L 250.371267 328.387331 
L 205.951806 308.475317 
z
" clip-path="url(#pb575d2bb65)" style="fill: #520c55; fill-opacity: 0.9; stroke: #000000; stroke-opacity: 0.9; stroke-width: 0.5"/>
    <path d="M 248.450574 290.237806 
L 292.879515 309.613884 
L 293.568137 98.897007 
L 247.581189 81.959718 
z
" clip-path="url(#pb575d2bb65)" style="fill: #2c0046; fill-opacity: 0.9; stroke: #000000; stroke-opacity: 0.9; stroke-width: 0.5"/>
    <path d="M 231.589015 297.473612 
L 205.951806 308.475317 
L 203.574591 98.425511 
L 230.12769 88.803427 
z
" clip-path="url(#pb575d2bb65)" style="fill: #88138c; fill-opacity: 0.9; stroke: #000000; stroke-opacity: 0.9; stroke-width: 0.5"/>
    <path d="M 348.166032 311.610984 
L 394.783356 331.615892 
L 369.859087 343.185744 
L 323.220924 322.846193 
z
" clip-path="url(#pb575d2bb65)" style="fill: #42015a; fill-opacity: 0.9; stroke: #000000; stroke-opacity: 0.9; stroke-width: 0.5"/>
    <path d="M 317.832088 298.593768 
L 319.389849 89.261852 
L 293.568137 98.897007 
L 292.879515 309.613884 
z
" clip-path="url(#pb575d2bb65)" style="fill: #2c0046; fill-opacity: 0.9; stroke: #000000; stroke-opacity: 0.9; stroke-width: 0.5"/>
    <path d="M 231.589015 297.473612 
L 230.12769 88.803427 
L 276.108819 105.938752 
L 276.016205 317.061438 
z
" clip-path="url(#pb575d2bb65)" style="fill: #88138c; fill-opacity: 0.9; stroke: #000000; stroke-opacity: 0.9; stroke-width: 0.5"/>
    <path d="M 188.626006 315.910343 
L 233.036783 336.042976 
L 206.670258 347.687553 
L 162.278041 327.217055 
z
" clip-path="url(#pb575d2bb65)" style="fill: #671f45; fill-opacity: 0.9; stroke: #000000; stroke-opacity: 0.9; stroke-width: 0.5"/>
    <path d="M 348.166032 311.610984 
L 323.220924 322.846193 
L 324.483021 172.206726 
L 350.044202 161.955561 
z
" clip-path="url(#pb575d2bb65)" style="fill: #6d0294; fill-opacity: 0.9; stroke: #000000; stroke-opacity: 0.9; stroke-width: 0.5"/>
    <path d="M 348.166032 311.610984 
L 350.044202 161.955561 
L 397.878703 180.211285 
L 394.783356 331.615892 
z
" clip-path="url(#pb575d2bb65)" style="fill: #6d0294; fill-opacity: 0.9; stroke: #000000; stroke-opacity: 0.9; stroke-width: 0.5"/>
    <path d="M 273.405405 72.606059 
L 247.581189 81.959718 
L 293.568137 98.897007 
L 319.389849 89.261852 
z
" clip-path="url(#pb575d2bb65)" style="fill: #520081; fill-opacity: 0.9; stroke: #000000; stroke-opacity: 0.9; stroke-width: 0.5"/>
    <path d="M 205.951806 308.475317 
L 250.371267 328.387331 
L 249.547144 115.854549 
L 203.574591 98.425511 
z
" clip-path="url(#pb575d2bb65)" style="fill: #400942; fill-opacity: 0.9; stroke: #000000; stroke-opacity: 0.9; stroke-width: 0.5"/>
    <path d="M 188.626006 315.910343 
L 162.278041 327.217055 
L 158.54314 127.530256 
L 185.800859 117.544148 
z
" clip-path="url(#pb575d2bb65)" style="fill: #aa3473; fill-opacity: 0.9; stroke: #000000; stroke-opacity: 0.9; stroke-width: 0.5"/>
    <path d="M 306.36042 330.440118 
L 353.009232 351.007451 
L 327.375981 362.906412 
L 280.71629 341.990165 
z
" clip-path="url(#pb575d2bb65)" style="fill: #5a1250; fill-opacity: 0.9; stroke: #000000; stroke-opacity: 0.9; stroke-width: 0.5"/>
    <path d="M 276.016205 317.061438 
L 276.108819 105.938752 
L 249.547144 115.854549 
L 250.371267 328.387331 
z
" clip-path="url(#pb575d2bb65)" style="fill: #400942; fill-opacity: 0.9; stroke: #000000; stroke-opacity: 0.9; stroke-width: 0.5"/>
    <path d="M 188.626006 315.910343 
L 185.800859 117.544148 
L 231.671019 135.329164 
L 233.036783 336.042976 
z
" clip-path="url(#pb575d2bb65)" style="fill: #aa3473; fill-opacity: 0.9; stroke: #000000; stroke-opacity: 0.9; stroke-width: 0.5"/>
    <path d="M 323.220924 322.846193 
L 369.859087 343.185744 
L 372.339992 190.775661 
L 324.483021 172.206726 
z
" clip-path="url(#pb575d2bb65)" style="fill: #330146; fill-opacity: 0.9; stroke: #000000; stroke-opacity: 0.9; stroke-width: 0.5"/>
    <path d="M 144.46856 334.859643 
L 188.844572 355.560133 
L 161.72557 367.537036 
L 117.379868 346.484223 
z
" clip-path="url(#pb575d2bb65)" style="fill: #763336; fill-opacity: 0.9; stroke: #000000; stroke-opacity: 0.9; stroke-width: 0.5"/>
    <path d="M 306.36042 330.440118 
L 280.71629 341.990165 
L 280.899213 193.700961 
L 307.177952 183.127814 
z
" clip-path="url(#pb575d2bb65)" style="fill: #951e85; fill-opacity: 0.9; stroke: #000000; stroke-opacity: 0.9; stroke-width: 0.5"/>
    <path d="M 394.783356 331.615892 
L 397.878703 180.211285 
L 372.339992 190.775661 
L 369.859087 343.185744 
z
" clip-path="url(#pb575d2bb65)" style="fill: #330146; fill-opacity: 0.9; stroke: #000000; stroke-opacity: 0.9; stroke-width: 0.5"/>
    <path d="M 306.36042 330.440118 
L 307.177952 183.127814 
L 355.014229 201.958626 
L 353.009232 351.007451 
z
" clip-path="url(#pb575d2bb65)" style="fill: #951e85; fill-opacity: 0.9; stroke: #000000; stroke-opacity: 0.9; stroke-width: 0.5"/>
    <path d="M 162.278041 327.217055 
L 206.670258 347.687553 
L 204.392799 145.623893 
L 158.54314 127.530256 
z
" clip-path="url(#pb575d2bb65)" style="fill: #501936; fill-opacity: 0.9; stroke: #000000; stroke-opacity: 0.9; stroke-width: 0.5"/>
    <path d="M 230.12769 88.803427 
L 203.574591 98.425511 
L 249.547144 115.854549 
L 276.108819 105.938752 
z
" clip-path="url(#pb575d2bb65)" style="fill: #76117a; fill-opacity: 0.9; stroke: #000000; stroke-opacity: 0.9; stroke-width: 0.5"/>
    <path d="M 426.631663 345.282967 
L 475.605746 366.299232 
L 450.744522 378.461005 
L 401.72816 357.084289 
z
" clip-path="url(#pb575d2bb65)" style="fill: #4a0558; fill-opacity: 0.9; stroke: #000000; stroke-opacity: 0.9; stroke-width: 0.5"/>
    <path d="M 350.044202 161.955561 
L 324.483021 172.206726 
L 372.339992 190.775661 
L 397.878703 180.211285 
z
" clip-path="url(#pb575d2bb65)" style="fill: #5e0281; fill-opacity: 0.9; stroke: #000000; stroke-opacity: 0.9; stroke-width: 0.5"/>
    <path d="M 144.46856 334.859643 
L 117.379868 346.484223 
L 112.213087 150.371834 
L 140.235601 140.054987 
z
" clip-path="url(#pb575d2bb65)" style="fill: #c45459; fill-opacity: 0.9; stroke: #000000; stroke-opacity: 0.9; stroke-width: 0.5"/>
    <path d="M 233.036783 336.042976 
L 231.671019 135.329164 
L 204.392799 145.623893 
L 206.670258 347.687553 
z
" clip-path="url(#pb575d2bb65)" style="fill: #501936; fill-opacity: 0.9; stroke: #000000; stroke-opacity: 0.9; stroke-width: 0.5"/>
    <path d="M 263.379986 349.798389 
L 310.043396 370.952202 
L 283.670476 383.194518 
L 237.007035 361.676694 
z
" clip-path="url(#pb575d2bb65)" style="fill: #6d2640; fill-opacity: 0.9; stroke: #000000; stroke-opacity: 0.9; stroke-width: 0.5"/>
    <path d="M 144.46856 334.859643 
L 140.235601 140.054987 
L 186.0255 158.430693 
L 188.844572 355.560133 
z
" clip-path="url(#pb575d2bb65)" style="fill: #c45459; fill-opacity: 0.9; stroke: #000000; stroke-opacity: 0.9; stroke-width: 0.5"/>
    <path d="M 426.631663 345.282967 
L 401.72816 357.084289 
L 405.002688 206.233476 
L 430.507988 195.433325 
z
" clip-path="url(#pb575d2bb65)" style="fill: #7b0992; fill-opacity: 0.9; stroke: #000000; stroke-opacity: 0.9; stroke-width: 0.5"/>
    <path d="M 280.71629 341.990165 
L 327.375981 362.906412 
L 328.74721 212.859318 
L 280.899213 193.700961 
z
" clip-path="url(#pb575d2bb65)" style="fill: #460e3f; fill-opacity: 0.9; stroke: #000000; stroke-opacity: 0.9; stroke-width: 0.5"/>
    <path d="M 99.066166 354.343188 
L 143.387505 375.635905 
L 115.483347 387.959566 
L 71.205065 366.299232 
z
" clip-path="url(#pb575d2bb65)" style="fill: #824927; fill-opacity: 0.9; stroke: #000000; stroke-opacity: 0.9; stroke-width: 0.5"/>
    <path d="M 263.379986 349.798389 
L 237.007035 361.676694 
L 236.148793 222.395351 
L 263.145635 211.441055 
z
" clip-path="url(#pb575d2bb65)" style="fill: #b43f6a; fill-opacity: 0.9; stroke: #000000; stroke-opacity: 0.9; stroke-width: 0.5"/>
    <path d="M 426.631663 345.282967 
L 430.507988 195.433325 
L 480.800202 214.669886 
L 475.605746 366.299232 
z
" clip-path="url(#pb575d2bb65)" style="fill: #7b0992; fill-opacity: 0.9; stroke: #000000; stroke-opacity: 0.9; stroke-width: 0.5"/>
    <path d="M 99.066166 354.343188 
L 71.205065 366.299232 
L 67.108968 246.73166 
L 95.564939 235.56712 
z
" clip-path="url(#pb575d2bb65)" style="fill: #d77840; fill-opacity: 0.9; stroke: #000000; stroke-opacity: 0.9; stroke-width: 0.5"/>
    <path d="M 353.009232 351.007451 
L 355.014229 201.958626 
L 328.74721 212.859318 
L 327.375981 362.906412 
z
" clip-path="url(#pb575d2bb65)" style="fill: #460e3f; fill-opacity: 0.9; stroke: #000000; stroke-opacity: 0.9; stroke-width: 0.5"/>
    <path d="M 263.379986 349.798389 
L 263.145635 211.441055 
L 310.91311 230.952349 
L 310.043396 370.952202 
z
" clip-path="url(#pb575d2bb65)" style="fill: #b43f6a; fill-opacity: 0.9; stroke: #000000; stroke-opacity: 0.9; stroke-width: 0.5"/>
    <path d="M 185.800859 117.544148 
L 158.54314 127.530256 
L 204.392799 145.623893 
L 231.671019 135.329164 
z
" clip-path="url(#pb575d2bb65)" style="fill: #942d64; fill-opacity: 0.9; stroke: #000000; stroke-opacity: 0.9; stroke-width: 0.5"/>
    <path d="M 99.066166 354.343188 
L 95.564939 235.56712 
L 140.735901 255.452895 
L 143.387505 375.635905 
z
" clip-path="url(#pb575d2bb65)" style="fill: #d77840; fill-opacity: 0.9; stroke: #000000; stroke-opacity: 0.9; stroke-width: 0.5"/>
    <path d="M 117.379868 346.484223 
L 161.72557 367.537036 
L 157.969554 169.070779 
L 112.213087 150.371834 
z
" clip-path="url(#pb575d2bb65)" style="fill: #5c282a; fill-opacity: 0.9; stroke: #000000; stroke-opacity: 0.9; stroke-width: 0.5"/>
    <path d="M 307.177952 183.127814 
L 280.899213 193.700961 
L 328.74721 212.859318 
L 355.014229 201.958626 
z
" clip-path="url(#pb575d2bb65)" style="fill: #811a73; fill-opacity: 0.9; stroke: #000000; stroke-opacity: 0.9; stroke-width: 0.5"/>
    <path d="M 384.889997 365.063592 
L 433.93134 386.685785 
L 408.344673 399.202434 
L 359.2709 377.204021 
z
" clip-path="url(#pb575d2bb65)" style="fill: #61194b; fill-opacity: 0.9; stroke: #000000; stroke-opacity: 0.9; stroke-width: 0.5"/>
    <path d="M 188.844572 355.560133 
L 186.0255 158.430693 
L 157.969554 169.070779 
L 161.72557 367.537036 
z
" clip-path="url(#pb575d2bb65)" style="fill: #5c282a; fill-opacity: 0.9; stroke: #000000; stroke-opacity: 0.9; stroke-width: 0.5"/>
    <path d="M 401.72816 357.084289 
L 450.744522 378.461005 
L 455.340513 225.808487 
L 405.002688 206.233476 
z
" clip-path="url(#pb575d2bb65)" style="fill: #3a0445; fill-opacity: 0.9; stroke: #000000; stroke-opacity: 0.9; stroke-width: 0.5"/>
    <path d="M 219.174503 369.708418 
L 265.834116 391.47416 
L 238.689043 404.074909 
L 192.041214 381.929177 
z
" clip-path="url(#pb575d2bb65)" style="fill: #7b3a31; fill-opacity: 0.9; stroke: #000000; stroke-opacity: 0.9; stroke-width: 0.5"/>
    <path d="M 384.889997 365.063592 
L 359.2709 377.204021 
L 361.467814 226.46827 
L 387.717462 215.337196 
z
" clip-path="url(#pb575d2bb65)" style="fill: #a0297c; fill-opacity: 0.9; stroke: #000000; stroke-opacity: 0.9; stroke-width: 0.5"/>
    <path d="M 237.007035 361.676694 
L 283.670476 383.194518 
L 283.916303 242.250405 
L 236.148793 222.395351 
z
" clip-path="url(#pb575d2bb65)" style="fill: #551e32; fill-opacity: 0.9; stroke: #000000; stroke-opacity: 0.9; stroke-width: 0.5"/>
    <path d="M 475.605746 366.299232 
L 480.800202 214.669886 
L 455.340513 225.808487 
L 450.744522 378.461005 
z
" clip-path="url(#pb575d2bb65)" style="fill: #3a0445; fill-opacity: 0.9; stroke: #000000; stroke-opacity: 0.9; stroke-width: 0.5"/>
    <path d="M 71.205065 366.299232 
L 115.483347 387.959566 
L 112.234194 266.967802 
L 67.108968 246.73166 
z
" clip-path="url(#pb575d2bb65)" style="fill: #66391e; fill-opacity: 0.9; stroke: #000000; stroke-opacity: 0.9; stroke-width: 0.5"/>
    <path d="M 219.174503 369.708418 
L 192.041214 381.929177 
L 190.019797 235.679122 
L 217.838992 224.438753 
z
" clip-path="url(#pb575d2bb65)" style="fill: #cb6051; fill-opacity: 0.9; stroke: #000000; stroke-opacity: 0.9; stroke-width: 0.5"/>
    <path d="M 310.043396 370.952202 
L 310.91311 230.952349 
L 283.916303 242.250405 
L 283.670476 383.194518 
z
" clip-path="url(#pb575d2bb65)" style="fill: #551e32; fill-opacity: 0.9; stroke: #000000; stroke-opacity: 0.9; stroke-width: 0.5"/>
    <path d="M 384.889997 365.063592 
L 387.717462 215.337196 
L 438.066523 235.165097 
L 433.93134 386.685785 
z
" clip-path="url(#pb575d2bb65)" style="fill: #a0297c; fill-opacity: 0.9; stroke: #000000; stroke-opacity: 0.9; stroke-width: 0.5"/>
    <path d="M 143.387505 375.635905 
L 140.735901 255.452895 
L 112.234194 266.967802 
L 115.483347 387.959566 
z
" clip-path="url(#pb575d2bb65)" style="fill: #66391e; fill-opacity: 0.9; stroke: #000000; stroke-opacity: 0.9; stroke-width: 0.5"/>
    <path d="M 140.235601 140.054987 
L 112.213087 150.371834 
L 157.969554 169.070779 
L 186.0255 158.430693 
z
" clip-path="url(#pb575d2bb65)" style="fill: #aa494e; fill-opacity: 0.9; stroke: #000000; stroke-opacity: 0.9; stroke-width: 0.5"/>
    <path d="M 430.507988 195.433325 
L 405.002688 206.233476 
L 455.340513 225.808487 
L 480.800202 214.669886 
z
" clip-path="url(#pb575d2bb65)" style="fill: #6b087e; fill-opacity: 0.9; stroke: #000000; stroke-opacity: 0.9; stroke-width: 0.5"/>
    <path d="M 219.174503 369.708418 
L 217.838992 224.438753 
L 265.644727 244.461697 
L 265.834116 391.47416 
z
" clip-path="url(#pb575d2bb65)" style="fill: #cb6051; fill-opacity: 0.9; stroke: #000000; stroke-opacity: 0.9; stroke-width: 0.5"/>
    <path d="M 263.145635 211.441055 
L 236.148793 222.395351 
L 283.916303 242.250405 
L 310.91311 230.952349 
z
" clip-path="url(#pb575d2bb65)" style="fill: #9c375c; fill-opacity: 0.9; stroke: #000000; stroke-opacity: 0.9; stroke-width: 0.5"/>
    <path d="M 95.564939 235.56712 
L 67.108968 246.73166 
L 112.234194 266.967802 
L 140.735901 255.452895 
z
" clip-path="url(#pb575d2bb65)" style="fill: #bb6838; fill-opacity: 0.9; stroke: #000000; stroke-opacity: 0.9; stroke-width: 0.5"/>
    <path d="M 341.945402 385.414263 
L 391.037288 407.668972 
L 364.692957 420.55626 
L 315.57942 397.908628 
z
" clip-path="url(#pb575d2bb65)" style="fill: #712c3b; fill-opacity: 0.9; stroke: #000000; stroke-opacity: 0.9; stroke-width: 0.5"/>
    <path d="M 173.690839 390.194136 
L 145.76385 402.772376 
L 144.481396 343.836122 
L 172.697754 331.648938 
z
" clip-path="url(#pb575d2bb65)" style="fill: #dc8538; fill-opacity: 0.9; stroke: #000000; stroke-opacity: 0.9; stroke-width: 0.5"/>
    <path d="M 359.2709 377.204021 
L 408.344673 399.202434 
L 411.851868 246.650108 
L 361.467814 226.46827 
z
" clip-path="url(#pb575d2bb65)" style="fill: #4b133a; fill-opacity: 0.9; stroke: #000000; stroke-opacity: 0.9; stroke-width: 0.5"/>
    <path d="M 173.690839 390.194136 
L 220.326621 412.59875 
L 192.374981 425.573908 
L 145.76385 402.772376 
z
" clip-path="url(#pb575d2bb65)" style="fill: #855022; fill-opacity: 0.9; stroke: #000000; stroke-opacity: 0.9; stroke-width: 0.5"/>
    <path d="M 173.690839 390.194136 
L 172.697754 331.648938 
L 219.789672 353.358474 
L 220.326621 412.59875 
z
" clip-path="url(#pb575d2bb65)" style="fill: #dc8538; fill-opacity: 0.9; stroke: #000000; stroke-opacity: 0.9; stroke-width: 0.5"/>
    <path d="M 341.945402 385.414263 
L 315.57942 397.908628 
L 316.586282 257.750531 
L 343.567245 246.200928 
z
" clip-path="url(#pb575d2bb65)" style="fill: #bc4962; fill-opacity: 0.9; stroke: #000000; stroke-opacity: 0.9; stroke-width: 0.5"/>
    <path d="M 192.041214 381.929177 
L 238.689043 404.074909 
L 237.812846 256.060423 
L 190.019797 235.679122 
z
" clip-path="url(#pb575d2bb65)" style="fill: #602d26; fill-opacity: 0.9; stroke: #000000; stroke-opacity: 0.9; stroke-width: 0.5"/>
    <path d="M 433.93134 386.685785 
L 438.066523 235.165097 
L 411.851868 246.650108 
L 408.344673 399.202434 
z
" clip-path="url(#pb575d2bb65)" style="fill: #4b133a; fill-opacity: 0.9; stroke: #000000; stroke-opacity: 0.9; stroke-width: 0.5"/>
    <path d="M 341.945402 385.414263 
L 343.567245 246.200928 
L 393.865054 266.776163 
L 391.037288 407.668972 
z
" clip-path="url(#pb575d2bb65)" style="fill: #bc4962; fill-opacity: 0.9; stroke: #000000; stroke-opacity: 0.9; stroke-width: 0.5"/>
    <path d="M 265.834116 391.47416 
L 265.644727 244.461697 
L 237.812846 256.060423 
L 238.689043 404.074909 
z
" clip-path="url(#pb575d2bb65)" style="fill: #602d26; fill-opacity: 0.9; stroke: #000000; stroke-opacity: 0.9; stroke-width: 0.5"/>
    <path d="M 387.717462 215.337196 
L 361.467814 226.46827 
L 411.851868 246.650108 
L 438.066523 235.165097 
z
" clip-path="url(#pb575d2bb65)" style="fill: #8b246c; fill-opacity: 0.9; stroke: #000000; stroke-opacity: 0.9; stroke-width: 0.5"/>
    <path d="M 145.76385 402.772376 
L 192.374981 425.573908 
L 191.547912 365.934174 
L 144.481396 343.836122 
z
" clip-path="url(#pb575d2bb65)" style="fill: #683f1a; fill-opacity: 0.9; stroke: #000000; stroke-opacity: 0.9; stroke-width: 0.5"/>
    <path d="M 172.697754 331.648938 
L 144.481396 343.836122 
L 191.547912 365.934174 
L 219.789672 353.358474 
z
" clip-path="url(#pb575d2bb65)" style="fill: #bf7431; fill-opacity: 0.9; stroke: #000000; stroke-opacity: 0.9; stroke-width: 0.5"/>
    <path d="M 217.838992 224.438753 
L 190.019797 235.679122 
L 237.812846 256.060423 
L 265.644727 244.461697 
z
" clip-path="url(#pb575d2bb65)" style="fill: #b05346; fill-opacity: 0.9; stroke: #000000; stroke-opacity: 0.9; stroke-width: 0.5"/>
    <path d="M 297.74512 406.359982 
L 346.869255 429.275373 
L 319.7331 442.550011 
L 270.599107 419.22399 
z
" clip-path="url(#pb575d2bb65)" style="fill: #7f412c; fill-opacity: 0.9; stroke: #000000; stroke-opacity: 0.9; stroke-width: 0.5"/>
    <path d="M 220.326621 412.59875 
L 219.789672 353.358474 
L 191.547912 365.934174 
L 192.374981 425.573908 
z
" clip-path="url(#pb575d2bb65)" style="fill: #683f1a; fill-opacity: 0.9; stroke: #000000; stroke-opacity: 0.9; stroke-width: 0.5"/>
    <path d="M 315.57942 397.908628 
L 364.692957 420.55626 
L 366.907338 278.697819 
L 316.586282 257.750531 
z
" clip-path="url(#pb575d2bb65)" style="fill: #59222e; fill-opacity: 0.9; stroke: #000000; stroke-opacity: 0.9; stroke-width: 0.5"/>
    <path d="M 297.74512 406.359982 
L 270.599107 419.22399 
L 270.536936 289.63572 
L 298.279509 277.650973 
z
" clip-path="url(#pb575d2bb65)" style="fill: #d26c49; fill-opacity: 0.9; stroke: #000000; stroke-opacity: 0.9; stroke-width: 0.5"/>
    <path d="M 391.037288 407.668972 
L 393.865054 266.776163 
L 366.907338 278.697819 
L 364.692957 420.55626 
z
" clip-path="url(#pb575d2bb65)" style="fill: #59222e; fill-opacity: 0.9; stroke: #000000; stroke-opacity: 0.9; stroke-width: 0.5"/>
    <path d="M 297.74512 406.359982 
L 298.279509 277.650973 
L 348.508178 299.003329 
L 346.869255 429.275373 
z
" clip-path="url(#pb575d2bb65)" style="fill: #d26c49; fill-opacity: 0.9; stroke: #000000; stroke-opacity: 0.9; stroke-width: 0.5"/>
    <path d="M 343.567245 246.200928 
L 316.586282 257.750531 
L 366.907338 278.697819 
L 393.865054 266.776163 
z
" clip-path="url(#pb575d2bb65)" style="fill: #a33f55; fill-opacity: 0.9; stroke: #000000; stroke-opacity: 0.9; stroke-width: 0.5"/>
    <path d="M 252.233259 427.927235 
L 224.27208 441.177535 
L 223.915873 398.929477 
L 252.081141 385.962773 
z
" clip-path="url(#pb575d2bb65)" style="fill: #df9330; fill-opacity: 0.9; stroke: #000000; stroke-opacity: 0.9; stroke-width: 0.5"/>
    <path d="M 252.233259 427.927235 
L 252.081141 385.962773 
L 301.573783 409.064638 
L 301.369627 451.533172 
z
" clip-path="url(#pb575d2bb65)" style="fill: #df9330; fill-opacity: 0.9; stroke: #000000; stroke-opacity: 0.9; stroke-width: 0.5"/>
    <path d="M 252.233259 427.927235 
L 301.369627 451.533172 
L 273.405405 465.212889 
L 224.27208 441.177535 
z
" clip-path="url(#pb575d2bb65)" style="fill: #86591d; fill-opacity: 0.9; stroke: #000000; stroke-opacity: 0.9; stroke-width: 0.5"/>
    <path d="M 270.599107 419.22399 
L 319.7331 442.550011 
L 320.776137 311.379283 
L 270.536936 289.63572 
z
" clip-path="url(#pb575d2bb65)" style="fill: #633322; fill-opacity: 0.9; stroke: #000000; stroke-opacity: 0.9; stroke-width: 0.5"/>
    <path d="M 346.869255 429.275373 
L 348.508178 299.003329 
L 320.776137 311.379283 
L 319.7331 442.550011 
z
" clip-path="url(#pb575d2bb65)" style="fill: #633322; fill-opacity: 0.9; stroke: #000000; stroke-opacity: 0.9; stroke-width: 0.5"/>
    <path d="M 298.279509 277.650973 
L 270.536936 289.63572 
L 320.776137 311.379283 
L 348.508178 299.003329 
z
" clip-path="url(#pb575d2bb65)" style="fill: #b65d3f; fill-opacity: 0.9; stroke: #000000; stroke-opacity: 0.9; stroke-width: 0.5"/>
    <path d="M 252.081141 385.962773 
L 223.915873 398.929477 
L 273.405405 422.454674 
L 301.573783 409.064638 
z
" clip-path="url(#pb575d2bb65)" style="fill: #c18029; fill-opacity: 0.9; stroke: #000000; stroke-opacity: 0.9; stroke-width: 0.5"/>
    <path d="M 224.27208 441.177535 
L 273.405405 465.212889 
L 273.405405 422.454674 
L 223.915873 398.929477 
z
" clip-path="url(#pb575d2bb65)" style="fill: #694516; fill-opacity: 0.9; stroke: #000000; stroke-opacity: 0.9; stroke-width: 0.5"/>
    <path d="M 301.369627 451.533172 
L 301.573783 409.064638 
L 273.405405 422.454674 
L 273.405405 465.212889 
z
" clip-path="url(#pb575d2bb65)" style="fill: #694516; fill-opacity: 0.9; stroke: #000000; stroke-opacity: 0.9; stroke-width: 0.5"/>
   </g>
   <g id="text_18">
    <text style="font: 8px 'SimHei', 'Microsoft YaHei', 'DejaVu Sans', 'Bitstream Vera Sans', 'Computer Modern Sans Serif', 'Lucida Grande', 'Verdana', 'Geneva', 'Lucid', 'Arial', 'Helvetica', 'Avant Garde', sans-serif; text-anchor: middle" x="283.371202" y="83.732758" transform="rotate(-0 283.371202 83.732758)">74.85</text>
   </g>
   <g id="text_19">
    <text style="font: 8px 'SimHei', 'Microsoft YaHei', 'DejaVu Sans', 'Bitstream Vera Sans', 'Computer Modern Sans Serif', 'Lucida Grande', 'Verdana', 'Geneva', 'Lucid', 'Arial', 'Helvetica', 'Avant Garde', sans-serif; text-anchor: middle" x="361.073281" y="174.329522" transform="rotate(-0 361.073281 174.329522)">53.63</text>
   </g>
   <g id="text_20">
    <text style="font: 8px 'SimHei', 'Microsoft YaHei', 'DejaVu Sans', 'Bitstream Vera Sans', 'Computer Modern Sans Serif', 'Lucida Grande', 'Verdana', 'Geneva', 'Lucid', 'Arial', 'Helvetica', 'Avant Garde', sans-serif; text-anchor: middle" x="442.799033" y="208.554251" transform="rotate(-0 442.799033 208.554251)">52.69</text>
   </g>
   <g id="text_21">
    <text style="font: 8px 'SimHei', 'Microsoft YaHei', 'DejaVu Sans', 'Bitstream Vera Sans', 'Computer Modern Sans Serif', 'Lucida Grande', 'Verdana', 'Geneva', 'Lucid', 'Arial', 'Helvetica', 'Avant Garde', sans-serif; text-anchor: middle" x="239.718393" y="100.293753" transform="rotate(-0 239.718393 100.293753)">74.67</text>
   </g>
   <g id="text_22">
    <text style="font: 8px 'SimHei', 'Microsoft YaHei', 'DejaVu Sans', 'Bitstream Vera Sans', 'Computer Modern Sans Serif', 'Lucida Grande', 'Verdana', 'Geneva', 'Lucid', 'Arial', 'Helvetica', 'Avant Garde', sans-serif; text-anchor: middle" x="317.840241" y="195.94095" transform="rotate(-0 317.840241 195.94095)">52.25</text>
   </g>
   <g id="text_23">
    <text style="font: 8px 'SimHei', 'Microsoft YaHei', 'DejaVu Sans', 'Bitstream Vera Sans', 'Computer Modern Sans Serif', 'Lucida Grande', 'Verdana', 'Geneva', 'Lucid', 'Arial', 'Helvetica', 'Avant Garde', sans-serif; text-anchor: middle" x="399.655534" y="228.908859" transform="rotate(-0 399.655534 228.908859)">52.08</text>
   </g>
   <g id="text_24">
    <text style="font: 8px 'SimHei', 'Microsoft YaHei', 'DejaVu Sans', 'Bitstream Vera Sans', 'Computer Modern Sans Serif', 'Lucida Grande', 'Verdana', 'Geneva', 'Lucid', 'Arial', 'Helvetica', 'Avant Garde', sans-serif; text-anchor: middle" x="194.974839" y="129.534167" transform="rotate(-0 194.974839 129.534167)">70.35</text>
   </g>
   <g id="text_25">
    <text style="font: 8px 'SimHei', 'Microsoft YaHei', 'DejaVu Sans', 'Bitstream Vera Sans', 'Computer Modern Sans Serif', 'Lucida Grande', 'Verdana', 'Geneva', 'Lucid', 'Arial', 'Helvetica', 'Avant Garde', sans-serif; text-anchor: middle" x="273.405405" y="224.777348" transform="rotate(-0 273.405405 224.777348)">48.62</text>
   </g>
   <g id="text_26">
    <text style="font: 8px 'SimHei', 'Microsoft YaHei', 'DejaVu Sans', 'Bitstream Vera Sans', 'Computer Modern Sans Serif', 'Lucida Grande', 'Verdana', 'Geneva', 'Lucid', 'Arial', 'Helvetica', 'Avant Garde', sans-serif; text-anchor: middle" x="355.10475" y="260.347966" transform="rotate(-0 355.10475 260.347966)">47.98</text>
   </g>
   <g id="text_27">
    <text style="font: 8px 'SimHei', 'Microsoft YaHei', 'DejaVu Sans', 'Bitstream Vera Sans', 'Computer Modern Sans Serif', 'Lucida Grande', 'Verdana', 'Geneva', 'Lucid', 'Arial', 'Helvetica', 'Avant Garde', sans-serif; text-anchor: middle" x="148.977405" y="152.496472" transform="rotate(-0 148.977405 152.496472)">68.39</text>
   </g>
   <g id="text_28">
    <text style="font: 8px 'SimHei', 'Microsoft YaHei', 'DejaVu Sans', 'Bitstream Vera Sans', 'Computer Modern Sans Serif', 'Lucida Grande', 'Verdana', 'Geneva', 'Lucid', 'Arial', 'Helvetica', 'Avant Garde', sans-serif; text-anchor: middle" x="227.696502" y="238.16145" transform="rotate(-0 227.696502 238.16145)">50.44</text>
   </g>
   <g id="text_29">
    <text style="font: 8px 'SimHei', 'Microsoft YaHei', 'DejaVu Sans', 'Bitstream Vera Sans', 'Computer Modern Sans Serif', 'Lucida Grande', 'Verdana', 'Geneva', 'Lucid', 'Arial', 'Helvetica', 'Avant Garde', sans-serif; text-anchor: middle" x="309.39191" y="292.396428" transform="rotate(-0 309.39191 292.396428)">43.95</text>
   </g>
   <g id="text_30">
    <text style="font: 8px 'SimHei', 'Microsoft YaHei', 'DejaVu Sans', 'Bitstream Vera Sans', 'Computer Modern Sans Serif', 'Lucida Grande', 'Verdana', 'Geneva', 'Lucid', 'Arial', 'Helvetica', 'Avant Garde', sans-serif; text-anchor: middle" x="103.774031" y="249.199043" transform="rotate(-0 103.774031 249.199043)">41.77</text>
   </g>
   <g id="text_31">
    <text style="font: 8px 'SimHei', 'Microsoft YaHei', 'DejaVu Sans', 'Bitstream Vera Sans', 'Computer Modern Sans Serif', 'Lucida Grande', 'Verdana', 'Geneva', 'Lucid', 'Arial', 'Helvetica', 'Avant Garde', sans-serif; text-anchor: middle" x="181.993547" y="346.703228" transform="rotate(-0 181.993547 346.703228)">20.40</text>
   </g>
   <g id="text_32">
    <text style="font: 8px 'SimHei', 'Microsoft YaHei', 'DejaVu Sans', 'Bitstream Vera Sans', 'Computer Modern Sans Serif', 'Lucida Grande', 'Verdana', 'Geneva', 'Lucid', 'Arial', 'Helvetica', 'Avant Garde', sans-serif; text-anchor: middle" x="262.607606" y="402.089111" transform="rotate(-0 262.607606 402.089111)">14.38</text>
   </g>
  </g>
 </g>
 <defs>
  <clipPath id="pb575d2bb65">
   <rect x="7.2" y="7.2" width="518.4" height="518.4"/>
  </clipPath>
 </defs>
</svg>
