<?xml version="1.0" encoding="utf-8" standalone="no"?>
<!DOCTYPE svg PUBLIC "-//W3C//DTD SVG 1.1//EN"
  "http://www.w3.org/Graphics/SVG/1.1/DTD/svg11.dtd">
<svg xmlns:xlink="http://www.w3.org/1999/xlink" width="521.31pt" height="391.106461pt" viewBox="0 0 521.31 391.106461" xmlns="http://www.w3.org/2000/svg" version="1.1">
 <metadata>
  <rdf:RDF xmlns:dc="http://purl.org/dc/elements/1.1/" xmlns:cc="http://creativecommons.org/ns#" xmlns:rdf="http://www.w3.org/1999/02/22-rdf-syntax-ns#">
   <cc:Work>
    <dc:type rdf:resource="http://purl.org/dc/dcmitype/StillImage"/>
    <dc:date>2026-03-11T22:35:32.428976</dc:date>
    <dc:format>image/svg+xml</dc:format>
    <dc:creator>
     <cc:Agent>
      <dc:title>Matplotlib v3.7.1, https://matplotlib.org/</dc:title>
     </cc:Agent>
    </dc:creator>
   </cc:Work>
  </rdf:RDF>
 </metadata>
 <defs>
  <style type="text/css">*{stroke-linejoin: round; stroke-linecap: butt}</style>
 </defs>
 <g id="figure_1">
  <g id="patch_1">
   <path d="M 0 391.106461 
L 521.31 391.106461 
L 521.31 0 
L 0 0 
z
" style="fill: #ffffff"/>
  </g>
  <g id="axes_1">
   <g id="patch_2">
    <path d="M 26.2 351.672086 
L 514.11 351.672086 
L 514.11 10.908924 
L 26.2 10.908924 
z
" style="fill: #ffffff"/>
   </g>
   <g id="PolyCollection_1">
    <defs>
     <path id="mebe53d83d0" d="M 48.377727 -370.603016 
L 48.377727 -39.434375 
L 49.861187 -39.434375 
L 51.344647 -39.434375 
L 52.828107 -39.434375 
L 54.311567 -39.434375 
L 55.795027 -39.434375 
L 57.278487 -39.434375 
L 58.761947 -39.434375 
L 60.245407 -39.434375 
L 61.728867 -39.434375 
L 63.212327 -39.434375 
L 64.695787 -39.434375 
L 66.179247 -39.434375 
L 67.662708 -39.434375 
L 69.146168 -39.434375 
L 70.629628 -39.434375 
L 72.113088 -39.434375 
L 73.596548 -39.434375 
L 75.080008 -39.434375 
L 76.563468 -39.434375 
L 78.046928 -39.434375 
L 79.530388 -39.434375 
L 81.013848 -39.434375 
L 82.497308 -39.434375 
L 83.980768 -39.434375 
L 85.464228 -39.434375 
L 86.947688 -39.434375 
L 88.431148 -39.434375 
L 89.914608 -39.434375 
L 91.398068 -39.434375 
L 92.881528 -39.434375 
L 94.364988 -39.434375 
L 95.848448 -39.434375 
L 97.331908 -39.434375 
L 98.815368 -39.434375 
L 100.298828 -39.434375 
L 101.782288 -39.434375 
L 103.265748 -39.434375 
L 104.749208 -39.434375 
L 106.232668 -39.434375 
L 107.716128 -39.434375 
L 109.199588 -39.434375 
L 110.683048 -39.434375 
L 112.166508 -39.434375 
L 113.649968 -39.434375 
L 115.133428 -39.434375 
L 116.616888 -39.434375 
L 118.100348 -39.434375 
L 119.583808 -39.434375 
L 121.067268 -39.434375 
L 122.550728 -39.434375 
L 124.034188 -39.434375 
L 125.517648 -39.434375 
L 127.001108 -39.434375 
L 128.484568 -39.434375 
L 129.968028 -39.434375 
L 131.451488 -39.434375 
L 132.934948 -39.434375 
L 134.418408 -39.434375 
L 135.901868 -39.434375 
L 137.385328 -39.434375 
L 138.868788 -39.434375 
L 140.352248 -39.434375 
L 141.835708 -39.434375 
L 143.319168 -39.434375 
L 144.802628 -39.434375 
L 146.286088 -39.434375 
L 147.769548 -39.434375 
L 149.253009 -39.434375 
L 150.736469 -39.434375 
L 152.219929 -39.434375 
L 153.703389 -39.434375 
L 155.186849 -39.434375 
L 156.670309 -39.434375 
L 158.153769 -39.434375 
L 159.637229 -39.434375 
L 161.120689 -39.434375 
L 162.604149 -39.434375 
L 164.087609 -39.434375 
L 165.571069 -39.434375 
L 167.054529 -39.434375 
L 168.537989 -39.434375 
L 170.021449 -39.434375 
L 171.504909 -39.434375 
L 172.988369 -39.434375 
L 174.471829 -39.434375 
L 175.955289 -39.434375 
L 177.438749 -39.434375 
L 178.922209 -39.434375 
L 180.405669 -39.434375 
L 181.889129 -39.434375 
L 183.372589 -39.434375 
L 184.856049 -39.434375 
L 186.339509 -39.434375 
L 187.822969 -39.434375 
L 189.306429 -39.434375 
L 190.789889 -39.434375 
L 192.273349 -39.434375 
L 193.756809 -39.434375 
L 195.240269 -39.434375 
L 196.723729 -39.434375 
L 198.207189 -39.434375 
L 199.690649 -39.434375 
L 201.174109 -39.434375 
L 202.657569 -39.434375 
L 204.141029 -39.434375 
L 205.624489 -39.434375 
L 207.107949 -39.434375 
L 208.591409 -39.434375 
L 210.074869 -39.434375 
L 211.558329 -39.434375 
L 213.041789 -39.434375 
L 214.525249 -39.434375 
L 216.008709 -39.434375 
L 217.492169 -39.434375 
L 218.975629 -39.434375 
L 220.459089 -39.434375 
L 221.942549 -39.434375 
L 223.426009 -39.434375 
L 224.909469 -39.434375 
L 226.392929 -39.434375 
L 227.876389 -39.434375 
L 229.359849 -39.434375 
L 230.84331 -39.434375 
L 232.32677 -39.434375 
L 233.81023 -39.434375 
L 235.29369 -39.434375 
L 236.77715 -39.434375 
L 238.26061 -39.434375 
L 239.74407 -39.434375 
L 241.22753 -39.434375 
L 242.71099 -39.434375 
L 244.19445 -39.434375 
L 245.67791 -39.434375 
L 247.16137 -39.434375 
L 248.64483 -39.434375 
L 250.12829 -39.434375 
L 251.61175 -39.434375 
L 253.09521 -39.434375 
L 254.57867 -39.434375 
L 256.06213 -39.434375 
L 257.54559 -39.434375 
L 259.02905 -39.434375 
L 260.51251 -39.434375 
L 261.99597 -39.434375 
L 263.47943 -39.434375 
L 264.96289 -39.434375 
L 266.44635 -39.434375 
L 267.92981 -39.434375 
L 269.41327 -39.434375 
L 270.89673 -39.434375 
L 272.38019 -39.434375 
L 273.86365 -39.434375 
L 275.34711 -39.434375 
L 276.83057 -39.434375 
L 278.31403 -39.434375 
L 279.79749 -39.434375 
L 281.28095 -39.434375 
L 282.76441 -39.434375 
L 284.24787 -39.434375 
L 285.73133 -39.434375 
L 287.21479 -39.434375 
L 288.69825 -39.434375 
L 290.18171 -39.434375 
L 291.66517 -39.434375 
L 293.14863 -39.434375 
L 294.63209 -39.434375 
L 296.11555 -39.434375 
L 297.59901 -39.434375 
L 299.08247 -39.434375 
L 300.56593 -39.434375 
L 302.04939 -39.434375 
L 303.53285 -39.434375 
L 305.01631 -39.434375 
L 306.49977 -39.434375 
L 307.98323 -39.434375 
L 309.46669 -39.434375 
L 310.950151 -39.434375 
L 312.433611 -39.434375 
L 313.917071 -39.434375 
L 315.400531 -39.434375 
L 316.883991 -39.434375 
L 318.367451 -39.434375 
L 319.850911 -39.434375 
L 321.334371 -39.434375 
L 322.817831 -39.434375 
L 324.301291 -39.434375 
L 325.784751 -39.434375 
L 327.268211 -39.434375 
L 328.751671 -39.434375 
L 330.235131 -39.434375 
L 331.718591 -39.434375 
L 333.202051 -39.434375 
L 334.685511 -39.434375 
L 336.168971 -39.434375 
L 337.652431 -39.434375 
L 339.135891 -39.434375 
L 340.619351 -39.434375 
L 342.102811 -39.434375 
L 343.586271 -39.434375 
L 345.069731 -39.434375 
L 346.553191 -39.434375 
L 348.036651 -39.434375 
L 349.520111 -39.434375 
L 351.003571 -39.434375 
L 352.487031 -39.434375 
L 353.970491 -39.434375 
L 355.453951 -39.434375 
L 356.937411 -39.434375 
L 358.420871 -39.434375 
L 359.904331 -39.434375 
L 361.387791 -39.434375 
L 362.871251 -39.434375 
L 364.354711 -39.434375 
L 365.838171 -39.434375 
L 367.321631 -39.434375 
L 368.805091 -39.434375 
L 370.288551 -39.434375 
L 371.772011 -39.434375 
L 373.255471 -39.434375 
L 374.738931 -39.434375 
L 376.222391 -39.434375 
L 377.705851 -39.434375 
L 379.189311 -39.434375 
L 380.672771 -39.434375 
L 382.156231 -39.434375 
L 383.639691 -39.434375 
L 385.123151 -39.434375 
L 386.606611 -39.434375 
L 388.090071 -39.434375 
L 389.573531 -39.434375 
L 391.056991 -39.434375 
L 392.540452 -39.434375 
L 394.023912 -39.434375 
L 395.507372 -39.434375 
L 396.990832 -39.434375 
L 398.474292 -39.434375 
L 399.957752 -39.434375 
L 401.441212 -39.434375 
L 402.924672 -39.434375 
L 404.408132 -39.434375 
L 405.891592 -39.434375 
L 407.375052 -39.434375 
L 408.858512 -39.434375 
L 410.341972 -39.434375 
L 411.825432 -39.434375 
L 413.308892 -39.434375 
L 414.792352 -39.434375 
L 416.275812 -39.434375 
L 417.759272 -39.434375 
L 419.242732 -39.434375 
L 420.726192 -39.434375 
L 422.209652 -39.434375 
L 423.693112 -39.434375 
L 425.176572 -39.434375 
L 426.660032 -39.434375 
L 428.143492 -39.434375 
L 429.626952 -39.434375 
L 431.110412 -39.434375 
L 432.593872 -39.434375 
L 434.077332 -39.434375 
L 435.560792 -39.434375 
L 437.044252 -39.434375 
L 438.527712 -39.434375 
L 440.011172 -39.434375 
L 441.494632 -39.434375 
L 442.978092 -39.434375 
L 444.461552 -39.434375 
L 445.945012 -39.434375 
L 447.428472 -39.434375 
L 448.911932 -39.434375 
L 450.395392 -39.434375 
L 451.878852 -39.434375 
L 453.362312 -39.434375 
L 454.845772 -39.434375 
L 456.329232 -39.434375 
L 457.812692 -39.434375 
L 459.296152 -39.434375 
L 460.779612 -39.434375 
L 462.263072 -39.434375 
L 463.746532 -39.434375 
L 465.229992 -39.434375 
L 466.713452 -39.434375 
L 468.196912 -39.434375 
L 469.680372 -39.434375 
L 471.163832 -39.434375 
L 472.647292 -39.434375 
L 474.130753 -39.434375 
L 475.614213 -39.434375 
L 477.097673 -39.434375 
L 478.581133 -39.434375 
L 480.064593 -39.434375 
L 481.548053 -39.434375 
L 483.031513 -39.434375 
L 484.514973 -39.434375 
L 485.998433 -39.434375 
L 487.481893 -39.434375 
L 488.965353 -39.434375 
L 490.448813 -39.434375 
L 491.932273 -39.434375 
L 491.932273 -367.945378 
L 491.932273 -367.945378 
L 490.448813 -368.103258 
L 488.965353 -368.259481 
L 487.481893 -368.414052 
L 485.998433 -368.566979 
L 484.514973 -368.718269 
L 483.031513 -368.867928 
L 481.548053 -369.015962 
L 480.064593 -369.162378 
L 478.581133 -369.307184 
L 477.097673 -369.450385 
L 475.614213 -369.591988 
L 474.130753 -369.732 
L 472.647292 -369.870427 
L 471.163832 -370.007277 
L 469.680372 -370.142556 
L 468.196912 -370.276269 
L 466.713452 -370.408425 
L 465.229992 -370.53903 
L 463.746532 -370.66809 
L 462.263072 -370.795612 
L 460.779612 -370.921603 
L 459.296152 -371.046069 
L 457.812692 -371.169017 
L 456.329232 -371.290453 
L 454.845772 -371.410385 
L 453.362312 -371.528818 
L 451.878852 -371.64576 
L 450.395392 -371.761217 
L 448.911932 -371.875196 
L 447.428472 -371.987703 
L 445.945012 -372.098746 
L 444.461552 -372.20833 
L 442.978092 -372.316462 
L 441.494632 -372.42315 
L 440.011172 -372.528399 
L 438.527712 -372.632216 
L 437.044252 -372.734608 
L 435.560792 -372.835582 
L 434.077332 -372.935144 
L 432.593872 -373.033301 
L 431.110412 -373.130059 
L 429.626952 -373.225426 
L 428.143492 -373.319407 
L 426.660032 -373.41201 
L 425.176572 -373.503241 
L 423.693112 -373.593106 
L 422.209652 -373.681613 
L 420.726192 -373.768768 
L 419.242732 -373.854577 
L 417.759272 -373.939048 
L 416.275812 -374.022187 
L 414.792352 -374.104 
L 413.308892 -374.184494 
L 411.825432 -374.263677 
L 410.341972 -374.341553 
L 408.858512 -374.418131 
L 407.375052 -374.493417 
L 405.891592 -374.567417 
L 404.408132 -374.640138 
L 402.924672 -374.711587 
L 401.441212 -374.78177 
L 399.957752 -374.850694 
L 398.474292 -374.918366 
L 396.990832 -374.984792 
L 395.507372 -375.049979 
L 394.023912 -375.113934 
L 392.540452 -375.176663 
L 391.056991 -375.238172 
L 389.573531 -375.29847 
L 388.090071 -375.357561 
L 386.606611 -375.415453 
L 385.123151 -375.472152 
L 383.639691 -375.527666 
L 382.156231 -375.582 
L 380.672771 -375.635161 
L 379.189311 -375.687157 
L 377.705851 -375.737993 
L 376.222391 -375.787677 
L 374.738931 -375.836214 
L 373.255471 -375.883612 
L 371.772011 -375.929877 
L 370.288551 -375.975016 
L 368.805091 -376.019035 
L 367.321631 -376.061942 
L 365.838171 -376.103742 
L 364.354711 -376.144443 
L 362.871251 -376.184051 
L 361.387791 -376.222572 
L 359.904331 -376.260014 
L 358.420871 -376.296383 
L 356.937411 -376.331686 
L 355.453951 -376.365928 
L 353.970491 -376.399118 
L 352.487031 -376.431261 
L 351.003571 -376.462365 
L 349.520111 -376.492435 
L 348.036651 -376.521479 
L 346.553191 -376.549503 
L 345.069731 -376.576513 
L 343.586271 -376.602517 
L 342.102811 -376.627522 
L 340.619351 -376.651532 
L 339.135891 -376.674557 
L 337.652431 -376.696601 
L 336.168971 -376.717672 
L 334.685511 -376.737776 
L 333.202051 -376.75692 
L 331.718591 -376.77511 
L 330.235131 -376.792354 
L 328.751671 -376.808657 
L 327.268211 -376.824027 
L 325.784751 -376.838471 
L 324.301291 -376.851993 
L 322.817831 -376.864603 
L 321.334371 -376.876305 
L 319.850911 -376.887107 
L 318.367451 -376.897016 
L 316.883991 -376.906037 
L 315.400531 -376.914178 
L 313.917071 -376.921446 
L 312.433611 -376.927846 
L 310.950151 -376.933386 
L 309.46669 -376.938072 
L 307.98323 -376.94191 
L 306.49977 -376.944909 
L 305.01631 -376.947073 
L 303.53285 -376.94841 
L 302.04939 -376.948927 
L 300.56593 -376.94863 
L 299.08247 -376.947525 
L 297.59901 -376.94562 
L 296.11555 -376.94292 
L 294.63209 -376.939434 
L 293.14863 -376.935166 
L 291.66517 -376.930125 
L 290.18171 -376.924316 
L 288.69825 -376.917746 
L 287.21479 -376.910422 
L 285.73133 -376.90235 
L 284.24787 -376.893538 
L 282.76441 -376.883992 
L 281.28095 -376.873717 
L 279.79749 -376.862722 
L 278.31403 -376.851013 
L 276.83057 -376.838596 
L 275.34711 -376.825478 
L 273.86365 -376.811665 
L 272.38019 -376.797165 
L 270.89673 -376.781984 
L 269.41327 -376.766128 
L 267.92981 -376.749604 
L 266.44635 -376.73242 
L 264.96289 -376.71458 
L 263.47943 -376.696093 
L 261.99597 -376.676965 
L 260.51251 -376.657202 
L 259.02905 -376.636811 
L 257.54559 -376.615799 
L 256.06213 -376.594172 
L 254.57867 -376.571937 
L 253.09521 -376.549101 
L 251.61175 -376.52567 
L 250.12829 -376.501651 
L 248.64483 -376.47705 
L 247.16137 -376.451875 
L 245.67791 -376.426131 
L 244.19445 -376.399826 
L 242.71099 -376.372966 
L 241.22753 -376.345558 
L 239.74407 -376.317608 
L 238.26061 -376.289123 
L 236.77715 -376.26011 
L 235.29369 -376.230576 
L 233.81023 -376.200526 
L 232.32677 -376.169968 
L 230.84331 -376.138908 
L 229.359849 -376.107353 
L 227.876389 -376.07531 
L 226.392929 -376.042784 
L 224.909469 -376.009784 
L 223.426009 -375.976315 
L 221.942549 -375.942384 
L 220.459089 -375.907998 
L 218.975629 -375.873164 
L 217.492169 -375.837887 
L 216.008709 -375.802175 
L 214.525249 -375.766035 
L 213.041789 -375.729472 
L 211.558329 -375.692494 
L 210.074869 -375.655107 
L 208.591409 -375.617319 
L 207.107949 -375.579134 
L 205.624489 -375.540561 
L 204.141029 -375.501606 
L 202.657569 -375.462275 
L 201.174109 -375.422576 
L 199.690649 -375.382514 
L 198.207189 -375.342096 
L 196.723729 -375.30133 
L 195.240269 -375.260221 
L 193.756809 -375.218777 
L 192.273349 -375.177003 
L 190.789889 -375.134907 
L 189.306429 -375.092496 
L 187.822969 -375.049775 
L 186.339509 -375.006752 
L 184.856049 -374.963433 
L 183.372589 -374.919825 
L 181.889129 -374.875934 
L 180.405669 -374.831768 
L 178.922209 -374.787332 
L 177.438749 -374.742633 
L 175.955289 -374.697679 
L 174.471829 -374.652475 
L 172.988369 -374.607029 
L 171.504909 -374.561347 
L 170.021449 -374.515435 
L 168.537989 -374.469301 
L 167.054529 -374.42295 
L 165.571069 -374.37639 
L 164.087609 -374.329627 
L 162.604149 -374.282668 
L 161.120689 -374.235519 
L 159.637229 -374.188188 
L 158.153769 -374.14068 
L 156.670309 -374.093003 
L 155.186849 -374.045163 
L 153.703389 -373.997166 
L 152.219929 -373.94902 
L 150.736469 -373.900731 
L 149.253009 -373.852305 
L 147.769548 -373.80375 
L 146.286088 -373.755071 
L 144.802628 -373.706276 
L 143.319168 -373.657371 
L 141.835708 -373.608363 
L 140.352248 -373.559259 
L 138.868788 -373.510064 
L 137.385328 -373.460787 
L 135.901868 -373.411433 
L 134.418408 -373.362008 
L 132.934948 -373.312521 
L 131.451488 -373.262977 
L 129.968028 -373.213382 
L 128.484568 -373.163745 
L 127.001108 -373.11407 
L 125.517648 -373.064366 
L 124.034188 -373.014638 
L 122.550728 -372.964893 
L 121.067268 -372.915138 
L 119.583808 -372.86538 
L 118.100348 -372.815624 
L 116.616888 -372.765879 
L 115.133428 -372.71615 
L 113.649968 -372.666444 
L 112.166508 -372.616767 
L 110.683048 -372.567127 
L 109.199588 -372.51753 
L 107.716128 -372.467982 
L 106.232668 -372.418491 
L 104.749208 -372.369062 
L 103.265748 -372.319703 
L 101.782288 -372.270421 
L 100.298828 -372.221221 
L 98.815368 -372.17211 
L 97.331908 -372.123096 
L 95.848448 -372.074184 
L 94.364988 -372.025382 
L 92.881528 -371.976696 
L 91.398068 -371.928133 
L 89.914608 -371.879698 
L 88.431148 -371.8314 
L 86.947688 -371.783245 
L 85.464228 -371.735238 
L 83.980768 -371.687388 
L 82.497308 -371.6397 
L 81.013848 -371.592181 
L 79.530388 -371.544838 
L 78.046928 -371.497678 
L 76.563468 -371.450706 
L 75.080008 -371.403931 
L 73.596548 -371.357358 
L 72.113088 -371.310993 
L 70.629628 -371.264845 
L 69.146168 -371.218919 
L 67.662708 -371.173222 
L 66.179247 -371.12776 
L 64.695787 -371.082541 
L 63.212327 -371.03757 
L 61.728867 -370.992855 
L 60.245407 -370.948402 
L 58.761947 -370.904218 
L 57.278487 -370.86031 
L 55.795027 -370.816684 
L 54.311567 -370.773346 
L 52.828107 -370.730304 
L 51.344647 -370.687563 
L 49.861187 -370.645132 
L 48.377727 -370.603016 
z
" style="stroke: #94d4c0; stroke-opacity: 0.5"/>
    </defs>
    <g clip-path="url(#p5dc72fa245)">
     <use xlink:href="#mebe53d83d0" x="0" y="391.106461" style="fill: #94d4c0; fill-opacity: 0.5; stroke: #94d4c0; stroke-opacity: 0.5"/>
    </g>
   </g>
   <g id="PolyCollection_2">
    <defs>
     <path id="mdc5a63c5ea" d="M 48.377727 -272.81097 
L 48.377727 -39.434375 
L 49.861187 -39.434375 
L 51.344647 -39.434375 
L 52.828107 -39.434375 
L 54.311567 -39.434375 
L 55.795027 -39.434375 
L 57.278487 -39.434375 
L 58.761947 -39.434375 
L 60.245407 -39.434375 
L 61.728867 -39.434375 
L 63.212327 -39.434375 
L 64.695787 -39.434375 
L 66.179247 -39.434375 
L 67.662708 -39.434375 
L 69.146168 -39.434375 
L 70.629628 -39.434375 
L 72.113088 -39.434375 
L 73.596548 -39.434375 
L 75.080008 -39.434375 
L 76.563468 -39.434375 
L 78.046928 -39.434375 
L 79.530388 -39.434375 
L 81.013848 -39.434375 
L 82.497308 -39.434375 
L 83.980768 -39.434375 
L 85.464228 -39.434375 
L 86.947688 -39.434375 
L 88.431148 -39.434375 
L 89.914608 -39.434375 
L 91.398068 -39.434375 
L 92.881528 -39.434375 
L 94.364988 -39.434375 
L 95.848448 -39.434375 
L 97.331908 -39.434375 
L 98.815368 -39.434375 
L 100.298828 -39.434375 
L 101.782288 -39.434375 
L 103.265748 -39.434375 
L 104.749208 -39.434375 
L 106.232668 -39.434375 
L 107.716128 -39.434375 
L 109.199588 -39.434375 
L 110.683048 -39.434375 
L 112.166508 -39.434375 
L 113.649968 -39.434375 
L 115.133428 -39.434375 
L 116.616888 -39.434375 
L 118.100348 -39.434375 
L 119.583808 -39.434375 
L 121.067268 -39.434375 
L 122.550728 -39.434375 
L 124.034188 -39.434375 
L 125.517648 -39.434375 
L 127.001108 -39.434375 
L 128.484568 -39.434375 
L 129.968028 -39.434375 
L 131.451488 -39.434375 
L 132.934948 -39.434375 
L 134.418408 -39.434375 
L 135.901868 -39.434375 
L 137.385328 -39.434375 
L 138.868788 -39.434375 
L 140.352248 -39.434375 
L 141.835708 -39.434375 
L 143.319168 -39.434375 
L 144.802628 -39.434375 
L 146.286088 -39.434375 
L 147.769548 -39.434375 
L 149.253009 -39.434375 
L 150.736469 -39.434375 
L 152.219929 -39.434375 
L 153.703389 -39.434375 
L 155.186849 -39.434375 
L 156.670309 -39.434375 
L 158.153769 -39.434375 
L 159.637229 -39.434375 
L 161.120689 -39.434375 
L 162.604149 -39.434375 
L 164.087609 -39.434375 
L 165.571069 -39.434375 
L 167.054529 -39.434375 
L 168.537989 -39.434375 
L 170.021449 -39.434375 
L 171.504909 -39.434375 
L 172.988369 -39.434375 
L 174.471829 -39.434375 
L 175.955289 -39.434375 
L 177.438749 -39.434375 
L 178.922209 -39.434375 
L 180.405669 -39.434375 
L 181.889129 -39.434375 
L 183.372589 -39.434375 
L 184.856049 -39.434375 
L 186.339509 -39.434375 
L 187.822969 -39.434375 
L 189.306429 -39.434375 
L 190.789889 -39.434375 
L 192.273349 -39.434375 
L 193.756809 -39.434375 
L 195.240269 -39.434375 
L 196.723729 -39.434375 
L 198.207189 -39.434375 
L 199.690649 -39.434375 
L 201.174109 -39.434375 
L 202.657569 -39.434375 
L 204.141029 -39.434375 
L 205.624489 -39.434375 
L 207.107949 -39.434375 
L 208.591409 -39.434375 
L 210.074869 -39.434375 
L 211.558329 -39.434375 
L 213.041789 -39.434375 
L 214.525249 -39.434375 
L 216.008709 -39.434375 
L 217.492169 -39.434375 
L 218.975629 -39.434375 
L 220.459089 -39.434375 
L 221.942549 -39.434375 
L 223.426009 -39.434375 
L 224.909469 -39.434375 
L 226.392929 -39.434375 
L 227.876389 -39.434375 
L 229.359849 -39.434375 
L 230.84331 -39.434375 
L 232.32677 -39.434375 
L 233.81023 -39.434375 
L 235.29369 -39.434375 
L 236.77715 -39.434375 
L 238.26061 -39.434375 
L 239.74407 -39.434375 
L 241.22753 -39.434375 
L 242.71099 -39.434375 
L 244.19445 -39.434375 
L 245.67791 -39.434375 
L 247.16137 -39.434375 
L 248.64483 -39.434375 
L 250.12829 -39.434375 
L 251.61175 -39.434375 
L 253.09521 -39.434375 
L 254.57867 -39.434375 
L 256.06213 -39.434375 
L 257.54559 -39.434375 
L 259.02905 -39.434375 
L 260.51251 -39.434375 
L 261.99597 -39.434375 
L 263.47943 -39.434375 
L 264.96289 -39.434375 
L 266.44635 -39.434375 
L 267.92981 -39.434375 
L 269.41327 -39.434375 
L 270.89673 -39.434375 
L 272.38019 -39.434375 
L 273.86365 -39.434375 
L 275.34711 -39.434375 
L 276.83057 -39.434375 
L 278.31403 -39.434375 
L 279.79749 -39.434375 
L 281.28095 -39.434375 
L 282.76441 -39.434375 
L 284.24787 -39.434375 
L 285.73133 -39.434375 
L 287.21479 -39.434375 
L 288.69825 -39.434375 
L 290.18171 -39.434375 
L 291.66517 -39.434375 
L 293.14863 -39.434375 
L 294.63209 -39.434375 
L 296.11555 -39.434375 
L 297.59901 -39.434375 
L 299.08247 -39.434375 
L 300.56593 -39.434375 
L 302.04939 -39.434375 
L 303.53285 -39.434375 
L 305.01631 -39.434375 
L 306.49977 -39.434375 
L 307.98323 -39.434375 
L 309.46669 -39.434375 
L 310.950151 -39.434375 
L 312.433611 -39.434375 
L 313.917071 -39.434375 
L 315.400531 -39.434375 
L 316.883991 -39.434375 
L 318.367451 -39.434375 
L 319.850911 -39.434375 
L 321.334371 -39.434375 
L 322.817831 -39.434375 
L 324.301291 -39.434375 
L 325.784751 -39.434375 
L 327.268211 -39.434375 
L 328.751671 -39.434375 
L 330.235131 -39.434375 
L 331.718591 -39.434375 
L 333.202051 -39.434375 
L 334.685511 -39.434375 
L 336.168971 -39.434375 
L 337.652431 -39.434375 
L 339.135891 -39.434375 
L 340.619351 -39.434375 
L 342.102811 -39.434375 
L 343.586271 -39.434375 
L 345.069731 -39.434375 
L 346.553191 -39.434375 
L 348.036651 -39.434375 
L 349.520111 -39.434375 
L 351.003571 -39.434375 
L 352.487031 -39.434375 
L 353.970491 -39.434375 
L 355.453951 -39.434375 
L 356.937411 -39.434375 
L 358.420871 -39.434375 
L 359.904331 -39.434375 
L 361.387791 -39.434375 
L 362.871251 -39.434375 
L 364.354711 -39.434375 
L 365.838171 -39.434375 
L 367.321631 -39.434375 
L 368.805091 -39.434375 
L 370.288551 -39.434375 
L 371.772011 -39.434375 
L 373.255471 -39.434375 
L 374.738931 -39.434375 
L 376.222391 -39.434375 
L 377.705851 -39.434375 
L 379.189311 -39.434375 
L 380.672771 -39.434375 
L 382.156231 -39.434375 
L 383.639691 -39.434375 
L 385.123151 -39.434375 
L 386.606611 -39.434375 
L 388.090071 -39.434375 
L 389.573531 -39.434375 
L 391.056991 -39.434375 
L 392.540452 -39.434375 
L 394.023912 -39.434375 
L 395.507372 -39.434375 
L 396.990832 -39.434375 
L 398.474292 -39.434375 
L 399.957752 -39.434375 
L 401.441212 -39.434375 
L 402.924672 -39.434375 
L 404.408132 -39.434375 
L 405.891592 -39.434375 
L 407.375052 -39.434375 
L 408.858512 -39.434375 
L 410.341972 -39.434375 
L 411.825432 -39.434375 
L 413.308892 -39.434375 
L 414.792352 -39.434375 
L 416.275812 -39.434375 
L 417.759272 -39.434375 
L 419.242732 -39.434375 
L 420.726192 -39.434375 
L 422.209652 -39.434375 
L 423.693112 -39.434375 
L 425.176572 -39.434375 
L 426.660032 -39.434375 
L 428.143492 -39.434375 
L 429.626952 -39.434375 
L 431.110412 -39.434375 
L 432.593872 -39.434375 
L 434.077332 -39.434375 
L 435.560792 -39.434375 
L 437.044252 -39.434375 
L 438.527712 -39.434375 
L 440.011172 -39.434375 
L 441.494632 -39.434375 
L 442.978092 -39.434375 
L 444.461552 -39.434375 
L 445.945012 -39.434375 
L 447.428472 -39.434375 
L 448.911932 -39.434375 
L 450.395392 -39.434375 
L 451.878852 -39.434375 
L 453.362312 -39.434375 
L 454.845772 -39.434375 
L 456.329232 -39.434375 
L 457.812692 -39.434375 
L 459.296152 -39.434375 
L 460.779612 -39.434375 
L 462.263072 -39.434375 
L 463.746532 -39.434375 
L 465.229992 -39.434375 
L 466.713452 -39.434375 
L 468.196912 -39.434375 
L 469.680372 -39.434375 
L 471.163832 -39.434375 
L 472.647292 -39.434375 
L 474.130753 -39.434375 
L 475.614213 -39.434375 
L 477.097673 -39.434375 
L 478.581133 -39.434375 
L 480.064593 -39.434375 
L 481.548053 -39.434375 
L 483.031513 -39.434375 
L 484.514973 -39.434375 
L 485.998433 -39.434375 
L 487.481893 -39.434375 
L 488.965353 -39.434375 
L 490.448813 -39.434375 
L 491.932273 -39.434375 
L 491.932273 -271.234406 
L 491.932273 -271.234406 
L 490.448813 -271.43906 
L 488.965353 -271.641151 
L 487.481893 -271.840691 
L 485.998433 -272.037693 
L 484.514973 -272.232168 
L 483.031513 -272.42413 
L 481.548053 -272.61359 
L 480.064593 -272.800561 
L 478.581133 -272.985055 
L 477.097673 -273.167086 
L 475.614213 -273.346664 
L 474.130753 -273.523802 
L 472.647292 -273.698514 
L 471.163832 -273.870811 
L 469.680372 -274.040705 
L 468.196912 -274.208209 
L 466.713452 -274.373336 
L 465.229992 -274.536097 
L 463.746532 -274.696505 
L 462.263072 -274.854573 
L 460.779612 -275.010313 
L 459.296152 -275.163736 
L 457.812692 -275.314857 
L 456.329232 -275.463686 
L 454.845772 -275.610237 
L 453.362312 -275.754521 
L 451.878852 -275.896552 
L 450.395392 -276.036341 
L 448.911932 -276.1739 
L 447.428472 -276.309243 
L 445.945012 -276.442382 
L 444.461552 -276.573328 
L 442.978092 -276.702095 
L 441.494632 -276.828695 
L 440.011172 -276.953139 
L 438.527712 -277.075441 
L 437.044252 -277.195613 
L 435.560792 -277.313667 
L 434.077332 -277.429616 
L 432.593872 -277.543472 
L 431.110412 -277.655247 
L 429.626952 -277.764954 
L 428.143492 -277.872604 
L 426.660032 -277.978212 
L 425.176572 -278.081788 
L 423.693112 -278.183345 
L 422.209652 -278.282896 
L 420.726192 -278.380453 
L 419.242732 -278.476028 
L 417.759272 -278.569634 
L 416.275812 -278.661283 
L 414.792352 -278.750988 
L 413.308892 -278.83876 
L 411.825432 -278.924613 
L 410.341972 -279.008558 
L 408.858512 -279.090608 
L 407.375052 -279.170776 
L 405.891592 -279.249073 
L 404.408132 -279.325512 
L 402.924672 -279.400106 
L 401.441212 -279.472867 
L 399.957752 -279.543807 
L 398.474292 -279.612938 
L 396.990832 -279.680273 
L 395.507372 -279.745825 
L 394.023912 -279.809606 
L 392.540452 -279.871627 
L 391.056991 -279.931902 
L 389.573531 -279.990443 
L 388.090071 -280.047263 
L 386.606611 -280.102372 
L 385.123151 -280.155785 
L 383.639691 -280.207513 
L 382.156231 -280.257569 
L 380.672771 -280.305965 
L 379.189311 -280.352714 
L 377.705851 -280.397827 
L 376.222391 -280.441317 
L 374.738931 -280.483197 
L 373.255471 -280.52348 
L 371.772011 -280.562176 
L 370.288551 -280.599299 
L 368.805091 -280.634862 
L 367.321631 -280.668875 
L 365.838171 -280.701353 
L 364.354711 -280.732307 
L 362.871251 -280.761749 
L 361.387791 -280.789693 
L 359.904331 -280.81615 
L 358.420871 -280.841132 
L 356.937411 -280.864653 
L 355.453951 -280.886724 
L 353.970491 -280.907358 
L 352.487031 -280.926568 
L 351.003571 -280.944365 
L 349.520111 -280.960762 
L 348.036651 -280.975771 
L 346.553191 -280.989405 
L 345.069731 -281.001676 
L 343.586271 -281.012597 
L 342.102811 -281.022179 
L 340.619351 -281.030436 
L 339.135891 -281.037379 
L 337.652431 -281.043022 
L 336.168971 -281.047375 
L 334.685511 -281.050453 
L 333.202051 -281.052266 
L 331.718591 -281.052828 
L 330.235131 -281.052151 
L 328.751671 -281.050248 
L 327.268211 -281.047129 
L 325.784751 -281.042809 
L 324.301291 -281.037299 
L 322.817831 -281.030612 
L 321.334371 -281.022761 
L 319.850911 -281.013756 
L 318.367451 -281.003612 
L 316.883991 -280.992339 
L 315.400531 -280.979952 
L 313.917071 -280.966461 
L 312.433611 -280.95188 
L 310.950151 -280.93622 
L 309.46669 -280.919495 
L 307.98323 -280.901716 
L 306.49977 -280.882896 
L 305.01631 -280.863047 
L 303.53285 -280.842182 
L 302.04939 -280.820313 
L 300.56593 -280.797452 
L 299.08247 -280.773612 
L 297.59901 -280.748805 
L 296.11555 -280.723044 
L 294.63209 -280.696341 
L 293.14863 -280.668707 
L 291.66517 -280.640157 
L 290.18171 -280.610701 
L 288.69825 -280.580353 
L 287.21479 -280.549125 
L 285.73133 -280.517029 
L 284.24787 -280.484077 
L 282.76441 -280.450282 
L 281.28095 -280.415656 
L 279.79749 -280.380212 
L 278.31403 -280.343963 
L 276.83057 -280.306919 
L 275.34711 -280.269094 
L 273.86365 -280.230501 
L 272.38019 -280.19115 
L 270.89673 -280.151056 
L 269.41327 -280.11023 
L 267.92981 -280.068685 
L 266.44635 -280.026433 
L 264.96289 -279.983486 
L 263.47943 -279.939857 
L 261.99597 -279.895558 
L 260.51251 -279.850601 
L 259.02905 -279.805 
L 257.54559 -279.758765 
L 256.06213 -279.711911 
L 254.57867 -279.664448 
L 253.09521 -279.61639 
L 251.61175 -279.567748 
L 250.12829 -279.518536 
L 248.64483 -279.468765 
L 247.16137 -279.418449 
L 245.67791 -279.367598 
L 244.19445 -279.316226 
L 242.71099 -279.264345 
L 241.22753 -279.211968 
L 239.74407 -279.159106 
L 238.26061 -279.105772 
L 236.77715 -279.051979 
L 235.29369 -278.997739 
L 233.81023 -278.943064 
L 232.32677 -278.887967 
L 230.84331 -278.83246 
L 229.359849 -278.776555 
L 227.876389 -278.720265 
L 226.392929 -278.663602 
L 224.909469 -278.606579 
L 223.426009 -278.549208 
L 221.942549 -278.4915 
L 220.459089 -278.43347 
L 218.975629 -278.375129 
L 217.492169 -278.316489 
L 216.008709 -278.257562 
L 214.525249 -278.198362 
L 213.041789 -278.138901 
L 211.558329 -278.07919 
L 210.074869 -278.019243 
L 208.591409 -277.959071 
L 207.107949 -277.898688 
L 205.624489 -277.838104 
L 204.141029 -277.777334 
L 202.657569 -277.716389 
L 201.174109 -277.655281 
L 199.690649 -277.594023 
L 198.207189 -277.532628 
L 196.723729 -277.471107 
L 195.240269 -277.409473 
L 193.756809 -277.347739 
L 192.273349 -277.285916 
L 190.789889 -277.224018 
L 189.306429 -277.162056 
L 187.822969 -277.100043 
L 186.339509 -277.037991 
L 184.856049 -276.975913 
L 183.372589 -276.913822 
L 181.889129 -276.851728 
L 180.405669 -276.789645 
L 178.922209 -276.727586 
L 177.438749 -276.665562 
L 175.955289 -276.603586 
L 174.471829 -276.54167 
L 172.988369 -276.479827 
L 171.504909 -276.418069 
L 170.021449 -276.356408 
L 168.537989 -276.294858 
L 167.054529 -276.233429 
L 165.571069 -276.172135 
L 164.087609 -276.110988 
L 162.604149 -276.05 
L 161.120689 -275.989184 
L 159.637229 -275.928552 
L 158.153769 -275.868116 
L 156.670309 -275.807889 
L 155.186849 -275.747883 
L 153.703389 -275.688111 
L 152.219929 -275.628585 
L 150.736469 -275.569317 
L 149.253009 -275.51032 
L 147.769548 -275.451606 
L 146.286088 -275.393187 
L 144.802628 -275.335076 
L 143.319168 -275.277286 
L 141.835708 -275.219828 
L 140.352248 -275.162714 
L 138.868788 -275.105958 
L 137.385328 -275.049572 
L 135.901868 -274.993568 
L 134.418408 -274.937958 
L 132.934948 -274.882756 
L 131.451488 -274.827972 
L 129.968028 -274.77362 
L 128.484568 -274.719712 
L 127.001108 -274.66626 
L 125.517648 -274.613276 
L 124.034188 -274.560774 
L 122.550728 -274.508766 
L 121.067268 -274.457263 
L 119.583808 -274.406278 
L 118.100348 -274.355824 
L 116.616888 -274.305913 
L 115.133428 -274.256557 
L 113.649968 -274.207769 
L 112.166508 -274.159561 
L 110.683048 -274.111945 
L 109.199588 -274.064934 
L 107.716128 -274.018541 
L 106.232668 -273.972777 
L 104.749208 -273.927655 
L 103.265748 -273.883187 
L 101.782288 -273.839386 
L 100.298828 -273.796264 
L 98.815368 -273.753834 
L 97.331908 -273.712107 
L 95.848448 -273.671096 
L 94.364988 -273.630814 
L 92.881528 -273.591273 
L 91.398068 -273.552486 
L 89.914608 -273.514464 
L 88.431148 -273.47722 
L 86.947688 -273.440767 
L 85.464228 -273.405116 
L 83.980768 -273.370281 
L 82.497308 -273.336273 
L 81.013848 -273.303105 
L 79.530388 -273.27079 
L 78.046928 -273.239339 
L 76.563468 -273.208765 
L 75.080008 -273.179081 
L 73.596548 -273.150298 
L 72.113088 -273.12243 
L 70.629628 -273.095489 
L 69.146168 -273.069486 
L 67.662708 -273.044435 
L 66.179247 -273.020347 
L 64.695787 -272.997236 
L 63.212327 -272.975113 
L 61.728867 -272.95399 
L 60.245407 -272.933881 
L 58.761947 -272.914798 
L 57.278487 -272.896752 
L 55.795027 -272.879757 
L 54.311567 -272.863825 
L 52.828107 -272.848968 
L 51.344647 -272.835198 
L 49.861187 -272.822528 
L 48.377727 -272.81097 
z
" style="stroke: #eeadd5; stroke-opacity: 0.5"/>
    </defs>
    <g clip-path="url(#p5dc72fa245)">
     <use xlink:href="#mdc5a63c5ea" x="0" y="391.106461" style="fill: #eeadd5; fill-opacity: 0.5; stroke: #eeadd5; stroke-opacity: 0.5"/>
    </g>
   </g>
   <g id="PolyCollection_3">
    <defs>
     <path id="m4a80ed9987" d="M 48.377727 -274.747892 
L 48.377727 -39.434375 
L 49.861187 -39.434375 
L 51.344647 -39.434375 
L 52.828107 -39.434375 
L 54.311567 -39.434375 
L 55.795027 -39.434375 
L 57.278487 -39.434375 
L 58.761947 -39.434375 
L 60.245407 -39.434375 
L 61.728867 -39.434375 
L 63.212327 -39.434375 
L 64.695787 -39.434375 
L 66.179247 -39.434375 
L 67.662708 -39.434375 
L 69.146168 -39.434375 
L 70.629628 -39.434375 
L 72.113088 -39.434375 
L 73.596548 -39.434375 
L 75.080008 -39.434375 
L 76.563468 -39.434375 
L 78.046928 -39.434375 
L 79.530388 -39.434375 
L 81.013848 -39.434375 
L 82.497308 -39.434375 
L 83.980768 -39.434375 
L 85.464228 -39.434375 
L 86.947688 -39.434375 
L 88.431148 -39.434375 
L 89.914608 -39.434375 
L 91.398068 -39.434375 
L 92.881528 -39.434375 
L 94.364988 -39.434375 
L 95.848448 -39.434375 
L 97.331908 -39.434375 
L 98.815368 -39.434375 
L 100.298828 -39.434375 
L 101.782288 -39.434375 
L 103.265748 -39.434375 
L 104.749208 -39.434375 
L 106.232668 -39.434375 
L 107.716128 -39.434375 
L 109.199588 -39.434375 
L 110.683048 -39.434375 
L 112.166508 -39.434375 
L 113.649968 -39.434375 
L 115.133428 -39.434375 
L 116.616888 -39.434375 
L 118.100348 -39.434375 
L 119.583808 -39.434375 
L 121.067268 -39.434375 
L 122.550728 -39.434375 
L 124.034188 -39.434375 
L 125.517648 -39.434375 
L 127.001108 -39.434375 
L 128.484568 -39.434375 
L 129.968028 -39.434375 
L 131.451488 -39.434375 
L 132.934948 -39.434375 
L 134.418408 -39.434375 
L 135.901868 -39.434375 
L 137.385328 -39.434375 
L 138.868788 -39.434375 
L 140.352248 -39.434375 
L 141.835708 -39.434375 
L 143.319168 -39.434375 
L 144.802628 -39.434375 
L 146.286088 -39.434375 
L 147.769548 -39.434375 
L 149.253009 -39.434375 
L 150.736469 -39.434375 
L 152.219929 -39.434375 
L 153.703389 -39.434375 
L 155.186849 -39.434375 
L 156.670309 -39.434375 
L 158.153769 -39.434375 
L 159.637229 -39.434375 
L 161.120689 -39.434375 
L 162.604149 -39.434375 
L 164.087609 -39.434375 
L 165.571069 -39.434375 
L 167.054529 -39.434375 
L 168.537989 -39.434375 
L 170.021449 -39.434375 
L 171.504909 -39.434375 
L 172.988369 -39.434375 
L 174.471829 -39.434375 
L 175.955289 -39.434375 
L 177.438749 -39.434375 
L 178.922209 -39.434375 
L 180.405669 -39.434375 
L 181.889129 -39.434375 
L 183.372589 -39.434375 
L 184.856049 -39.434375 
L 186.339509 -39.434375 
L 187.822969 -39.434375 
L 189.306429 -39.434375 
L 190.789889 -39.434375 
L 192.273349 -39.434375 
L 193.756809 -39.434375 
L 195.240269 -39.434375 
L 196.723729 -39.434375 
L 198.207189 -39.434375 
L 199.690649 -39.434375 
L 201.174109 -39.434375 
L 202.657569 -39.434375 
L 204.141029 -39.434375 
L 205.624489 -39.434375 
L 207.107949 -39.434375 
L 208.591409 -39.434375 
L 210.074869 -39.434375 
L 211.558329 -39.434375 
L 213.041789 -39.434375 
L 214.525249 -39.434375 
L 216.008709 -39.434375 
L 217.492169 -39.434375 
L 218.975629 -39.434375 
L 220.459089 -39.434375 
L 221.942549 -39.434375 
L 223.426009 -39.434375 
L 224.909469 -39.434375 
L 226.392929 -39.434375 
L 227.876389 -39.434375 
L 229.359849 -39.434375 
L 230.84331 -39.434375 
L 232.32677 -39.434375 
L 233.81023 -39.434375 
L 235.29369 -39.434375 
L 236.77715 -39.434375 
L 238.26061 -39.434375 
L 239.74407 -39.434375 
L 241.22753 -39.434375 
L 242.71099 -39.434375 
L 244.19445 -39.434375 
L 245.67791 -39.434375 
L 247.16137 -39.434375 
L 248.64483 -39.434375 
L 250.12829 -39.434375 
L 251.61175 -39.434375 
L 253.09521 -39.434375 
L 254.57867 -39.434375 
L 256.06213 -39.434375 
L 257.54559 -39.434375 
L 259.02905 -39.434375 
L 260.51251 -39.434375 
L 261.99597 -39.434375 
L 263.47943 -39.434375 
L 264.96289 -39.434375 
L 266.44635 -39.434375 
L 267.92981 -39.434375 
L 269.41327 -39.434375 
L 270.89673 -39.434375 
L 272.38019 -39.434375 
L 273.86365 -39.434375 
L 275.34711 -39.434375 
L 276.83057 -39.434375 
L 278.31403 -39.434375 
L 279.79749 -39.434375 
L 281.28095 -39.434375 
L 282.76441 -39.434375 
L 284.24787 -39.434375 
L 285.73133 -39.434375 
L 287.21479 -39.434375 
L 288.69825 -39.434375 
L 290.18171 -39.434375 
L 291.66517 -39.434375 
L 293.14863 -39.434375 
L 294.63209 -39.434375 
L 296.11555 -39.434375 
L 297.59901 -39.434375 
L 299.08247 -39.434375 
L 300.56593 -39.434375 
L 302.04939 -39.434375 
L 303.53285 -39.434375 
L 305.01631 -39.434375 
L 306.49977 -39.434375 
L 307.98323 -39.434375 
L 309.46669 -39.434375 
L 310.950151 -39.434375 
L 312.433611 -39.434375 
L 313.917071 -39.434375 
L 315.400531 -39.434375 
L 316.883991 -39.434375 
L 318.367451 -39.434375 
L 319.850911 -39.434375 
L 321.334371 -39.434375 
L 322.817831 -39.434375 
L 324.301291 -39.434375 
L 325.784751 -39.434375 
L 327.268211 -39.434375 
L 328.751671 -39.434375 
L 330.235131 -39.434375 
L 331.718591 -39.434375 
L 333.202051 -39.434375 
L 334.685511 -39.434375 
L 336.168971 -39.434375 
L 337.652431 -39.434375 
L 339.135891 -39.434375 
L 340.619351 -39.434375 
L 342.102811 -39.434375 
L 343.586271 -39.434375 
L 345.069731 -39.434375 
L 346.553191 -39.434375 
L 348.036651 -39.434375 
L 349.520111 -39.434375 
L 351.003571 -39.434375 
L 352.487031 -39.434375 
L 353.970491 -39.434375 
L 355.453951 -39.434375 
L 356.937411 -39.434375 
L 358.420871 -39.434375 
L 359.904331 -39.434375 
L 361.387791 -39.434375 
L 362.871251 -39.434375 
L 364.354711 -39.434375 
L 365.838171 -39.434375 
L 367.321631 -39.434375 
L 368.805091 -39.434375 
L 370.288551 -39.434375 
L 371.772011 -39.434375 
L 373.255471 -39.434375 
L 374.738931 -39.434375 
L 376.222391 -39.434375 
L 377.705851 -39.434375 
L 379.189311 -39.434375 
L 380.672771 -39.434375 
L 382.156231 -39.434375 
L 383.639691 -39.434375 
L 385.123151 -39.434375 
L 386.606611 -39.434375 
L 388.090071 -39.434375 
L 389.573531 -39.434375 
L 391.056991 -39.434375 
L 392.540452 -39.434375 
L 394.023912 -39.434375 
L 395.507372 -39.434375 
L 396.990832 -39.434375 
L 398.474292 -39.434375 
L 399.957752 -39.434375 
L 401.441212 -39.434375 
L 402.924672 -39.434375 
L 404.408132 -39.434375 
L 405.891592 -39.434375 
L 407.375052 -39.434375 
L 408.858512 -39.434375 
L 410.341972 -39.434375 
L 411.825432 -39.434375 
L 413.308892 -39.434375 
L 414.792352 -39.434375 
L 416.275812 -39.434375 
L 417.759272 -39.434375 
L 419.242732 -39.434375 
L 420.726192 -39.434375 
L 422.209652 -39.434375 
L 423.693112 -39.434375 
L 425.176572 -39.434375 
L 426.660032 -39.434375 
L 428.143492 -39.434375 
L 429.626952 -39.434375 
L 431.110412 -39.434375 
L 432.593872 -39.434375 
L 434.077332 -39.434375 
L 435.560792 -39.434375 
L 437.044252 -39.434375 
L 438.527712 -39.434375 
L 440.011172 -39.434375 
L 441.494632 -39.434375 
L 442.978092 -39.434375 
L 444.461552 -39.434375 
L 445.945012 -39.434375 
L 447.428472 -39.434375 
L 448.911932 -39.434375 
L 450.395392 -39.434375 
L 451.878852 -39.434375 
L 453.362312 -39.434375 
L 454.845772 -39.434375 
L 456.329232 -39.434375 
L 457.812692 -39.434375 
L 459.296152 -39.434375 
L 460.779612 -39.434375 
L 462.263072 -39.434375 
L 463.746532 -39.434375 
L 465.229992 -39.434375 
L 466.713452 -39.434375 
L 468.196912 -39.434375 
L 469.680372 -39.434375 
L 471.163832 -39.434375 
L 472.647292 -39.434375 
L 474.130753 -39.434375 
L 475.614213 -39.434375 
L 477.097673 -39.434375 
L 478.581133 -39.434375 
L 480.064593 -39.434375 
L 481.548053 -39.434375 
L 483.031513 -39.434375 
L 484.514973 -39.434375 
L 485.998433 -39.434375 
L 487.481893 -39.434375 
L 488.965353 -39.434375 
L 490.448813 -39.434375 
L 491.932273 -39.434375 
L 491.932273 -272.991149 
L 491.932273 -272.991149 
L 490.448813 -272.98881 
L 488.965353 -272.987662 
L 487.481893 -272.987692 
L 485.998433 -272.988889 
L 484.514973 -272.991243 
L 483.031513 -272.99474 
L 481.548053 -272.999371 
L 480.064593 -273.005123 
L 478.581133 -273.011985 
L 477.097673 -273.019945 
L 475.614213 -273.028993 
L 474.130753 -273.039116 
L 472.647292 -273.050303 
L 471.163832 -273.062542 
L 469.680372 -273.075823 
L 468.196912 -273.090134 
L 466.713452 -273.105463 
L 465.229992 -273.121798 
L 463.746532 -273.139129 
L 462.263072 -273.157444 
L 460.779612 -273.176731 
L 459.296152 -273.196979 
L 457.812692 -273.218177 
L 456.329232 -273.240312 
L 454.845772 -273.263374 
L 453.362312 -273.287351 
L 451.878852 -273.312232 
L 450.395392 -273.338004 
L 448.911932 -273.364658 
L 447.428472 -273.39218 
L 445.945012 -273.42056 
L 444.461552 -273.449787 
L 442.978092 -273.479848 
L 441.494632 -273.510733 
L 440.011172 -273.542429 
L 438.527712 -273.574926 
L 437.044252 -273.608212 
L 435.560792 -273.642275 
L 434.077332 -273.677104 
L 432.593872 -273.712688 
L 431.110412 -273.749015 
L 429.626952 -273.786073 
L 428.143492 -273.823852 
L 426.660032 -273.862339 
L 425.176572 -273.901523 
L 423.693112 -273.941393 
L 422.209652 -273.981938 
L 420.726192 -274.023145 
L 419.242732 -274.065003 
L 417.759272 -274.107502 
L 416.275812 -274.150628 
L 414.792352 -274.194372 
L 413.308892 -274.238721 
L 411.825432 -274.283665 
L 410.341972 -274.32919 
L 408.858512 -274.375287 
L 407.375052 -274.421944 
L 405.891592 -274.469148 
L 404.408132 -274.51689 
L 402.924672 -274.565156 
L 401.441212 -274.613936 
L 399.957752 -274.663219 
L 398.474292 -274.712992 
L 396.990832 -274.763245 
L 395.507372 -274.813965 
L 394.023912 -274.865142 
L 392.540452 -274.916764 
L 391.056991 -274.96882 
L 389.573531 -275.021297 
L 388.090071 -275.074185 
L 386.606611 -275.127473 
L 385.123151 -275.181147 
L 383.639691 -275.235198 
L 382.156231 -275.289614 
L 380.672771 -275.344383 
L 379.189311 -275.399493 
L 377.705851 -275.454934 
L 376.222391 -275.510694 
L 374.738931 -275.566761 
L 373.255471 -275.623124 
L 371.772011 -275.679772 
L 370.288551 -275.736692 
L 368.805091 -275.793874 
L 367.321631 -275.851306 
L 365.838171 -275.908977 
L 364.354711 -275.966874 
L 362.871251 -276.024988 
L 361.387791 -276.083305 
L 359.904331 -276.141816 
L 358.420871 -276.200507 
L 356.937411 -276.259368 
L 355.453951 -276.318388 
L 353.970491 -276.377554 
L 352.487031 -276.436856 
L 351.003571 -276.496282 
L 349.520111 -276.55582 
L 348.036651 -276.615459 
L 346.553191 -276.675188 
L 345.069731 -276.734995 
L 343.586271 -276.794868 
L 342.102811 -276.854797 
L 340.619351 -276.914769 
L 339.135891 -276.974773 
L 337.652431 -277.034798 
L 336.168971 -277.094833 
L 334.685511 -277.154865 
L 333.202051 -277.214883 
L 331.718591 -277.274877 
L 330.235131 -277.334834 
L 328.751671 -277.394742 
L 327.268211 -277.454592 
L 325.784751 -277.51437 
L 324.301291 -277.574065 
L 322.817831 -277.633667 
L 321.334371 -277.693164 
L 319.850911 -277.752543 
L 318.367451 -277.811795 
L 316.883991 -277.870906 
L 315.400531 -277.929866 
L 313.917071 -277.988664 
L 312.433611 -278.047287 
L 310.950151 -278.105725 
L 309.46669 -278.163965 
L 307.98323 -278.221997 
L 306.49977 -278.279809 
L 305.01631 -278.33739 
L 303.53285 -278.394727 
L 302.04939 -278.45181 
L 300.56593 -278.508627 
L 299.08247 -278.565167 
L 297.59901 -278.621418 
L 296.11555 -278.677368 
L 294.63209 -278.733007 
L 293.14863 -278.788323 
L 291.66517 -278.843304 
L 290.18171 -278.897938 
L 288.69825 -278.952215 
L 287.21479 -279.006123 
L 285.73133 -279.059651 
L 284.24787 -279.112786 
L 282.76441 -279.165518 
L 281.28095 -279.217835 
L 279.79749 -279.269726 
L 278.31403 -279.321178 
L 276.83057 -279.372182 
L 275.34711 -279.422724 
L 273.86365 -279.472794 
L 272.38019 -279.522381 
L 270.89673 -279.571472 
L 269.41327 -279.620056 
L 267.92981 -279.668123 
L 266.44635 -279.71566 
L 264.96289 -279.762655 
L 263.47943 -279.809098 
L 261.99597 -279.854977 
L 260.51251 -279.900281 
L 259.02905 -279.944998 
L 257.54559 -279.989116 
L 256.06213 -280.032625 
L 254.57867 -280.075512 
L 253.09521 -280.117766 
L 251.61175 -280.159376 
L 250.12829 -280.20033 
L 248.64483 -280.240617 
L 247.16137 -280.280226 
L 245.67791 -280.319144 
L 244.19445 -280.357361 
L 242.71099 -280.394864 
L 241.22753 -280.431643 
L 239.74407 -280.467687 
L 238.26061 -280.502982 
L 236.77715 -280.537519 
L 235.29369 -280.571285 
L 233.81023 -280.60427 
L 232.32677 -280.636461 
L 230.84331 -280.667847 
L 229.359849 -280.698417 
L 227.876389 -280.72816 
L 226.392929 -280.757063 
L 224.909469 -280.785116 
L 223.426009 -280.812306 
L 221.942549 -280.838623 
L 220.459089 -280.864055 
L 218.975629 -280.88859 
L 217.492169 -280.912217 
L 216.008709 -280.934925 
L 214.525249 -280.956702 
L 213.041789 -280.977537 
L 211.558329 -280.997418 
L 210.074869 -281.016333 
L 208.591409 -281.034272 
L 207.107949 -281.051222 
L 205.624489 -281.067173 
L 204.141029 -281.082113 
L 202.657569 -281.09603 
L 201.174109 -281.108913 
L 199.690649 -281.12075 
L 198.207189 -281.13153 
L 196.723729 -281.141242 
L 195.240269 -281.149874 
L 193.756809 -281.157414 
L 192.273349 -281.163852 
L 190.789889 -281.169175 
L 189.306429 -281.173372 
L 187.822969 -281.176432 
L 186.339509 -281.178343 
L 184.856049 -281.179095 
L 183.372589 -281.178674 
L 181.889129 -281.17707 
L 180.405669 -281.174272 
L 178.922209 -281.170267 
L 177.438749 -281.165045 
L 175.955289 -281.158594 
L 174.471829 -281.150903 
L 172.988369 -281.141959 
L 171.504909 -281.131753 
L 170.021449 -281.120271 
L 168.537989 -281.107503 
L 167.054529 -281.093437 
L 165.571069 -281.078062 
L 164.087609 -281.061366 
L 162.604149 -281.043338 
L 161.120689 -281.023966 
L 159.637229 -281.003239 
L 158.153769 -280.981146 
L 156.670309 -280.957674 
L 155.186849 -280.932813 
L 153.703389 -280.906551 
L 152.219929 -280.878877 
L 150.736469 -280.849778 
L 149.253009 -280.819244 
L 147.769548 -280.787264 
L 146.286088 -280.753825 
L 144.802628 -280.718916 
L 143.319168 -280.682526 
L 141.835708 -280.644643 
L 140.352248 -280.605256 
L 138.868788 -280.564354 
L 137.385328 -280.521924 
L 135.901868 -280.477955 
L 134.418408 -280.432437 
L 132.934948 -280.385357 
L 131.451488 -280.336704 
L 129.968028 -280.286467 
L 128.484568 -280.234634 
L 127.001108 -280.181193 
L 125.517648 -280.126134 
L 124.034188 -280.069444 
L 122.550728 -280.011113 
L 121.067268 -279.951128 
L 119.583808 -279.889479 
L 118.100348 -279.826153 
L 116.616888 -279.76114 
L 115.133428 -279.694428 
L 113.649968 -279.626005 
L 112.166508 -279.55586 
L 110.683048 -279.483981 
L 109.199588 -279.410358 
L 107.716128 -279.334978 
L 106.232668 -279.25783 
L 104.749208 -279.178903 
L 103.265748 -279.098186 
L 101.782288 -279.015665 
L 100.298828 -278.931331 
L 98.815368 -278.845172 
L 97.331908 -278.757177 
L 95.848448 -278.667333 
L 94.364988 -278.575629 
L 92.881528 -278.482054 
L 91.398068 -278.386597 
L 89.914608 -278.289246 
L 88.431148 -278.189989 
L 86.947688 -278.088816 
L 85.464228 -277.985713 
L 83.980768 -277.880672 
L 82.497308 -277.773678 
L 81.013848 -277.664722 
L 79.530388 -277.553792 
L 78.046928 -277.440876 
L 76.563468 -277.325962 
L 75.080008 -277.20904 
L 73.596548 -277.090098 
L 72.113088 -276.969125 
L 70.629628 -276.846108 
L 69.146168 -276.721037 
L 67.662708 -276.593899 
L 66.179247 -276.464685 
L 64.695787 -276.333381 
L 63.212327 -276.199977 
L 61.728867 -276.064461 
L 60.245407 -275.926822 
L 58.761947 -275.787048 
L 57.278487 -275.645127 
L 55.795027 -275.501049 
L 54.311567 -275.354802 
L 52.828107 -275.206374 
L 51.344647 -275.055754 
L 49.861187 -274.902931 
L 48.377727 -274.747892 
z
" style="stroke: #edd6b4; stroke-opacity: 0.5"/>
    </defs>
    <g clip-path="url(#p5dc72fa245)">
     <use xlink:href="#m4a80ed9987" x="0" y="391.106461" style="fill: #edd6b4; fill-opacity: 0.5; stroke: #edd6b4; stroke-opacity: 0.5"/>
    </g>
   </g>
   <g id="matplotlib.axis_1">
    <g id="xtick_1">
     <g id="line2d_1">
      <path d="M 48.377727 351.672086 
L 48.377727 10.908924 
" clip-path="url(#p5dc72fa245)" style="fill: none; stroke-dasharray: 2.96,1.28; stroke-dashoffset: 0; stroke: #b0b0b0; stroke-opacity: 0.4; stroke-width: 0.8"/>
     </g>
     <g id="line2d_2">
      <defs>
       <path id="m0ef161387c" d="M 0 0 
L 0 3.5 
" style="stroke: #000000; stroke-width: 0.8"/>
      </defs>
      <g>
       <use xlink:href="#m0ef161387c" x="48.377727" y="351.672086" style="stroke: #000000; stroke-width: 0.8"/>
      </g>
     </g>
     <g id="text_1">
      <text style="font: 12px 'SimHei', 'Microsoft YaHei', 'DejaVu Sans', 'Bitstream Vera Sans', 'Computer Modern Sans Serif', 'Lucida Grande', 'Verdana', 'Geneva', 'Lucid', 'Arial', 'Helvetica', 'Avant Garde', sans-serif; text-anchor: middle" x="48.377727" y="366.922086" transform="rotate(-0 48.377727 366.922086)">0%</text>
     </g>
    </g>
    <g id="xtick_2">
     <g id="line2d_3">
      <path d="M 196.229242 351.672086 
L 196.229242 10.908924 
" clip-path="url(#p5dc72fa245)" style="fill: none; stroke-dasharray: 2.96,1.28; stroke-dashoffset: 0; stroke: #b0b0b0; stroke-opacity: 0.4; stroke-width: 0.8"/>
     </g>
     <g id="line2d_4">
      <g>
       <use xlink:href="#m0ef161387c" x="196.229242" y="351.672086" style="stroke: #000000; stroke-width: 0.8"/>
      </g>
     </g>
     <g id="text_2">
      <text style="font: 12px 'SimHei', 'Microsoft YaHei', 'DejaVu Sans', 'Bitstream Vera Sans', 'Computer Modern Sans Serif', 'Lucida Grande', 'Verdana', 'Geneva', 'Lucid', 'Arial', 'Helvetica', 'Avant Garde', sans-serif; text-anchor: middle" x="196.229242" y="366.922086" transform="rotate(-0 196.229242 366.922086)">10%</text>
     </g>
    </g>
    <g id="xtick_3">
     <g id="line2d_5">
      <path d="M 344.080758 351.672086 
L 344.080758 10.908924 
" clip-path="url(#p5dc72fa245)" style="fill: none; stroke-dasharray: 2.96,1.28; stroke-dashoffset: 0; stroke: #b0b0b0; stroke-opacity: 0.4; stroke-width: 0.8"/>
     </g>
     <g id="line2d_6">
      <g>
       <use xlink:href="#m0ef161387c" x="344.080758" y="351.672086" style="stroke: #000000; stroke-width: 0.8"/>
      </g>
     </g>
     <g id="text_3">
      <text style="font: 12px 'SimHei', 'Microsoft YaHei', 'DejaVu Sans', 'Bitstream Vera Sans', 'Computer Modern Sans Serif', 'Lucida Grande', 'Verdana', 'Geneva', 'Lucid', 'Arial', 'Helvetica', 'Avant Garde', sans-serif; text-anchor: middle" x="344.080758" y="366.922086" transform="rotate(-0 344.080758 366.922086)">20%</text>
     </g>
    </g>
    <g id="xtick_4">
     <g id="line2d_7">
      <path d="M 491.932273 351.672086 
L 491.932273 10.908924 
" clip-path="url(#p5dc72fa245)" style="fill: none; stroke-dasharray: 2.96,1.28; stroke-dashoffset: 0; stroke: #b0b0b0; stroke-opacity: 0.4; stroke-width: 0.8"/>
     </g>
     <g id="line2d_8">
      <g>
       <use xlink:href="#m0ef161387c" x="491.932273" y="351.672086" style="stroke: #000000; stroke-width: 0.8"/>
      </g>
     </g>
     <g id="text_4">
      <text style="font: 12px 'SimHei', 'Microsoft YaHei', 'DejaVu Sans', 'Bitstream Vera Sans', 'Computer Modern Sans Serif', 'Lucida Grande', 'Verdana', 'Geneva', 'Lucid', 'Arial', 'Helvetica', 'Avant Garde', sans-serif; text-anchor: middle" x="491.932273" y="366.922086" transform="rotate(-0 491.932273 366.922086)">30%</text>
     </g>
    </g>
    <g id="text_5">
     <text style="font: 700 14px 'SimHei', 'Microsoft YaHei', 'DejaVu Sans', 'Bitstream Vera Sans', 'Computer Modern Sans Serif', 'Lucida Grande', 'Verdana', 'Geneva', 'Lucid', 'Arial', 'Helvetica', 'Avant Garde', sans-serif; text-anchor: middle" x="270.155" y="382.156461" transform="rotate(-0 270.155 382.156461)">dropout feat</text>
    </g>
   </g>
   <g id="matplotlib.axis_2">
    <g id="ytick_1">
     <g id="line2d_9">
      <path d="M 26.2 351.672086 
L 514.11 351.672086 
" clip-path="url(#p5dc72fa245)" style="fill: none; stroke-dasharray: 2.96,1.28; stroke-dashoffset: 0; stroke: #b0b0b0; stroke-opacity: 0.4; stroke-width: 0.8"/>
     </g>
     <g id="line2d_10">
      <defs>
       <path id="m19bd111769" d="M 0 0 
L -3.5 0 
" style="stroke: #000000; stroke-width: 0.8"/>
      </defs>
      <g>
       <use xlink:href="#m19bd111769" x="26.2" y="351.672086" style="stroke: #000000; stroke-width: 0.8"/>
      </g>
     </g>
     <g id="text_6">
      <text style="font: 12px 'SimHei', 'Microsoft YaHei', 'DejaVu Sans', 'Bitstream Vera Sans', 'Computer Modern Sans Serif', 'Lucida Grande', 'Verdana', 'Geneva', 'Lucid', 'Arial', 'Helvetica', 'Avant Garde', sans-serif; text-anchor: end" x="19.2" y="355.797086" transform="rotate(-0 19.2 355.797086)">0</text>
     </g>
    </g>
    <g id="ytick_2">
     <g id="line2d_11">
      <path d="M 26.2 306.627385 
L 514.11 306.627385 
" clip-path="url(#p5dc72fa245)" style="fill: none; stroke-dasharray: 2.96,1.28; stroke-dashoffset: 0; stroke: #b0b0b0; stroke-opacity: 0.4; stroke-width: 0.8"/>
     </g>
     <g id="line2d_12">
      <g>
       <use xlink:href="#m19bd111769" x="26.2" y="306.627385" style="stroke: #000000; stroke-width: 0.8"/>
      </g>
     </g>
     <g id="text_7">
      <text style="font: 12px 'SimHei', 'Microsoft YaHei', 'DejaVu Sans', 'Bitstream Vera Sans', 'Computer Modern Sans Serif', 'Lucida Grande', 'Verdana', 'Geneva', 'Lucid', 'Arial', 'Helvetica', 'Avant Garde', sans-serif; text-anchor: end" x="19.2" y="310.752385" transform="rotate(-0 19.2 310.752385)">10</text>
     </g>
    </g>
    <g id="ytick_3">
     <g id="line2d_13">
      <path d="M 26.2 261.582684 
L 514.11 261.582684 
" clip-path="url(#p5dc72fa245)" style="fill: none; stroke-dasharray: 2.96,1.28; stroke-dashoffset: 0; stroke: #b0b0b0; stroke-opacity: 0.4; stroke-width: 0.8"/>
     </g>
     <g id="line2d_14">
      <g>
       <use xlink:href="#m19bd111769" x="26.2" y="261.582684" style="stroke: #000000; stroke-width: 0.8"/>
      </g>
     </g>
     <g id="text_8">
      <text style="font: 12px 'SimHei', 'Microsoft YaHei', 'DejaVu Sans', 'Bitstream Vera Sans', 'Computer Modern Sans Serif', 'Lucida Grande', 'Verdana', 'Geneva', 'Lucid', 'Arial', 'Helvetica', 'Avant Garde', sans-serif; text-anchor: end" x="19.2" y="265.707684" transform="rotate(-0 19.2 265.707684)">20</text>
     </g>
    </g>
    <g id="ytick_4">
     <g id="line2d_15">
      <path d="M 26.2 216.537983 
L 514.11 216.537983 
" clip-path="url(#p5dc72fa245)" style="fill: none; stroke-dasharray: 2.96,1.28; stroke-dashoffset: 0; stroke: #b0b0b0; stroke-opacity: 0.4; stroke-width: 0.8"/>
     </g>
     <g id="line2d_16">
      <g>
       <use xlink:href="#m19bd111769" x="26.2" y="216.537983" style="stroke: #000000; stroke-width: 0.8"/>
      </g>
     </g>
     <g id="text_9">
      <text style="font: 12px 'SimHei', 'Microsoft YaHei', 'DejaVu Sans', 'Bitstream Vera Sans', 'Computer Modern Sans Serif', 'Lucida Grande', 'Verdana', 'Geneva', 'Lucid', 'Arial', 'Helvetica', 'Avant Garde', sans-serif; text-anchor: end" x="19.2" y="220.662983" transform="rotate(-0 19.2 220.662983)">30</text>
     </g>
    </g>
    <g id="ytick_5">
     <g id="line2d_17">
      <path d="M 26.2 171.493282 
L 514.11 171.493282 
" clip-path="url(#p5dc72fa245)" style="fill: none; stroke-dasharray: 2.96,1.28; stroke-dashoffset: 0; stroke: #b0b0b0; stroke-opacity: 0.4; stroke-width: 0.8"/>
     </g>
     <g id="line2d_18">
      <g>
       <use xlink:href="#m19bd111769" x="26.2" y="171.493282" style="stroke: #000000; stroke-width: 0.8"/>
      </g>
     </g>
     <g id="text_10">
      <text style="font: 12px 'SimHei', 'Microsoft YaHei', 'DejaVu Sans', 'Bitstream Vera Sans', 'Computer Modern Sans Serif', 'Lucida Grande', 'Verdana', 'Geneva', 'Lucid', 'Arial', 'Helvetica', 'Avant Garde', sans-serif; text-anchor: end" x="19.2" y="175.618282" transform="rotate(-0 19.2 175.618282)">40</text>
     </g>
    </g>
    <g id="ytick_6">
     <g id="line2d_19">
      <path d="M 26.2 126.448582 
L 514.11 126.448582 
" clip-path="url(#p5dc72fa245)" style="fill: none; stroke-dasharray: 2.96,1.28; stroke-dashoffset: 0; stroke: #b0b0b0; stroke-opacity: 0.4; stroke-width: 0.8"/>
     </g>
     <g id="line2d_20">
      <g>
       <use xlink:href="#m19bd111769" x="26.2" y="126.448582" style="stroke: #000000; stroke-width: 0.8"/>
      </g>
     </g>
     <g id="text_11">
      <text style="font: 12px 'SimHei', 'Microsoft YaHei', 'DejaVu Sans', 'Bitstream Vera Sans', 'Computer Modern Sans Serif', 'Lucida Grande', 'Verdana', 'Geneva', 'Lucid', 'Arial', 'Helvetica', 'Avant Garde', sans-serif; text-anchor: end" x="19.2" y="130.573582" transform="rotate(-0 19.2 130.573582)">50</text>
     </g>
    </g>
    <g id="ytick_7">
     <g id="line2d_21">
      <path d="M 26.2 81.403881 
L 514.11 81.403881 
" clip-path="url(#p5dc72fa245)" style="fill: none; stroke-dasharray: 2.96,1.28; stroke-dashoffset: 0; stroke: #b0b0b0; stroke-opacity: 0.4; stroke-width: 0.8"/>
     </g>
     <g id="line2d_22">
      <g>
       <use xlink:href="#m19bd111769" x="26.2" y="81.403881" style="stroke: #000000; stroke-width: 0.8"/>
      </g>
     </g>
     <g id="text_12">
      <text style="font: 12px 'SimHei', 'Microsoft YaHei', 'DejaVu Sans', 'Bitstream Vera Sans', 'Computer Modern Sans Serif', 'Lucida Grande', 'Verdana', 'Geneva', 'Lucid', 'Arial', 'Helvetica', 'Avant Garde', sans-serif; text-anchor: end" x="19.2" y="85.528881" transform="rotate(-0 19.2 85.528881)">60</text>
     </g>
    </g>
    <g id="ytick_8">
     <g id="line2d_23">
      <path d="M 26.2 36.35918 
L 514.11 36.35918 
" clip-path="url(#p5dc72fa245)" style="fill: none; stroke-dasharray: 2.96,1.28; stroke-dashoffset: 0; stroke: #b0b0b0; stroke-opacity: 0.4; stroke-width: 0.8"/>
     </g>
     <g id="line2d_24">
      <g>
       <use xlink:href="#m19bd111769" x="26.2" y="36.35918" style="stroke: #000000; stroke-width: 0.8"/>
      </g>
     </g>
     <g id="text_13">
      <text style="font: 12px 'SimHei', 'Microsoft YaHei', 'DejaVu Sans', 'Bitstream Vera Sans', 'Computer Modern Sans Serif', 'Lucida Grande', 'Verdana', 'Geneva', 'Lucid', 'Arial', 'Helvetica', 'Avant Garde', sans-serif; text-anchor: end" x="19.2" y="40.48418" transform="rotate(-0 19.2 40.48418)">70</text>
     </g>
    </g>
   </g>
   <g id="line2d_25">
    <path d="M 48.377727 20.503445 
L 92.881528 19.129765 
L 201.174109 15.683885 
L 235.29369 14.875885 
L 264.96289 14.391881 
L 291.66517 14.176336 
L 316.883991 14.200424 
L 340.619351 14.454928 
L 362.871251 14.92241 
L 383.639691 15.578795 
L 404.408132 16.466323 
L 423.693112 17.513355 
L 442.978092 18.789999 
L 460.779612 20.184858 
L 478.581133 21.799277 
L 491.932273 23.161083 
L 491.932273 23.161083 
" clip-path="url(#p5dc72fa245)" style="fill: none; stroke: #66c2a5; stroke-width: 2.8; stroke-linecap: square"/>
   </g>
   <g id="line2d_26">
    <path d="M 48.377727 20.503445 
L 92.881528 19.129765 
L 201.174109 15.683885 
L 235.29369 14.875885 
L 264.96289 14.391881 
L 291.66517 14.176336 
L 316.883991 14.200424 
L 340.619351 14.454928 
L 362.871251 14.92241 
L 383.639691 15.578795 
L 404.408132 16.466323 
L 423.693112 17.513355 
L 442.978092 18.789999 
L 460.779612 20.184858 
L 478.581133 21.799277 
L 491.932273 23.161083 
L 491.932273 23.161083 
" clip-path="url(#p5dc72fa245)" style="fill: none; stroke: #c2e7db; stroke-opacity: 0.12; stroke-width: 6; stroke-linecap: square"/>
   </g>
   <g id="line2d_27">
    <path d="M 48.377727 118.295491 
L 69.146168 118.036975 
L 92.881528 117.515187 
L 119.583808 116.700183 
L 153.703389 115.418349 
L 256.06213 111.39455 
L 282.76441 110.656179 
L 306.49977 110.223565 
L 327.268211 110.059331 
L 346.553191 110.117056 
L 365.838171 110.405108 
L 383.639691 110.898948 
L 399.957752 111.562654 
L 416.275812 112.445178 
L 432.593872 113.562989 
L 447.428472 114.797218 
L 462.263072 116.251888 
L 477.097673 117.939375 
L 490.448813 119.667401 
L 491.932273 119.872055 
L 491.932273 119.872055 
" clip-path="url(#p5dc72fa245)" style="fill: none; stroke: #e78ac3; stroke-width: 2.8; stroke-linecap: square"/>
   </g>
   <g id="line2d_28">
    <path d="M 48.377727 118.295491 
L 69.146168 118.036975 
L 92.881528 117.515187 
L 119.583808 116.700183 
L 153.703389 115.418349 
L 256.06213 111.39455 
L 282.76441 110.656179 
L 306.49977 110.223565 
L 327.268211 110.059331 
L 346.553191 110.117056 
L 365.838171 110.405108 
L 383.639691 110.898948 
L 399.957752 111.562654 
L 416.275812 112.445178 
L 432.593872 113.562989 
L 447.428472 114.797218 
L 462.263072 116.251888 
L 477.097673 117.939375 
L 490.448813 119.667401 
L 491.932273 119.872055 
L 491.932273 119.872055 
" clip-path="url(#p5dc72fa245)" style="fill: none; stroke: #f5d0e7; stroke-opacity: 0.12; stroke-width: 6; stroke-linecap: square"/>
   </g>
   <g id="line2d_29">
    <path d="M 48.377727 116.358569 
L 63.212327 114.906484 
L 78.046928 113.665585 
L 94.364988 112.530832 
L 110.683048 111.62248 
L 127.001108 110.925267 
L 144.802628 110.387545 
L 162.604149 110.063123 
L 181.889129 109.929391 
L 202.657569 110.010431 
L 224.909469 110.321345 
L 250.12829 110.906131 
L 278.31403 111.785283 
L 315.400531 113.176595 
L 401.441212 116.492525 
L 431.110412 117.357446 
L 456.329232 117.866149 
L 478.581133 118.094476 
L 491.932273 118.115312 
L 491.932273 118.115312 
" clip-path="url(#p5dc72fa245)" style="fill: none; stroke: #e5c494; stroke-width: 2.8; stroke-linecap: square"/>
   </g>
   <g id="line2d_30">
    <path d="M 48.377727 116.358569 
L 63.212327 114.906484 
L 78.046928 113.665585 
L 94.364988 112.530832 
L 110.683048 111.62248 
L 127.001108 110.925267 
L 144.802628 110.387545 
L 162.604149 110.063123 
L 181.889129 109.929391 
L 202.657569 110.010431 
L 224.909469 110.321345 
L 250.12829 110.906131 
L 278.31403 111.785283 
L 315.400531 113.176595 
L 401.441212 116.492525 
L 431.110412 117.357446 
L 456.329232 117.866149 
L 478.581133 118.094476 
L 491.932273 118.115312 
L 491.932273 118.115312 
" clip-path="url(#p5dc72fa245)" style="fill: none; stroke: #f5e7d4; stroke-opacity: 0.12; stroke-width: 6; stroke-linecap: square"/>
   </g>
   <g id="patch_3">
    <path d="M 26.2 351.672086 
L 26.2 10.908924 
" style="fill: none; stroke: #000000; stroke-width: 0.8; stroke-linejoin: miter; stroke-linecap: square"/>
   </g>
   <g id="patch_4">
    <path d="M 514.11 351.672086 
L 514.11 10.908924 
" style="fill: none; stroke: #000000; stroke-width: 0.8; stroke-linejoin: miter; stroke-linecap: square"/>
   </g>
   <g id="patch_5">
    <path d="M 26.2 351.672086 
L 514.11 351.672086 
" style="fill: none; stroke: #000000; stroke-width: 0.8; stroke-linejoin: miter; stroke-linecap: square"/>
   </g>
   <g id="patch_6">
    <path d="M 26.2 10.908924 
L 514.11 10.908924 
" style="fill: none; stroke: #000000; stroke-width: 0.8; stroke-linejoin: miter; stroke-linecap: square"/>
   </g>
   <g id="text_14">
    <text style="fill: #66c2a5; font: 9px 'SimHei', 'Microsoft YaHei', 'DejaVu Sans', 'Bitstream Vera Sans', 'Computer Modern Sans Serif', 'Lucida Grande', 'Verdana', 'Geneva', 'Lucid', 'Arial', 'Helvetica', 'Avant Garde', sans-serif; text-anchor: middle" x="344.080758" y="13.3875" transform="rotate(-0 344.080758 13.3875)">74.85</text>
   </g>
   <g id="text_15">
    <text style="fill: #e78ac3; font: 9px 'SimHei', 'Microsoft YaHei', 'DejaVu Sans', 'Bitstream Vera Sans', 'Computer Modern Sans Serif', 'Lucida Grande', 'Verdana', 'Geneva', 'Lucid', 'Arial', 'Helvetica', 'Avant Garde', sans-serif; text-anchor: middle" x="344.080758" y="108.972355" transform="rotate(-0 344.080758 108.972355)">53.63</text>
   </g>
   <g id="text_16">
    <text style="fill: #e5c494; font: 9px 'SimHei', 'Microsoft YaHei', 'DejaVu Sans', 'Bitstream Vera Sans', 'Computer Modern Sans Serif', 'Lucida Grande', 'Verdana', 'Geneva', 'Lucid', 'Arial', 'Helvetica', 'Avant Garde', sans-serif; text-anchor: middle" x="196.229242" y="108.837221" transform="rotate(-0 196.229242 108.837221)">53.66</text>
   </g>
   <g id="PathCollection_1">
    <defs>
     <path id="mc343fe373e" d="M 0 2.915476 
C 0.773193 2.915476 1.514823 2.608283 2.061553 2.061553 
C 2.608283 1.514823 2.915476 0.773193 2.915476 0 
C 2.915476 -0.773193 2.608283 -1.514823 2.061553 -2.061553 
C 1.514823 -2.608283 0.773193 -2.915476 0 -2.915476 
C -0.773193 -2.915476 -1.514823 -2.608283 -2.061553 -2.061553 
C -2.608283 -1.514823 -2.915476 -0.773193 -2.915476 0 
C -2.915476 0.773193 -2.608283 1.514823 -2.061553 2.061553 
C -1.514823 2.608283 -0.773193 2.915476 0 2.915476 
z
" style="stroke: #66c2a5"/>
    </defs>
    <g clip-path="url(#p5dc72fa245)">
     <use xlink:href="#mc343fe373e" x="344.080758" y="14.5125" style="fill: #66c2a5; stroke: #66c2a5"/>
    </g>
   </g>
   <g id="PathCollection_2">
    <defs>
     <path id="m71bfb456ac" d="M 0 2.915476 
C 0.773193 2.915476 1.514823 2.608283 2.061553 2.061553 
C 2.608283 1.514823 2.915476 0.773193 2.915476 0 
C 2.915476 -0.773193 2.608283 -1.514823 2.061553 -2.061553 
C 1.514823 -2.608283 0.773193 -2.915476 0 -2.915476 
C -0.773193 -2.915476 -1.514823 -2.608283 -2.061553 -2.061553 
C -2.608283 -1.514823 -2.915476 -0.773193 -2.915476 0 
C -2.915476 0.773193 -2.608283 1.514823 -2.061553 2.061553 
C -1.514823 2.608283 -0.773193 2.915476 0 2.915476 
z
" style="stroke: #e78ac3"/>
    </defs>
    <g clip-path="url(#p5dc72fa245)">
     <use xlink:href="#m71bfb456ac" x="344.080758" y="110.097355" style="fill: #e78ac3; stroke: #e78ac3"/>
    </g>
   </g>
   <g id="PathCollection_3">
    <defs>
     <path id="m464066dedc" d="M 0 2.915476 
C 0.773193 2.915476 1.514823 2.608283 2.061553 2.061553 
C 2.608283 1.514823 2.915476 0.773193 2.915476 0 
C 2.915476 -0.773193 2.608283 -1.514823 2.061553 -2.061553 
C 1.514823 -2.608283 0.773193 -2.915476 0 -2.915476 
C -0.773193 -2.915476 -1.514823 -2.608283 -2.061553 -2.061553 
C -2.608283 -1.514823 -2.915476 -0.773193 -2.915476 0 
C -2.915476 0.773193 -2.608283 1.514823 -2.061553 2.061553 
C -1.514823 2.608283 -0.773193 2.915476 0 2.915476 
z
" style="stroke: #e5c494"/>
    </defs>
    <g clip-path="url(#p5dc72fa245)">
     <use xlink:href="#m464066dedc" x="196.229242" y="109.962221" style="fill: #e5c494; stroke: #e5c494"/>
    </g>
   </g>
  </g>
 </g>
 <defs>
  <clipPath id="p5dc72fa245">
   <rect x="26.2" y="10.908924" width="487.91" height="340.763162"/>
  </clipPath>
 </defs>
</svg>
