<?xml version="1.0" encoding="utf-8" standalone="no"?>
<!DOCTYPE svg PUBLIC "-//W3C//DTD SVG 1.1//EN"
  "http://www.w3.org/Graphics/SVG/1.1/DTD/svg11.dtd">
<svg xmlns:xlink="http://www.w3.org/1999/xlink" width="492.51pt" height="381.254pt" viewBox="0 0 492.51 381.254" xmlns="http://www.w3.org/2000/svg" version="1.1">
 <metadata>
  <rdf:RDF xmlns:dc="http://purl.org/dc/elements/1.1/" xmlns:cc="http://creativecommons.org/ns#" xmlns:rdf="http://www.w3.org/1999/02/22-rdf-syntax-ns#">
   <cc:Work>
    <dc:type rdf:resource="http://purl.org/dc/dcmitype/StillImage"/>
    <dc:date>2026-03-11T22:35:32.808459</dc:date>
    <dc:format>image/svg+xml</dc:format>
    <dc:creator>
     <cc:Agent>
      <dc:title>Matplotlib v3.7.1, https://matplotlib.org/</dc:title>
     </cc:Agent>
    </dc:creator>
   </cc:Work>
  </rdf:RDF>
 </metadata>
 <defs>
  <style type="text/css">*{stroke-linejoin: round; stroke-linecap: butt}</style>
 </defs>
 <g id="figure_1">
  <g id="patch_1">
   <path d="M 0 381.254 
L 492.51 381.254 
L 492.51 0 
L 0 0 
z
" style="fill: #ffffff"/>
  </g>
  <g id="axes_1">
   <g id="patch_2">
    <path d="M 26.2 340.144 
L 485.31 340.144 
L 485.31 7.2 
L 26.2 7.2 
z
" style="fill: #ffffff"/>
   </g>
   <g id="PolyCollection_1">
    <defs>
     <path id="mbf4884dc3d" d="M 47.068636 -332.797412 
L 47.068636 -56.243818 
L 50.57597 -56.243818 
L 54.083304 -56.243818 
L 57.590638 -56.243818 
L 61.097972 -56.243818 
L 64.605306 -56.243818 
L 68.112639 -56.243818 
L 71.619973 -56.243818 
L 75.127307 -56.243818 
L 78.634641 -56.243818 
L 82.141975 -56.243818 
L 85.649309 -56.243818 
L 89.156642 -56.243818 
L 92.663976 -56.243818 
L 96.17131 -56.243818 
L 99.678644 -56.243818 
L 103.185978 -56.243818 
L 106.693312 -56.243818 
L 110.200646 -56.243818 
L 113.707979 -56.243818 
L 117.215313 -56.243818 
L 120.722647 -56.243818 
L 124.229981 -56.243818 
L 127.737315 -56.243818 
L 131.244649 -56.243818 
L 134.751982 -56.243818 
L 138.259316 -56.243818 
L 141.76665 -56.243818 
L 145.273984 -56.243818 
L 148.781318 -56.243818 
L 152.288652 -56.243818 
L 155.795985 -56.243818 
L 159.303319 -56.243818 
L 162.810653 -56.243818 
L 166.317987 -56.243818 
L 169.825321 -56.243818 
L 173.332655 -56.243818 
L 176.839989 -56.243818 
L 180.347322 -56.243818 
L 183.854656 -56.243818 
L 187.36199 -56.243818 
L 190.869324 -56.243818 
L 194.376658 -56.243818 
L 197.883992 -56.243818 
L 201.391325 -56.243818 
L 204.898659 -56.243818 
L 208.405993 -56.243818 
L 211.913327 -56.243818 
L 215.420661 -56.243818 
L 218.927995 -56.243818 
L 222.435328 -56.243818 
L 225.942662 -56.243818 
L 229.449996 -56.243818 
L 232.95733 -56.243818 
L 236.464664 -56.243818 
L 239.971998 -56.243818 
L 243.479332 -56.243818 
L 246.986665 -56.243818 
L 250.493999 -56.243818 
L 254.001333 -56.243818 
L 257.508667 -56.243818 
L 261.016001 -56.243818 
L 264.523335 -56.243818 
L 268.030668 -56.243818 
L 271.538002 -56.243818 
L 275.045336 -56.243818 
L 278.55267 -56.243818 
L 282.060004 -56.243818 
L 285.567338 -56.243818 
L 289.074672 -56.243818 
L 292.582005 -56.243818 
L 296.089339 -56.243818 
L 299.596673 -56.243818 
L 303.104007 -56.243818 
L 306.611341 -56.243818 
L 310.118675 -56.243818 
L 313.626008 -56.243818 
L 317.133342 -56.243818 
L 320.640676 -56.243818 
L 324.14801 -56.243818 
L 327.655344 -56.243818 
L 331.162678 -56.243818 
L 334.670011 -56.243818 
L 338.177345 -56.243818 
L 341.684679 -56.243818 
L 345.192013 -56.243818 
L 348.699347 -56.243818 
L 352.206681 -56.243818 
L 355.714015 -56.243818 
L 359.221348 -56.243818 
L 362.728682 -56.243818 
L 366.236016 -56.243818 
L 369.74335 -56.243818 
L 373.250684 -56.243818 
L 376.758018 -56.243818 
L 380.265351 -56.243818 
L 383.772685 -56.243818 
L 387.280019 -56.243818 
L 390.787353 -56.243818 
L 394.294687 -56.243818 
L 397.802021 -56.243818 
L 401.309354 -56.243818 
L 404.816688 -56.243818 
L 408.324022 -56.243818 
L 411.831356 -56.243818 
L 415.33869 -56.243818 
L 418.846024 -56.243818 
L 422.353358 -56.243818 
L 425.860691 -56.243818 
L 429.368025 -56.243818 
L 432.875359 -56.243818 
L 436.382693 -56.243818 
L 439.890027 -56.243818 
L 443.397361 -56.243818 
L 446.904694 -56.243818 
L 450.412028 -56.243818 
L 453.919362 -56.243818 
L 457.426696 -56.243818 
L 460.93403 -56.243818 
L 464.441364 -56.243818 
L 464.441364 -327.580946 
L 464.441364 -327.580946 
L 460.93403 -328.301349 
L 457.426696 -329.021752 
L 453.919362 -329.742155 
L 450.412028 -330.462558 
L 446.904694 -331.182962 
L 443.397361 -331.903365 
L 439.890027 -332.623768 
L 436.382693 -333.344171 
L 432.875359 -334.064574 
L 429.368025 -334.784977 
L 425.860691 -335.50538 
L 422.353358 -336.225784 
L 418.846024 -336.946187 
L 415.33869 -337.66659 
L 411.831356 -338.386993 
L 408.324022 -339.107396 
L 404.816688 -339.827799 
L 401.309354 -340.548202 
L 397.802021 -341.268606 
L 394.294687 -341.989009 
L 390.787353 -342.709412 
L 387.280019 -343.429815 
L 383.772685 -344.150218 
L 380.265351 -344.804358 
L 376.758018 -345.193444 
L 373.250684 -345.582529 
L 369.74335 -345.971615 
L 366.236016 -346.360701 
L 362.728682 -346.749786 
L 359.221348 -347.138872 
L 355.714015 -347.527957 
L 352.206681 -347.917043 
L 348.699347 -348.306129 
L 345.192013 -348.695214 
L 341.684679 -349.0843 
L 338.177345 -349.473386 
L 334.670011 -349.862471 
L 331.162678 -350.251557 
L 327.655344 -350.640643 
L 324.14801 -351.029728 
L 320.640676 -351.418814 
L 317.133342 -351.8079 
L 313.626008 -352.196985 
L 310.118675 -352.586071 
L 306.611341 -352.975157 
L 303.104007 -353.364242 
L 299.596673 -353.753328 
L 296.089339 -354.069694 
L 292.582005 -354.27698 
L 289.074672 -354.484265 
L 285.567338 -354.691551 
L 282.060004 -354.898837 
L 278.55267 -355.106123 
L 275.045336 -355.313409 
L 271.538002 -355.520695 
L 268.030668 -355.72798 
L 264.523335 -355.935266 
L 261.016001 -356.142552 
L 257.508667 -356.349838 
L 254.001333 -356.557124 
L 250.493999 -356.764409 
L 246.986665 -356.971695 
L 243.479332 -357.178981 
L 239.971998 -357.386267 
L 236.464664 -357.593553 
L 232.95733 -357.800838 
L 229.449996 -358.008124 
L 225.942662 -358.21541 
L 222.435328 -358.422696 
L 218.927995 -358.629982 
L 215.420661 -358.837267 
L 211.913327 -358.48794 
L 208.405993 -357.767537 
L 204.898659 -357.047134 
L 201.391325 -356.32673 
L 197.883992 -355.606327 
L 194.376658 -354.885924 
L 190.869324 -354.165521 
L 187.36199 -353.445118 
L 183.854656 -352.724715 
L 180.347322 -352.004312 
L 176.839989 -351.283908 
L 173.332655 -350.563505 
L 169.825321 -349.843102 
L 166.317987 -349.122699 
L 162.810653 -348.402296 
L 159.303319 -347.681893 
L 155.795985 -346.96149 
L 152.288652 -346.241086 
L 148.781318 -345.520683 
L 145.273984 -344.80028 
L 141.76665 -344.079877 
L 138.259316 -343.359474 
L 134.751982 -342.639071 
L 131.244649 -341.918668 
L 127.737315 -341.472833 
L 124.229981 -341.095641 
L 120.722647 -340.718449 
L 117.215313 -340.341256 
L 113.707979 -339.964064 
L 110.200646 -339.586872 
L 106.693312 -339.20968 
L 103.185978 -338.832488 
L 99.678644 -338.455295 
L 96.17131 -338.078103 
L 92.663976 -337.700911 
L 89.156642 -337.323719 
L 85.649309 -336.946527 
L 82.141975 -336.569334 
L 78.634641 -336.192142 
L 75.127307 -335.81495 
L 71.619973 -335.437758 
L 68.112639 -335.060565 
L 64.605306 -334.683373 
L 61.097972 -334.306181 
L 57.590638 -333.928989 
L 54.083304 -333.551797 
L 50.57597 -333.174604 
L 47.068636 -332.797412 
z
" style="stroke: #66c2a5; stroke-opacity: 0.25"/>
    </defs>
    <g clip-path="url(#p349bb9405d)">
     <use xlink:href="#mbf4884dc3d" x="0" y="381.254" style="fill: #66c2a5; fill-opacity: 0.25; stroke: #66c2a5; stroke-opacity: 0.25"/>
    </g>
   </g>
   <g id="PolyCollection_2">
    <defs>
     <path id="mafa1ca85cb" d="M 47.068636 -260.211698 
L 47.068636 -56.243818 
L 50.57597 -56.243818 
L 54.083304 -56.243818 
L 57.590638 -56.243818 
L 61.097972 -56.243818 
L 64.605306 -56.243818 
L 68.112639 -56.243818 
L 71.619973 -56.243818 
L 75.127307 -56.243818 
L 78.634641 -56.243818 
L 82.141975 -56.243818 
L 85.649309 -56.243818 
L 89.156642 -56.243818 
L 92.663976 -56.243818 
L 96.17131 -56.243818 
L 99.678644 -56.243818 
L 103.185978 -56.243818 
L 106.693312 -56.243818 
L 110.200646 -56.243818 
L 113.707979 -56.243818 
L 117.215313 -56.243818 
L 120.722647 -56.243818 
L 124.229981 -56.243818 
L 127.737315 -56.243818 
L 131.244649 -56.243818 
L 134.751982 -56.243818 
L 138.259316 -56.243818 
L 141.76665 -56.243818 
L 145.273984 -56.243818 
L 148.781318 -56.243818 
L 152.288652 -56.243818 
L 155.795985 -56.243818 
L 159.303319 -56.243818 
L 162.810653 -56.243818 
L 166.317987 -56.243818 
L 169.825321 -56.243818 
L 173.332655 -56.243818 
L 176.839989 -56.243818 
L 180.347322 -56.243818 
L 183.854656 -56.243818 
L 187.36199 -56.243818 
L 190.869324 -56.243818 
L 194.376658 -56.243818 
L 197.883992 -56.243818 
L 201.391325 -56.243818 
L 204.898659 -56.243818 
L 208.405993 -56.243818 
L 211.913327 -56.243818 
L 215.420661 -56.243818 
L 218.927995 -56.243818 
L 222.435328 -56.243818 
L 225.942662 -56.243818 
L 229.449996 -56.243818 
L 232.95733 -56.243818 
L 236.464664 -56.243818 
L 239.971998 -56.243818 
L 243.479332 -56.243818 
L 246.986665 -56.243818 
L 250.493999 -56.243818 
L 254.001333 -56.243818 
L 257.508667 -56.243818 
L 261.016001 -56.243818 
L 264.523335 -56.243818 
L 268.030668 -56.243818 
L 271.538002 -56.243818 
L 275.045336 -56.243818 
L 278.55267 -56.243818 
L 282.060004 -56.243818 
L 285.567338 -56.243818 
L 289.074672 -56.243818 
L 292.582005 -56.243818 
L 296.089339 -56.243818 
L 299.596673 -56.243818 
L 303.104007 -56.243818 
L 306.611341 -56.243818 
L 310.118675 -56.243818 
L 313.626008 -56.243818 
L 317.133342 -56.243818 
L 320.640676 -56.243818 
L 324.14801 -56.243818 
L 327.655344 -56.243818 
L 331.162678 -56.243818 
L 334.670011 -56.243818 
L 338.177345 -56.243818 
L 341.684679 -56.243818 
L 345.192013 -56.243818 
L 348.699347 -56.243818 
L 352.206681 -56.243818 
L 355.714015 -56.243818 
L 359.221348 -56.243818 
L 362.728682 -56.243818 
L 366.236016 -56.243818 
L 369.74335 -56.243818 
L 373.250684 -56.243818 
L 376.758018 -56.243818 
L 380.265351 -56.243818 
L 383.772685 -56.243818 
L 387.280019 -56.243818 
L 390.787353 -56.243818 
L 394.294687 -56.243818 
L 397.802021 -56.243818 
L 401.309354 -56.243818 
L 404.816688 -56.243818 
L 408.324022 -56.243818 
L 411.831356 -56.243818 
L 415.33869 -56.243818 
L 418.846024 -56.243818 
L 422.353358 -56.243818 
L 425.860691 -56.243818 
L 429.368025 -56.243818 
L 432.875359 -56.243818 
L 436.382693 -56.243818 
L 439.890027 -56.243818 
L 443.397361 -56.243818 
L 446.904694 -56.243818 
L 450.412028 -56.243818 
L 453.919362 -56.243818 
L 457.426696 -56.243818 
L 460.93403 -56.243818 
L 464.441364 -56.243818 
L 464.441364 -248.282569 
L 464.441364 -248.282569 
L 460.93403 -248.576507 
L 457.426696 -248.870445 
L 453.919362 -249.164383 
L 450.412028 -249.458321 
L 446.904694 -249.75226 
L 443.397361 -250.046198 
L 439.890027 -250.340136 
L 436.382693 -250.634074 
L 432.875359 -250.928012 
L 429.368025 -251.22195 
L 425.860691 -251.515888 
L 422.353358 -251.809826 
L 418.846024 -252.103764 
L 415.33869 -252.397702 
L 411.831356 -252.69164 
L 408.324022 -252.985578 
L 404.816688 -253.279516 
L 401.309354 -253.573455 
L 397.802021 -253.867393 
L 394.294687 -254.161331 
L 390.787353 -254.455269 
L 387.280019 -254.749207 
L 383.772685 -255.043145 
L 380.265351 -255.359511 
L 376.758018 -255.765587 
L 373.250684 -256.171663 
L 369.74335 -256.57774 
L 366.236016 -256.983816 
L 362.728682 -257.389892 
L 359.221348 -257.795968 
L 355.714015 -258.202045 
L 352.206681 -258.608121 
L 348.699347 -259.014197 
L 345.192013 -259.420274 
L 341.684679 -259.82635 
L 338.177345 -260.232426 
L 334.670011 -260.638503 
L 331.162678 -261.044579 
L 327.655344 -261.450655 
L 324.14801 -261.856731 
L 320.640676 -262.262808 
L 317.133342 -262.668884 
L 313.626008 -263.07496 
L 310.118675 -263.481037 
L 306.611341 -263.887113 
L 303.104007 -264.293189 
L 299.596673 -264.699266 
L 296.089339 -265.080196 
L 292.582005 -265.423407 
L 289.074672 -265.766618 
L 285.567338 -266.109829 
L 282.060004 -266.45304 
L 278.55267 -266.79625 
L 275.045336 -267.139461 
L 271.538002 -267.482672 
L 268.030668 -267.825883 
L 264.523335 -268.169094 
L 261.016001 -268.512305 
L 257.508667 -268.855516 
L 254.001333 -269.198727 
L 250.493999 -269.541938 
L 246.986665 -269.885149 
L 243.479332 -270.22836 
L 239.971998 -270.571571 
L 236.464664 -270.914782 
L 232.95733 -271.257993 
L 229.449996 -271.601204 
L 225.942662 -271.944414 
L 222.435328 -272.287625 
L 218.927995 -272.630836 
L 215.420661 -272.974047 
L 211.913327 -272.881958 
L 208.405993 -272.499669 
L 204.898659 -272.117379 
L 201.391325 -271.73509 
L 197.883992 -271.3528 
L 194.376658 -270.970511 
L 190.869324 -270.588222 
L 187.36199 -270.205932 
L 183.854656 -269.823643 
L 180.347322 -269.441353 
L 176.839989 -269.059064 
L 173.332655 -268.676775 
L 169.825321 -268.294485 
L 166.317987 -267.912196 
L 162.810653 -267.529906 
L 159.303319 -267.147617 
L 155.795985 -266.765327 
L 152.288652 -266.383038 
L 148.781318 -266.000749 
L 145.273984 -265.618459 
L 141.76665 -265.23617 
L 138.259316 -264.85388 
L 134.751982 -264.471591 
L 131.244649 -264.089302 
L 127.737315 -263.885074 
L 124.229981 -263.725362 
L 120.722647 -263.56565 
L 117.215313 -263.405938 
L 113.707979 -263.246226 
L 110.200646 -263.086514 
L 106.693312 -262.926802 
L 103.185978 -262.76709 
L 99.678644 -262.607378 
L 96.17131 -262.447666 
L 92.663976 -262.287954 
L 89.156642 -262.128242 
L 85.649309 -261.96853 
L 82.141975 -261.808818 
L 78.634641 -261.649106 
L 75.127307 -261.489394 
L 71.619973 -261.329682 
L 68.112639 -261.16997 
L 64.605306 -261.010258 
L 61.097972 -260.850546 
L 57.590638 -260.690834 
L 54.083304 -260.531122 
L 50.57597 -260.37141 
L 47.068636 -260.211698 
z
" style="stroke: #e78ac3; stroke-opacity: 0.25"/>
    </defs>
    <g clip-path="url(#p349bb9405d)">
     <use xlink:href="#mafa1ca85cb" x="0" y="381.254" style="fill: #e78ac3; fill-opacity: 0.25; stroke: #e78ac3; stroke-opacity: 0.25"/>
    </g>
   </g>
   <g id="PolyCollection_3">
    <defs>
     <path id="mcfee993cc3" d="M 47.068636 -233.967615 
L 47.068636 -56.243818 
L 50.57597 -56.243818 
L 54.083304 -56.243818 
L 57.590638 -56.243818 
L 61.097972 -56.243818 
L 64.605306 -56.243818 
L 68.112639 -56.243818 
L 71.619973 -56.243818 
L 75.127307 -56.243818 
L 78.634641 -56.243818 
L 82.141975 -56.243818 
L 85.649309 -56.243818 
L 89.156642 -56.243818 
L 92.663976 -56.243818 
L 96.17131 -56.243818 
L 99.678644 -56.243818 
L 103.185978 -56.243818 
L 106.693312 -56.243818 
L 110.200646 -56.243818 
L 113.707979 -56.243818 
L 117.215313 -56.243818 
L 120.722647 -56.243818 
L 124.229981 -56.243818 
L 127.737315 -56.243818 
L 131.244649 -56.243818 
L 134.751982 -56.243818 
L 138.259316 -56.243818 
L 141.76665 -56.243818 
L 145.273984 -56.243818 
L 148.781318 -56.243818 
L 152.288652 -56.243818 
L 155.795985 -56.243818 
L 159.303319 -56.243818 
L 162.810653 -56.243818 
L 166.317987 -56.243818 
L 169.825321 -56.243818 
L 173.332655 -56.243818 
L 176.839989 -56.243818 
L 180.347322 -56.243818 
L 183.854656 -56.243818 
L 187.36199 -56.243818 
L 190.869324 -56.243818 
L 194.376658 -56.243818 
L 197.883992 -56.243818 
L 201.391325 -56.243818 
L 204.898659 -56.243818 
L 208.405993 -56.243818 
L 211.913327 -56.243818 
L 215.420661 -56.243818 
L 218.927995 -56.243818 
L 222.435328 -56.243818 
L 225.942662 -56.243818 
L 229.449996 -56.243818 
L 232.95733 -56.243818 
L 236.464664 -56.243818 
L 239.971998 -56.243818 
L 243.479332 -56.243818 
L 246.986665 -56.243818 
L 250.493999 -56.243818 
L 254.001333 -56.243818 
L 257.508667 -56.243818 
L 261.016001 -56.243818 
L 264.523335 -56.243818 
L 268.030668 -56.243818 
L 271.538002 -56.243818 
L 275.045336 -56.243818 
L 278.55267 -56.243818 
L 282.060004 -56.243818 
L 285.567338 -56.243818 
L 289.074672 -56.243818 
L 292.582005 -56.243818 
L 296.089339 -56.243818 
L 299.596673 -56.243818 
L 303.104007 -56.243818 
L 306.611341 -56.243818 
L 310.118675 -56.243818 
L 313.626008 -56.243818 
L 317.133342 -56.243818 
L 320.640676 -56.243818 
L 324.14801 -56.243818 
L 327.655344 -56.243818 
L 331.162678 -56.243818 
L 334.670011 -56.243818 
L 338.177345 -56.243818 
L 341.684679 -56.243818 
L 345.192013 -56.243818 
L 348.699347 -56.243818 
L 352.206681 -56.243818 
L 355.714015 -56.243818 
L 359.221348 -56.243818 
L 362.728682 -56.243818 
L 366.236016 -56.243818 
L 369.74335 -56.243818 
L 373.250684 -56.243818 
L 376.758018 -56.243818 
L 380.265351 -56.243818 
L 383.772685 -56.243818 
L 387.280019 -56.243818 
L 390.787353 -56.243818 
L 394.294687 -56.243818 
L 397.802021 -56.243818 
L 401.309354 -56.243818 
L 404.816688 -56.243818 
L 408.324022 -56.243818 
L 411.831356 -56.243818 
L 415.33869 -56.243818 
L 418.846024 -56.243818 
L 422.353358 -56.243818 
L 425.860691 -56.243818 
L 429.368025 -56.243818 
L 432.875359 -56.243818 
L 436.382693 -56.243818 
L 439.890027 -56.243818 
L 443.397361 -56.243818 
L 446.904694 -56.243818 
L 450.412028 -56.243818 
L 453.919362 -56.243818 
L 457.426696 -56.243818 
L 460.93403 -56.243818 
L 464.441364 -56.243818 
L 464.441364 -241.084654 
L 464.441364 -241.084654 
L 460.93403 -241.331019 
L 457.426696 -241.577383 
L 453.919362 -241.823747 
L 450.412028 -242.070111 
L 446.904694 -242.316476 
L 443.397361 -242.56284 
L 439.890027 -242.809204 
L 436.382693 -243.055569 
L 432.875359 -243.301933 
L 429.368025 -243.548297 
L 425.860691 -243.794661 
L 422.353358 -244.041026 
L 418.846024 -244.28739 
L 415.33869 -244.533754 
L 411.831356 -244.780119 
L 408.324022 -245.026483 
L 404.816688 -245.272847 
L 401.309354 -245.519211 
L 397.802021 -245.765576 
L 394.294687 -246.01194 
L 390.787353 -246.258304 
L 387.280019 -246.504669 
L 383.772685 -246.751033 
L 380.265351 -247.074874 
L 376.758018 -247.708625 
L 373.250684 -248.342376 
L 369.74335 -248.976127 
L 366.236016 -249.609878 
L 362.728682 -250.243629 
L 359.221348 -250.87738 
L 355.714015 -251.511131 
L 352.206681 -252.144881 
L 348.699347 -252.778632 
L 345.192013 -253.412383 
L 341.684679 -254.046134 
L 338.177345 -254.679885 
L 334.670011 -255.313636 
L 331.162678 -255.947387 
L 327.655344 -256.581138 
L 324.14801 -257.214889 
L 320.640676 -257.848639 
L 317.133342 -258.48239 
L 313.626008 -259.116141 
L 310.118675 -259.749892 
L 306.611341 -260.383643 
L 303.104007 -261.017394 
L 299.596673 -261.651145 
L 296.089339 -262.153728 
L 292.582005 -262.459559 
L 289.074672 -262.765391 
L 285.567338 -263.071222 
L 282.060004 -263.377054 
L 278.55267 -263.682886 
L 275.045336 -263.988717 
L 271.538002 -264.294549 
L 268.030668 -264.60038 
L 264.523335 -264.906212 
L 261.016001 -265.212043 
L 257.508667 -265.517875 
L 254.001333 -265.823706 
L 250.493999 -266.129538 
L 246.986665 -266.435369 
L 243.479332 -266.741201 
L 239.971998 -267.047032 
L 236.464664 -267.352864 
L 232.95733 -267.658695 
L 229.449996 -267.964527 
L 225.942662 -268.270358 
L 222.435328 -268.57619 
L 218.927995 -268.882021 
L 215.420661 -269.187853 
L 211.913327 -269.040034 
L 208.405993 -268.589782 
L 204.898659 -268.13953 
L 201.391325 -267.689278 
L 197.883992 -267.239027 
L 194.376658 -266.788775 
L 190.869324 -266.338523 
L 187.36199 -265.888271 
L 183.854656 -265.438019 
L 180.347322 -264.987767 
L 176.839989 -264.537515 
L 173.332655 -264.087263 
L 169.825321 -263.637011 
L 166.317987 -263.186759 
L 162.810653 -262.736507 
L 159.303319 -262.286255 
L 155.795985 -261.836003 
L 152.288652 -261.385751 
L 148.781318 -260.935499 
L 145.273984 -260.485247 
L 141.76665 -260.034995 
L 138.259316 -259.584743 
L 134.751982 -259.134491 
L 131.244649 -258.684239 
L 127.737315 -257.766405 
L 124.229981 -256.731675 
L 120.722647 -255.696945 
L 117.215313 -254.662215 
L 113.707979 -253.627485 
L 110.200646 -252.592755 
L 106.693312 -251.558025 
L 103.185978 -250.523295 
L 99.678644 -249.488565 
L 96.17131 -248.453835 
L 92.663976 -247.419105 
L 89.156642 -246.384375 
L 85.649309 -245.349645 
L 82.141975 -244.314915 
L 78.634641 -243.280185 
L 75.127307 -242.245455 
L 71.619973 -241.210725 
L 68.112639 -240.175995 
L 64.605306 -239.141265 
L 61.097972 -238.106535 
L 57.590638 -237.071805 
L 54.083304 -236.037075 
L 50.57597 -235.002345 
L 47.068636 -233.967615 
z
" style="stroke: #e5c494; stroke-opacity: 0.25"/>
    </defs>
    <g clip-path="url(#p349bb9405d)">
     <use xlink:href="#mcfee993cc3" x="0" y="381.254" style="fill: #e5c494; fill-opacity: 0.25; stroke: #e5c494; stroke-opacity: 0.25"/>
    </g>
   </g>
   <g id="matplotlib.axis_1">
    <g id="xtick_1">
     <g id="line2d_1">
      <path d="M 47.068636 340.144 
L 47.068636 7.2 
" clip-path="url(#p349bb9405d)" style="fill: none; stroke-dasharray: 2.96,1.28; stroke-dashoffset: 0; stroke: #b0b0b0; stroke-opacity: 0.5; stroke-width: 0.8"/>
     </g>
     <g id="line2d_2">
      <defs>
       <path id="mea700c68e5" d="M 0 0 
L 0 3.5 
" style="stroke: #000000; stroke-width: 0.8"/>
      </defs>
      <g>
       <use xlink:href="#mea700c68e5" x="47.068636" y="340.144" style="stroke: #000000; stroke-width: 0.8"/>
      </g>
     </g>
     <g id="text_1">
      <text style="font: 12px 'SimHei', 'Microsoft YaHei', 'DejaVu Sans', 'Bitstream Vera Sans', 'Computer Modern Sans Serif', 'Lucida Grande', 'Verdana', 'Geneva', 'Lucid', 'Arial', 'Helvetica', 'Avant Garde', sans-serif; text-anchor: middle" x="47.068636" y="355.394" transform="rotate(-0 47.068636 355.394)">0</text>
     </g>
    </g>
    <g id="xtick_2">
     <g id="line2d_3">
      <path d="M 130.543182 340.144 
L 130.543182 7.2 
" clip-path="url(#p349bb9405d)" style="fill: none; stroke-dasharray: 2.96,1.28; stroke-dashoffset: 0; stroke: #b0b0b0; stroke-opacity: 0.5; stroke-width: 0.8"/>
     </g>
     <g id="line2d_4">
      <g>
       <use xlink:href="#mea700c68e5" x="130.543182" y="340.144" style="stroke: #000000; stroke-width: 0.8"/>
      </g>
     </g>
     <g id="text_2">
      <text style="font: 12px 'SimHei', 'Microsoft YaHei', 'DejaVu Sans', 'Bitstream Vera Sans', 'Computer Modern Sans Serif', 'Lucida Grande', 'Verdana', 'Geneva', 'Lucid', 'Arial', 'Helvetica', 'Avant Garde', sans-serif; text-anchor: middle" x="130.543182" y="355.394" transform="rotate(-0 130.543182 355.394)">1</text>
     </g>
    </g>
    <g id="xtick_3">
     <g id="line2d_5">
      <path d="M 214.017727 340.144 
L 214.017727 7.2 
" clip-path="url(#p349bb9405d)" style="fill: none; stroke-dasharray: 2.96,1.28; stroke-dashoffset: 0; stroke: #b0b0b0; stroke-opacity: 0.5; stroke-width: 0.8"/>
     </g>
     <g id="line2d_6">
      <g>
       <use xlink:href="#mea700c68e5" x="214.017727" y="340.144" style="stroke: #000000; stroke-width: 0.8"/>
      </g>
     </g>
     <g id="text_3">
      <text style="font: 12px 'SimHei', 'Microsoft YaHei', 'DejaVu Sans', 'Bitstream Vera Sans', 'Computer Modern Sans Serif', 'Lucida Grande', 'Verdana', 'Geneva', 'Lucid', 'Arial', 'Helvetica', 'Avant Garde', sans-serif; text-anchor: middle" x="214.017727" y="355.394" transform="rotate(-0 214.017727 355.394)">2</text>
     </g>
    </g>
    <g id="xtick_4">
     <g id="line2d_7">
      <path d="M 297.492273 340.144 
L 297.492273 7.2 
" clip-path="url(#p349bb9405d)" style="fill: none; stroke-dasharray: 2.96,1.28; stroke-dashoffset: 0; stroke: #b0b0b0; stroke-opacity: 0.5; stroke-width: 0.8"/>
     </g>
     <g id="line2d_8">
      <g>
       <use xlink:href="#mea700c68e5" x="297.492273" y="340.144" style="stroke: #000000; stroke-width: 0.8"/>
      </g>
     </g>
     <g id="text_4">
      <text style="font: 12px 'SimHei', 'Microsoft YaHei', 'DejaVu Sans', 'Bitstream Vera Sans', 'Computer Modern Sans Serif', 'Lucida Grande', 'Verdana', 'Geneva', 'Lucid', 'Arial', 'Helvetica', 'Avant Garde', sans-serif; text-anchor: middle" x="297.492273" y="355.394" transform="rotate(-0 297.492273 355.394)">3</text>
     </g>
    </g>
    <g id="xtick_5">
     <g id="line2d_9">
      <path d="M 380.966818 340.144 
L 380.966818 7.2 
" clip-path="url(#p349bb9405d)" style="fill: none; stroke-dasharray: 2.96,1.28; stroke-dashoffset: 0; stroke: #b0b0b0; stroke-opacity: 0.5; stroke-width: 0.8"/>
     </g>
     <g id="line2d_10">
      <g>
       <use xlink:href="#mea700c68e5" x="380.966818" y="340.144" style="stroke: #000000; stroke-width: 0.8"/>
      </g>
     </g>
     <g id="text_5">
      <text style="font: 12px 'SimHei', 'Microsoft YaHei', 'DejaVu Sans', 'Bitstream Vera Sans', 'Computer Modern Sans Serif', 'Lucida Grande', 'Verdana', 'Geneva', 'Lucid', 'Arial', 'Helvetica', 'Avant Garde', sans-serif; text-anchor: middle" x="380.966818" y="355.394" transform="rotate(-0 380.966818 355.394)">4</text>
     </g>
    </g>
    <g id="xtick_6">
     <g id="line2d_11">
      <path d="M 464.441364 340.144 
L 464.441364 7.2 
" clip-path="url(#p349bb9405d)" style="fill: none; stroke-dasharray: 2.96,1.28; stroke-dashoffset: 0; stroke: #b0b0b0; stroke-opacity: 0.5; stroke-width: 0.8"/>
     </g>
     <g id="line2d_12">
      <g>
       <use xlink:href="#mea700c68e5" x="464.441364" y="340.144" style="stroke: #000000; stroke-width: 0.8"/>
      </g>
     </g>
     <g id="text_6">
      <text style="font: 12px 'SimHei', 'Microsoft YaHei', 'DejaVu Sans', 'Bitstream Vera Sans', 'Computer Modern Sans Serif', 'Lucida Grande', 'Verdana', 'Geneva', 'Lucid', 'Arial', 'Helvetica', 'Avant Garde', sans-serif; text-anchor: middle" x="464.441364" y="355.394" transform="rotate(-0 464.441364 355.394)">5</text>
     </g>
    </g>
    <g id="text_7">
     <!-- $\lambda_{c}$ -->
     <g transform="translate(248.685 371.534)">
      <text>
       <tspan style="font: oblique 14px 'DejaVu Sans'" x="0" y="-0.359375">λ</tspan>
       <tspan style="font: oblique 9.8px 'DejaVu Sans'" x="8.285156" y="1.9375">c</tspan>
      </text>
     </g>
    </g>
   </g>
   <g id="matplotlib.axis_2">
    <g id="ytick_1">
     <g id="line2d_13">
      <path d="M 26.2 325.010182 
L 485.31 325.010182 
" clip-path="url(#p349bb9405d)" style="fill: none; stroke-dasharray: 2.96,1.28; stroke-dashoffset: 0; stroke: #b0b0b0; stroke-opacity: 0.5; stroke-width: 0.8"/>
     </g>
     <g id="line2d_14">
      <defs>
       <path id="ma826151f4f" d="M 0 0 
L -3.5 0 
" style="stroke: #000000; stroke-width: 0.8"/>
      </defs>
      <g>
       <use xlink:href="#ma826151f4f" x="26.2" y="325.010182" style="stroke: #000000; stroke-width: 0.8"/>
      </g>
     </g>
     <g id="text_8">
      <text style="font: 12px 'SimHei', 'Microsoft YaHei', 'DejaVu Sans', 'Bitstream Vera Sans', 'Computer Modern Sans Serif', 'Lucida Grande', 'Verdana', 'Geneva', 'Lucid', 'Arial', 'Helvetica', 'Avant Garde', sans-serif; text-anchor: end" x="19.2" y="329.135182" transform="rotate(-0 19.2 329.135182)">0</text>
     </g>
    </g>
    <g id="ytick_2">
     <g id="line2d_15">
      <path d="M 26.2 284.572458 
L 485.31 284.572458 
" clip-path="url(#p349bb9405d)" style="fill: none; stroke-dasharray: 2.96,1.28; stroke-dashoffset: 0; stroke: #b0b0b0; stroke-opacity: 0.5; stroke-width: 0.8"/>
     </g>
     <g id="line2d_16">
      <g>
       <use xlink:href="#ma826151f4f" x="26.2" y="284.572458" style="stroke: #000000; stroke-width: 0.8"/>
      </g>
     </g>
     <g id="text_9">
      <text style="font: 12px 'SimHei', 'Microsoft YaHei', 'DejaVu Sans', 'Bitstream Vera Sans', 'Computer Modern Sans Serif', 'Lucida Grande', 'Verdana', 'Geneva', 'Lucid', 'Arial', 'Helvetica', 'Avant Garde', sans-serif; text-anchor: end" x="19.2" y="288.697458" transform="rotate(-0 19.2 288.697458)">10</text>
     </g>
    </g>
    <g id="ytick_3">
     <g id="line2d_17">
      <path d="M 26.2 244.134734 
L 485.31 244.134734 
" clip-path="url(#p349bb9405d)" style="fill: none; stroke-dasharray: 2.96,1.28; stroke-dashoffset: 0; stroke: #b0b0b0; stroke-opacity: 0.5; stroke-width: 0.8"/>
     </g>
     <g id="line2d_18">
      <g>
       <use xlink:href="#ma826151f4f" x="26.2" y="244.134734" style="stroke: #000000; stroke-width: 0.8"/>
      </g>
     </g>
     <g id="text_10">
      <text style="font: 12px 'SimHei', 'Microsoft YaHei', 'DejaVu Sans', 'Bitstream Vera Sans', 'Computer Modern Sans Serif', 'Lucida Grande', 'Verdana', 'Geneva', 'Lucid', 'Arial', 'Helvetica', 'Avant Garde', sans-serif; text-anchor: end" x="19.2" y="248.259734" transform="rotate(-0 19.2 248.259734)">20</text>
     </g>
    </g>
    <g id="ytick_4">
     <g id="line2d_19">
      <path d="M 26.2 203.69701 
L 485.31 203.69701 
" clip-path="url(#p349bb9405d)" style="fill: none; stroke-dasharray: 2.96,1.28; stroke-dashoffset: 0; stroke: #b0b0b0; stroke-opacity: 0.5; stroke-width: 0.8"/>
     </g>
     <g id="line2d_20">
      <g>
       <use xlink:href="#ma826151f4f" x="26.2" y="203.69701" style="stroke: #000000; stroke-width: 0.8"/>
      </g>
     </g>
     <g id="text_11">
      <text style="font: 12px 'SimHei', 'Microsoft YaHei', 'DejaVu Sans', 'Bitstream Vera Sans', 'Computer Modern Sans Serif', 'Lucida Grande', 'Verdana', 'Geneva', 'Lucid', 'Arial', 'Helvetica', 'Avant Garde', sans-serif; text-anchor: end" x="19.2" y="207.82201" transform="rotate(-0 19.2 207.82201)">30</text>
     </g>
    </g>
    <g id="ytick_5">
     <g id="line2d_21">
      <path d="M 26.2 163.259286 
L 485.31 163.259286 
" clip-path="url(#p349bb9405d)" style="fill: none; stroke-dasharray: 2.96,1.28; stroke-dashoffset: 0; stroke: #b0b0b0; stroke-opacity: 0.5; stroke-width: 0.8"/>
     </g>
     <g id="line2d_22">
      <g>
       <use xlink:href="#ma826151f4f" x="26.2" y="163.259286" style="stroke: #000000; stroke-width: 0.8"/>
      </g>
     </g>
     <g id="text_12">
      <text style="font: 12px 'SimHei', 'Microsoft YaHei', 'DejaVu Sans', 'Bitstream Vera Sans', 'Computer Modern Sans Serif', 'Lucida Grande', 'Verdana', 'Geneva', 'Lucid', 'Arial', 'Helvetica', 'Avant Garde', sans-serif; text-anchor: end" x="19.2" y="167.384286" transform="rotate(-0 19.2 167.384286)">40</text>
     </g>
    </g>
    <g id="ytick_6">
     <g id="line2d_23">
      <path d="M 26.2 122.821562 
L 485.31 122.821562 
" clip-path="url(#p349bb9405d)" style="fill: none; stroke-dasharray: 2.96,1.28; stroke-dashoffset: 0; stroke: #b0b0b0; stroke-opacity: 0.5; stroke-width: 0.8"/>
     </g>
     <g id="line2d_24">
      <g>
       <use xlink:href="#ma826151f4f" x="26.2" y="122.821562" style="stroke: #000000; stroke-width: 0.8"/>
      </g>
     </g>
     <g id="text_13">
      <text style="font: 12px 'SimHei', 'Microsoft YaHei', 'DejaVu Sans', 'Bitstream Vera Sans', 'Computer Modern Sans Serif', 'Lucida Grande', 'Verdana', 'Geneva', 'Lucid', 'Arial', 'Helvetica', 'Avant Garde', sans-serif; text-anchor: end" x="19.2" y="126.946562" transform="rotate(-0 19.2 126.946562)">50</text>
     </g>
    </g>
    <g id="ytick_7">
     <g id="line2d_25">
      <path d="M 26.2 82.383838 
L 485.31 82.383838 
" clip-path="url(#p349bb9405d)" style="fill: none; stroke-dasharray: 2.96,1.28; stroke-dashoffset: 0; stroke: #b0b0b0; stroke-opacity: 0.5; stroke-width: 0.8"/>
     </g>
     <g id="line2d_26">
      <g>
       <use xlink:href="#ma826151f4f" x="26.2" y="82.383838" style="stroke: #000000; stroke-width: 0.8"/>
      </g>
     </g>
     <g id="text_14">
      <text style="font: 12px 'SimHei', 'Microsoft YaHei', 'DejaVu Sans', 'Bitstream Vera Sans', 'Computer Modern Sans Serif', 'Lucida Grande', 'Verdana', 'Geneva', 'Lucid', 'Arial', 'Helvetica', 'Avant Garde', sans-serif; text-anchor: end" x="19.2" y="86.508838" transform="rotate(-0 19.2 86.508838)">60</text>
     </g>
    </g>
    <g id="ytick_8">
     <g id="line2d_27">
      <path d="M 26.2 41.946114 
L 485.31 41.946114 
" clip-path="url(#p349bb9405d)" style="fill: none; stroke-dasharray: 2.96,1.28; stroke-dashoffset: 0; stroke: #b0b0b0; stroke-opacity: 0.5; stroke-width: 0.8"/>
     </g>
     <g id="line2d_28">
      <g>
       <use xlink:href="#ma826151f4f" x="26.2" y="41.946114" style="stroke: #000000; stroke-width: 0.8"/>
      </g>
     </g>
     <g id="text_15">
      <text style="font: 12px 'SimHei', 'Microsoft YaHei', 'DejaVu Sans', 'Bitstream Vera Sans', 'Computer Modern Sans Serif', 'Lucida Grande', 'Verdana', 'Geneva', 'Lucid', 'Arial', 'Helvetica', 'Avant Garde', sans-serif; text-anchor: end" x="19.2" y="46.071114" transform="rotate(-0 19.2 46.071114)">70</text>
     </g>
    </g>
   </g>
   <g id="line2d_29">
    <path d="M 47.068636 48.456588 
L 50.57597 48.079396 
L 54.083304 47.702203 
L 57.590638 47.325011 
L 61.097972 46.947819 
L 64.605306 46.570627 
L 68.112639 46.193435 
L 71.619973 45.816242 
L 75.127307 45.43905 
L 78.634641 45.061858 
L 82.141975 44.684666 
L 85.649309 44.307473 
L 89.156642 43.930281 
L 92.663976 43.553089 
L 96.17131 43.175897 
L 99.678644 42.798705 
L 103.185978 42.421512 
L 106.693312 42.04432 
L 110.200646 41.667128 
L 113.707979 41.289936 
L 117.215313 40.912744 
L 120.722647 40.535551 
L 124.229981 40.158359 
L 127.737315 39.781167 
L 131.244649 39.335332 
L 134.751982 38.614929 
L 138.259316 37.894526 
L 141.76665 37.174123 
L 145.273984 36.45372 
L 148.781318 35.733317 
L 152.288652 35.012914 
L 155.795985 34.29251 
L 159.303319 33.572107 
L 162.810653 32.851704 
L 166.317987 32.131301 
L 169.825321 31.410898 
L 173.332655 30.690495 
L 176.839989 29.970092 
L 180.347322 29.249688 
L 183.854656 28.529285 
L 187.36199 27.808882 
L 190.869324 27.088479 
L 194.376658 26.368076 
L 197.883992 25.647673 
L 201.391325 24.92727 
L 204.898659 24.206866 
L 208.405993 23.486463 
L 211.913327 22.76606 
L 215.420661 22.416733 
L 218.927995 22.624018 
L 222.435328 22.831304 
L 225.942662 23.03859 
L 229.449996 23.245876 
L 232.95733 23.453162 
L 236.464664 23.660447 
L 239.971998 23.867733 
L 243.479332 24.075019 
L 246.986665 24.282305 
L 250.493999 24.489591 
L 254.001333 24.696876 
L 257.508667 24.904162 
L 261.016001 25.111448 
L 264.523335 25.318734 
L 268.030668 25.52602 
L 271.538002 25.733305 
L 275.045336 25.940591 
L 278.55267 26.147877 
L 282.060004 26.355163 
L 285.567338 26.562449 
L 289.074672 26.769735 
L 292.582005 26.97702 
L 296.089339 27.184306 
L 299.596673 27.500672 
L 303.104007 27.889758 
L 306.611341 28.278843 
L 310.118675 28.667929 
L 313.626008 29.057015 
L 317.133342 29.4461 
L 320.640676 29.835186 
L 324.14801 30.224272 
L 327.655344 30.613357 
L 331.162678 31.002443 
L 334.670011 31.391529 
L 338.177345 31.780614 
L 341.684679 32.1697 
L 345.192013 32.558786 
L 348.699347 32.947871 
L 352.206681 33.336957 
L 355.714015 33.726043 
L 359.221348 34.115128 
L 362.728682 34.504214 
L 366.236016 34.893299 
L 369.74335 35.282385 
L 373.250684 35.671471 
L 376.758018 36.060556 
L 380.265351 36.449642 
L 383.772685 37.103782 
L 387.280019 37.824185 
L 390.787353 38.544588 
L 394.294687 39.264991 
L 397.802021 39.985394 
L 401.309354 40.705798 
L 404.816688 41.426201 
L 408.324022 42.146604 
L 411.831356 42.867007 
L 415.33869 43.58741 
L 418.846024 44.307813 
L 422.353358 45.028216 
L 425.860691 45.74862 
L 429.368025 46.469023 
L 432.875359 47.189426 
L 436.382693 47.909829 
L 439.890027 48.630232 
L 443.397361 49.350635 
L 446.904694 50.071038 
L 450.412028 50.791442 
L 453.919362 51.511845 
L 457.426696 52.232248 
L 460.93403 52.952651 
L 464.441364 53.673054 
" clip-path="url(#p349bb9405d)" style="fill: none; stroke: #66c2a5; stroke-width: 2; stroke-linecap: square"/>
   </g>
   <g id="line2d_30">
    <path d="M 47.068636 121.042302 
L 50.57597 120.88259 
L 54.083304 120.722878 
L 57.590638 120.563166 
L 61.097972 120.403454 
L 64.605306 120.243742 
L 68.112639 120.08403 
L 71.619973 119.924318 
L 75.127307 119.764606 
L 78.634641 119.604894 
L 82.141975 119.445182 
L 85.649309 119.28547 
L 89.156642 119.125758 
L 92.663976 118.966046 
L 96.17131 118.806334 
L 99.678644 118.646622 
L 103.185978 118.48691 
L 106.693312 118.327198 
L 110.200646 118.167486 
L 113.707979 118.007774 
L 117.215313 117.848062 
L 120.722647 117.68835 
L 124.229981 117.528638 
L 127.737315 117.368926 
L 131.244649 117.164698 
L 134.751982 116.782409 
L 138.259316 116.40012 
L 141.76665 116.01783 
L 145.273984 115.635541 
L 148.781318 115.253251 
L 152.288652 114.870962 
L 155.795985 114.488673 
L 159.303319 114.106383 
L 162.810653 113.724094 
L 166.317987 113.341804 
L 169.825321 112.959515 
L 173.332655 112.577225 
L 176.839989 112.194936 
L 180.347322 111.812647 
L 183.854656 111.430357 
L 187.36199 111.048068 
L 190.869324 110.665778 
L 194.376658 110.283489 
L 197.883992 109.9012 
L 201.391325 109.51891 
L 204.898659 109.136621 
L 208.405993 108.754331 
L 211.913327 108.372042 
L 215.420661 108.279953 
L 218.927995 108.623164 
L 222.435328 108.966375 
L 225.942662 109.309586 
L 229.449996 109.652796 
L 232.95733 109.996007 
L 236.464664 110.339218 
L 239.971998 110.682429 
L 243.479332 111.02564 
L 246.986665 111.368851 
L 250.493999 111.712062 
L 254.001333 112.055273 
L 257.508667 112.398484 
L 261.016001 112.741695 
L 264.523335 113.084906 
L 268.030668 113.428117 
L 271.538002 113.771328 
L 275.045336 114.114539 
L 278.55267 114.45775 
L 282.060004 114.80096 
L 285.567338 115.144171 
L 289.074672 115.487382 
L 292.582005 115.830593 
L 296.089339 116.173804 
L 299.596673 116.554734 
L 303.104007 116.960811 
L 306.611341 117.366887 
L 310.118675 117.772963 
L 313.626008 118.17904 
L 317.133342 118.585116 
L 320.640676 118.991192 
L 324.14801 119.397269 
L 327.655344 119.803345 
L 331.162678 120.209421 
L 334.670011 120.615497 
L 338.177345 121.021574 
L 341.684679 121.42765 
L 345.192013 121.833726 
L 348.699347 122.239803 
L 352.206681 122.645879 
L 355.714015 123.051955 
L 359.221348 123.458032 
L 362.728682 123.864108 
L 366.236016 124.270184 
L 369.74335 124.67626 
L 373.250684 125.082337 
L 376.758018 125.488413 
L 380.265351 125.894489 
L 383.772685 126.210855 
L 387.280019 126.504793 
L 390.787353 126.798731 
L 394.294687 127.092669 
L 397.802021 127.386607 
L 401.309354 127.680545 
L 404.816688 127.974484 
L 408.324022 128.268422 
L 411.831356 128.56236 
L 415.33869 128.856298 
L 418.846024 129.150236 
L 422.353358 129.444174 
L 425.860691 129.738112 
L 429.368025 130.03205 
L 432.875359 130.325988 
L 436.382693 130.619926 
L 439.890027 130.913864 
L 443.397361 131.207802 
L 446.904694 131.50174 
L 450.412028 131.795679 
L 453.919362 132.089617 
L 457.426696 132.383555 
L 460.93403 132.677493 
L 464.441364 132.971431 
" clip-path="url(#p349bb9405d)" style="fill: none; stroke: #e78ac3; stroke-width: 2; stroke-linecap: square"/>
   </g>
   <g id="line2d_31">
    <path d="M 47.068636 147.286385 
L 50.57597 146.251655 
L 54.083304 145.216925 
L 57.590638 144.182195 
L 61.097972 143.147465 
L 64.605306 142.112735 
L 68.112639 141.078005 
L 71.619973 140.043275 
L 75.127307 139.008545 
L 78.634641 137.973815 
L 82.141975 136.939085 
L 85.649309 135.904355 
L 89.156642 134.869625 
L 92.663976 133.834895 
L 96.17131 132.800165 
L 99.678644 131.765435 
L 103.185978 130.730705 
L 106.693312 129.695975 
L 110.200646 128.661245 
L 113.707979 127.626515 
L 117.215313 126.591785 
L 120.722647 125.557055 
L 124.229981 124.522325 
L 127.737315 123.487595 
L 131.244649 122.569761 
L 134.751982 122.119509 
L 138.259316 121.669257 
L 141.76665 121.219005 
L 145.273984 120.768753 
L 148.781318 120.318501 
L 152.288652 119.868249 
L 155.795985 119.417997 
L 159.303319 118.967745 
L 162.810653 118.517493 
L 166.317987 118.067241 
L 169.825321 117.616989 
L 173.332655 117.166737 
L 176.839989 116.716485 
L 180.347322 116.266233 
L 183.854656 115.815981 
L 187.36199 115.365729 
L 190.869324 114.915477 
L 194.376658 114.465225 
L 197.883992 114.014973 
L 201.391325 113.564722 
L 204.898659 113.11447 
L 208.405993 112.664218 
L 211.913327 112.213966 
L 215.420661 112.066147 
L 218.927995 112.371979 
L 222.435328 112.67781 
L 225.942662 112.983642 
L 229.449996 113.289473 
L 232.95733 113.595305 
L 236.464664 113.901136 
L 239.971998 114.206968 
L 243.479332 114.512799 
L 246.986665 114.818631 
L 250.493999 115.124462 
L 254.001333 115.430294 
L 257.508667 115.736125 
L 261.016001 116.041957 
L 264.523335 116.347788 
L 268.030668 116.65362 
L 271.538002 116.959451 
L 275.045336 117.265283 
L 278.55267 117.571114 
L 282.060004 117.876946 
L 285.567338 118.182778 
L 289.074672 118.488609 
L 292.582005 118.794441 
L 296.089339 119.100272 
L 299.596673 119.602855 
L 303.104007 120.236606 
L 306.611341 120.870357 
L 310.118675 121.504108 
L 313.626008 122.137859 
L 317.133342 122.77161 
L 320.640676 123.405361 
L 324.14801 124.039111 
L 327.655344 124.672862 
L 331.162678 125.306613 
L 334.670011 125.940364 
L 338.177345 126.574115 
L 341.684679 127.207866 
L 345.192013 127.841617 
L 348.699347 128.475368 
L 352.206681 129.109119 
L 355.714015 129.742869 
L 359.221348 130.37662 
L 362.728682 131.010371 
L 366.236016 131.644122 
L 369.74335 132.277873 
L 373.250684 132.911624 
L 376.758018 133.545375 
L 380.265351 134.179126 
L 383.772685 134.502967 
L 387.280019 134.749331 
L 390.787353 134.995696 
L 394.294687 135.24206 
L 397.802021 135.488424 
L 401.309354 135.734789 
L 404.816688 135.981153 
L 408.324022 136.227517 
L 411.831356 136.473881 
L 415.33869 136.720246 
L 418.846024 136.96661 
L 422.353358 137.212974 
L 425.860691 137.459339 
L 429.368025 137.705703 
L 432.875359 137.952067 
L 436.382693 138.198431 
L 439.890027 138.444796 
L 443.397361 138.69116 
L 446.904694 138.937524 
L 450.412028 139.183889 
L 453.919362 139.430253 
L 457.426696 139.676617 
L 460.93403 139.922981 
L 464.441364 140.169346 
" clip-path="url(#p349bb9405d)" style="fill: none; stroke: #e5c494; stroke-width: 2; stroke-linecap: square"/>
   </g>
   <g id="patch_3">
    <path d="M 26.2 340.144 
L 26.2 7.2 
" style="fill: none; stroke: #000000; stroke-width: 0.8; stroke-linejoin: miter; stroke-linecap: square"/>
   </g>
   <g id="patch_4">
    <path d="M 485.31 340.144 
L 485.31 7.2 
" style="fill: none; stroke: #000000; stroke-width: 0.8; stroke-linejoin: miter; stroke-linecap: square"/>
   </g>
   <g id="patch_5">
    <path d="M 26.2 340.144 
L 485.31 340.144 
" style="fill: none; stroke: #000000; stroke-width: 0.8; stroke-linejoin: miter; stroke-linecap: square"/>
   </g>
   <g id="patch_6">
    <path d="M 26.2 7.2 
L 485.31 7.2 
" style="fill: none; stroke: #000000; stroke-width: 0.8; stroke-linejoin: miter; stroke-linecap: square"/>
   </g>
   <g id="text_16">
    <text style="fill: #66c2a5; font: 700 10px 'SimHei', 'Microsoft YaHei', 'DejaVu Sans', 'Bitstream Vera Sans', 'Computer Modern Sans Serif', 'Lucida Grande', 'Verdana', 'Geneva', 'Lucid', 'Arial', 'Helvetica', 'Avant Garde', sans-serif; text-anchor: middle" x="214.017727" y="21.083818" transform="rotate(-0 214.017727 21.083818)">74.85</text>
   </g>
   <g id="text_17">
    <text style="fill: #e78ac3; font: 700 10px 'SimHei', 'Microsoft YaHei', 'DejaVu Sans', 'Bitstream Vera Sans', 'Computer Modern Sans Serif', 'Lucida Grande', 'Verdana', 'Geneva', 'Lucid', 'Arial', 'Helvetica', 'Avant Garde', sans-serif; text-anchor: middle" x="214.017727" y="106.892668" transform="rotate(-0 214.017727 106.892668)">53.63</text>
   </g>
   <g id="text_18">
    <text style="fill: #e5c494; font: 700 10px 'SimHei', 'Microsoft YaHei', 'DejaVu Sans', 'Bitstream Vera Sans', 'Computer Modern Sans Serif', 'Lucida Grande', 'Verdana', 'Geneva', 'Lucid', 'Arial', 'Helvetica', 'Avant Garde', sans-serif; text-anchor: middle" x="214.017727" y="110.693814" transform="rotate(-0 214.017727 110.693814)">52.69</text>
   </g>
   <g id="PathCollection_1">
    <defs>
     <path id="mbbbcb75a75" d="M 0 2.95804 
C 0.784481 2.95804 1.536938 2.646362 2.09165 2.09165 
C 2.646362 1.536938 2.95804 0.784481 2.95804 0 
C 2.95804 -0.784481 2.646362 -1.536938 2.09165 -2.09165 
C 1.536938 -2.646362 0.784481 -2.95804 0 -2.95804 
C -0.784481 -2.95804 -1.536938 -2.646362 -2.09165 -2.09165 
C -2.646362 -1.536938 -2.95804 -0.784481 -2.95804 0 
C -2.95804 0.784481 -2.646362 1.536938 -2.09165 2.09165 
C -1.536938 2.646362 -0.784481 2.95804 0 2.95804 
z
" style="stroke: #66c2a5"/>
    </defs>
    <g clip-path="url(#p349bb9405d)">
     <use xlink:href="#mbbbcb75a75" x="214.017727" y="22.333818" style="fill: #66c2a5; stroke: #66c2a5"/>
    </g>
   </g>
   <g id="PathCollection_2">
    <defs>
     <path id="mf2926a6bf3" d="M 0 2.95804 
C 0.784481 2.95804 1.536938 2.646362 2.09165 2.09165 
C 2.646362 1.536938 2.95804 0.784481 2.95804 0 
C 2.95804 -0.784481 2.646362 -1.536938 2.09165 -2.09165 
C 1.536938 -2.646362 0.784481 -2.95804 0 -2.95804 
C -0.784481 -2.95804 -1.536938 -2.646362 -2.09165 -2.09165 
C -2.646362 -1.536938 -2.95804 -0.784481 -2.95804 0 
C -2.95804 0.784481 -2.646362 1.536938 -2.09165 2.09165 
C -1.536938 2.646362 -0.784481 2.95804 0 2.95804 
z
" style="stroke: #e78ac3"/>
    </defs>
    <g clip-path="url(#p349bb9405d)">
     <use xlink:href="#mf2926a6bf3" x="214.017727" y="108.142668" style="fill: #e78ac3; stroke: #e78ac3"/>
    </g>
   </g>
   <g id="PathCollection_3">
    <defs>
     <path id="ma839c0383d" d="M 0 2.95804 
C 0.784481 2.95804 1.536938 2.646362 2.09165 2.09165 
C 2.646362 1.536938 2.95804 0.784481 2.95804 0 
C 2.95804 -0.784481 2.646362 -1.536938 2.09165 -2.09165 
C 1.536938 -2.646362 0.784481 -2.95804 0 -2.95804 
C -0.784481 -2.95804 -1.536938 -2.646362 -2.09165 -2.09165 
C -2.646362 -1.536938 -2.95804 -0.784481 -2.95804 0 
C -2.95804 0.784481 -2.646362 1.536938 -2.09165 2.09165 
C -1.536938 2.646362 -0.784481 2.95804 0 2.95804 
z
" style="stroke: #e5c494"/>
    </defs>
    <g clip-path="url(#p349bb9405d)">
     <use xlink:href="#ma839c0383d" x="214.017727" y="111.943814" style="fill: #e5c494; stroke: #e5c494"/>
    </g>
   </g>
   <g id="legend_1">
    <g id="patch_7">
     <path d="M 34.6 334.144 
L 91 334.144 
Q 93.4 334.144 93.4 331.744 
L 93.4 285.244 
Q 93.4 282.844 91 282.844 
L 34.6 282.844 
Q 32.2 282.844 32.2 285.244 
L 32.2 331.744 
Q 32.2 334.144 34.6 334.144 
z
" style="fill: #ffffff; opacity: 0.8; stroke: #cccccc; stroke-linejoin: miter"/>
    </g>
    <g id="line2d_32">
     <path d="M 37 291.844 
L 49 291.844 
L 61 291.844 
" style="fill: none; stroke: #66c2a5; stroke-width: 2; stroke-linecap: square"/>
    </g>
    <g id="text_19">
     <text style="font: 12px 'SimHei', 'Microsoft YaHei', 'DejaVu Sans', 'Bitstream Vera Sans', 'Computer Modern Sans Serif', 'Lucida Grande', 'Verdana', 'Geneva', 'Lucid', 'Arial', 'Helvetica', 'Avant Garde', sans-serif; text-anchor: start" x="70.6" y="296.044" transform="rotate(-0 70.6 296.044)">ACC</text>
    </g>
    <g id="line2d_33">
     <path d="M 37 307.744 
L 49 307.744 
L 61 307.744 
" style="fill: none; stroke: #e78ac3; stroke-width: 2; stroke-linecap: square"/>
    </g>
    <g id="text_20">
     <text style="font: 12px 'SimHei', 'Microsoft YaHei', 'DejaVu Sans', 'Bitstream Vera Sans', 'Computer Modern Sans Serif', 'Lucida Grande', 'Verdana', 'Geneva', 'Lucid', 'Arial', 'Helvetica', 'Avant Garde', sans-serif; text-anchor: start" x="70.6" y="311.944" transform="rotate(-0 70.6 311.944)">NMI</text>
    </g>
    <g id="line2d_34">
     <path d="M 37 323.644 
L 49 323.644 
L 61 323.644 
" style="fill: none; stroke: #e5c494; stroke-width: 2; stroke-linecap: square"/>
    </g>
    <g id="text_21">
     <text style="font: 12px 'SimHei', 'Microsoft YaHei', 'DejaVu Sans', 'Bitstream Vera Sans', 'Computer Modern Sans Serif', 'Lucida Grande', 'Verdana', 'Geneva', 'Lucid', 'Arial', 'Helvetica', 'Avant Garde', sans-serif; text-anchor: start" x="70.6" y="327.844" transform="rotate(-0 70.6 327.844)">ARI</text>
    </g>
   </g>
  </g>
 </g>
 <defs>
  <clipPath id="p349bb9405d">
   <rect x="26.2" y="7.2" width="459.11" height="332.944"/>
  </clipPath>
 </defs>
</svg>
