<?xml version="1.0" encoding="utf-8" standalone="no"?>
<!DOCTYPE svg PUBLIC "-//W3C//DTD SVG 1.1//EN"
  "http://www.w3.org/Graphics/SVG/1.1/DTD/svg11.dtd">
<svg xmlns:xlink="http://www.w3.org/1999/xlink" width="532.8pt" height="532.8pt" viewBox="0 0 532.8 532.8" xmlns="http://www.w3.org/2000/svg" version="1.1">
 <metadata>
  <rdf:RDF xmlns:dc="http://purl.org/dc/elements/1.1/" xmlns:cc="http://creativecommons.org/ns#" xmlns:rdf="http://www.w3.org/1999/02/22-rdf-syntax-ns#">
   <cc:Work>
    <dc:type rdf:resource="http://purl.org/dc/dcmitype/StillImage"/>
    <dc:date>2026-03-11T22:35:32.263339</dc:date>
    <dc:format>image/svg+xml</dc:format>
    <dc:creator>
     <cc:Agent>
      <dc:title>Matplotlib v3.7.1, https://matplotlib.org/</dc:title>
     </cc:Agent>
    </dc:creator>
   </cc:Work>
  </rdf:RDF>
 </metadata>
 <defs>
  <style type="text/css">*{stroke-linejoin: round; stroke-linecap: butt}</style>
 </defs>
 <g id="figure_1">
  <g id="patch_1">
   <path d="M 0 532.8 
L 532.8 532.8 
L 532.8 0 
L 0 0 
z
" style="fill: #ffffff"/>
  </g>
  <g id="patch_2">
   <path d="M 7.2 525.6 
L 525.6 525.6 
L 525.6 7.2 
L 7.2 7.2 
z
" style="fill: #ffffff"/>
  </g>
  <g id="pane3d_1">
   <g id="patch_3">
    <path d="M 273.405405 271.892278 
L 504.921684 370.671108 
L 513.825657 143.838455 
L 273.405405 57.900544 
" style="fill: none; opacity: 0.5; stroke: #f2f2f2; stroke-linejoin: miter"/>
   </g>
  </g>
  <g id="pane3d_2">
   <g id="patch_4">
    <path d="M 273.405405 271.892278 
L 41.889126 370.671108 
L 32.985153 143.838455 
L 273.405405 57.900544 
" style="fill: none; opacity: 0.5; stroke: #e6e6e6; stroke-linejoin: miter"/>
   </g>
  </g>
  <g id="pane3d_3">
   <g id="patch_5">
    <path d="M 273.405405 271.892278 
L 41.889126 370.671108 
L 273.405405 485.44035 
L 504.921684 370.671108 
" style="fill: none; opacity: 0.5; stroke: #ececec; stroke-linejoin: miter"/>
   </g>
  </g>
  <g id="axis3d_1">
   <g id="line2d_1">
    <path d="M 504.921684 370.671108 
L 273.405405 485.44035 
" style="fill: none; stroke: #000000; stroke-width: 0.8; stroke-linecap: square"/>
   </g>
   <g id="text_1">
    <text style="font: 700 14px 'SimHei', 'Microsoft YaHei', 'DejaVu Sans', 'Bitstream Vera Sans', 'Computer Modern Sans Serif', 'Lucida Grande', 'Verdana', 'Geneva', 'Lucid', 'Arial', 'Helvetica', 'Avant Garde', sans-serif; text-anchor: middle" x="428.311485" y="474.892532" transform="rotate(-26.36893 428.311485 474.892532)">dropout feat</text>
   </g>
   <g id="Line3DCollection_1">
    <path d="M 491.226764 377.460072 
L 259.637858 277.766346 
L 259.144302 62.998157 
" style="fill: none; stroke: #b0b0b0; stroke-width: 0.8"/>
    <path d="M 437.831953 403.929407 
L 206.047444 300.631253 
L 203.589529 82.856139 
" style="fill: none; stroke: #b0b0b0; stroke-width: 0.8"/>
    <path d="M 382.415602 431.400877 
L 150.575044 324.29913 
L 146.011296 103.437405 
" style="fill: none; stroke: #b0b0b0; stroke-width: 0.8"/>
    <path d="M 324.860692 459.932492 
L 93.119747 348.813031 
L 86.297002 124.782203 
" style="fill: none; stroke: #b0b0b0; stroke-width: 0.8"/>
   </g>
   <g id="xtick_1">
    <g id="line2d_2">
     <path d="M 489.235857 376.603032 
L 495.215778 379.177251 
" style="fill: none; stroke: #000000; stroke-width: 0.8; stroke-linecap: square"/>
    </g>
    <g id="text_2">
     <text style="font: 700 12px 'SimHei', 'Microsoft YaHei', 'DejaVu Sans', 'Bitstream Vera Sans', 'Computer Modern Sans Serif', 'Lucida Grande', 'Verdana', 'Geneva', 'Lucid', 'Arial', 'Helvetica', 'Avant Garde', sans-serif; text-anchor: middle" x="501.504289" y="399.635683" transform="rotate(-0 501.504289 399.635683)">0%</text>
    </g>
   </g>
   <g id="xtick_2">
    <g id="line2d_3">
     <path d="M 435.836796 403.040236 
L 441.829616 405.711024 
" style="fill: none; stroke: #000000; stroke-width: 0.8; stroke-linecap: square"/>
    </g>
    <g id="text_3">
     <text style="font: 700 12px 'SimHei', 'Microsoft YaHei', 'DejaVu Sans', 'Bitstream Vera Sans', 'Computer Modern Sans Serif', 'Lucida Grande', 'Verdana', 'Geneva', 'Lucid', 'Arial', 'Helvetica', 'Avant Garde', sans-serif; text-anchor: middle" x="448.212502" y="426.4079" transform="rotate(-0 448.212502 426.4079)">10%</text>
    </g>
   </g>
   <g id="xtick_3">
    <g id="line2d_4">
     <path d="M 380.417297 430.477734 
L 386.419713 433.250628 
" style="fill: none; stroke: #000000; stroke-width: 0.8; stroke-linecap: square"/>
    </g>
    <g id="text_4">
     <text style="font: 700 12px 'SimHei', 'Microsoft YaHei', 'DejaVu Sans', 'Bitstream Vera Sans', 'Computer Modern Sans Serif', 'Lucida Grande', 'Verdana', 'Geneva', 'Lucid', 'Arial', 'Helvetica', 'Avant Garde', sans-serif; text-anchor: middle" x="392.899679" y="454.195426" transform="rotate(-0 392.899679 454.195426)">20%</text>
    </g>
   </g>
   <g id="xtick_4">
    <g id="line2d_5">
     <path d="M 322.860478 458.973392 
L 328.868772 461.854361 
" style="fill: none; stroke: #000000; stroke-width: 0.8; stroke-linecap: square"/>
    </g>
    <g id="text_5">
     <text style="font: 700 12px 'SimHei', 'Microsoft YaHei', 'DejaVu Sans', 'Bitstream Vera Sans', 'Computer Modern Sans Serif', 'Lucida Grande', 'Verdana', 'Geneva', 'Lucid', 'Arial', 'Helvetica', 'Avant Garde', sans-serif; text-anchor: middle" x="335.448628" y="483.057135" transform="rotate(-0 335.448628 483.057135)">30%</text>
    </g>
   </g>
  </g>
  <g id="axis3d_2">
   <g id="line2d_6">
    <path d="M 41.889126 370.671108 
L 273.405405 485.44035 
" style="fill: none; stroke: #000000; stroke-width: 0.8; stroke-linecap: square"/>
   </g>
   <g id="Line3DCollection_2">
    <path d="M 287.666508 62.998157 
L 287.172953 277.766346 
L 55.584046 377.460072 
" style="fill: none; stroke: #b0b0b0; stroke-width: 0.8"/>
    <path d="M 365.121322 90.684281 
L 361.870828 309.636971 
L 130.047405 414.373688 
" style="fill: none; stroke: #b0b0b0; stroke-width: 0.8"/>
    <path d="M 446.537801 119.786497 
L 440.25061 343.078521 
L 208.471952 453.25098 
" style="fill: none; stroke: #b0b0b0; stroke-width: 0.8"/>
   </g>
   <g id="xtick_5">
    <g id="line2d_7">
     <path d="M 57.574954 376.603032 
L 51.595033 379.177251 
" style="fill: none; stroke: #000000; stroke-width: 0.8; stroke-linecap: square"/>
    </g>
    <g id="text_6">
     <text style="font: 700 12px 'SimHei', 'Microsoft YaHei', 'DejaVu Sans', 'Bitstream Vera Sans', 'Computer Modern Sans Serif', 'Lucida Grande', 'Verdana', 'Geneva', 'Lucid', 'Arial', 'Helvetica', 'Avant Garde', sans-serif; text-anchor: middle" x="45.306522" y="399.635683" transform="rotate(-0 45.306522 399.635683)">ACC</text>
    </g>
   </g>
   <g id="xtick_6">
    <g id="line2d_8">
     <path d="M 132.04391 413.471677 
L 126.046987 416.181058 
" style="fill: none; stroke: #000000; stroke-width: 0.8; stroke-linecap: square"/>
    </g>
    <g id="text_7">
     <text style="font: 700 12px 'SimHei', 'Microsoft YaHei', 'DejaVu Sans', 'Bitstream Vera Sans', 'Computer Modern Sans Serif', 'Lucida Grande', 'Verdana', 'Geneva', 'Lucid', 'Arial', 'Helvetica', 'Avant Garde', sans-serif; text-anchor: middle" x="119.627088" y="436.972137" transform="rotate(-0 119.627088 436.972137)">NMI</text>
    </g>
   </g>
   <g id="xtick_7">
    <g id="line2d_9">
     <path d="M 210.471844 452.300362 
L 204.464552 455.155836 
" style="fill: none; stroke: #000000; stroke-width: 0.8; stroke-linecap: square"/>
    </g>
    <g id="text_8">
     <text style="font: 700 12px 'SimHei', 'Microsoft YaHei', 'DejaVu Sans', 'Bitstream Vera Sans', 'Computer Modern Sans Serif', 'Lucida Grande', 'Verdana', 'Geneva', 'Lucid', 'Arial', 'Helvetica', 'Avant Garde', sans-serif; text-anchor: middle" x="197.908004" y="476.298153" transform="rotate(-0 197.908004 476.298153)">ARI</text>
    </g>
   </g>
  </g>
  <g id="axis3d_3">
   <g id="line2d_10">
    <path d="M 41.889126 370.671108 
L 32.985153 143.838455 
" style="fill: none; stroke: #000000; stroke-width: 0.8; stroke-linecap: square"/>
   </g>
   <g id="text_9">
    <text style="font: 700 14px 'SimHei', 'Microsoft YaHei', 'DejaVu Sans', 'Bitstream Vera Sans', 'Computer Modern Sans Serif', 'Lucida Grande', 'Verdana', 'Geneva', 'Lucid', 'Arial', 'Helvetica', 'Avant Garde', sans-serif; text-anchor: middle" x="-25.381337" y="264.015688" transform="rotate(-0 -25.381337 264.015688)">分数</text>
   </g>
   <g id="Line3DCollection_3">
    <path d="M 41.717515 366.299232 
L 273.405405 267.757056 
L 505.093296 366.299232 
" style="fill: none; stroke: #b0b0b0; stroke-width: 0.8"/>
    <path d="M 40.610925 338.108365 
L 273.405405 241.102439 
L 506.199886 338.108365 
" style="fill: none; stroke: #b0b0b0; stroke-width: 0.8"/>
    <path d="M 39.493714 309.646915 
L 273.405405 214.209979 
L 507.317097 309.646915 
" style="fill: none; stroke: #b0b0b0; stroke-width: 0.8"/>
    <path d="M 38.365728 280.910966 
L 273.405405 187.076476 
L 508.445083 280.910966 
" style="fill: none; stroke: #b0b0b0; stroke-width: 0.8"/>
    <path d="M 37.22681 251.89653 
L 273.405405 159.698677 
L 509.584001 251.89653 
" style="fill: none; stroke: #b0b0b0; stroke-width: 0.8"/>
    <path d="M 36.076801 222.599538 
L 273.405405 132.073266 
L 510.73401 222.599538 
" style="fill: none; stroke: #b0b0b0; stroke-width: 0.8"/>
    <path d="M 34.915537 193.015841 
L 273.405405 104.196869 
L 511.895274 193.015841 
" style="fill: none; stroke: #b0b0b0; stroke-width: 0.8"/>
    <path d="M 33.742854 163.141211 
L 273.405405 76.06605 
L 513.067957 163.141211 
" style="fill: none; stroke: #b0b0b0; stroke-width: 0.8"/>
   </g>
   <g id="xtick_8">
    <g id="line2d_11">
     <path d="M 43.708717 365.452328 
L 37.72794 367.99609 
" style="fill: none; stroke: #000000; stroke-width: 0.8; stroke-linecap: square"/>
    </g>
    <g id="text_10">
     <text style="font: 12px 'SimHei', 'Microsoft YaHei', 'DejaVu Sans', 'Bitstream Vera Sans', 'Computer Modern Sans Serif', 'Lucida Grande', 'Verdana', 'Geneva', 'Lucid', 'Arial', 'Helvetica', 'Avant Garde', sans-serif; text-anchor: middle" x="21.981139" y="374.549232" transform="rotate(-0 21.981139 374.549232)">0</text>
    </g>
   </g>
   <g id="xtick_9">
    <g id="line2d_12">
     <path d="M 42.612298 337.274389 
L 36.600938 339.779335 
" style="fill: none; stroke: #000000; stroke-width: 0.8; stroke-linecap: square"/>
    </g>
    <g id="text_11">
     <text style="font: 12px 'SimHei', 'Microsoft YaHei', 'DejaVu Sans', 'Bitstream Vera Sans', 'Computer Modern Sans Serif', 'Lucida Grande', 'Verdana', 'Geneva', 'Lucid', 'Arial', 'Helvetica', 'Avant Garde', sans-serif; text-anchor: middle" x="20.780284" y="346.358365" transform="rotate(-0 20.780284 346.358365)">10</text>
    </g>
   </g>
   <g id="xtick_10">
    <g id="line2d_13">
     <path d="M 41.505362 308.826154 
L 35.463105 311.29142 
" style="fill: none; stroke: #000000; stroke-width: 0.8; stroke-linecap: square"/>
    </g>
    <g id="text_12">
     <text style="font: 12px 'SimHei', 'Microsoft YaHei', 'DejaVu Sans', 'Bitstream Vera Sans', 'Computer Modern Sans Serif', 'Lucida Grande', 'Verdana', 'Geneva', 'Lucid', 'Arial', 'Helvetica', 'Avant Garde', sans-serif; text-anchor: middle" x="19.567903" y="317.896915" transform="rotate(-0 19.567903 317.896915)">20</text>
    </g>
   </g>
   <g id="xtick_11">
    <g id="line2d_14">
     <path d="M 40.387756 280.103716 
L 34.314284 282.528417 
" style="fill: none; stroke: #000000; stroke-width: 0.8; stroke-linecap: square"/>
    </g>
    <g id="text_13">
     <text style="font: 12px 'SimHei', 'Microsoft YaHei', 'DejaVu Sans', 'Bitstream Vera Sans', 'Computer Modern Sans Serif', 'Lucida Grande', 'Verdana', 'Geneva', 'Lucid', 'Arial', 'Helvetica', 'Avant Garde', sans-serif; text-anchor: middle" x="18.343829" y="289.160966" transform="rotate(-0 18.343829 289.160966)">30</text>
    </g>
   </g>
   <g id="xtick_12">
    <g id="line2d_15">
     <path d="M 39.259325 251.10309 
L 33.154317 253.486323 
" style="fill: none; stroke: #000000; stroke-width: 0.8; stroke-linecap: square"/>
    </g>
    <g id="text_14">
     <text style="font: 12px 'SimHei', 'Microsoft YaHei', 'DejaVu Sans', 'Bitstream Vera Sans', 'Computer Modern Sans Serif', 'Lucida Grande', 'Verdana', 'Geneva', 'Lucid', 'Arial', 'Helvetica', 'Avant Garde', sans-serif; text-anchor: middle" x="17.107892" y="260.14653" transform="rotate(-0 17.107892 260.14653)">40</text>
    </g>
   </g>
   <g id="xtick_13">
    <g id="line2d_16">
     <path d="M 38.119913 221.820216 
L 31.983039 224.161056 
" style="fill: none; stroke: #000000; stroke-width: 0.8; stroke-linecap: square"/>
    </g>
    <g id="text_15">
     <text style="font: 12px 'SimHei', 'Microsoft YaHei', 'DejaVu Sans', 'Bitstream Vera Sans', 'Computer Modern Sans Serif', 'Lucida Grande', 'Verdana', 'Geneva', 'Lucid', 'Arial', 'Helvetica', 'Avant Garde', sans-serif; text-anchor: middle" x="15.859919" y="230.849538" transform="rotate(-0 15.859919 230.849538)">50</text>
    </g>
   </g>
   <g id="xtick_14">
    <g id="line2d_17">
     <path d="M 36.969357 192.250953 
L 30.800285 194.548453 
" style="fill: none; stroke: #000000; stroke-width: 0.8; stroke-linecap: square"/>
    </g>
    <g id="text_16">
     <text style="font: 12px 'SimHei', 'Microsoft YaHei', 'DejaVu Sans', 'Bitstream Vera Sans', 'Computer Modern Sans Serif', 'Lucida Grande', 'Verdana', 'Geneva', 'Lucid', 'Arial', 'Helvetica', 'Avant Garde', sans-serif; text-anchor: middle" x="14.599734" y="201.265841" transform="rotate(-0 14.599734 201.265841)">60</text>
    </g>
   </g>
   <g id="xtick_15">
    <g id="line2d_18">
     <path d="M 35.807492 162.391078 
L 29.605885 164.644271 
" style="fill: none; stroke: #000000; stroke-width: 0.8; stroke-linecap: square"/>
    </g>
    <g id="text_17">
     <text style="font: 12px 'SimHei', 'Microsoft YaHei', 'DejaVu Sans', 'Bitstream Vera Sans', 'Computer Modern Sans Serif', 'Lucida Grande', 'Verdana', 'Geneva', 'Lucid', 'Arial', 'Helvetica', 'Avant Garde', sans-serif; text-anchor: middle" x="13.327155" y="171.391211" transform="rotate(-0 13.327155 171.391211)">70</text>
    </g>
   </g>
  </g>
  <g id="axes_1">
   <g id="Poly3DCollection_1">
    <path d="M 273.405405 279.528931 
L 317.832088 298.593768 
L 285.875561 312.707128 
L 241.447026 293.243241 
z
" clip-path="url(#pe81253f39c)" style="fill: #39005a; fill-opacity: 0.9; stroke: #000000; stroke-opacity: 0.9; stroke-width: 0.5"/>
    <path d="M 273.405405 279.528931 
L 241.447026 293.243241 
L 240.351569 88.420447 
L 273.405405 76.407543 
z
" clip-path="url(#pe81253f39c)" style="fill: #5e0094; fill-opacity: 0.9; stroke: #000000; stroke-opacity: 0.9; stroke-width: 0.5"/>
    <path d="M 273.405405 279.528931 
L 273.405405 76.407543 
L 319.361216 93.109469 
L 317.832088 298.593768 
z
" clip-path="url(#pe81253f39c)" style="fill: #5e0094; fill-opacity: 0.9; stroke: #000000; stroke-opacity: 0.9; stroke-width: 0.5"/>
    <path d="M 219.771857 302.544714 
L 264.196244 322.281635 
L 231.098812 336.898866 
L 186.68918 316.741494 
z
" clip-path="url(#pe81253f39c)" style="fill: #591151; fill-opacity: 0.9; stroke: #000000; stroke-opacity: 0.9; stroke-width: 0.5"/>
    <path d="M 241.447026 293.243241 
L 285.875561 312.707128 
L 286.309431 105.484102 
L 240.351569 88.420447 
z
" clip-path="url(#pe81253f39c)" style="fill: #2c0046; fill-opacity: 0.9; stroke: #000000; stroke-opacity: 0.9; stroke-width: 0.5"/>
    <path d="M 348.166032 311.610984 
L 394.783356 331.615892 
L 362.861277 346.434129 
L 316.218354 326.000132 
z
" clip-path="url(#pe81253f39c)" style="fill: #440259; fill-opacity: 0.9; stroke: #000000; stroke-opacity: 0.9; stroke-width: 0.5"/>
    <path d="M 317.832088 298.593768 
L 319.361216 93.109469 
L 286.309431 105.484102 
L 285.875561 312.707128 
z
" clip-path="url(#pe81253f39c)" style="fill: #2c0046; fill-opacity: 0.9; stroke: #000000; stroke-opacity: 0.9; stroke-width: 0.5"/>
    <path d="M 219.771857 302.544714 
L 186.68918 316.741494 
L 183.618504 105.980694 
L 217.893119 93.557066 
z
" clip-path="url(#pe81253f39c)" style="fill: #931c86; fill-opacity: 0.9; stroke: #000000; stroke-opacity: 0.9; stroke-width: 0.5"/>
    <path d="M 348.166032 311.610984 
L 316.218354 326.000132 
L 317.267797 180.332213 
L 349.978919 167.157457 
z
" clip-path="url(#pe81253f39c)" style="fill: #710394; fill-opacity: 0.9; stroke: #000000; stroke-opacity: 0.9; stroke-width: 0.5"/>
    <path d="M 219.771857 302.544714 
L 217.893119 93.557066 
L 263.86877 110.831366 
L 264.196244 322.281635 
z
" clip-path="url(#pe81253f39c)" style="fill: #931c86; fill-opacity: 0.9; stroke: #000000; stroke-opacity: 0.9; stroke-width: 0.5"/>
    <path d="M 348.166032 311.610984 
L 349.978919 167.157457 
L 397.771073 185.47586 
L 394.783356 331.615892 
z
" clip-path="url(#pe81253f39c)" style="fill: #710394; fill-opacity: 0.9; stroke: #000000; stroke-opacity: 0.9; stroke-width: 0.5"/>
    <path d="M 273.405405 76.407543 
L 240.351569 88.420447 
L 286.309431 105.484102 
L 319.361216 93.109469 
z
" clip-path="url(#pe81253f39c)" style="fill: #520081; fill-opacity: 0.9; stroke: #000000; stroke-opacity: 0.9; stroke-width: 0.5"/>
    <path d="M 164.244722 326.373092 
L 208.638547 346.818273 
L 174.338002 361.96685 
L 129.977355 341.078259 
z
" clip-path="url(#pe81253f39c)" style="fill: #6f2a3d; fill-opacity: 0.9; stroke: #000000; stroke-opacity: 0.9; stroke-width: 0.5"/>
    <path d="M 186.68918 316.741494 
L 231.098812 336.898866 
L 229.577774 123.636187 
L 183.618504 105.980694 
z
" clip-path="url(#pe81253f39c)" style="fill: #450d3f; fill-opacity: 0.9; stroke: #000000; stroke-opacity: 0.9; stroke-width: 0.5"/>
    <path d="M 316.218354 326.000132 
L 362.861277 346.434129 
L 365.087484 199.05329 
L 317.267797 180.332213 
z
" clip-path="url(#pe81253f39c)" style="fill: #350146; fill-opacity: 0.9; stroke: #000000; stroke-opacity: 0.9; stroke-width: 0.5"/>
    <path d="M 294.54135 335.763395 
L 341.195973 356.491168 
L 308.105337 371.85185 
L 261.441693 350.67139 
z
" clip-path="url(#pe81253f39c)" style="fill: #61194a; fill-opacity: 0.9; stroke: #000000; stroke-opacity: 0.9; stroke-width: 0.5"/>
    <path d="M 264.196244 322.281635 
L 263.86877 110.831366 
L 229.577774 123.636187 
L 231.098812 336.898866 
z
" clip-path="url(#pe81253f39c)" style="fill: #450d3f; fill-opacity: 0.9; stroke: #000000; stroke-opacity: 0.9; stroke-width: 0.5"/>
    <path d="M 394.783356 331.615892 
L 397.771073 185.47586 
L 365.087484 199.05329 
L 362.861277 346.434129 
z
" clip-path="url(#pe81253f39c)" style="fill: #350146; fill-opacity: 0.9; stroke: #000000; stroke-opacity: 0.9; stroke-width: 0.5"/>
    <path d="M 164.244722 326.373092 
L 129.977355 341.078259 
L 124.783746 126.43756 
L 160.335319 113.560604 
z
" clip-path="url(#pe81253f39c)" style="fill: #b94565; fill-opacity: 0.9; stroke: #000000; stroke-opacity: 0.9; stroke-width: 0.5"/>
    <path d="M 294.54135 335.763395 
L 261.441693 350.67139 
L 261.136947 199.925243 
L 295.07385 186.289746 
z
" clip-path="url(#pe81253f39c)" style="fill: #a12a7b; fill-opacity: 0.9; stroke: #000000; stroke-opacity: 0.9; stroke-width: 0.5"/>
    <path d="M 164.244722 326.373092 
L 160.335319 113.560604 
L 206.283254 131.46663 
L 208.638547 346.818273 
z
" clip-path="url(#pe81253f39c)" style="fill: #b94565; fill-opacity: 0.9; stroke: #000000; stroke-opacity: 0.9; stroke-width: 0.5"/>
    <path d="M 349.978919 167.157457 
L 317.267797 180.332213 
L 365.087484 199.05329 
L 397.771073 185.47586 
z
" clip-path="url(#pe81253f39c)" style="fill: #620380; fill-opacity: 0.9; stroke: #000000; stroke-opacity: 0.9; stroke-width: 0.5"/>
    <path d="M 426.631663 345.282967 
L 475.605746 366.299232 
L 443.762525 381.876503 
L 394.735435 360.398016 
z
" clip-path="url(#pe81253f39c)" style="fill: #4f0956; fill-opacity: 0.9; stroke: #000000; stroke-opacity: 0.9; stroke-width: 0.5"/>
    <path d="M 294.54135 335.763395 
L 295.07385 186.289746 
L 342.930146 205.250275 
L 341.195973 356.491168 
z
" clip-path="url(#pe81253f39c)" style="fill: #a12a7b; fill-opacity: 0.9; stroke: #000000; stroke-opacity: 0.9; stroke-width: 0.5"/>
    <path d="M 217.893119 93.557066 
L 183.618504 105.980694 
L 229.577774 123.636187 
L 263.86877 110.831366 
z
" clip-path="url(#pe81253f39c)" style="fill: #7f1874; fill-opacity: 0.9; stroke: #000000; stroke-opacity: 0.9; stroke-width: 0.5"/>
    <path d="M 106.721915 351.057874 
L 151.053819 372.250135 
L 115.483347 387.959566 
L 71.205065 366.299232 
z
" clip-path="url(#pe81253f39c)" style="fill: #80442a; fill-opacity: 0.9; stroke: #000000; stroke-opacity: 0.9; stroke-width: 0.5"/>
    <path d="M 426.631663 345.282967 
L 394.735435 360.398016 
L 397.811838 210.59038 
L 430.474052 196.745212 
z
" clip-path="url(#pe81253f39c)" style="fill: #820e8f; fill-opacity: 0.9; stroke: #000000; stroke-opacity: 0.9; stroke-width: 0.5"/>
    <path d="M 426.631663 345.282967 
L 430.474052 196.745212 
L 480.754709 215.997856 
L 475.605746 366.299232 
z
" clip-path="url(#pe81253f39c)" style="fill: #820e8f; fill-opacity: 0.9; stroke: #000000; stroke-opacity: 0.9; stroke-width: 0.5"/>
    <path d="M 129.977355 341.078259 
L 174.338002 361.96685 
L 170.694759 144.74618 
L 124.783746 126.43756 
z
" clip-path="url(#pe81253f39c)" style="fill: #572130; fill-opacity: 0.9; stroke: #000000; stroke-opacity: 0.9; stroke-width: 0.5"/>
    <path d="M 261.441693 350.67139 
L 308.105337 371.85185 
L 309.002972 219.310553 
L 261.136947 199.925243 
z
" clip-path="url(#pe81253f39c)" style="fill: #4c143a; fill-opacity: 0.9; stroke: #000000; stroke-opacity: 0.9; stroke-width: 0.5"/>
    <path d="M 238.975957 360.789897 
L 285.63963 382.280436 
L 251.315077 398.213901 
L 204.660872 376.245317 
z
" clip-path="url(#pe81253f39c)" style="fill: #763236; fill-opacity: 0.9; stroke: #000000; stroke-opacity: 0.9; stroke-width: 0.5"/>
    <path d="M 208.638547 346.818273 
L 206.283254 131.46663 
L 170.694759 144.74618 
L 174.338002 361.96685 
z
" clip-path="url(#pe81253f39c)" style="fill: #572130; fill-opacity: 0.9; stroke: #000000; stroke-opacity: 0.9; stroke-width: 0.5"/>
    <path d="M 341.195973 356.491168 
L 342.930146 205.250275 
L 309.002972 219.310553 
L 308.105337 371.85185 
z
" clip-path="url(#pe81253f39c)" style="fill: #4c143a; fill-opacity: 0.9; stroke: #000000; stroke-opacity: 0.9; stroke-width: 0.5"/>
    <path d="M 106.721915 351.057874 
L 71.205065 366.299232 
L 63.943585 154.332213 
L 100.802762 140.916231 
z
" clip-path="url(#pe81253f39c)" style="fill: #d47145; fill-opacity: 0.9; stroke: #000000; stroke-opacity: 0.9; stroke-width: 0.5"/>
    <path d="M 106.721915 351.057874 
L 100.802762 140.916231 
L 146.640727 159.573228 
L 151.053819 372.250135 
z
" clip-path="url(#pe81253f39c)" style="fill: #d47145; fill-opacity: 0.9; stroke: #000000; stroke-opacity: 0.9; stroke-width: 0.5"/>
    <path d="M 238.975957 360.789897 
L 204.660872 376.245317 
L 202.849532 220.987137 
L 238.078886 206.858607 
z
" clip-path="url(#pe81253f39c)" style="fill: #c3535a; fill-opacity: 0.9; stroke: #000000; stroke-opacity: 0.9; stroke-width: 0.5"/>
    <path d="M 394.735435 360.398016 
L 443.762525 381.876503 
L 448.149647 230.27734 
L 397.811838 210.59038 
z
" clip-path="url(#pe81253f39c)" style="fill: #3e0743; fill-opacity: 0.9; stroke: #000000; stroke-opacity: 0.9; stroke-width: 0.5"/>
    <path d="M 295.07385 186.289746 
L 261.136947 199.925243 
L 309.002972 219.310553 
L 342.930146 205.250275 
z
" clip-path="url(#pe81253f39c)" style="fill: #8c256b; fill-opacity: 0.9; stroke: #000000; stroke-opacity: 0.9; stroke-width: 0.5"/>
    <path d="M 373.083805 370.658334 
L 422.14093 392.453493 
L 389.101731 408.61582 
L 340.008011 386.332358 
z
" clip-path="url(#pe81253f39c)" style="fill: #692243; fill-opacity: 0.9; stroke: #000000; stroke-opacity: 0.9; stroke-width: 0.5"/>
    <path d="M 238.975957 360.789897 
L 238.078886 206.858607 
L 285.963391 226.506318 
L 285.63963 382.280436 
z
" clip-path="url(#pe81253f39c)" style="fill: #c3535a; fill-opacity: 0.9; stroke: #000000; stroke-opacity: 0.9; stroke-width: 0.5"/>
    <path d="M 475.605746 366.299232 
L 480.754709 215.997856 
L 448.149647 230.27734 
L 443.762525 381.876503 
z
" clip-path="url(#pe81253f39c)" style="fill: #3e0743; fill-opacity: 0.9; stroke: #000000; stroke-opacity: 0.9; stroke-width: 0.5"/>
    <path d="M 160.335319 113.560604 
L 124.783746 126.43756 
L 170.694759 144.74618 
L 206.283254 131.46663 
z
" clip-path="url(#pe81253f39c)" style="fill: #a03c58; fill-opacity: 0.9; stroke: #000000; stroke-opacity: 0.9; stroke-width: 0.5"/>
    <path d="M 373.083805 370.658334 
L 340.008011 386.332358 
L 341.776694 230.122887 
L 375.701141 215.790023 
z
" clip-path="url(#pe81253f39c)" style="fill: #ae386f; fill-opacity: 0.9; stroke: #000000; stroke-opacity: 0.9; stroke-width: 0.5"/>
    <path d="M 430.474052 196.745212 
L 397.811838 210.59038 
L 448.149647 230.27734 
L 480.754709 215.997856 
z
" clip-path="url(#pe81253f39c)" style="fill: #710d7c; fill-opacity: 0.9; stroke: #000000; stroke-opacity: 0.9; stroke-width: 0.5"/>
    <path d="M 373.083805 370.658334 
L 375.701141 215.790023 
L 426.10803 235.722522 
L 422.14093 392.453493 
z
" clip-path="url(#pe81253f39c)" style="fill: #ae386f; fill-opacity: 0.9; stroke: #000000; stroke-opacity: 0.9; stroke-width: 0.5"/>
    <path d="M 71.205065 366.299232 
L 115.483347 387.959566 
L 109.72193 173.416287 
L 63.943585 154.332213 
z
" clip-path="url(#pe81253f39c)" style="fill: #643520; fill-opacity: 0.9; stroke: #000000; stroke-opacity: 0.9; stroke-width: 0.5"/>
    <path d="M 151.053819 372.250135 
L 146.640727 159.573228 
L 109.72193 173.416287 
L 115.483347 387.959566 
z
" clip-path="url(#pe81253f39c)" style="fill: #643520; fill-opacity: 0.9; stroke: #000000; stroke-opacity: 0.9; stroke-width: 0.5"/>
    <path d="M 181.362559 386.738814 
L 228.003778 409.035012 
L 192.374981 425.573908 
L 145.76385 402.772376 
z
" clip-path="url(#pe81253f39c)" style="fill: #844e23; fill-opacity: 0.9; stroke: #000000; stroke-opacity: 0.9; stroke-width: 0.5"/>
    <path d="M 204.660872 376.245317 
L 251.315077 398.213901 
L 250.723799 241.083574 
L 202.849532 220.987137 
z
" clip-path="url(#pe81253f39c)" style="fill: #5c272b; fill-opacity: 0.9; stroke: #000000; stroke-opacity: 0.9; stroke-width: 0.5"/>
    <path d="M 285.63963 382.280436 
L 285.963391 226.506318 
L 250.723799 241.083574 
L 251.315077 398.213901 
z
" clip-path="url(#pe81253f39c)" style="fill: #5c272b; fill-opacity: 0.9; stroke: #000000; stroke-opacity: 0.9; stroke-width: 0.5"/>
    <path d="M 181.362559 386.738814 
L 145.76385 402.772376 
L 142.478541 251.793182 
L 179.020372 237.063517 
z
" clip-path="url(#pe81253f39c)" style="fill: #db823a; fill-opacity: 0.9; stroke: #000000; stroke-opacity: 0.9; stroke-width: 0.5"/>
    <path d="M 181.362559 386.738814 
L 179.020372 237.063517 
L 226.830029 257.548798 
L 228.003778 409.035012 
z
" clip-path="url(#pe81253f39c)" style="fill: #db823a; fill-opacity: 0.9; stroke: #000000; stroke-opacity: 0.9; stroke-width: 0.5"/>
    <path d="M 317.548216 396.975651 
L 366.660383 419.593822 
L 332.356539 436.374796 
L 283.22619 413.240242 
z
" clip-path="url(#pe81253f39c)" style="fill: #7b3b30; fill-opacity: 0.9; stroke: #000000; stroke-opacity: 0.9; stroke-width: 0.5"/>
    <path d="M 340.008011 386.332358 
L 389.101731 408.61582 
L 392.22318 250.513979 
L 341.776694 230.122887 
z
" clip-path="url(#pe81253f39c)" style="fill: #521a35; fill-opacity: 0.9; stroke: #000000; stroke-opacity: 0.9; stroke-width: 0.5"/>
    <path d="M 238.078886 206.858607 
L 202.849532 220.987137 
L 250.723799 241.083574 
L 285.963391 226.506318 
z
" clip-path="url(#pe81253f39c)" style="fill: #a9484e; fill-opacity: 0.9; stroke: #000000; stroke-opacity: 0.9; stroke-width: 0.5"/>
    <path d="M 422.14093 392.453493 
L 426.10803 235.722522 
L 392.22318 250.513979 
L 389.101731 408.61582 
z
" clip-path="url(#pe81253f39c)" style="fill: #521a35; fill-opacity: 0.9; stroke: #000000; stroke-opacity: 0.9; stroke-width: 0.5"/>
    <path d="M 100.802762 140.916231 
L 63.943585 154.332213 
L 109.72193 173.416287 
L 146.640727 159.573228 
z
" clip-path="url(#pe81253f39c)" style="fill: #b8623c; fill-opacity: 0.9; stroke: #000000; stroke-opacity: 0.9; stroke-width: 0.5"/>
    <path d="M 317.548216 396.975651 
L 283.22619 413.240242 
L 283.487083 257.688937 
L 318.707485 242.774951 
z
" clip-path="url(#pe81253f39c)" style="fill: #cc6250; fill-opacity: 0.9; stroke: #000000; stroke-opacity: 0.9; stroke-width: 0.5"/>
    <path d="M 317.548216 396.975651 
L 318.707485 242.774951 
L 369.148803 263.517315 
L 366.660383 419.593822 
z
" clip-path="url(#pe81253f39c)" style="fill: #cc6250; fill-opacity: 0.9; stroke: #000000; stroke-opacity: 0.9; stroke-width: 0.5"/>
    <path d="M 375.701141 215.790023 
L 341.776694 230.122887 
L 392.22318 250.513979 
L 426.10803 235.722522 
z
" clip-path="url(#pe81253f39c)" style="fill: #973161; fill-opacity: 0.9; stroke: #000000; stroke-opacity: 0.9; stroke-width: 0.5"/>
    <path d="M 145.76385 402.772376 
L 192.374981 425.573908 
L 190.255723 272.75487 
L 142.478541 251.793182 
z
" clip-path="url(#pe81253f39c)" style="fill: #673d1b; fill-opacity: 0.9; stroke: #000000; stroke-opacity: 0.9; stroke-width: 0.5"/>
    <path d="M 228.003778 409.035012 
L 226.830029 257.548798 
L 190.255723 272.75487 
L 192.374981 425.573908 
z
" clip-path="url(#pe81253f39c)" style="fill: #673d1b; fill-opacity: 0.9; stroke: #000000; stroke-opacity: 0.9; stroke-width: 0.5"/>
    <path d="M 179.020372 237.063517 
L 142.478541 251.793182 
L 190.255723 272.75487 
L 226.830029 257.548798 
z
" clip-path="url(#pe81253f39c)" style="fill: #be7033; fill-opacity: 0.9; stroke: #000000; stroke-opacity: 0.9; stroke-width: 0.5"/>
    <path d="M 283.22619 413.240242 
L 332.356539 436.374796 
L 333.948076 278.917615 
L 283.487083 257.688937 
z
" clip-path="url(#pe81253f39c)" style="fill: #602e26; fill-opacity: 0.9; stroke: #000000; stroke-opacity: 0.9; stroke-width: 0.5"/>
    <path d="M 259.912122 424.28836 
L 309.047919 447.777056 
L 273.405405 465.212889 
L 224.27208 441.177535 
z
" clip-path="url(#pe81253f39c)" style="fill: #86591d; fill-opacity: 0.9; stroke: #000000; stroke-opacity: 0.9; stroke-width: 0.5"/>
    <path d="M 366.660383 419.593822 
L 369.148803 263.517315 
L 333.948076 278.917615 
L 332.356539 436.374796 
z
" clip-path="url(#pe81253f39c)" style="fill: #602e26; fill-opacity: 0.9; stroke: #000000; stroke-opacity: 0.9; stroke-width: 0.5"/>
    <path d="M 259.912122 424.28836 
L 224.27208 441.177535 
L 222.962973 285.910486 
L 259.556794 270.384735 
z
" clip-path="url(#pe81253f39c)" style="fill: #df9330; fill-opacity: 0.9; stroke: #000000; stroke-opacity: 0.9; stroke-width: 0.5"/>
    <path d="M 318.707485 242.774951 
L 283.487083 257.688937 
L 333.948076 278.917615 
L 369.148803 263.517315 
z
" clip-path="url(#pe81253f39c)" style="fill: #b15545; fill-opacity: 0.9; stroke: #000000; stroke-opacity: 0.9; stroke-width: 0.5"/>
    <path d="M 259.912122 424.28836 
L 259.556794 270.384735 
L 310.001901 291.979795 
L 309.047919 447.777056 
z
" clip-path="url(#pe81253f39c)" style="fill: #df9330; fill-opacity: 0.9; stroke: #000000; stroke-opacity: 0.9; stroke-width: 0.5"/>
    <path d="M 224.27208 441.177535 
L 273.405405 465.212889 
L 273.405405 308.021715 
L 222.962973 285.910486 
z
" clip-path="url(#pe81253f39c)" style="fill: #694516; fill-opacity: 0.9; stroke: #000000; stroke-opacity: 0.9; stroke-width: 0.5"/>
    <path d="M 309.047919 447.777056 
L 310.001901 291.979795 
L 273.405405 308.021715 
L 273.405405 465.212889 
z
" clip-path="url(#pe81253f39c)" style="fill: #694516; fill-opacity: 0.9; stroke: #000000; stroke-opacity: 0.9; stroke-width: 0.5"/>
    <path d="M 259.556794 270.384735 
L 222.962973 285.910486 
L 273.405405 308.021715 
L 310.001901 291.979795 
z
" clip-path="url(#pe81253f39c)" style="fill: #c18029; fill-opacity: 0.9; stroke: #000000; stroke-opacity: 0.9; stroke-width: 0.5"/>
   </g>
   <g id="text_18">
    <text style="font: 8px 'SimHei', 'Microsoft YaHei', 'DejaVu Sans', 'Bitstream Vera Sans', 'Computer Modern Sans Serif', 'Lucida Grande', 'Verdana', 'Geneva', 'Lucid', 'Arial', 'Helvetica', 'Avant Garde', sans-serif; text-anchor: middle" x="279.775901" y="88.894121" transform="rotate(-0 279.775901 88.894121)">73.52</text>
   </g>
   <g id="text_19">
    <text style="font: 8px 'SimHei', 'Microsoft YaHei', 'DejaVu Sans', 'Bitstream Vera Sans', 'Computer Modern Sans Serif', 'Lucida Grande', 'Verdana', 'Geneva', 'Lucid', 'Arial', 'Helvetica', 'Avant Garde', sans-serif; text-anchor: middle" x="357.447238" y="181.032946" transform="rotate(-0 357.447238 181.032946)">51.81</text>
   </g>
   <g id="text_20">
    <text style="font: 8px 'SimHei', 'Microsoft YaHei', 'DejaVu Sans', 'Bitstream Vera Sans', 'Computer Modern Sans Serif', 'Lucida Grande', 'Verdana', 'Geneva', 'Lucid', 'Arial', 'Helvetica', 'Avant Garde', sans-serif; text-anchor: middle" x="439.218519" y="211.404574" transform="rotate(-0 439.218519 211.404574)">52.24</text>
   </g>
   <g id="text_21">
    <text style="font: 8px 'SimHei', 'Microsoft YaHei', 'DejaVu Sans', 'Bitstream Vera Sans', 'Computer Modern Sans Serif', 'Lucida Grande', 'Verdana', 'Geneva', 'Lucid', 'Arial', 'Helvetica', 'Avant Garde', sans-serif; text-anchor: middle" x="223.652326" y="106.52127" transform="rotate(-0 223.652326 106.52127)">74.56</text>
   </g>
   <g id="text_22">
    <text style="font: 8px 'SimHei', 'Microsoft YaHei', 'DejaVu Sans', 'Bitstream Vera Sans', 'Computer Modern Sans Serif', 'Lucida Grande', 'Verdana', 'Geneva', 'Lucid', 'Arial', 'Helvetica', 'Avant Garde', sans-serif; text-anchor: middle" x="301.950563" y="200.702811" transform="rotate(-0 301.950563 200.702811)">52.84</text>
   </g>
   <g id="text_23">
    <text style="font: 8px 'SimHei', 'Microsoft YaHei', 'DejaVu Sans', 'Bitstream Vera Sans', 'Computer Modern Sans Serif', 'Lucida Grande', 'Verdana', 'Geneva', 'Lucid', 'Arial', 'Helvetica', 'Avant Garde', sans-serif; text-anchor: middle" x="383.866581" y="231.018381" transform="rotate(-0 383.866581 231.018381)">53.66</text>
   </g>
   <g id="text_24">
    <text style="font: 8px 'SimHei', 'Microsoft YaHei', 'DejaVu Sans', 'Bitstream Vera Sans', 'Computer Modern Sans Serif', 'Lucida Grande', 'Verdana', 'Geneva', 'Lucid', 'Arial', 'Helvetica', 'Avant Garde', sans-serif; text-anchor: middle" x="165.430681" y="127.053614" transform="rotate(-0 165.430681 127.053614)">74.85</text>
   </g>
   <g id="text_25">
    <text style="font: 8px 'SimHei', 'Microsoft YaHei', 'DejaVu Sans', 'Bitstream Vera Sans', 'Computer Modern Sans Serif', 'Lucida Grande', 'Verdana', 'Geneva', 'Lucid', 'Arial', 'Helvetica', 'Avant Garde', sans-serif; text-anchor: middle" x="244.311937" y="221.847695" transform="rotate(-0 244.311937 221.847695)">53.63</text>
   </g>
   <g id="text_26">
    <text style="font: 8px 'SimHei', 'Microsoft YaHei', 'DejaVu Sans', 'Bitstream Vera Sans', 'Computer Modern Sans Serif', 'Lucida Grande', 'Verdana', 'Geneva', 'Lucid', 'Arial', 'Helvetica', 'Avant Garde', sans-serif; text-anchor: middle" x="326.230516" y="258.685722" transform="rotate(-0 326.230516 258.685722)">52.69</text>
   </g>
   <g id="text_27">
    <text style="font: 8px 'SimHei', 'Microsoft YaHei', 'DejaVu Sans', 'Bitstream Vera Sans', 'Computer Modern Sans Serif', 'Lucida Grande', 'Verdana', 'Geneva', 'Lucid', 'Arial', 'Helvetica', 'Avant Garde', sans-serif; text-anchor: middle" x="105.177272" y="155.042059" transform="rotate(-0 105.177272 155.042059)">72.93</text>
   </g>
   <g id="text_28">
    <text style="font: 8px 'SimHei', 'Microsoft YaHei', 'DejaVu Sans', 'Bitstream Vera Sans', 'Computer Modern Sans Serif', 'Lucida Grande', 'Verdana', 'Geneva', 'Lucid', 'Arial', 'Helvetica', 'Avant Garde', sans-serif; text-anchor: middle" x="184.547698" y="252.760101" transform="rotate(-0 184.547698 252.760101)">51.46</text>
   </g>
   <g id="text_29">
    <text style="font: 8px 'SimHei', 'Microsoft YaHei', 'DejaVu Sans', 'Bitstream Vera Sans', 'Computer Modern Sans Serif', 'Lucida Grande', 'Verdana', 'Geneva', 'Lucid', 'Arial', 'Helvetica', 'Avant Garde', sans-serif; text-anchor: middle" x="266.382516" y="287.01418" transform="rotate(-0 266.382516 287.01418)">51.85</text>
   </g>
  </g>
 </g>
 <defs>
  <clipPath id="pe81253f39c">
   <rect x="7.2" y="7.2" width="518.4" height="518.4"/>
  </clipPath>
 </defs>
</svg>
