<?xml version="1.0" encoding="utf-8" standalone="no"?>
<!DOCTYPE svg PUBLIC "-//W3C//DTD SVG 1.1//EN"
  "http://www.w3.org/Graphics/SVG/1.1/DTD/svg11.dtd">
<svg xmlns:xlink="http://www.w3.org/1999/xlink" width="492.51pt" height="381.114pt" viewBox="0 0 492.51 381.114" xmlns="http://www.w3.org/2000/svg" version="1.1">
 <metadata>
  <rdf:RDF xmlns:dc="http://purl.org/dc/elements/1.1/" xmlns:cc="http://creativecommons.org/ns#" xmlns:rdf="http://www.w3.org/1999/02/22-rdf-syntax-ns#">
   <cc:Work>
    <dc:type rdf:resource="http://purl.org/dc/dcmitype/StillImage"/>
    <dc:date>2026-03-11T22:35:32.972155</dc:date>
    <dc:format>image/svg+xml</dc:format>
    <dc:creator>
     <cc:Agent>
      <dc:title>Matplotlib v3.7.1, https://matplotlib.org/</dc:title>
     </cc:Agent>
    </dc:creator>
   </cc:Work>
  </rdf:RDF>
 </metadata>
 <defs>
  <style type="text/css">*{stroke-linejoin: round; stroke-linecap: butt}</style>
 </defs>
 <g id="figure_1">
  <g id="patch_1">
   <path d="M 0 381.114 
L 492.51 381.114 
L 492.51 0 
L 0 0 
z
" style="fill: #ffffff"/>
  </g>
  <g id="axes_1">
   <g id="patch_2">
    <path d="M 26.2 340.144 
L 485.31 340.144 
L 485.31 7.2 
L 26.2 7.2 
z
" style="fill: #ffffff"/>
   </g>
   <g id="PolyCollection_1">
    <defs>
     <path id="mb6ad295463" d="M 47.068636 -340.583206 
L 47.068636 -56.103818 
L 50.57597 -56.103818 
L 54.083304 -56.103818 
L 57.590638 -56.103818 
L 61.097972 -56.103818 
L 64.605306 -56.103818 
L 68.112639 -56.103818 
L 71.619973 -56.103818 
L 75.127307 -56.103818 
L 78.634641 -56.103818 
L 82.141975 -56.103818 
L 85.649309 -56.103818 
L 89.156642 -56.103818 
L 92.663976 -56.103818 
L 96.17131 -56.103818 
L 99.678644 -56.103818 
L 103.185978 -56.103818 
L 106.693312 -56.103818 
L 110.200646 -56.103818 
L 113.707979 -56.103818 
L 117.215313 -56.103818 
L 120.722647 -56.103818 
L 124.229981 -56.103818 
L 127.737315 -56.103818 
L 131.244649 -56.103818 
L 134.751982 -56.103818 
L 138.259316 -56.103818 
L 141.76665 -56.103818 
L 145.273984 -56.103818 
L 148.781318 -56.103818 
L 152.288652 -56.103818 
L 155.795985 -56.103818 
L 159.303319 -56.103818 
L 162.810653 -56.103818 
L 166.317987 -56.103818 
L 169.825321 -56.103818 
L 173.332655 -56.103818 
L 176.839989 -56.103818 
L 180.347322 -56.103818 
L 183.854656 -56.103818 
L 187.36199 -56.103818 
L 190.869324 -56.103818 
L 194.376658 -56.103818 
L 197.883992 -56.103818 
L 201.391325 -56.103818 
L 204.898659 -56.103818 
L 208.405993 -56.103818 
L 211.913327 -56.103818 
L 215.420661 -56.103818 
L 218.927995 -56.103818 
L 222.435328 -56.103818 
L 225.942662 -56.103818 
L 229.449996 -56.103818 
L 232.95733 -56.103818 
L 236.464664 -56.103818 
L 239.971998 -56.103818 
L 243.479332 -56.103818 
L 246.986665 -56.103818 
L 250.493999 -56.103818 
L 254.001333 -56.103818 
L 257.508667 -56.103818 
L 261.016001 -56.103818 
L 264.523335 -56.103818 
L 268.030668 -56.103818 
L 271.538002 -56.103818 
L 275.045336 -56.103818 
L 278.55267 -56.103818 
L 282.060004 -56.103818 
L 285.567338 -56.103818 
L 289.074672 -56.103818 
L 292.582005 -56.103818 
L 296.089339 -56.103818 
L 299.596673 -56.103818 
L 303.104007 -56.103818 
L 306.611341 -56.103818 
L 310.118675 -56.103818 
L 313.626008 -56.103818 
L 317.133342 -56.103818 
L 320.640676 -56.103818 
L 324.14801 -56.103818 
L 327.655344 -56.103818 
L 331.162678 -56.103818 
L 334.670011 -56.103818 
L 338.177345 -56.103818 
L 341.684679 -56.103818 
L 345.192013 -56.103818 
L 348.699347 -56.103818 
L 352.206681 -56.103818 
L 355.714015 -56.103818 
L 359.221348 -56.103818 
L 362.728682 -56.103818 
L 366.236016 -56.103818 
L 369.74335 -56.103818 
L 373.250684 -56.103818 
L 376.758018 -56.103818 
L 380.265351 -56.103818 
L 383.772685 -56.103818 
L 387.280019 -56.103818 
L 390.787353 -56.103818 
L 394.294687 -56.103818 
L 397.802021 -56.103818 
L 401.309354 -56.103818 
L 404.816688 -56.103818 
L 408.324022 -56.103818 
L 411.831356 -56.103818 
L 415.33869 -56.103818 
L 418.846024 -56.103818 
L 422.353358 -56.103818 
L 425.860691 -56.103818 
L 429.368025 -56.103818 
L 432.875359 -56.103818 
L 436.382693 -56.103818 
L 439.890027 -56.103818 
L 443.397361 -56.103818 
L 446.904694 -56.103818 
L 450.412028 -56.103818 
L 453.919362 -56.103818 
L 457.426696 -56.103818 
L 460.93403 -56.103818 
L 464.441364 -56.103818 
L 464.441364 -351.784456 
L 464.441364 -351.784456 
L 460.93403 -352.078394 
L 457.426696 -352.372332 
L 453.919362 -352.66627 
L 450.412028 -352.960208 
L 446.904694 -353.254146 
L 443.397361 -353.548084 
L 439.890027 -353.842022 
L 436.382693 -354.13596 
L 432.875359 -354.429898 
L 429.368025 -354.723836 
L 425.860691 -355.017774 
L 422.353358 -355.311713 
L 418.846024 -355.605651 
L 415.33869 -355.899589 
L 411.831356 -356.193527 
L 408.324022 -356.487465 
L 404.816688 -356.781403 
L 401.309354 -357.075341 
L 397.802021 -357.369279 
L 394.294687 -357.663217 
L 390.787353 -357.957155 
L 387.280019 -358.251093 
L 383.772685 -358.545031 
L 380.265351 -358.758774 
L 376.758018 -358.651733 
L 373.250684 -358.544692 
L 369.74335 -358.437651 
L 366.236016 -358.330609 
L 362.728682 -358.223568 
L 359.221348 -358.116527 
L 355.714015 -358.009486 
L 352.206681 -357.902445 
L 348.699347 -357.795404 
L 345.192013 -357.688363 
L 341.684679 -357.581322 
L 338.177345 -357.474281 
L 334.670011 -357.36724 
L 331.162678 -357.260199 
L 327.655344 -357.153158 
L 324.14801 -357.046117 
L 320.640676 -356.939076 
L 317.133342 -356.832035 
L 313.626008 -356.724994 
L 310.118675 -356.617953 
L 306.611341 -356.510912 
L 303.104007 -356.403871 
L 299.596673 -356.29683 
L 296.089339 -356.227848 
L 292.582005 -356.215954 
L 289.074672 -356.204061 
L 285.567338 -356.192167 
L 282.060004 -356.180274 
L 278.55267 -356.168381 
L 275.045336 -356.156487 
L 271.538002 -356.144594 
L 268.030668 -356.1327 
L 264.523335 -356.120807 
L 261.016001 -356.108913 
L 257.508667 -356.09702 
L 254.001333 -356.085126 
L 250.493999 -356.073233 
L 246.986665 -356.06134 
L 243.479332 -356.049446 
L 239.971998 -356.037553 
L 236.464664 -356.025659 
L 232.95733 -356.013766 
L 229.449996 -356.001872 
L 225.942662 -355.989979 
L 222.435328 -355.978085 
L 218.927995 -355.966192 
L 215.420661 -355.954299 
L 211.913327 -355.708954 
L 208.405993 -355.307975 
L 204.898659 -354.906995 
L 201.391325 -354.506016 
L 197.883992 -354.105037 
L 194.376658 -353.704058 
L 190.869324 -353.303079 
L 187.36199 -352.9021 
L 183.854656 -352.501121 
L 180.347322 -352.100142 
L 176.839989 -351.699163 
L 173.332655 -351.298183 
L 169.825321 -350.897204 
L 166.317987 -350.496225 
L 162.810653 -350.095246 
L 159.303319 -349.694267 
L 155.795985 -349.293288 
L 152.288652 -348.892309 
L 148.781318 -348.49133 
L 145.273984 -348.090351 
L 141.76665 -347.689371 
L 138.259316 -347.288392 
L 134.751982 -346.887413 
L 131.244649 -346.486434 
L 127.737315 -346.210506 
L 124.229981 -345.965841 
L 120.722647 -345.721176 
L 117.215313 -345.47651 
L 113.707979 -345.231845 
L 110.200646 -344.98718 
L 106.693312 -344.742515 
L 103.185978 -344.49785 
L 99.678644 -344.253184 
L 96.17131 -344.008519 
L 92.663976 -343.763854 
L 89.156642 -343.519189 
L 85.649309 -343.274523 
L 82.141975 -343.029858 
L 78.634641 -342.785193 
L 75.127307 -342.540528 
L 71.619973 -342.295863 
L 68.112639 -342.051197 
L 64.605306 -341.806532 
L 61.097972 -341.561867 
L 57.590638 -341.317202 
L 54.083304 -341.072536 
L 50.57597 -340.827871 
L 47.068636 -340.583206 
z
" style="stroke: #66c2a5; stroke-opacity: 0.25"/>
    </defs>
    <g clip-path="url(#pde4574967b)">
     <use xlink:href="#mb6ad295463" x="0" y="381.114" style="fill: #66c2a5; fill-opacity: 0.25; stroke: #66c2a5; stroke-opacity: 0.25"/>
    </g>
   </g>
   <g id="PolyCollection_2">
    <defs>
     <path id="m3147ac2690" d="M 47.068636 -252.712032 
L 47.068636 -56.103818 
L 50.57597 -56.103818 
L 54.083304 -56.103818 
L 57.590638 -56.103818 
L 61.097972 -56.103818 
L 64.605306 -56.103818 
L 68.112639 -56.103818 
L 71.619973 -56.103818 
L 75.127307 -56.103818 
L 78.634641 -56.103818 
L 82.141975 -56.103818 
L 85.649309 -56.103818 
L 89.156642 -56.103818 
L 92.663976 -56.103818 
L 96.17131 -56.103818 
L 99.678644 -56.103818 
L 103.185978 -56.103818 
L 106.693312 -56.103818 
L 110.200646 -56.103818 
L 113.707979 -56.103818 
L 117.215313 -56.103818 
L 120.722647 -56.103818 
L 124.229981 -56.103818 
L 127.737315 -56.103818 
L 131.244649 -56.103818 
L 134.751982 -56.103818 
L 138.259316 -56.103818 
L 141.76665 -56.103818 
L 145.273984 -56.103818 
L 148.781318 -56.103818 
L 152.288652 -56.103818 
L 155.795985 -56.103818 
L 159.303319 -56.103818 
L 162.810653 -56.103818 
L 166.317987 -56.103818 
L 169.825321 -56.103818 
L 173.332655 -56.103818 
L 176.839989 -56.103818 
L 180.347322 -56.103818 
L 183.854656 -56.103818 
L 187.36199 -56.103818 
L 190.869324 -56.103818 
L 194.376658 -56.103818 
L 197.883992 -56.103818 
L 201.391325 -56.103818 
L 204.898659 -56.103818 
L 208.405993 -56.103818 
L 211.913327 -56.103818 
L 215.420661 -56.103818 
L 218.927995 -56.103818 
L 222.435328 -56.103818 
L 225.942662 -56.103818 
L 229.449996 -56.103818 
L 232.95733 -56.103818 
L 236.464664 -56.103818 
L 239.971998 -56.103818 
L 243.479332 -56.103818 
L 246.986665 -56.103818 
L 250.493999 -56.103818 
L 254.001333 -56.103818 
L 257.508667 -56.103818 
L 261.016001 -56.103818 
L 264.523335 -56.103818 
L 268.030668 -56.103818 
L 271.538002 -56.103818 
L 275.045336 -56.103818 
L 278.55267 -56.103818 
L 282.060004 -56.103818 
L 285.567338 -56.103818 
L 289.074672 -56.103818 
L 292.582005 -56.103818 
L 296.089339 -56.103818 
L 299.596673 -56.103818 
L 303.104007 -56.103818 
L 306.611341 -56.103818 
L 310.118675 -56.103818 
L 313.626008 -56.103818 
L 317.133342 -56.103818 
L 320.640676 -56.103818 
L 324.14801 -56.103818 
L 327.655344 -56.103818 
L 331.162678 -56.103818 
L 334.670011 -56.103818 
L 338.177345 -56.103818 
L 341.684679 -56.103818 
L 345.192013 -56.103818 
L 348.699347 -56.103818 
L 352.206681 -56.103818 
L 355.714015 -56.103818 
L 359.221348 -56.103818 
L 362.728682 -56.103818 
L 366.236016 -56.103818 
L 369.74335 -56.103818 
L 373.250684 -56.103818 
L 376.758018 -56.103818 
L 380.265351 -56.103818 
L 383.772685 -56.103818 
L 387.280019 -56.103818 
L 390.787353 -56.103818 
L 394.294687 -56.103818 
L 397.802021 -56.103818 
L 401.309354 -56.103818 
L 404.816688 -56.103818 
L 408.324022 -56.103818 
L 411.831356 -56.103818 
L 415.33869 -56.103818 
L 418.846024 -56.103818 
L 422.353358 -56.103818 
L 425.860691 -56.103818 
L 429.368025 -56.103818 
L 432.875359 -56.103818 
L 436.382693 -56.103818 
L 439.890027 -56.103818 
L 443.397361 -56.103818 
L 446.904694 -56.103818 
L 450.412028 -56.103818 
L 453.919362 -56.103818 
L 457.426696 -56.103818 
L 460.93403 -56.103818 
L 464.441364 -56.103818 
L 464.441364 -267.148299 
L 464.441364 -267.148299 
L 460.93403 -267.392965 
L 457.426696 -267.63763 
L 453.919362 -267.882295 
L 450.412028 -268.12696 
L 446.904694 -268.371625 
L 443.397361 -268.616291 
L 439.890027 -268.860956 
L 436.382693 -269.105621 
L 432.875359 -269.350286 
L 429.368025 -269.594952 
L 425.860691 -269.839617 
L 422.353358 -270.084282 
L 418.846024 -270.328947 
L 415.33869 -270.573612 
L 411.831356 -270.818278 
L 408.324022 -271.062943 
L 404.816688 -271.307608 
L 401.309354 -271.552273 
L 397.802021 -271.796939 
L 394.294687 -272.041604 
L 390.787353 -272.286269 
L 387.280019 -272.530934 
L 383.772685 -272.775599 
L 380.265351 -272.925457 
L 376.758018 -272.696083 
L 373.250684 -272.46671 
L 369.74335 -272.237336 
L 366.236016 -272.007962 
L 362.728682 -271.778589 
L 359.221348 -271.549215 
L 355.714015 -271.319841 
L 352.206681 -271.090468 
L 348.699347 -270.861094 
L 345.192013 -270.63172 
L 341.684679 -270.402347 
L 338.177345 -270.172973 
L 334.670011 -269.9436 
L 331.162678 -269.714226 
L 327.655344 -269.484852 
L 324.14801 -269.255479 
L 320.640676 -269.026105 
L 317.133342 -268.796731 
L 313.626008 -268.567358 
L 310.118675 -268.337984 
L 306.611341 -268.10861 
L 303.104007 -267.879237 
L 299.596673 -267.649863 
L 296.089339 -267.524472 
L 292.582005 -267.555055 
L 289.074672 -267.585638 
L 285.567338 -267.616222 
L 282.060004 -267.646805 
L 278.55267 -267.677388 
L 275.045336 -267.707971 
L 271.538002 -267.738554 
L 268.030668 -267.769137 
L 264.523335 -267.799721 
L 261.016001 -267.830304 
L 257.508667 -267.860887 
L 254.001333 -267.89147 
L 250.493999 -267.922053 
L 246.986665 -267.952636 
L 243.479332 -267.983219 
L 239.971998 -268.013803 
L 236.464664 -268.044386 
L 232.95733 -268.074969 
L 229.449996 -268.105552 
L 225.942662 -268.136135 
L 222.435328 -268.166718 
L 218.927995 -268.197302 
L 215.420661 -268.227885 
L 211.913327 -268.114727 
L 208.405993 -267.905742 
L 204.898659 -267.696757 
L 201.391325 -267.487772 
L 197.883992 -267.278788 
L 194.376658 -267.069803 
L 190.869324 -266.860818 
L 187.36199 -266.651833 
L 183.854656 -266.442848 
L 180.347322 -266.233863 
L 176.839989 -266.024878 
L 173.332655 -265.815893 
L 169.825321 -265.606908 
L 166.317987 -265.397924 
L 162.810653 -265.188939 
L 159.303319 -264.979954 
L 155.795985 -264.770969 
L 152.288652 -264.561984 
L 148.781318 -264.352999 
L 145.273984 -264.144014 
L 141.76665 -263.935029 
L 138.259316 -263.726045 
L 134.751982 -263.51706 
L 131.244649 -263.308075 
L 127.737315 -262.911513 
L 124.229981 -262.468058 
L 120.722647 -262.024602 
L 117.215313 -261.581146 
L 113.707979 -261.13769 
L 110.200646 -260.694235 
L 106.693312 -260.250779 
L 103.185978 -259.807323 
L 99.678644 -259.363868 
L 96.17131 -258.920412 
L 92.663976 -258.476956 
L 89.156642 -258.0335 
L 85.649309 -257.590045 
L 82.141975 -257.146589 
L 78.634641 -256.703133 
L 75.127307 -256.259678 
L 71.619973 -255.816222 
L 68.112639 -255.372766 
L 64.605306 -254.929311 
L 61.097972 -254.485855 
L 57.590638 -254.042399 
L 54.083304 -253.598943 
L 50.57597 -253.155488 
L 47.068636 -252.712032 
z
" style="stroke: #e78ac3; stroke-opacity: 0.25"/>
    </defs>
    <g clip-path="url(#pde4574967b)">
     <use xlink:href="#m3147ac2690" x="0" y="381.114" style="fill: #e78ac3; fill-opacity: 0.25; stroke: #e78ac3; stroke-opacity: 0.25"/>
    </g>
   </g>
   <g id="PolyCollection_3">
    <defs>
     <path id="m146f34fc16" d="M 47.068636 -250.124018 
L 47.068636 -56.103818 
L 50.57597 -56.103818 
L 54.083304 -56.103818 
L 57.590638 -56.103818 
L 61.097972 -56.103818 
L 64.605306 -56.103818 
L 68.112639 -56.103818 
L 71.619973 -56.103818 
L 75.127307 -56.103818 
L 78.634641 -56.103818 
L 82.141975 -56.103818 
L 85.649309 -56.103818 
L 89.156642 -56.103818 
L 92.663976 -56.103818 
L 96.17131 -56.103818 
L 99.678644 -56.103818 
L 103.185978 -56.103818 
L 106.693312 -56.103818 
L 110.200646 -56.103818 
L 113.707979 -56.103818 
L 117.215313 -56.103818 
L 120.722647 -56.103818 
L 124.229981 -56.103818 
L 127.737315 -56.103818 
L 131.244649 -56.103818 
L 134.751982 -56.103818 
L 138.259316 -56.103818 
L 141.76665 -56.103818 
L 145.273984 -56.103818 
L 148.781318 -56.103818 
L 152.288652 -56.103818 
L 155.795985 -56.103818 
L 159.303319 -56.103818 
L 162.810653 -56.103818 
L 166.317987 -56.103818 
L 169.825321 -56.103818 
L 173.332655 -56.103818 
L 176.839989 -56.103818 
L 180.347322 -56.103818 
L 183.854656 -56.103818 
L 187.36199 -56.103818 
L 190.869324 -56.103818 
L 194.376658 -56.103818 
L 197.883992 -56.103818 
L 201.391325 -56.103818 
L 204.898659 -56.103818 
L 208.405993 -56.103818 
L 211.913327 -56.103818 
L 215.420661 -56.103818 
L 218.927995 -56.103818 
L 222.435328 -56.103818 
L 225.942662 -56.103818 
L 229.449996 -56.103818 
L 232.95733 -56.103818 
L 236.464664 -56.103818 
L 239.971998 -56.103818 
L 243.479332 -56.103818 
L 246.986665 -56.103818 
L 250.493999 -56.103818 
L 254.001333 -56.103818 
L 257.508667 -56.103818 
L 261.016001 -56.103818 
L 264.523335 -56.103818 
L 268.030668 -56.103818 
L 271.538002 -56.103818 
L 275.045336 -56.103818 
L 278.55267 -56.103818 
L 282.060004 -56.103818 
L 285.567338 -56.103818 
L 289.074672 -56.103818 
L 292.582005 -56.103818 
L 296.089339 -56.103818 
L 299.596673 -56.103818 
L 303.104007 -56.103818 
L 306.611341 -56.103818 
L 310.118675 -56.103818 
L 313.626008 -56.103818 
L 317.133342 -56.103818 
L 320.640676 -56.103818 
L 324.14801 -56.103818 
L 327.655344 -56.103818 
L 331.162678 -56.103818 
L 334.670011 -56.103818 
L 338.177345 -56.103818 
L 341.684679 -56.103818 
L 345.192013 -56.103818 
L 348.699347 -56.103818 
L 352.206681 -56.103818 
L 355.714015 -56.103818 
L 359.221348 -56.103818 
L 362.728682 -56.103818 
L 366.236016 -56.103818 
L 369.74335 -56.103818 
L 373.250684 -56.103818 
L 376.758018 -56.103818 
L 380.265351 -56.103818 
L 383.772685 -56.103818 
L 387.280019 -56.103818 
L 390.787353 -56.103818 
L 394.294687 -56.103818 
L 397.802021 -56.103818 
L 401.309354 -56.103818 
L 404.816688 -56.103818 
L 408.324022 -56.103818 
L 411.831356 -56.103818 
L 415.33869 -56.103818 
L 418.846024 -56.103818 
L 422.353358 -56.103818 
L 425.860691 -56.103818 
L 429.368025 -56.103818 
L 432.875359 -56.103818 
L 436.382693 -56.103818 
L 439.890027 -56.103818 
L 443.397361 -56.103818 
L 446.904694 -56.103818 
L 450.412028 -56.103818 
L 453.919362 -56.103818 
L 457.426696 -56.103818 
L 460.93403 -56.103818 
L 464.441364 -56.103818 
L 464.441364 -256.957993 
L 464.441364 -256.957993 
L 460.93403 -257.47111 
L 457.426696 -257.984228 
L 453.919362 -258.497345 
L 450.412028 -259.010462 
L 446.904694 -259.52358 
L 443.397361 -260.036697 
L 439.890027 -260.549814 
L 436.382693 -261.062932 
L 432.875359 -261.576049 
L 429.368025 -262.089166 
L 425.860691 -262.602284 
L 422.353358 -263.115401 
L 418.846024 -263.628518 
L 415.33869 -264.141636 
L 411.831356 -264.654753 
L 408.324022 -265.16787 
L 404.816688 -265.680988 
L 401.309354 -266.194105 
L 397.802021 -266.707222 
L 394.294687 -267.22034 
L 390.787353 -267.733457 
L 387.280019 -268.246574 
L 383.772685 -268.759692 
L 380.265351 -269.138923 
L 376.758018 -268.982609 
L 373.250684 -268.826295 
L 369.74335 -268.669981 
L 366.236016 -268.513667 
L 362.728682 -268.357353 
L 359.221348 -268.201039 
L 355.714015 -268.044726 
L 352.206681 -267.888412 
L 348.699347 -267.732098 
L 345.192013 -267.575784 
L 341.684679 -267.41947 
L 338.177345 -267.263156 
L 334.670011 -267.106842 
L 331.162678 -266.950528 
L 327.655344 -266.794214 
L 324.14801 -266.637901 
L 320.640676 -266.481587 
L 317.133342 -266.325273 
L 313.626008 -266.168959 
L 310.118675 -266.012645 
L 306.611341 -265.856331 
L 303.104007 -265.700017 
L 299.596673 -265.543703 
L 296.089339 -265.453993 
L 292.582005 -265.464187 
L 289.074672 -265.474382 
L 285.567338 -265.484576 
L 282.060004 -265.49477 
L 278.55267 -265.504965 
L 275.045336 -265.515159 
L 271.538002 -265.525353 
L 268.030668 -265.535548 
L 264.523335 -265.545742 
L 261.016001 -265.555937 
L 257.508667 -265.566131 
L 254.001333 -265.576325 
L 250.493999 -265.58652 
L 246.986665 -265.596714 
L 243.479332 -265.606908 
L 239.971998 -265.617103 
L 236.464664 -265.627297 
L 232.95733 -265.637492 
L 229.449996 -265.647686 
L 225.942662 -265.65788 
L 222.435328 -265.668075 
L 218.927995 -265.678269 
L 215.420661 -265.688464 
L 211.913327 -265.54982 
L 208.405993 -265.311951 
L 204.898659 -265.074082 
L 201.391325 -264.836213 
L 197.883992 -264.598344 
L 194.376658 -264.360475 
L 190.869324 -264.122606 
L 187.36199 -263.884737 
L 183.854656 -263.646868 
L 180.347322 -263.408999 
L 176.839989 -263.17113 
L 173.332655 -262.933261 
L 169.825321 -262.695392 
L 166.317987 -262.457523 
L 162.810653 -262.219654 
L 159.303319 -261.981785 
L 155.795985 -261.743917 
L 152.288652 -261.506048 
L 148.781318 -261.268179 
L 145.273984 -261.03031 
L 141.76665 -260.792441 
L 138.259316 -260.554572 
L 134.751982 -260.316703 
L 131.244649 -260.078834 
L 127.737315 -259.698243 
L 124.229981 -259.281973 
L 120.722647 -258.865702 
L 117.215313 -258.449431 
L 113.707979 -258.033161 
L 110.200646 -257.61689 
L 106.693312 -257.200619 
L 103.185978 -256.784349 
L 99.678644 -256.368078 
L 96.17131 -255.951807 
L 92.663976 -255.535537 
L 89.156642 -255.119266 
L 85.649309 -254.702995 
L 82.141975 -254.286724 
L 78.634641 -253.870454 
L 75.127307 -253.454183 
L 71.619973 -253.037912 
L 68.112639 -252.621642 
L 64.605306 -252.205371 
L 61.097972 -251.7891 
L 57.590638 -251.37283 
L 54.083304 -250.956559 
L 50.57597 -250.540288 
L 47.068636 -250.124018 
z
" style="stroke: #e5c494; stroke-opacity: 0.25"/>
    </defs>
    <g clip-path="url(#pde4574967b)">
     <use xlink:href="#m146f34fc16" x="0" y="381.114" style="fill: #e5c494; fill-opacity: 0.25; stroke: #e5c494; stroke-opacity: 0.25"/>
    </g>
   </g>
   <g id="matplotlib.axis_1">
    <g id="xtick_1">
     <g id="line2d_1">
      <path d="M 47.068636 340.144 
L 47.068636 7.2 
" clip-path="url(#pde4574967b)" style="fill: none; stroke-dasharray: 2.96,1.28; stroke-dashoffset: 0; stroke: #b0b0b0; stroke-opacity: 0.5; stroke-width: 0.8"/>
     </g>
     <g id="line2d_2">
      <defs>
       <path id="m40f9f89d88" d="M 0 0 
L 0 3.5 
" style="stroke: #000000; stroke-width: 0.8"/>
      </defs>
      <g>
       <use xlink:href="#m40f9f89d88" x="47.068636" y="340.144" style="stroke: #000000; stroke-width: 0.8"/>
      </g>
     </g>
     <g id="text_1">
      <text style="font: 12px 'SimHei', 'Microsoft YaHei', 'DejaVu Sans', 'Bitstream Vera Sans', 'Computer Modern Sans Serif', 'Lucida Grande', 'Verdana', 'Geneva', 'Lucid', 'Arial', 'Helvetica', 'Avant Garde', sans-serif; text-anchor: middle" x="47.068636" y="355.394" transform="rotate(-0 47.068636 355.394)">0</text>
     </g>
    </g>
    <g id="xtick_2">
     <g id="line2d_3">
      <path d="M 130.543182 340.144 
L 130.543182 7.2 
" clip-path="url(#pde4574967b)" style="fill: none; stroke-dasharray: 2.96,1.28; stroke-dashoffset: 0; stroke: #b0b0b0; stroke-opacity: 0.5; stroke-width: 0.8"/>
     </g>
     <g id="line2d_4">
      <g>
       <use xlink:href="#m40f9f89d88" x="130.543182" y="340.144" style="stroke: #000000; stroke-width: 0.8"/>
      </g>
     </g>
     <g id="text_2">
      <text style="font: 12px 'SimHei', 'Microsoft YaHei', 'DejaVu Sans', 'Bitstream Vera Sans', 'Computer Modern Sans Serif', 'Lucida Grande', 'Verdana', 'Geneva', 'Lucid', 'Arial', 'Helvetica', 'Avant Garde', sans-serif; text-anchor: middle" x="130.543182" y="355.394" transform="rotate(-0 130.543182 355.394)">1</text>
     </g>
    </g>
    <g id="xtick_3">
     <g id="line2d_5">
      <path d="M 214.017727 340.144 
L 214.017727 7.2 
" clip-path="url(#pde4574967b)" style="fill: none; stroke-dasharray: 2.96,1.28; stroke-dashoffset: 0; stroke: #b0b0b0; stroke-opacity: 0.5; stroke-width: 0.8"/>
     </g>
     <g id="line2d_6">
      <g>
       <use xlink:href="#m40f9f89d88" x="214.017727" y="340.144" style="stroke: #000000; stroke-width: 0.8"/>
      </g>
     </g>
     <g id="text_3">
      <text style="font: 12px 'SimHei', 'Microsoft YaHei', 'DejaVu Sans', 'Bitstream Vera Sans', 'Computer Modern Sans Serif', 'Lucida Grande', 'Verdana', 'Geneva', 'Lucid', 'Arial', 'Helvetica', 'Avant Garde', sans-serif; text-anchor: middle" x="214.017727" y="355.394" transform="rotate(-0 214.017727 355.394)">2</text>
     </g>
    </g>
    <g id="xtick_4">
     <g id="line2d_7">
      <path d="M 297.492273 340.144 
L 297.492273 7.2 
" clip-path="url(#pde4574967b)" style="fill: none; stroke-dasharray: 2.96,1.28; stroke-dashoffset: 0; stroke: #b0b0b0; stroke-opacity: 0.5; stroke-width: 0.8"/>
     </g>
     <g id="line2d_8">
      <g>
       <use xlink:href="#m40f9f89d88" x="297.492273" y="340.144" style="stroke: #000000; stroke-width: 0.8"/>
      </g>
     </g>
     <g id="text_4">
      <text style="font: 12px 'SimHei', 'Microsoft YaHei', 'DejaVu Sans', 'Bitstream Vera Sans', 'Computer Modern Sans Serif', 'Lucida Grande', 'Verdana', 'Geneva', 'Lucid', 'Arial', 'Helvetica', 'Avant Garde', sans-serif; text-anchor: middle" x="297.492273" y="355.394" transform="rotate(-0 297.492273 355.394)">3</text>
     </g>
    </g>
    <g id="xtick_5">
     <g id="line2d_9">
      <path d="M 380.966818 340.144 
L 380.966818 7.2 
" clip-path="url(#pde4574967b)" style="fill: none; stroke-dasharray: 2.96,1.28; stroke-dashoffset: 0; stroke: #b0b0b0; stroke-opacity: 0.5; stroke-width: 0.8"/>
     </g>
     <g id="line2d_10">
      <g>
       <use xlink:href="#m40f9f89d88" x="380.966818" y="340.144" style="stroke: #000000; stroke-width: 0.8"/>
      </g>
     </g>
     <g id="text_5">
      <text style="font: 12px 'SimHei', 'Microsoft YaHei', 'DejaVu Sans', 'Bitstream Vera Sans', 'Computer Modern Sans Serif', 'Lucida Grande', 'Verdana', 'Geneva', 'Lucid', 'Arial', 'Helvetica', 'Avant Garde', sans-serif; text-anchor: middle" x="380.966818" y="355.394" transform="rotate(-0 380.966818 355.394)">4</text>
     </g>
    </g>
    <g id="xtick_6">
     <g id="line2d_11">
      <path d="M 464.441364 340.144 
L 464.441364 7.2 
" clip-path="url(#pde4574967b)" style="fill: none; stroke-dasharray: 2.96,1.28; stroke-dashoffset: 0; stroke: #b0b0b0; stroke-opacity: 0.5; stroke-width: 0.8"/>
     </g>
     <g id="line2d_12">
      <g>
       <use xlink:href="#m40f9f89d88" x="464.441364" y="340.144" style="stroke: #000000; stroke-width: 0.8"/>
      </g>
     </g>
     <g id="text_6">
      <text style="font: 12px 'SimHei', 'Microsoft YaHei', 'DejaVu Sans', 'Bitstream Vera Sans', 'Computer Modern Sans Serif', 'Lucida Grande', 'Verdana', 'Geneva', 'Lucid', 'Arial', 'Helvetica', 'Avant Garde', sans-serif; text-anchor: middle" x="464.441364" y="355.394" transform="rotate(-0 464.441364 355.394)">5</text>
     </g>
    </g>
    <g id="text_7">
     <!-- $\lambda_{NE}$ -->
     <g transform="translate(244.625 371.534)">
      <text>
       <tspan style="font: oblique 14px 'DejaVu Sans'" x="0" y="-0.359375">λ</tspan>
       <tspan style="font: oblique 9.8px 'DejaVu Sans'" x="8.285156 15.616016" y="1.9375">NE</tspan>
      </text>
     </g>
    </g>
   </g>
   <g id="matplotlib.axis_2">
    <g id="ytick_1">
     <g id="line2d_13">
      <path d="M 26.2 325.010182 
L 485.31 325.010182 
" clip-path="url(#pde4574967b)" style="fill: none; stroke-dasharray: 2.96,1.28; stroke-dashoffset: 0; stroke: #b0b0b0; stroke-opacity: 0.5; stroke-width: 0.8"/>
     </g>
     <g id="line2d_14">
      <defs>
       <path id="mc22e9b78f2" d="M 0 0 
L -3.5 0 
" style="stroke: #000000; stroke-width: 0.8"/>
      </defs>
      <g>
       <use xlink:href="#mc22e9b78f2" x="26.2" y="325.010182" style="stroke: #000000; stroke-width: 0.8"/>
      </g>
     </g>
     <g id="text_8">
      <text style="font: 12px 'SimHei', 'Microsoft YaHei', 'DejaVu Sans', 'Bitstream Vera Sans', 'Computer Modern Sans Serif', 'Lucida Grande', 'Verdana', 'Geneva', 'Lucid', 'Arial', 'Helvetica', 'Avant Garde', sans-serif; text-anchor: end" x="19.2" y="329.135182" transform="rotate(-0 19.2 329.135182)">0</text>
     </g>
    </g>
    <g id="ytick_2">
     <g id="line2d_15">
      <path d="M 26.2 284.572458 
L 485.31 284.572458 
" clip-path="url(#pde4574967b)" style="fill: none; stroke-dasharray: 2.96,1.28; stroke-dashoffset: 0; stroke: #b0b0b0; stroke-opacity: 0.5; stroke-width: 0.8"/>
     </g>
     <g id="line2d_16">
      <g>
       <use xlink:href="#mc22e9b78f2" x="26.2" y="284.572458" style="stroke: #000000; stroke-width: 0.8"/>
      </g>
     </g>
     <g id="text_9">
      <text style="font: 12px 'SimHei', 'Microsoft YaHei', 'DejaVu Sans', 'Bitstream Vera Sans', 'Computer Modern Sans Serif', 'Lucida Grande', 'Verdana', 'Geneva', 'Lucid', 'Arial', 'Helvetica', 'Avant Garde', sans-serif; text-anchor: end" x="19.2" y="288.697458" transform="rotate(-0 19.2 288.697458)">10</text>
     </g>
    </g>
    <g id="ytick_3">
     <g id="line2d_17">
      <path d="M 26.2 244.134734 
L 485.31 244.134734 
" clip-path="url(#pde4574967b)" style="fill: none; stroke-dasharray: 2.96,1.28; stroke-dashoffset: 0; stroke: #b0b0b0; stroke-opacity: 0.5; stroke-width: 0.8"/>
     </g>
     <g id="line2d_18">
      <g>
       <use xlink:href="#mc22e9b78f2" x="26.2" y="244.134734" style="stroke: #000000; stroke-width: 0.8"/>
      </g>
     </g>
     <g id="text_10">
      <text style="font: 12px 'SimHei', 'Microsoft YaHei', 'DejaVu Sans', 'Bitstream Vera Sans', 'Computer Modern Sans Serif', 'Lucida Grande', 'Verdana', 'Geneva', 'Lucid', 'Arial', 'Helvetica', 'Avant Garde', sans-serif; text-anchor: end" x="19.2" y="248.259734" transform="rotate(-0 19.2 248.259734)">20</text>
     </g>
    </g>
    <g id="ytick_4">
     <g id="line2d_19">
      <path d="M 26.2 203.69701 
L 485.31 203.69701 
" clip-path="url(#pde4574967b)" style="fill: none; stroke-dasharray: 2.96,1.28; stroke-dashoffset: 0; stroke: #b0b0b0; stroke-opacity: 0.5; stroke-width: 0.8"/>
     </g>
     <g id="line2d_20">
      <g>
       <use xlink:href="#mc22e9b78f2" x="26.2" y="203.69701" style="stroke: #000000; stroke-width: 0.8"/>
      </g>
     </g>
     <g id="text_11">
      <text style="font: 12px 'SimHei', 'Microsoft YaHei', 'DejaVu Sans', 'Bitstream Vera Sans', 'Computer Modern Sans Serif', 'Lucida Grande', 'Verdana', 'Geneva', 'Lucid', 'Arial', 'Helvetica', 'Avant Garde', sans-serif; text-anchor: end" x="19.2" y="207.82201" transform="rotate(-0 19.2 207.82201)">30</text>
     </g>
    </g>
    <g id="ytick_5">
     <g id="line2d_21">
      <path d="M 26.2 163.259286 
L 485.31 163.259286 
" clip-path="url(#pde4574967b)" style="fill: none; stroke-dasharray: 2.96,1.28; stroke-dashoffset: 0; stroke: #b0b0b0; stroke-opacity: 0.5; stroke-width: 0.8"/>
     </g>
     <g id="line2d_22">
      <g>
       <use xlink:href="#mc22e9b78f2" x="26.2" y="163.259286" style="stroke: #000000; stroke-width: 0.8"/>
      </g>
     </g>
     <g id="text_12">
      <text style="font: 12px 'SimHei', 'Microsoft YaHei', 'DejaVu Sans', 'Bitstream Vera Sans', 'Computer Modern Sans Serif', 'Lucida Grande', 'Verdana', 'Geneva', 'Lucid', 'Arial', 'Helvetica', 'Avant Garde', sans-serif; text-anchor: end" x="19.2" y="167.384286" transform="rotate(-0 19.2 167.384286)">40</text>
     </g>
    </g>
    <g id="ytick_6">
     <g id="line2d_23">
      <path d="M 26.2 122.821562 
L 485.31 122.821562 
" clip-path="url(#pde4574967b)" style="fill: none; stroke-dasharray: 2.96,1.28; stroke-dashoffset: 0; stroke: #b0b0b0; stroke-opacity: 0.5; stroke-width: 0.8"/>
     </g>
     <g id="line2d_24">
      <g>
       <use xlink:href="#mc22e9b78f2" x="26.2" y="122.821562" style="stroke: #000000; stroke-width: 0.8"/>
      </g>
     </g>
     <g id="text_13">
      <text style="font: 12px 'SimHei', 'Microsoft YaHei', 'DejaVu Sans', 'Bitstream Vera Sans', 'Computer Modern Sans Serif', 'Lucida Grande', 'Verdana', 'Geneva', 'Lucid', 'Arial', 'Helvetica', 'Avant Garde', sans-serif; text-anchor: end" x="19.2" y="126.946562" transform="rotate(-0 19.2 126.946562)">50</text>
     </g>
    </g>
    <g id="ytick_7">
     <g id="line2d_25">
      <path d="M 26.2 82.383838 
L 485.31 82.383838 
" clip-path="url(#pde4574967b)" style="fill: none; stroke-dasharray: 2.96,1.28; stroke-dashoffset: 0; stroke: #b0b0b0; stroke-opacity: 0.5; stroke-width: 0.8"/>
     </g>
     <g id="line2d_26">
      <g>
       <use xlink:href="#mc22e9b78f2" x="26.2" y="82.383838" style="stroke: #000000; stroke-width: 0.8"/>
      </g>
     </g>
     <g id="text_14">
      <text style="font: 12px 'SimHei', 'Microsoft YaHei', 'DejaVu Sans', 'Bitstream Vera Sans', 'Computer Modern Sans Serif', 'Lucida Grande', 'Verdana', 'Geneva', 'Lucid', 'Arial', 'Helvetica', 'Avant Garde', sans-serif; text-anchor: end" x="19.2" y="86.508838" transform="rotate(-0 19.2 86.508838)">60</text>
     </g>
    </g>
    <g id="ytick_8">
     <g id="line2d_27">
      <path d="M 26.2 41.946114 
L 485.31 41.946114 
" clip-path="url(#pde4574967b)" style="fill: none; stroke-dasharray: 2.96,1.28; stroke-dashoffset: 0; stroke: #b0b0b0; stroke-opacity: 0.5; stroke-width: 0.8"/>
     </g>
     <g id="line2d_28">
      <g>
       <use xlink:href="#mc22e9b78f2" x="26.2" y="41.946114" style="stroke: #000000; stroke-width: 0.8"/>
      </g>
     </g>
     <g id="text_15">
      <text style="font: 12px 'SimHei', 'Microsoft YaHei', 'DejaVu Sans', 'Bitstream Vera Sans', 'Computer Modern Sans Serif', 'Lucida Grande', 'Verdana', 'Geneva', 'Lucid', 'Arial', 'Helvetica', 'Avant Garde', sans-serif; text-anchor: end" x="19.2" y="46.071114" transform="rotate(-0 19.2 46.071114)">70</text>
     </g>
    </g>
   </g>
   <g id="line2d_29">
    <path d="M 47.068636 40.530794 
L 50.57597 40.286129 
L 54.083304 40.041464 
L 57.590638 39.796798 
L 61.097972 39.552133 
L 64.605306 39.307468 
L 68.112639 39.062803 
L 71.619973 38.818137 
L 75.127307 38.573472 
L 78.634641 38.328807 
L 82.141975 38.084142 
L 85.649309 37.839477 
L 89.156642 37.594811 
L 92.663976 37.350146 
L 96.17131 37.105481 
L 99.678644 36.860816 
L 103.185978 36.61615 
L 106.693312 36.371485 
L 110.200646 36.12682 
L 113.707979 35.882155 
L 117.215313 35.63749 
L 120.722647 35.392824 
L 124.229981 35.148159 
L 127.737315 34.903494 
L 131.244649 34.627566 
L 134.751982 34.226587 
L 138.259316 33.825608 
L 141.76665 33.424629 
L 145.273984 33.023649 
L 148.781318 32.62267 
L 152.288652 32.221691 
L 155.795985 31.820712 
L 159.303319 31.419733 
L 162.810653 31.018754 
L 166.317987 30.617775 
L 169.825321 30.216796 
L 173.332655 29.815817 
L 176.839989 29.414837 
L 180.347322 29.013858 
L 183.854656 28.612879 
L 187.36199 28.2119 
L 190.869324 27.810921 
L 194.376658 27.409942 
L 197.883992 27.008963 
L 201.391325 26.607984 
L 204.898659 26.207005 
L 208.405993 25.806025 
L 211.913327 25.405046 
L 215.420661 25.159701 
L 218.927995 25.147808 
L 222.435328 25.135915 
L 225.942662 25.124021 
L 229.449996 25.112128 
L 232.95733 25.100234 
L 236.464664 25.088341 
L 239.971998 25.076447 
L 243.479332 25.064554 
L 246.986665 25.05266 
L 250.493999 25.040767 
L 254.001333 25.028874 
L 257.508667 25.01698 
L 261.016001 25.005087 
L 264.523335 24.993193 
L 268.030668 24.9813 
L 271.538002 24.969406 
L 275.045336 24.957513 
L 278.55267 24.945619 
L 282.060004 24.933726 
L 285.567338 24.921833 
L 289.074672 24.909939 
L 292.582005 24.898046 
L 296.089339 24.886152 
L 299.596673 24.81717 
L 303.104007 24.710129 
L 306.611341 24.603088 
L 310.118675 24.496047 
L 313.626008 24.389006 
L 317.133342 24.281965 
L 320.640676 24.174924 
L 324.14801 24.067883 
L 327.655344 23.960842 
L 331.162678 23.853801 
L 334.670011 23.74676 
L 338.177345 23.639719 
L 341.684679 23.532678 
L 345.192013 23.425637 
L 348.699347 23.318596 
L 352.206681 23.211555 
L 355.714015 23.104514 
L 359.221348 22.997473 
L 362.728682 22.890432 
L 366.236016 22.783391 
L 369.74335 22.676349 
L 373.250684 22.569308 
L 376.758018 22.462267 
L 380.265351 22.355226 
L 383.772685 22.568969 
L 387.280019 22.862907 
L 390.787353 23.156845 
L 394.294687 23.450783 
L 397.802021 23.744721 
L 401.309354 24.038659 
L 404.816688 24.332597 
L 408.324022 24.626535 
L 411.831356 24.920473 
L 415.33869 25.214411 
L 418.846024 25.508349 
L 422.353358 25.802287 
L 425.860691 26.096226 
L 429.368025 26.390164 
L 432.875359 26.684102 
L 436.382693 26.97804 
L 439.890027 27.271978 
L 443.397361 27.565916 
L 446.904694 27.859854 
L 450.412028 28.153792 
L 453.919362 28.44773 
L 457.426696 28.741668 
L 460.93403 29.035606 
L 464.441364 29.329544 
" clip-path="url(#pde4574967b)" style="fill: none; stroke: #66c2a5; stroke-width: 2; stroke-linecap: square"/>
   </g>
   <g id="line2d_30">
    <path d="M 47.068636 128.401968 
L 50.57597 127.958512 
L 54.083304 127.515057 
L 57.590638 127.071601 
L 61.097972 126.628145 
L 64.605306 126.184689 
L 68.112639 125.741234 
L 71.619973 125.297778 
L 75.127307 124.854322 
L 78.634641 124.410867 
L 82.141975 123.967411 
L 85.649309 123.523955 
L 89.156642 123.0805 
L 92.663976 122.637044 
L 96.17131 122.193588 
L 99.678644 121.750132 
L 103.185978 121.306677 
L 106.693312 120.863221 
L 110.200646 120.419765 
L 113.707979 119.97631 
L 117.215313 119.532854 
L 120.722647 119.089398 
L 124.229981 118.645942 
L 127.737315 118.202487 
L 131.244649 117.805925 
L 134.751982 117.59694 
L 138.259316 117.387955 
L 141.76665 117.178971 
L 145.273984 116.969986 
L 148.781318 116.761001 
L 152.288652 116.552016 
L 155.795985 116.343031 
L 159.303319 116.134046 
L 162.810653 115.925061 
L 166.317987 115.716076 
L 169.825321 115.507092 
L 173.332655 115.298107 
L 176.839989 115.089122 
L 180.347322 114.880137 
L 183.854656 114.671152 
L 187.36199 114.462167 
L 190.869324 114.253182 
L 194.376658 114.044197 
L 197.883992 113.835212 
L 201.391325 113.626228 
L 204.898659 113.417243 
L 208.405993 113.208258 
L 211.913327 112.999273 
L 215.420661 112.886115 
L 218.927995 112.916698 
L 222.435328 112.947282 
L 225.942662 112.977865 
L 229.449996 113.008448 
L 232.95733 113.039031 
L 236.464664 113.069614 
L 239.971998 113.100197 
L 243.479332 113.130781 
L 246.986665 113.161364 
L 250.493999 113.191947 
L 254.001333 113.22253 
L 257.508667 113.253113 
L 261.016001 113.283696 
L 264.523335 113.314279 
L 268.030668 113.344863 
L 271.538002 113.375446 
L 275.045336 113.406029 
L 278.55267 113.436612 
L 282.060004 113.467195 
L 285.567338 113.497778 
L 289.074672 113.528362 
L 292.582005 113.558945 
L 296.089339 113.589528 
L 299.596673 113.464137 
L 303.104007 113.234763 
L 306.611341 113.00539 
L 310.118675 112.776016 
L 313.626008 112.546642 
L 317.133342 112.317269 
L 320.640676 112.087895 
L 324.14801 111.858521 
L 327.655344 111.629148 
L 331.162678 111.399774 
L 334.670011 111.1704 
L 338.177345 110.941027 
L 341.684679 110.711653 
L 345.192013 110.48228 
L 348.699347 110.252906 
L 352.206681 110.023532 
L 355.714015 109.794159 
L 359.221348 109.564785 
L 362.728682 109.335411 
L 366.236016 109.106038 
L 369.74335 108.876664 
L 373.250684 108.64729 
L 376.758018 108.417917 
L 380.265351 108.188543 
L 383.772685 108.338401 
L 387.280019 108.583066 
L 390.787353 108.827731 
L 394.294687 109.072396 
L 397.802021 109.317061 
L 401.309354 109.561727 
L 404.816688 109.806392 
L 408.324022 110.051057 
L 411.831356 110.295722 
L 415.33869 110.540388 
L 418.846024 110.785053 
L 422.353358 111.029718 
L 425.860691 111.274383 
L 429.368025 111.519048 
L 432.875359 111.763714 
L 436.382693 112.008379 
L 439.890027 112.253044 
L 443.397361 112.497709 
L 446.904694 112.742375 
L 450.412028 112.98704 
L 453.919362 113.231705 
L 457.426696 113.47637 
L 460.93403 113.721035 
L 464.441364 113.965701 
" clip-path="url(#pde4574967b)" style="fill: none; stroke: #e78ac3; stroke-width: 2; stroke-linecap: square"/>
   </g>
   <g id="line2d_31">
    <path d="M 47.068636 130.989982 
L 50.57597 130.573712 
L 54.083304 130.157441 
L 57.590638 129.74117 
L 61.097972 129.3249 
L 64.605306 128.908629 
L 68.112639 128.492358 
L 71.619973 128.076088 
L 75.127307 127.659817 
L 78.634641 127.243546 
L 82.141975 126.827276 
L 85.649309 126.411005 
L 89.156642 125.994734 
L 92.663976 125.578463 
L 96.17131 125.162193 
L 99.678644 124.745922 
L 103.185978 124.329651 
L 106.693312 123.913381 
L 110.200646 123.49711 
L 113.707979 123.080839 
L 117.215313 122.664569 
L 120.722647 122.248298 
L 124.229981 121.832027 
L 127.737315 121.415757 
L 131.244649 121.035166 
L 134.751982 120.797297 
L 138.259316 120.559428 
L 141.76665 120.321559 
L 145.273984 120.08369 
L 148.781318 119.845821 
L 152.288652 119.607952 
L 155.795985 119.370083 
L 159.303319 119.132215 
L 162.810653 118.894346 
L 166.317987 118.656477 
L 169.825321 118.418608 
L 173.332655 118.180739 
L 176.839989 117.94287 
L 180.347322 117.705001 
L 183.854656 117.467132 
L 187.36199 117.229263 
L 190.869324 116.991394 
L 194.376658 116.753525 
L 197.883992 116.515656 
L 201.391325 116.277787 
L 204.898659 116.039918 
L 208.405993 115.802049 
L 211.913327 115.56418 
L 215.420661 115.425536 
L 218.927995 115.435731 
L 222.435328 115.445925 
L 225.942662 115.45612 
L 229.449996 115.466314 
L 232.95733 115.476508 
L 236.464664 115.486703 
L 239.971998 115.496897 
L 243.479332 115.507092 
L 246.986665 115.517286 
L 250.493999 115.52748 
L 254.001333 115.537675 
L 257.508667 115.547869 
L 261.016001 115.558063 
L 264.523335 115.568258 
L 268.030668 115.578452 
L 271.538002 115.588647 
L 275.045336 115.598841 
L 278.55267 115.609035 
L 282.060004 115.61923 
L 285.567338 115.629424 
L 289.074672 115.639618 
L 292.582005 115.649813 
L 296.089339 115.660007 
L 299.596673 115.570297 
L 303.104007 115.413983 
L 306.611341 115.257669 
L 310.118675 115.101355 
L 313.626008 114.945041 
L 317.133342 114.788727 
L 320.640676 114.632413 
L 324.14801 114.476099 
L 327.655344 114.319786 
L 331.162678 114.163472 
L 334.670011 114.007158 
L 338.177345 113.850844 
L 341.684679 113.69453 
L 345.192013 113.538216 
L 348.699347 113.381902 
L 352.206681 113.225588 
L 355.714015 113.069274 
L 359.221348 112.912961 
L 362.728682 112.756647 
L 366.236016 112.600333 
L 369.74335 112.444019 
L 373.250684 112.287705 
L 376.758018 112.131391 
L 380.265351 111.975077 
L 383.772685 112.354308 
L 387.280019 112.867426 
L 390.787353 113.380543 
L 394.294687 113.89366 
L 397.802021 114.406778 
L 401.309354 114.919895 
L 404.816688 115.433012 
L 408.324022 115.94613 
L 411.831356 116.459247 
L 415.33869 116.972364 
L 418.846024 117.485482 
L 422.353358 117.998599 
L 425.860691 118.511716 
L 429.368025 119.024834 
L 432.875359 119.537951 
L 436.382693 120.051068 
L 439.890027 120.564186 
L 443.397361 121.077303 
L 446.904694 121.59042 
L 450.412028 122.103538 
L 453.919362 122.616655 
L 457.426696 123.129772 
L 460.93403 123.64289 
L 464.441364 124.156007 
" clip-path="url(#pde4574967b)" style="fill: none; stroke: #e5c494; stroke-width: 2; stroke-linecap: square"/>
   </g>
   <g id="patch_3">
    <path d="M 26.2 340.144 
L 26.2 7.2 
" style="fill: none; stroke: #000000; stroke-width: 0.8; stroke-linejoin: miter; stroke-linecap: square"/>
   </g>
   <g id="patch_4">
    <path d="M 485.31 340.144 
L 485.31 7.2 
" style="fill: none; stroke: #000000; stroke-width: 0.8; stroke-linejoin: miter; stroke-linecap: square"/>
   </g>
   <g id="patch_5">
    <path d="M 26.2 340.144 
L 485.31 340.144 
" style="fill: none; stroke: #000000; stroke-width: 0.8; stroke-linejoin: miter; stroke-linecap: square"/>
   </g>
   <g id="patch_6">
    <path d="M 26.2 7.2 
L 485.31 7.2 
" style="fill: none; stroke: #000000; stroke-width: 0.8; stroke-linejoin: miter; stroke-linecap: square"/>
   </g>
   <g id="text_16">
    <text style="fill: #66c2a5; font: 700 10px 'SimHei', 'Microsoft YaHei', 'DejaVu Sans', 'Bitstream Vera Sans', 'Computer Modern Sans Serif', 'Lucida Grande', 'Verdana', 'Geneva', 'Lucid', 'Arial', 'Helvetica', 'Avant Garde', sans-serif; text-anchor: middle" x="380.966818" y="21.083818" transform="rotate(-0 380.966818 21.083818)">74.85</text>
   </g>
   <g id="text_17">
    <text style="fill: #e78ac3; font: 700 10px 'SimHei', 'Microsoft YaHei', 'DejaVu Sans', 'Bitstream Vera Sans', 'Computer Modern Sans Serif', 'Lucida Grande', 'Verdana', 'Geneva', 'Lucid', 'Arial', 'Helvetica', 'Avant Garde', sans-serif; text-anchor: middle" x="380.966818" y="106.892668" transform="rotate(-0 380.966818 106.892668)">53.63</text>
   </g>
   <g id="text_18">
    <text style="fill: #e5c494; font: 700 10px 'SimHei', 'Microsoft YaHei', 'DejaVu Sans', 'Bitstream Vera Sans', 'Computer Modern Sans Serif', 'Lucida Grande', 'Verdana', 'Geneva', 'Lucid', 'Arial', 'Helvetica', 'Avant Garde', sans-serif; text-anchor: middle" x="380.966818" y="110.693814" transform="rotate(-0 380.966818 110.693814)">52.69</text>
   </g>
   <g id="PathCollection_1">
    <defs>
     <path id="me0685a847f" d="M 0 2.95804 
C 0.784481 2.95804 1.536938 2.646362 2.09165 2.09165 
C 2.646362 1.536938 2.95804 0.784481 2.95804 0 
C 2.95804 -0.784481 2.646362 -1.536938 2.09165 -2.09165 
C 1.536938 -2.646362 0.784481 -2.95804 0 -2.95804 
C -0.784481 -2.95804 -1.536938 -2.646362 -2.09165 -2.09165 
C -2.646362 -1.536938 -2.95804 -0.784481 -2.95804 0 
C -2.95804 0.784481 -2.646362 1.536938 -2.09165 2.09165 
C -1.536938 2.646362 -0.784481 2.95804 0 2.95804 
z
" style="stroke: #66c2a5"/>
    </defs>
    <g clip-path="url(#pde4574967b)">
     <use xlink:href="#me0685a847f" x="380.966818" y="22.333818" style="fill: #66c2a5; stroke: #66c2a5"/>
    </g>
   </g>
   <g id="PathCollection_2">
    <defs>
     <path id="mb13ff64ccd" d="M 0 2.95804 
C 0.784481 2.95804 1.536938 2.646362 2.09165 2.09165 
C 2.646362 1.536938 2.95804 0.784481 2.95804 0 
C 2.95804 -0.784481 2.646362 -1.536938 2.09165 -2.09165 
C 1.536938 -2.646362 0.784481 -2.95804 0 -2.95804 
C -0.784481 -2.95804 -1.536938 -2.646362 -2.09165 -2.09165 
C -2.646362 -1.536938 -2.95804 -0.784481 -2.95804 0 
C -2.95804 0.784481 -2.646362 1.536938 -2.09165 2.09165 
C -1.536938 2.646362 -0.784481 2.95804 0 2.95804 
z
" style="stroke: #e78ac3"/>
    </defs>
    <g clip-path="url(#pde4574967b)">
     <use xlink:href="#mb13ff64ccd" x="380.966818" y="108.142668" style="fill: #e78ac3; stroke: #e78ac3"/>
    </g>
   </g>
   <g id="PathCollection_3">
    <defs>
     <path id="mcaf09121b6" d="M 0 2.95804 
C 0.784481 2.95804 1.536938 2.646362 2.09165 2.09165 
C 2.646362 1.536938 2.95804 0.784481 2.95804 0 
C 2.95804 -0.784481 2.646362 -1.536938 2.09165 -2.09165 
C 1.536938 -2.646362 0.784481 -2.95804 0 -2.95804 
C -0.784481 -2.95804 -1.536938 -2.646362 -2.09165 -2.09165 
C -2.646362 -1.536938 -2.95804 -0.784481 -2.95804 0 
C -2.95804 0.784481 -2.646362 1.536938 -2.09165 2.09165 
C -1.536938 2.646362 -0.784481 2.95804 0 2.95804 
z
" style="stroke: #e5c494"/>
    </defs>
    <g clip-path="url(#pde4574967b)">
     <use xlink:href="#mcaf09121b6" x="380.966818" y="111.943814" style="fill: #e5c494; stroke: #e5c494"/>
    </g>
   </g>
   <g id="legend_1">
    <g id="patch_7">
     <path d="M 34.6 334.144 
L 91 334.144 
Q 93.4 334.144 93.4 331.744 
L 93.4 285.244 
Q 93.4 282.844 91 282.844 
L 34.6 282.844 
Q 32.2 282.844 32.2 285.244 
L 32.2 331.744 
Q 32.2 334.144 34.6 334.144 
z
" style="fill: #ffffff; opacity: 0.8; stroke: #cccccc; stroke-linejoin: miter"/>
    </g>
    <g id="line2d_32">
     <path d="M 37 291.844 
L 49 291.844 
L 61 291.844 
" style="fill: none; stroke: #66c2a5; stroke-width: 2; stroke-linecap: square"/>
    </g>
    <g id="text_19">
     <text style="font: 12px 'SimHei', 'Microsoft YaHei', 'DejaVu Sans', 'Bitstream Vera Sans', 'Computer Modern Sans Serif', 'Lucida Grande', 'Verdana', 'Geneva', 'Lucid', 'Arial', 'Helvetica', 'Avant Garde', sans-serif; text-anchor: start" x="70.6" y="296.044" transform="rotate(-0 70.6 296.044)">ACC</text>
    </g>
    <g id="line2d_33">
     <path d="M 37 307.744 
L 49 307.744 
L 61 307.744 
" style="fill: none; stroke: #e78ac3; stroke-width: 2; stroke-linecap: square"/>
    </g>
    <g id="text_20">
     <text style="font: 12px 'SimHei', 'Microsoft YaHei', 'DejaVu Sans', 'Bitstream Vera Sans', 'Computer Modern Sans Serif', 'Lucida Grande', 'Verdana', 'Geneva', 'Lucid', 'Arial', 'Helvetica', 'Avant Garde', sans-serif; text-anchor: start" x="70.6" y="311.944" transform="rotate(-0 70.6 311.944)">NMI</text>
    </g>
    <g id="line2d_34">
     <path d="M 37 323.644 
L 49 323.644 
L 61 323.644 
" style="fill: none; stroke: #e5c494; stroke-width: 2; stroke-linecap: square"/>
    </g>
    <g id="text_21">
     <text style="font: 12px 'SimHei', 'Microsoft YaHei', 'DejaVu Sans', 'Bitstream Vera Sans', 'Computer Modern Sans Serif', 'Lucida Grande', 'Verdana', 'Geneva', 'Lucid', 'Arial', 'Helvetica', 'Avant Garde', sans-serif; text-anchor: start" x="70.6" y="327.844" transform="rotate(-0 70.6 327.844)">ARI</text>
    </g>
   </g>
  </g>
 </g>
 <defs>
  <clipPath id="pde4574967b">
   <rect x="26.2" y="7.2" width="459.11" height="332.944"/>
  </clipPath>
 </defs>
</svg>
