<?xml version="1.0" encoding="utf-8" standalone="no"?>
<!DOCTYPE svg PUBLIC "-//W3C//DTD SVG 1.1//EN"
  "http://www.w3.org/Graphics/SVG/1.1/DTD/svg11.dtd">
<svg xmlns:xlink="http://www.w3.org/1999/xlink" width="492.51pt" height="381.114pt" viewBox="0 0 492.51 381.114" xmlns="http://www.w3.org/2000/svg" version="1.1">
 <metadata>
  <rdf:RDF xmlns:dc="http://purl.org/dc/elements/1.1/" xmlns:cc="http://creativecommons.org/ns#" xmlns:rdf="http://www.w3.org/1999/02/22-rdf-syntax-ns#">
   <cc:Work>
    <dc:type rdf:resource="http://purl.org/dc/dcmitype/StillImage"/>
    <dc:date>2026-03-11T22:35:33.130710</dc:date>
    <dc:format>image/svg+xml</dc:format>
    <dc:creator>
     <cc:Agent>
      <dc:title>Matplotlib v3.7.1, https://matplotlib.org/</dc:title>
     </cc:Agent>
    </dc:creator>
   </cc:Work>
  </rdf:RDF>
 </metadata>
 <defs>
  <style type="text/css">*{stroke-linejoin: round; stroke-linecap: butt}</style>
 </defs>
 <g id="figure_1">
  <g id="patch_1">
   <path d="M 0 381.114 
L 492.51 381.114 
L 492.51 0 
L 0 0 
z
" style="fill: #ffffff"/>
  </g>
  <g id="axes_1">
   <g id="patch_2">
    <path d="M 26.2 340.144 
L 485.31 340.144 
L 485.31 7.2 
L 26.2 7.2 
z
" style="fill: #ffffff"/>
   </g>
   <g id="PolyCollection_1">
    <defs>
     <path id="mce0c283ec8" d="M 47.068636 -358.052303 
L 47.068636 -56.103818 
L 50.57597 -56.103818 
L 54.083304 -56.103818 
L 57.590638 -56.103818 
L 61.097972 -56.103818 
L 64.605306 -56.103818 
L 68.112639 -56.103818 
L 71.619973 -56.103818 
L 75.127307 -56.103818 
L 78.634641 -56.103818 
L 82.141975 -56.103818 
L 85.649309 -56.103818 
L 89.156642 -56.103818 
L 92.663976 -56.103818 
L 96.17131 -56.103818 
L 99.678644 -56.103818 
L 103.185978 -56.103818 
L 106.693312 -56.103818 
L 110.200646 -56.103818 
L 113.707979 -56.103818 
L 117.215313 -56.103818 
L 120.722647 -56.103818 
L 124.229981 -56.103818 
L 127.737315 -56.103818 
L 131.244649 -56.103818 
L 134.751982 -56.103818 
L 138.259316 -56.103818 
L 141.76665 -56.103818 
L 145.273984 -56.103818 
L 148.781318 -56.103818 
L 152.288652 -56.103818 
L 155.795985 -56.103818 
L 159.303319 -56.103818 
L 162.810653 -56.103818 
L 166.317987 -56.103818 
L 169.825321 -56.103818 
L 173.332655 -56.103818 
L 176.839989 -56.103818 
L 180.347322 -56.103818 
L 183.854656 -56.103818 
L 187.36199 -56.103818 
L 190.869324 -56.103818 
L 194.376658 -56.103818 
L 197.883992 -56.103818 
L 201.391325 -56.103818 
L 204.898659 -56.103818 
L 208.405993 -56.103818 
L 211.913327 -56.103818 
L 215.420661 -56.103818 
L 218.927995 -56.103818 
L 222.435328 -56.103818 
L 225.942662 -56.103818 
L 229.449996 -56.103818 
L 232.95733 -56.103818 
L 236.464664 -56.103818 
L 239.971998 -56.103818 
L 243.479332 -56.103818 
L 246.986665 -56.103818 
L 250.493999 -56.103818 
L 254.001333 -56.103818 
L 257.508667 -56.103818 
L 261.016001 -56.103818 
L 264.523335 -56.103818 
L 268.030668 -56.103818 
L 271.538002 -56.103818 
L 275.045336 -56.103818 
L 278.55267 -56.103818 
L 282.060004 -56.103818 
L 285.567338 -56.103818 
L 289.074672 -56.103818 
L 292.582005 -56.103818 
L 296.089339 -56.103818 
L 299.596673 -56.103818 
L 303.104007 -56.103818 
L 306.611341 -56.103818 
L 310.118675 -56.103818 
L 313.626008 -56.103818 
L 317.133342 -56.103818 
L 320.640676 -56.103818 
L 324.14801 -56.103818 
L 327.655344 -56.103818 
L 331.162678 -56.103818 
L 334.670011 -56.103818 
L 338.177345 -56.103818 
L 341.684679 -56.103818 
L 345.192013 -56.103818 
L 348.699347 -56.103818 
L 352.206681 -56.103818 
L 355.714015 -56.103818 
L 359.221348 -56.103818 
L 362.728682 -56.103818 
L 366.236016 -56.103818 
L 369.74335 -56.103818 
L 373.250684 -56.103818 
L 376.758018 -56.103818 
L 380.265351 -56.103818 
L 383.772685 -56.103818 
L 387.280019 -56.103818 
L 390.787353 -56.103818 
L 394.294687 -56.103818 
L 397.802021 -56.103818 
L 401.309354 -56.103818 
L 404.816688 -56.103818 
L 408.324022 -56.103818 
L 411.831356 -56.103818 
L 415.33869 -56.103818 
L 418.846024 -56.103818 
L 422.353358 -56.103818 
L 425.860691 -56.103818 
L 429.368025 -56.103818 
L 432.875359 -56.103818 
L 436.382693 -56.103818 
L 439.890027 -56.103818 
L 443.397361 -56.103818 
L 446.904694 -56.103818 
L 450.412028 -56.103818 
L 453.919362 -56.103818 
L 457.426696 -56.103818 
L 460.93403 -56.103818 
L 464.441364 -56.103818 
L 464.441364 -356.556107 
L 464.441364 -356.556107 
L 460.93403 -356.44227 
L 457.426696 -356.328432 
L 453.919362 -356.214595 
L 450.412028 -356.100758 
L 446.904694 -355.986921 
L 443.397361 -355.873083 
L 439.890027 -355.759246 
L 436.382693 -355.645409 
L 432.875359 -355.531571 
L 429.368025 -355.417734 
L 425.860691 -355.303897 
L 422.353358 -355.19006 
L 418.846024 -355.076222 
L 415.33869 -354.962385 
L 411.831356 -354.848548 
L 408.324022 -354.73471 
L 404.816688 -354.620873 
L 401.309354 -354.507036 
L 397.802021 -354.393198 
L 394.294687 -354.279361 
L 390.787353 -354.165524 
L 387.280019 -354.051687 
L 383.772685 -353.937849 
L 380.265351 -353.888237 
L 376.758018 -354.095522 
L 373.250684 -354.302808 
L 369.74335 -354.510094 
L 366.236016 -354.71738 
L 362.728682 -354.924666 
L 359.221348 -355.131952 
L 355.714015 -355.339237 
L 352.206681 -355.546523 
L 348.699347 -355.753809 
L 345.192013 -355.961095 
L 341.684679 -356.168381 
L 338.177345 -356.375666 
L 334.670011 -356.582952 
L 331.162678 -356.790238 
L 327.655344 -356.997524 
L 324.14801 -357.20481 
L 320.640676 -357.412095 
L 317.133342 -357.619381 
L 313.626008 -357.826667 
L 310.118675 -358.033953 
L 306.611341 -358.241239 
L 303.104007 -358.448525 
L 299.596673 -358.65581 
L 296.089339 -358.767949 
L 292.582005 -358.737365 
L 289.074672 -358.706782 
L 285.567338 -358.676199 
L 282.060004 -358.645616 
L 278.55267 -358.615033 
L 275.045336 -358.58445 
L 271.538002 -358.553866 
L 268.030668 -358.523283 
L 264.523335 -358.4927 
L 261.016001 -358.462117 
L 257.508667 -358.431534 
L 254.001333 -358.400951 
L 250.493999 -358.370368 
L 246.986665 -358.339784 
L 243.479332 -358.309201 
L 239.971998 -358.278618 
L 236.464664 -358.248035 
L 232.95733 -358.217452 
L 229.449996 -358.186869 
L 225.942662 -358.156286 
L 222.435328 -358.125702 
L 218.927995 -358.095119 
L 215.420661 -358.064536 
L 211.913327 -358.059439 
L 208.405993 -358.071332 
L 204.898659 -358.083226 
L 201.391325 -358.095119 
L 197.883992 -358.107013 
L 194.376658 -358.118906 
L 190.869324 -358.1308 
L 187.36199 -358.142693 
L 183.854656 -358.154586 
L 180.347322 -358.16648 
L 176.839989 -358.178373 
L 173.332655 -358.190267 
L 169.825321 -358.20216 
L 166.317987 -358.214054 
L 162.810653 -358.225947 
L 159.303319 -358.237841 
L 155.795985 -358.249734 
L 152.288652 -358.261627 
L 148.781318 -358.273521 
L 145.273984 -358.285414 
L 141.76665 -358.297308 
L 138.259316 -358.309201 
L 134.751982 -358.321095 
L 131.244649 -358.332988 
L 127.737315 -358.325852 
L 124.229981 -358.313959 
L 120.722647 -358.302065 
L 117.215313 -358.290172 
L 113.707979 -358.278278 
L 110.200646 -358.266385 
L 106.693312 -358.254491 
L 103.185978 -358.242598 
L 99.678644 -358.230705 
L 96.17131 -358.218811 
L 92.663976 -358.206918 
L 89.156642 -358.195024 
L 85.649309 -358.183131 
L 82.141975 -358.171237 
L 78.634641 -358.159344 
L 75.127307 -358.14745 
L 71.619973 -358.135557 
L 68.112639 -358.123663 
L 64.605306 -358.11177 
L 61.097972 -358.099877 
L 57.590638 -358.087983 
L 54.083304 -358.07609 
L 50.57597 -358.064196 
L 47.068636 -358.052303 
z
" style="stroke: #66c2a5; stroke-opacity: 0.25"/>
    </defs>
    <g clip-path="url(#pf5db73a814)">
     <use xlink:href="#mce0c283ec8" x="0" y="381.114" style="fill: #66c2a5; fill-opacity: 0.25; stroke: #66c2a5; stroke-opacity: 0.25"/>
    </g>
   </g>
   <g id="PolyCollection_2">
    <defs>
     <path id="m86a6399d5e" d="M 47.068636 -267.390926 
L 47.068636 -56.103818 
L 50.57597 -56.103818 
L 54.083304 -56.103818 
L 57.590638 -56.103818 
L 61.097972 -56.103818 
L 64.605306 -56.103818 
L 68.112639 -56.103818 
L 71.619973 -56.103818 
L 75.127307 -56.103818 
L 78.634641 -56.103818 
L 82.141975 -56.103818 
L 85.649309 -56.103818 
L 89.156642 -56.103818 
L 92.663976 -56.103818 
L 96.17131 -56.103818 
L 99.678644 -56.103818 
L 103.185978 -56.103818 
L 106.693312 -56.103818 
L 110.200646 -56.103818 
L 113.707979 -56.103818 
L 117.215313 -56.103818 
L 120.722647 -56.103818 
L 124.229981 -56.103818 
L 127.737315 -56.103818 
L 131.244649 -56.103818 
L 134.751982 -56.103818 
L 138.259316 -56.103818 
L 141.76665 -56.103818 
L 145.273984 -56.103818 
L 148.781318 -56.103818 
L 152.288652 -56.103818 
L 155.795985 -56.103818 
L 159.303319 -56.103818 
L 162.810653 -56.103818 
L 166.317987 -56.103818 
L 169.825321 -56.103818 
L 173.332655 -56.103818 
L 176.839989 -56.103818 
L 180.347322 -56.103818 
L 183.854656 -56.103818 
L 187.36199 -56.103818 
L 190.869324 -56.103818 
L 194.376658 -56.103818 
L 197.883992 -56.103818 
L 201.391325 -56.103818 
L 204.898659 -56.103818 
L 208.405993 -56.103818 
L 211.913327 -56.103818 
L 215.420661 -56.103818 
L 218.927995 -56.103818 
L 222.435328 -56.103818 
L 225.942662 -56.103818 
L 229.449996 -56.103818 
L 232.95733 -56.103818 
L 236.464664 -56.103818 
L 239.971998 -56.103818 
L 243.479332 -56.103818 
L 246.986665 -56.103818 
L 250.493999 -56.103818 
L 254.001333 -56.103818 
L 257.508667 -56.103818 
L 261.016001 -56.103818 
L 264.523335 -56.103818 
L 268.030668 -56.103818 
L 271.538002 -56.103818 
L 275.045336 -56.103818 
L 278.55267 -56.103818 
L 282.060004 -56.103818 
L 285.567338 -56.103818 
L 289.074672 -56.103818 
L 292.582005 -56.103818 
L 296.089339 -56.103818 
L 299.596673 -56.103818 
L 303.104007 -56.103818 
L 306.611341 -56.103818 
L 310.118675 -56.103818 
L 313.626008 -56.103818 
L 317.133342 -56.103818 
L 320.640676 -56.103818 
L 324.14801 -56.103818 
L 327.655344 -56.103818 
L 331.162678 -56.103818 
L 334.670011 -56.103818 
L 338.177345 -56.103818 
L 341.684679 -56.103818 
L 345.192013 -56.103818 
L 348.699347 -56.103818 
L 352.206681 -56.103818 
L 355.714015 -56.103818 
L 359.221348 -56.103818 
L 362.728682 -56.103818 
L 366.236016 -56.103818 
L 369.74335 -56.103818 
L 373.250684 -56.103818 
L 376.758018 -56.103818 
L 380.265351 -56.103818 
L 383.772685 -56.103818 
L 387.280019 -56.103818 
L 390.787353 -56.103818 
L 394.294687 -56.103818 
L 397.802021 -56.103818 
L 401.309354 -56.103818 
L 404.816688 -56.103818 
L 408.324022 -56.103818 
L 411.831356 -56.103818 
L 415.33869 -56.103818 
L 418.846024 -56.103818 
L 422.353358 -56.103818 
L 425.860691 -56.103818 
L 429.368025 -56.103818 
L 432.875359 -56.103818 
L 436.382693 -56.103818 
L 439.890027 -56.103818 
L 443.397361 -56.103818 
L 446.904694 -56.103818 
L 450.412028 -56.103818 
L 453.919362 -56.103818 
L 457.426696 -56.103818 
L 460.93403 -56.103818 
L 464.441364 -56.103818 
L 464.441364 -271.192072 
L 464.441364 -271.192072 
L 460.93403 -271.044253 
L 457.426696 -270.896435 
L 453.919362 -270.748616 
L 450.412028 -270.600797 
L 446.904694 -270.452979 
L 443.397361 -270.30516 
L 439.890027 -270.157342 
L 436.382693 -270.009523 
L 432.875359 -269.861705 
L 429.368025 -269.713886 
L 425.860691 -269.566068 
L 422.353358 -269.418249 
L 418.846024 -269.27043 
L 415.33869 -269.122612 
L 411.831356 -268.974793 
L 408.324022 -268.826975 
L 404.816688 -268.679156 
L 401.309354 -268.531338 
L 397.802021 -268.383519 
L 394.294687 -268.2357 
L 390.787353 -268.087882 
L 387.280019 -267.940063 
L 383.772685 -267.792245 
L 380.265351 -267.718505 
L 376.758018 -267.941083 
L 373.250684 -268.16366 
L 369.74335 -268.386237 
L 366.236016 -268.608815 
L 362.728682 -268.831392 
L 359.221348 -269.05397 
L 355.714015 -269.276547 
L 352.206681 -269.499124 
L 348.699347 -269.721702 
L 345.192013 -269.944279 
L 341.684679 -270.166857 
L 338.177345 -270.389434 
L 334.670011 -270.612011 
L 331.162678 -270.834589 
L 327.655344 -271.057166 
L 324.14801 -271.279743 
L 320.640676 -271.502321 
L 317.133342 -271.724898 
L 313.626008 -271.947476 
L 310.118675 -272.170053 
L 306.611341 -272.39263 
L 303.104007 -272.615208 
L 299.596673 -272.837785 
L 296.089339 -272.957739 
L 292.582005 -272.923758 
L 289.074672 -272.889777 
L 285.567338 -272.855795 
L 282.060004 -272.821814 
L 278.55267 -272.787833 
L 275.045336 -272.753851 
L 271.538002 -272.71987 
L 268.030668 -272.685889 
L 264.523335 -272.651908 
L 261.016001 -272.617926 
L 257.508667 -272.583945 
L 254.001333 -272.549964 
L 250.493999 -272.515982 
L 246.986665 -272.482001 
L 243.479332 -272.44802 
L 239.971998 -272.414039 
L 236.464664 -272.380057 
L 232.95733 -272.346076 
L 229.449996 -272.312095 
L 225.942662 -272.278114 
L 222.435328 -272.244132 
L 218.927995 -272.210151 
L 215.420661 -272.17617 
L 211.913327 -272.17481 
L 208.405993 -272.195199 
L 204.898659 -272.215588 
L 201.391325 -272.235977 
L 197.883992 -272.256365 
L 194.376658 -272.276754 
L 190.869324 -272.297143 
L 187.36199 -272.317532 
L 183.854656 -272.337921 
L 180.347322 -272.358309 
L 176.839989 -272.378698 
L 173.332655 -272.399087 
L 169.825321 -272.419476 
L 166.317987 -272.439864 
L 162.810653 -272.460253 
L 159.303319 -272.480642 
L 155.795985 -272.501031 
L 152.288652 -272.521419 
L 148.781318 -272.541808 
L 145.273984 -272.562197 
L 141.76665 -272.582586 
L 138.259316 -272.602975 
L 134.751982 -272.623363 
L 131.244649 -272.643752 
L 127.737315 -272.471127 
L 124.229981 -272.250249 
L 120.722647 -272.029371 
L 117.215313 -271.808492 
L 113.707979 -271.587614 
L 110.200646 -271.366736 
L 106.693312 -271.145857 
L 103.185978 -270.924979 
L 99.678644 -270.704101 
L 96.17131 -270.483222 
L 92.663976 -270.262344 
L 89.156642 -270.041466 
L 85.649309 -269.820587 
L 82.141975 -269.599709 
L 78.634641 -269.378831 
L 75.127307 -269.157952 
L 71.619973 -268.937074 
L 68.112639 -268.716196 
L 64.605306 -268.495317 
L 61.097972 -268.274439 
L 57.590638 -268.053561 
L 54.083304 -267.832682 
L 50.57597 -267.611804 
L 47.068636 -267.390926 
z
" style="stroke: #e78ac3; stroke-opacity: 0.25"/>
    </defs>
    <g clip-path="url(#pf5db73a814)">
     <use xlink:href="#m86a6399d5e" x="0" y="381.114" style="fill: #e78ac3; fill-opacity: 0.25; stroke: #e78ac3; stroke-opacity: 0.25"/>
    </g>
   </g>
   <g id="PolyCollection_3">
    <defs>
     <path id="mfeb673493d" d="M 47.068636 -270.747257 
L 47.068636 -56.103818 
L 50.57597 -56.103818 
L 54.083304 -56.103818 
L 57.590638 -56.103818 
L 61.097972 -56.103818 
L 64.605306 -56.103818 
L 68.112639 -56.103818 
L 71.619973 -56.103818 
L 75.127307 -56.103818 
L 78.634641 -56.103818 
L 82.141975 -56.103818 
L 85.649309 -56.103818 
L 89.156642 -56.103818 
L 92.663976 -56.103818 
L 96.17131 -56.103818 
L 99.678644 -56.103818 
L 103.185978 -56.103818 
L 106.693312 -56.103818 
L 110.200646 -56.103818 
L 113.707979 -56.103818 
L 117.215313 -56.103818 
L 120.722647 -56.103818 
L 124.229981 -56.103818 
L 127.737315 -56.103818 
L 131.244649 -56.103818 
L 134.751982 -56.103818 
L 138.259316 -56.103818 
L 141.76665 -56.103818 
L 145.273984 -56.103818 
L 148.781318 -56.103818 
L 152.288652 -56.103818 
L 155.795985 -56.103818 
L 159.303319 -56.103818 
L 162.810653 -56.103818 
L 166.317987 -56.103818 
L 169.825321 -56.103818 
L 173.332655 -56.103818 
L 176.839989 -56.103818 
L 180.347322 -56.103818 
L 183.854656 -56.103818 
L 187.36199 -56.103818 
L 190.869324 -56.103818 
L 194.376658 -56.103818 
L 197.883992 -56.103818 
L 201.391325 -56.103818 
L 204.898659 -56.103818 
L 208.405993 -56.103818 
L 211.913327 -56.103818 
L 215.420661 -56.103818 
L 218.927995 -56.103818 
L 222.435328 -56.103818 
L 225.942662 -56.103818 
L 229.449996 -56.103818 
L 232.95733 -56.103818 
L 236.464664 -56.103818 
L 239.971998 -56.103818 
L 243.479332 -56.103818 
L 246.986665 -56.103818 
L 250.493999 -56.103818 
L 254.001333 -56.103818 
L 257.508667 -56.103818 
L 261.016001 -56.103818 
L 264.523335 -56.103818 
L 268.030668 -56.103818 
L 271.538002 -56.103818 
L 275.045336 -56.103818 
L 278.55267 -56.103818 
L 282.060004 -56.103818 
L 285.567338 -56.103818 
L 289.074672 -56.103818 
L 292.582005 -56.103818 
L 296.089339 -56.103818 
L 299.596673 -56.103818 
L 303.104007 -56.103818 
L 306.611341 -56.103818 
L 310.118675 -56.103818 
L 313.626008 -56.103818 
L 317.133342 -56.103818 
L 320.640676 -56.103818 
L 324.14801 -56.103818 
L 327.655344 -56.103818 
L 331.162678 -56.103818 
L 334.670011 -56.103818 
L 338.177345 -56.103818 
L 341.684679 -56.103818 
L 345.192013 -56.103818 
L 348.699347 -56.103818 
L 352.206681 -56.103818 
L 355.714015 -56.103818 
L 359.221348 -56.103818 
L 362.728682 -56.103818 
L 366.236016 -56.103818 
L 369.74335 -56.103818 
L 373.250684 -56.103818 
L 376.758018 -56.103818 
L 380.265351 -56.103818 
L 383.772685 -56.103818 
L 387.280019 -56.103818 
L 390.787353 -56.103818 
L 394.294687 -56.103818 
L 397.802021 -56.103818 
L 401.309354 -56.103818 
L 404.816688 -56.103818 
L 408.324022 -56.103818 
L 411.831356 -56.103818 
L 415.33869 -56.103818 
L 418.846024 -56.103818 
L 422.353358 -56.103818 
L 425.860691 -56.103818 
L 429.368025 -56.103818 
L 432.875359 -56.103818 
L 436.382693 -56.103818 
L 439.890027 -56.103818 
L 443.397361 -56.103818 
L 446.904694 -56.103818 
L 450.412028 -56.103818 
L 453.919362 -56.103818 
L 457.426696 -56.103818 
L 460.93403 -56.103818 
L 464.441364 -56.103818 
L 464.441364 -266.501296 
L 464.441364 -266.501296 
L 460.93403 -266.341584 
L 457.426696 -266.181872 
L 453.919362 -266.02216 
L 450.412028 -265.862448 
L 446.904694 -265.702736 
L 443.397361 -265.543024 
L 439.890027 -265.383312 
L 436.382693 -265.2236 
L 432.875359 -265.063888 
L 429.368025 -264.904176 
L 425.860691 -264.744464 
L 422.353358 -264.584752 
L 418.846024 -264.42504 
L 415.33869 -264.265328 
L 411.831356 -264.105616 
L 408.324022 -263.945904 
L 404.816688 -263.786191 
L 401.309354 -263.626479 
L 397.802021 -263.466767 
L 394.294687 -263.307055 
L 390.787353 -263.147343 
L 387.280019 -262.987631 
L 383.772685 -262.827919 
L 380.265351 -262.75452 
L 376.758018 -263.02637 
L 373.250684 -263.29822 
L 369.74335 -263.570071 
L 366.236016 -263.841921 
L 362.728682 -264.113771 
L 359.221348 -264.385621 
L 355.714015 -264.657472 
L 352.206681 -264.929322 
L 348.699347 -265.201172 
L 345.192013 -265.473022 
L 341.684679 -265.744872 
L 338.177345 -266.016723 
L 334.670011 -266.288573 
L 331.162678 -266.560423 
L 327.655344 -266.832273 
L 324.14801 -267.104124 
L 320.640676 -267.375974 
L 317.133342 -267.647824 
L 313.626008 -267.919674 
L 310.118675 -268.191525 
L 306.611341 -268.463375 
L 303.104007 -268.735225 
L 299.596673 -269.007075 
L 296.089339 -269.150476 
L 292.582005 -269.101204 
L 289.074672 -269.051931 
L 285.567338 -269.002658 
L 282.060004 -268.953385 
L 278.55267 -268.904112 
L 275.045336 -268.854839 
L 271.538002 -268.805566 
L 268.030668 -268.756294 
L 264.523335 -268.707021 
L 261.016001 -268.657748 
L 257.508667 -268.608475 
L 254.001333 -268.559202 
L 250.493999 -268.509929 
L 246.986665 -268.460656 
L 243.479332 -268.411384 
L 239.971998 -268.362111 
L 236.464664 -268.312838 
L 232.95733 -268.263565 
L 229.449996 -268.214292 
L 225.942662 -268.165019 
L 222.435328 -268.115746 
L 218.927995 -268.066474 
L 215.420661 -268.017201 
L 211.913327 -268.020939 
L 208.405993 -268.060017 
L 204.898659 -268.099096 
L 201.391325 -268.138174 
L 197.883992 -268.177253 
L 194.376658 -268.216331 
L 190.869324 -268.25541 
L 187.36199 -268.294488 
L 183.854656 -268.333566 
L 180.347322 -268.372645 
L 176.839989 -268.411723 
L 173.332655 -268.450802 
L 169.825321 -268.48988 
L 166.317987 -268.528959 
L 162.810653 -268.568037 
L 159.303319 -268.607116 
L 155.795985 -268.646194 
L 152.288652 -268.685273 
L 148.781318 -268.724351 
L 145.273984 -268.76343 
L 141.76665 -268.802508 
L 138.259316 -268.841587 
L 134.751982 -268.880665 
L 131.244649 -268.919744 
L 127.737315 -268.988726 
L 124.229981 -269.065183 
L 120.722647 -269.141641 
L 117.215313 -269.218099 
L 113.707979 -269.294557 
L 110.200646 -269.371015 
L 106.693312 -269.447473 
L 103.185978 -269.523931 
L 99.678644 -269.600389 
L 96.17131 -269.676846 
L 92.663976 -269.753304 
L 89.156642 -269.829762 
L 85.649309 -269.90622 
L 82.141975 -269.982678 
L 78.634641 -270.059136 
L 75.127307 -270.135594 
L 71.619973 -270.212052 
L 68.112639 -270.28851 
L 64.605306 -270.364967 
L 61.097972 -270.441425 
L 57.590638 -270.517883 
L 54.083304 -270.594341 
L 50.57597 -270.670799 
L 47.068636 -270.747257 
z
" style="stroke: #e5c494; stroke-opacity: 0.25"/>
    </defs>
    <g clip-path="url(#pf5db73a814)">
     <use xlink:href="#mfeb673493d" x="0" y="381.114" style="fill: #e5c494; fill-opacity: 0.25; stroke: #e5c494; stroke-opacity: 0.25"/>
    </g>
   </g>
   <g id="matplotlib.axis_1">
    <g id="xtick_1">
     <g id="line2d_1">
      <path d="M 47.068636 340.144 
L 47.068636 7.2 
" clip-path="url(#pf5db73a814)" style="fill: none; stroke-dasharray: 2.96,1.28; stroke-dashoffset: 0; stroke: #b0b0b0; stroke-opacity: 0.5; stroke-width: 0.8"/>
     </g>
     <g id="line2d_2">
      <defs>
       <path id="m9f63953e41" d="M 0 0 
L 0 3.5 
" style="stroke: #000000; stroke-width: 0.8"/>
      </defs>
      <g>
       <use xlink:href="#m9f63953e41" x="47.068636" y="340.144" style="stroke: #000000; stroke-width: 0.8"/>
      </g>
     </g>
     <g id="text_1">
      <text style="font: 12px 'SimHei', 'Microsoft YaHei', 'DejaVu Sans', 'Bitstream Vera Sans', 'Computer Modern Sans Serif', 'Lucida Grande', 'Verdana', 'Geneva', 'Lucid', 'Arial', 'Helvetica', 'Avant Garde', sans-serif; text-anchor: middle" x="47.068636" y="355.394" transform="rotate(-0 47.068636 355.394)">0</text>
     </g>
    </g>
    <g id="xtick_2">
     <g id="line2d_3">
      <path d="M 130.543182 340.144 
L 130.543182 7.2 
" clip-path="url(#pf5db73a814)" style="fill: none; stroke-dasharray: 2.96,1.28; stroke-dashoffset: 0; stroke: #b0b0b0; stroke-opacity: 0.5; stroke-width: 0.8"/>
     </g>
     <g id="line2d_4">
      <g>
       <use xlink:href="#m9f63953e41" x="130.543182" y="340.144" style="stroke: #000000; stroke-width: 0.8"/>
      </g>
     </g>
     <g id="text_2">
      <text style="font: 12px 'SimHei', 'Microsoft YaHei', 'DejaVu Sans', 'Bitstream Vera Sans', 'Computer Modern Sans Serif', 'Lucida Grande', 'Verdana', 'Geneva', 'Lucid', 'Arial', 'Helvetica', 'Avant Garde', sans-serif; text-anchor: middle" x="130.543182" y="355.394" transform="rotate(-0 130.543182 355.394)">1</text>
     </g>
    </g>
    <g id="xtick_3">
     <g id="line2d_5">
      <path d="M 214.017727 340.144 
L 214.017727 7.2 
" clip-path="url(#pf5db73a814)" style="fill: none; stroke-dasharray: 2.96,1.28; stroke-dashoffset: 0; stroke: #b0b0b0; stroke-opacity: 0.5; stroke-width: 0.8"/>
     </g>
     <g id="line2d_6">
      <g>
       <use xlink:href="#m9f63953e41" x="214.017727" y="340.144" style="stroke: #000000; stroke-width: 0.8"/>
      </g>
     </g>
     <g id="text_3">
      <text style="font: 12px 'SimHei', 'Microsoft YaHei', 'DejaVu Sans', 'Bitstream Vera Sans', 'Computer Modern Sans Serif', 'Lucida Grande', 'Verdana', 'Geneva', 'Lucid', 'Arial', 'Helvetica', 'Avant Garde', sans-serif; text-anchor: middle" x="214.017727" y="355.394" transform="rotate(-0 214.017727 355.394)">2</text>
     </g>
    </g>
    <g id="xtick_4">
     <g id="line2d_7">
      <path d="M 297.492273 340.144 
L 297.492273 7.2 
" clip-path="url(#pf5db73a814)" style="fill: none; stroke-dasharray: 2.96,1.28; stroke-dashoffset: 0; stroke: #b0b0b0; stroke-opacity: 0.5; stroke-width: 0.8"/>
     </g>
     <g id="line2d_8">
      <g>
       <use xlink:href="#m9f63953e41" x="297.492273" y="340.144" style="stroke: #000000; stroke-width: 0.8"/>
      </g>
     </g>
     <g id="text_4">
      <text style="font: 12px 'SimHei', 'Microsoft YaHei', 'DejaVu Sans', 'Bitstream Vera Sans', 'Computer Modern Sans Serif', 'Lucida Grande', 'Verdana', 'Geneva', 'Lucid', 'Arial', 'Helvetica', 'Avant Garde', sans-serif; text-anchor: middle" x="297.492273" y="355.394" transform="rotate(-0 297.492273 355.394)">3</text>
     </g>
    </g>
    <g id="xtick_5">
     <g id="line2d_9">
      <path d="M 380.966818 340.144 
L 380.966818 7.2 
" clip-path="url(#pf5db73a814)" style="fill: none; stroke-dasharray: 2.96,1.28; stroke-dashoffset: 0; stroke: #b0b0b0; stroke-opacity: 0.5; stroke-width: 0.8"/>
     </g>
     <g id="line2d_10">
      <g>
       <use xlink:href="#m9f63953e41" x="380.966818" y="340.144" style="stroke: #000000; stroke-width: 0.8"/>
      </g>
     </g>
     <g id="text_5">
      <text style="font: 12px 'SimHei', 'Microsoft YaHei', 'DejaVu Sans', 'Bitstream Vera Sans', 'Computer Modern Sans Serif', 'Lucida Grande', 'Verdana', 'Geneva', 'Lucid', 'Arial', 'Helvetica', 'Avant Garde', sans-serif; text-anchor: middle" x="380.966818" y="355.394" transform="rotate(-0 380.966818 355.394)">4</text>
     </g>
    </g>
    <g id="xtick_6">
     <g id="line2d_11">
      <path d="M 464.441364 340.144 
L 464.441364 7.2 
" clip-path="url(#pf5db73a814)" style="fill: none; stroke-dasharray: 2.96,1.28; stroke-dashoffset: 0; stroke: #b0b0b0; stroke-opacity: 0.5; stroke-width: 0.8"/>
     </g>
     <g id="line2d_12">
      <g>
       <use xlink:href="#m9f63953e41" x="464.441364" y="340.144" style="stroke: #000000; stroke-width: 0.8"/>
      </g>
     </g>
     <g id="text_6">
      <text style="font: 12px 'SimHei', 'Microsoft YaHei', 'DejaVu Sans', 'Bitstream Vera Sans', 'Computer Modern Sans Serif', 'Lucida Grande', 'Verdana', 'Geneva', 'Lucid', 'Arial', 'Helvetica', 'Avant Garde', sans-serif; text-anchor: middle" x="464.441364" y="355.394" transform="rotate(-0 464.441364 355.394)">5</text>
     </g>
    </g>
    <g id="text_7">
     <!-- $\lambda_{KL}$ -->
     <g transform="translate(245.465 371.534)">
      <text>
       <tspan style="font: oblique 14px 'DejaVu Sans'" x="0" y="-0.359375">λ</tspan>
       <tspan style="font: oblique 9.8px 'DejaVu Sans'" x="8.285156 14.711621" y="1.9375">KL</tspan>
      </text>
     </g>
    </g>
   </g>
   <g id="matplotlib.axis_2">
    <g id="ytick_1">
     <g id="line2d_13">
      <path d="M 26.2 325.010182 
L 485.31 325.010182 
" clip-path="url(#pf5db73a814)" style="fill: none; stroke-dasharray: 2.96,1.28; stroke-dashoffset: 0; stroke: #b0b0b0; stroke-opacity: 0.5; stroke-width: 0.8"/>
     </g>
     <g id="line2d_14">
      <defs>
       <path id="mef8bd7f76c" d="M 0 0 
L -3.5 0 
" style="stroke: #000000; stroke-width: 0.8"/>
      </defs>
      <g>
       <use xlink:href="#mef8bd7f76c" x="26.2" y="325.010182" style="stroke: #000000; stroke-width: 0.8"/>
      </g>
     </g>
     <g id="text_8">
      <text style="font: 12px 'SimHei', 'Microsoft YaHei', 'DejaVu Sans', 'Bitstream Vera Sans', 'Computer Modern Sans Serif', 'Lucida Grande', 'Verdana', 'Geneva', 'Lucid', 'Arial', 'Helvetica', 'Avant Garde', sans-serif; text-anchor: end" x="19.2" y="329.135182" transform="rotate(-0 19.2 329.135182)">0</text>
     </g>
    </g>
    <g id="ytick_2">
     <g id="line2d_15">
      <path d="M 26.2 284.572458 
L 485.31 284.572458 
" clip-path="url(#pf5db73a814)" style="fill: none; stroke-dasharray: 2.96,1.28; stroke-dashoffset: 0; stroke: #b0b0b0; stroke-opacity: 0.5; stroke-width: 0.8"/>
     </g>
     <g id="line2d_16">
      <g>
       <use xlink:href="#mef8bd7f76c" x="26.2" y="284.572458" style="stroke: #000000; stroke-width: 0.8"/>
      </g>
     </g>
     <g id="text_9">
      <text style="font: 12px 'SimHei', 'Microsoft YaHei', 'DejaVu Sans', 'Bitstream Vera Sans', 'Computer Modern Sans Serif', 'Lucida Grande', 'Verdana', 'Geneva', 'Lucid', 'Arial', 'Helvetica', 'Avant Garde', sans-serif; text-anchor: end" x="19.2" y="288.697458" transform="rotate(-0 19.2 288.697458)">10</text>
     </g>
    </g>
    <g id="ytick_3">
     <g id="line2d_17">
      <path d="M 26.2 244.134734 
L 485.31 244.134734 
" clip-path="url(#pf5db73a814)" style="fill: none; stroke-dasharray: 2.96,1.28; stroke-dashoffset: 0; stroke: #b0b0b0; stroke-opacity: 0.5; stroke-width: 0.8"/>
     </g>
     <g id="line2d_18">
      <g>
       <use xlink:href="#mef8bd7f76c" x="26.2" y="244.134734" style="stroke: #000000; stroke-width: 0.8"/>
      </g>
     </g>
     <g id="text_10">
      <text style="font: 12px 'SimHei', 'Microsoft YaHei', 'DejaVu Sans', 'Bitstream Vera Sans', 'Computer Modern Sans Serif', 'Lucida Grande', 'Verdana', 'Geneva', 'Lucid', 'Arial', 'Helvetica', 'Avant Garde', sans-serif; text-anchor: end" x="19.2" y="248.259734" transform="rotate(-0 19.2 248.259734)">20</text>
     </g>
    </g>
    <g id="ytick_4">
     <g id="line2d_19">
      <path d="M 26.2 203.69701 
L 485.31 203.69701 
" clip-path="url(#pf5db73a814)" style="fill: none; stroke-dasharray: 2.96,1.28; stroke-dashoffset: 0; stroke: #b0b0b0; stroke-opacity: 0.5; stroke-width: 0.8"/>
     </g>
     <g id="line2d_20">
      <g>
       <use xlink:href="#mef8bd7f76c" x="26.2" y="203.69701" style="stroke: #000000; stroke-width: 0.8"/>
      </g>
     </g>
     <g id="text_11">
      <text style="font: 12px 'SimHei', 'Microsoft YaHei', 'DejaVu Sans', 'Bitstream Vera Sans', 'Computer Modern Sans Serif', 'Lucida Grande', 'Verdana', 'Geneva', 'Lucid', 'Arial', 'Helvetica', 'Avant Garde', sans-serif; text-anchor: end" x="19.2" y="207.82201" transform="rotate(-0 19.2 207.82201)">30</text>
     </g>
    </g>
    <g id="ytick_5">
     <g id="line2d_21">
      <path d="M 26.2 163.259286 
L 485.31 163.259286 
" clip-path="url(#pf5db73a814)" style="fill: none; stroke-dasharray: 2.96,1.28; stroke-dashoffset: 0; stroke: #b0b0b0; stroke-opacity: 0.5; stroke-width: 0.8"/>
     </g>
     <g id="line2d_22">
      <g>
       <use xlink:href="#mef8bd7f76c" x="26.2" y="163.259286" style="stroke: #000000; stroke-width: 0.8"/>
      </g>
     </g>
     <g id="text_12">
      <text style="font: 12px 'SimHei', 'Microsoft YaHei', 'DejaVu Sans', 'Bitstream Vera Sans', 'Computer Modern Sans Serif', 'Lucida Grande', 'Verdana', 'Geneva', 'Lucid', 'Arial', 'Helvetica', 'Avant Garde', sans-serif; text-anchor: end" x="19.2" y="167.384286" transform="rotate(-0 19.2 167.384286)">40</text>
     </g>
    </g>
    <g id="ytick_6">
     <g id="line2d_23">
      <path d="M 26.2 122.821562 
L 485.31 122.821562 
" clip-path="url(#pf5db73a814)" style="fill: none; stroke-dasharray: 2.96,1.28; stroke-dashoffset: 0; stroke: #b0b0b0; stroke-opacity: 0.5; stroke-width: 0.8"/>
     </g>
     <g id="line2d_24">
      <g>
       <use xlink:href="#mef8bd7f76c" x="26.2" y="122.821562" style="stroke: #000000; stroke-width: 0.8"/>
      </g>
     </g>
     <g id="text_13">
      <text style="font: 12px 'SimHei', 'Microsoft YaHei', 'DejaVu Sans', 'Bitstream Vera Sans', 'Computer Modern Sans Serif', 'Lucida Grande', 'Verdana', 'Geneva', 'Lucid', 'Arial', 'Helvetica', 'Avant Garde', sans-serif; text-anchor: end" x="19.2" y="126.946562" transform="rotate(-0 19.2 126.946562)">50</text>
     </g>
    </g>
    <g id="ytick_7">
     <g id="line2d_25">
      <path d="M 26.2 82.383838 
L 485.31 82.383838 
" clip-path="url(#pf5db73a814)" style="fill: none; stroke-dasharray: 2.96,1.28; stroke-dashoffset: 0; stroke: #b0b0b0; stroke-opacity: 0.5; stroke-width: 0.8"/>
     </g>
     <g id="line2d_26">
      <g>
       <use xlink:href="#mef8bd7f76c" x="26.2" y="82.383838" style="stroke: #000000; stroke-width: 0.8"/>
      </g>
     </g>
     <g id="text_14">
      <text style="font: 12px 'SimHei', 'Microsoft YaHei', 'DejaVu Sans', 'Bitstream Vera Sans', 'Computer Modern Sans Serif', 'Lucida Grande', 'Verdana', 'Geneva', 'Lucid', 'Arial', 'Helvetica', 'Avant Garde', sans-serif; text-anchor: end" x="19.2" y="86.508838" transform="rotate(-0 19.2 86.508838)">60</text>
     </g>
    </g>
    <g id="ytick_8">
     <g id="line2d_27">
      <path d="M 26.2 41.946114 
L 485.31 41.946114 
" clip-path="url(#pf5db73a814)" style="fill: none; stroke-dasharray: 2.96,1.28; stroke-dashoffset: 0; stroke: #b0b0b0; stroke-opacity: 0.5; stroke-width: 0.8"/>
     </g>
     <g id="line2d_28">
      <g>
       <use xlink:href="#mef8bd7f76c" x="26.2" y="41.946114" style="stroke: #000000; stroke-width: 0.8"/>
      </g>
     </g>
     <g id="text_15">
      <text style="font: 12px 'SimHei', 'Microsoft YaHei', 'DejaVu Sans', 'Bitstream Vera Sans', 'Computer Modern Sans Serif', 'Lucida Grande', 'Verdana', 'Geneva', 'Lucid', 'Arial', 'Helvetica', 'Avant Garde', sans-serif; text-anchor: end" x="19.2" y="46.071114" transform="rotate(-0 19.2 46.071114)">70</text>
     </g>
    </g>
   </g>
   <g id="line2d_29">
    <path d="M 47.068636 23.061697 
L 50.57597 23.049804 
L 54.083304 23.03791 
L 57.590638 23.026017 
L 61.097972 23.014123 
L 64.605306 23.00223 
L 68.112639 22.990337 
L 71.619973 22.978443 
L 75.127307 22.96655 
L 78.634641 22.954656 
L 82.141975 22.942763 
L 85.649309 22.930869 
L 89.156642 22.918976 
L 92.663976 22.907082 
L 96.17131 22.895189 
L 99.678644 22.883295 
L 103.185978 22.871402 
L 106.693312 22.859509 
L 110.200646 22.847615 
L 113.707979 22.835722 
L 117.215313 22.823828 
L 120.722647 22.811935 
L 124.229981 22.800041 
L 127.737315 22.788148 
L 131.244649 22.781012 
L 134.751982 22.792905 
L 138.259316 22.804799 
L 141.76665 22.816692 
L 145.273984 22.828586 
L 148.781318 22.840479 
L 152.288652 22.852373 
L 155.795985 22.864266 
L 159.303319 22.876159 
L 162.810653 22.888053 
L 166.317987 22.899946 
L 169.825321 22.91184 
L 173.332655 22.923733 
L 176.839989 22.935627 
L 180.347322 22.94752 
L 183.854656 22.959414 
L 187.36199 22.971307 
L 190.869324 22.9832 
L 194.376658 22.995094 
L 197.883992 23.006987 
L 201.391325 23.018881 
L 204.898659 23.030774 
L 208.405993 23.042668 
L 211.913327 23.054561 
L 215.420661 23.049464 
L 218.927995 23.018881 
L 222.435328 22.988298 
L 225.942662 22.957714 
L 229.449996 22.927131 
L 232.95733 22.896548 
L 236.464664 22.865965 
L 239.971998 22.835382 
L 243.479332 22.804799 
L 246.986665 22.774216 
L 250.493999 22.743632 
L 254.001333 22.713049 
L 257.508667 22.682466 
L 261.016001 22.651883 
L 264.523335 22.6213 
L 268.030668 22.590717 
L 271.538002 22.560134 
L 275.045336 22.52955 
L 278.55267 22.498967 
L 282.060004 22.468384 
L 285.567338 22.437801 
L 289.074672 22.407218 
L 292.582005 22.376635 
L 296.089339 22.346051 
L 299.596673 22.45819 
L 303.104007 22.665475 
L 306.611341 22.872761 
L 310.118675 23.080047 
L 313.626008 23.287333 
L 317.133342 23.494619 
L 320.640676 23.701905 
L 324.14801 23.90919 
L 327.655344 24.116476 
L 331.162678 24.323762 
L 334.670011 24.531048 
L 338.177345 24.738334 
L 341.684679 24.945619 
L 345.192013 25.152905 
L 348.699347 25.360191 
L 352.206681 25.567477 
L 355.714015 25.774763 
L 359.221348 25.982048 
L 362.728682 26.189334 
L 366.236016 26.39662 
L 369.74335 26.603906 
L 373.250684 26.811192 
L 376.758018 27.018478 
L 380.265351 27.225763 
L 383.772685 27.176151 
L 387.280019 27.062313 
L 390.787353 26.948476 
L 394.294687 26.834639 
L 397.802021 26.720802 
L 401.309354 26.606964 
L 404.816688 26.493127 
L 408.324022 26.37929 
L 411.831356 26.265452 
L 415.33869 26.151615 
L 418.846024 26.037778 
L 422.353358 25.92394 
L 425.860691 25.810103 
L 429.368025 25.696266 
L 432.875359 25.582429 
L 436.382693 25.468591 
L 439.890027 25.354754 
L 443.397361 25.240917 
L 446.904694 25.127079 
L 450.412028 25.013242 
L 453.919362 24.899405 
L 457.426696 24.785568 
L 460.93403 24.67173 
L 464.441364 24.557893 
" clip-path="url(#pf5db73a814)" style="fill: none; stroke: #66c2a5; stroke-width: 2; stroke-linecap: square"/>
   </g>
   <g id="line2d_30">
    <path d="M 47.068636 113.723074 
L 50.57597 113.502196 
L 54.083304 113.281318 
L 57.590638 113.060439 
L 61.097972 112.839561 
L 64.605306 112.618683 
L 68.112639 112.397804 
L 71.619973 112.176926 
L 75.127307 111.956048 
L 78.634641 111.735169 
L 82.141975 111.514291 
L 85.649309 111.293413 
L 89.156642 111.072534 
L 92.663976 110.851656 
L 96.17131 110.630778 
L 99.678644 110.409899 
L 103.185978 110.189021 
L 106.693312 109.968143 
L 110.200646 109.747264 
L 113.707979 109.526386 
L 117.215313 109.305508 
L 120.722647 109.084629 
L 124.229981 108.863751 
L 127.737315 108.642873 
L 131.244649 108.470248 
L 134.751982 108.490637 
L 138.259316 108.511025 
L 141.76665 108.531414 
L 145.273984 108.551803 
L 148.781318 108.572192 
L 152.288652 108.592581 
L 155.795985 108.612969 
L 159.303319 108.633358 
L 162.810653 108.653747 
L 166.317987 108.674136 
L 169.825321 108.694524 
L 173.332655 108.714913 
L 176.839989 108.735302 
L 180.347322 108.755691 
L 183.854656 108.776079 
L 187.36199 108.796468 
L 190.869324 108.816857 
L 194.376658 108.837246 
L 197.883992 108.857635 
L 201.391325 108.878023 
L 204.898659 108.898412 
L 208.405993 108.918801 
L 211.913327 108.93919 
L 215.420661 108.93783 
L 218.927995 108.903849 
L 222.435328 108.869868 
L 225.942662 108.835886 
L 229.449996 108.801905 
L 232.95733 108.767924 
L 236.464664 108.733943 
L 239.971998 108.699961 
L 243.479332 108.66598 
L 246.986665 108.631999 
L 250.493999 108.598018 
L 254.001333 108.564036 
L 257.508667 108.530055 
L 261.016001 108.496074 
L 264.523335 108.462092 
L 268.030668 108.428111 
L 271.538002 108.39413 
L 275.045336 108.360149 
L 278.55267 108.326167 
L 282.060004 108.292186 
L 285.567338 108.258205 
L 289.074672 108.224223 
L 292.582005 108.190242 
L 296.089339 108.156261 
L 299.596673 108.276215 
L 303.104007 108.498792 
L 306.611341 108.72137 
L 310.118675 108.943947 
L 313.626008 109.166524 
L 317.133342 109.389102 
L 320.640676 109.611679 
L 324.14801 109.834257 
L 327.655344 110.056834 
L 331.162678 110.279411 
L 334.670011 110.501989 
L 338.177345 110.724566 
L 341.684679 110.947143 
L 345.192013 111.169721 
L 348.699347 111.392298 
L 352.206681 111.614876 
L 355.714015 111.837453 
L 359.221348 112.06003 
L 362.728682 112.282608 
L 366.236016 112.505185 
L 369.74335 112.727763 
L 373.250684 112.95034 
L 376.758018 113.172917 
L 380.265351 113.395495 
L 383.772685 113.321755 
L 387.280019 113.173937 
L 390.787353 113.026118 
L 394.294687 112.8783 
L 397.802021 112.730481 
L 401.309354 112.582662 
L 404.816688 112.434844 
L 408.324022 112.287025 
L 411.831356 112.139207 
L 415.33869 111.991388 
L 418.846024 111.84357 
L 422.353358 111.695751 
L 425.860691 111.547932 
L 429.368025 111.400114 
L 432.875359 111.252295 
L 436.382693 111.104477 
L 439.890027 110.956658 
L 443.397361 110.80884 
L 446.904694 110.661021 
L 450.412028 110.513203 
L 453.919362 110.365384 
L 457.426696 110.217565 
L 460.93403 110.069747 
L 464.441364 109.921928 
" clip-path="url(#pf5db73a814)" style="fill: none; stroke: #e78ac3; stroke-width: 2; stroke-linecap: square"/>
   </g>
   <g id="line2d_31">
    <path d="M 47.068636 110.366743 
L 50.57597 110.443201 
L 54.083304 110.519659 
L 57.590638 110.596117 
L 61.097972 110.672575 
L 64.605306 110.749033 
L 68.112639 110.82549 
L 71.619973 110.901948 
L 75.127307 110.978406 
L 78.634641 111.054864 
L 82.141975 111.131322 
L 85.649309 111.20778 
L 89.156642 111.284238 
L 92.663976 111.360696 
L 96.17131 111.437154 
L 99.678644 111.513611 
L 103.185978 111.590069 
L 106.693312 111.666527 
L 110.200646 111.742985 
L 113.707979 111.819443 
L 117.215313 111.895901 
L 120.722647 111.972359 
L 124.229981 112.048817 
L 127.737315 112.125274 
L 131.244649 112.194256 
L 134.751982 112.233335 
L 138.259316 112.272413 
L 141.76665 112.311492 
L 145.273984 112.35057 
L 148.781318 112.389649 
L 152.288652 112.428727 
L 155.795985 112.467806 
L 159.303319 112.506884 
L 162.810653 112.545963 
L 166.317987 112.585041 
L 169.825321 112.62412 
L 173.332655 112.663198 
L 176.839989 112.702277 
L 180.347322 112.741355 
L 183.854656 112.780434 
L 187.36199 112.819512 
L 190.869324 112.85859 
L 194.376658 112.897669 
L 197.883992 112.936747 
L 201.391325 112.975826 
L 204.898659 113.014904 
L 208.405993 113.053983 
L 211.913327 113.093061 
L 215.420661 113.096799 
L 218.927995 113.047526 
L 222.435328 112.998254 
L 225.942662 112.948981 
L 229.449996 112.899708 
L 232.95733 112.850435 
L 236.464664 112.801162 
L 239.971998 112.751889 
L 243.479332 112.702616 
L 246.986665 112.653344 
L 250.493999 112.604071 
L 254.001333 112.554798 
L 257.508667 112.505525 
L 261.016001 112.456252 
L 264.523335 112.406979 
L 268.030668 112.357706 
L 271.538002 112.308434 
L 275.045336 112.259161 
L 278.55267 112.209888 
L 282.060004 112.160615 
L 285.567338 112.111342 
L 289.074672 112.062069 
L 292.582005 112.012796 
L 296.089339 111.963524 
L 299.596673 112.106925 
L 303.104007 112.378775 
L 306.611341 112.650625 
L 310.118675 112.922475 
L 313.626008 113.194326 
L 317.133342 113.466176 
L 320.640676 113.738026 
L 324.14801 114.009876 
L 327.655344 114.281727 
L 331.162678 114.553577 
L 334.670011 114.825427 
L 338.177345 115.097277 
L 341.684679 115.369128 
L 345.192013 115.640978 
L 348.699347 115.912828 
L 352.206681 116.184678 
L 355.714015 116.456528 
L 359.221348 116.728379 
L 362.728682 117.000229 
L 366.236016 117.272079 
L 369.74335 117.543929 
L 373.250684 117.81578 
L 376.758018 118.08763 
L 380.265351 118.35948 
L 383.772685 118.286081 
L 387.280019 118.126369 
L 390.787353 117.966657 
L 394.294687 117.806945 
L 397.802021 117.647233 
L 401.309354 117.487521 
L 404.816688 117.327809 
L 408.324022 117.168096 
L 411.831356 117.008384 
L 415.33869 116.848672 
L 418.846024 116.68896 
L 422.353358 116.529248 
L 425.860691 116.369536 
L 429.368025 116.209824 
L 432.875359 116.050112 
L 436.382693 115.8904 
L 439.890027 115.730688 
L 443.397361 115.570976 
L 446.904694 115.411264 
L 450.412028 115.251552 
L 453.919362 115.09184 
L 457.426696 114.932128 
L 460.93403 114.772416 
L 464.441364 114.612704 
" clip-path="url(#pf5db73a814)" style="fill: none; stroke: #e5c494; stroke-width: 2; stroke-linecap: square"/>
   </g>
   <g id="patch_3">
    <path d="M 26.2 340.144 
L 26.2 7.2 
" style="fill: none; stroke: #000000; stroke-width: 0.8; stroke-linejoin: miter; stroke-linecap: square"/>
   </g>
   <g id="patch_4">
    <path d="M 485.31 340.144 
L 485.31 7.2 
" style="fill: none; stroke: #000000; stroke-width: 0.8; stroke-linejoin: miter; stroke-linecap: square"/>
   </g>
   <g id="patch_5">
    <path d="M 26.2 340.144 
L 485.31 340.144 
" style="fill: none; stroke: #000000; stroke-width: 0.8; stroke-linejoin: miter; stroke-linecap: square"/>
   </g>
   <g id="patch_6">
    <path d="M 26.2 7.2 
L 485.31 7.2 
" style="fill: none; stroke: #000000; stroke-width: 0.8; stroke-linejoin: miter; stroke-linecap: square"/>
   </g>
   <g id="text_16">
    <text style="fill: #66c2a5; font: 700 10px 'SimHei', 'Microsoft YaHei', 'DejaVu Sans', 'Bitstream Vera Sans', 'Computer Modern Sans Serif', 'Lucida Grande', 'Verdana', 'Geneva', 'Lucid', 'Arial', 'Helvetica', 'Avant Garde', sans-serif; text-anchor: middle" x="297.492273" y="21.083818" transform="rotate(-0 297.492273 21.083818)">74.85</text>
   </g>
   <g id="text_17">
    <text style="fill: #e78ac3; font: 700 10px 'SimHei', 'Microsoft YaHei', 'DejaVu Sans', 'Bitstream Vera Sans', 'Computer Modern Sans Serif', 'Lucida Grande', 'Verdana', 'Geneva', 'Lucid', 'Arial', 'Helvetica', 'Avant Garde', sans-serif; text-anchor: middle" x="297.492273" y="106.892668" transform="rotate(-0 297.492273 106.892668)">53.63</text>
   </g>
   <g id="text_18">
    <text style="fill: #e5c494; font: 700 10px 'SimHei', 'Microsoft YaHei', 'DejaVu Sans', 'Bitstream Vera Sans', 'Computer Modern Sans Serif', 'Lucida Grande', 'Verdana', 'Geneva', 'Lucid', 'Arial', 'Helvetica', 'Avant Garde', sans-serif; text-anchor: middle" x="47.068636" y="109.116743" transform="rotate(-0 47.068636 109.116743)">53.08</text>
   </g>
   <g id="PathCollection_1">
    <defs>
     <path id="m9bcbc33853" d="M 0 2.95804 
C 0.784481 2.95804 1.536938 2.646362 2.09165 2.09165 
C 2.646362 1.536938 2.95804 0.784481 2.95804 0 
C 2.95804 -0.784481 2.646362 -1.536938 2.09165 -2.09165 
C 1.536938 -2.646362 0.784481 -2.95804 0 -2.95804 
C -0.784481 -2.95804 -1.536938 -2.646362 -2.09165 -2.09165 
C -2.646362 -1.536938 -2.95804 -0.784481 -2.95804 0 
C -2.95804 0.784481 -2.646362 1.536938 -2.09165 2.09165 
C -1.536938 2.646362 -0.784481 2.95804 0 2.95804 
z
" style="stroke: #66c2a5"/>
    </defs>
    <g clip-path="url(#pf5db73a814)">
     <use xlink:href="#m9bcbc33853" x="297.492273" y="22.333818" style="fill: #66c2a5; stroke: #66c2a5"/>
    </g>
   </g>
   <g id="PathCollection_2">
    <defs>
     <path id="m78ea547beb" d="M 0 2.95804 
C 0.784481 2.95804 1.536938 2.646362 2.09165 2.09165 
C 2.646362 1.536938 2.95804 0.784481 2.95804 0 
C 2.95804 -0.784481 2.646362 -1.536938 2.09165 -2.09165 
C 1.536938 -2.646362 0.784481 -2.95804 0 -2.95804 
C -0.784481 -2.95804 -1.536938 -2.646362 -2.09165 -2.09165 
C -2.646362 -1.536938 -2.95804 -0.784481 -2.95804 0 
C -2.95804 0.784481 -2.646362 1.536938 -2.09165 2.09165 
C -1.536938 2.646362 -0.784481 2.95804 0 2.95804 
z
" style="stroke: #e78ac3"/>
    </defs>
    <g clip-path="url(#pf5db73a814)">
     <use xlink:href="#m78ea547beb" x="297.492273" y="108.142668" style="fill: #e78ac3; stroke: #e78ac3"/>
    </g>
   </g>
   <g id="PathCollection_3">
    <defs>
     <path id="m98c36700d4" d="M 0 2.95804 
C 0.784481 2.95804 1.536938 2.646362 2.09165 2.09165 
C 2.646362 1.536938 2.95804 0.784481 2.95804 0 
C 2.95804 -0.784481 2.646362 -1.536938 2.09165 -2.09165 
C 1.536938 -2.646362 0.784481 -2.95804 0 -2.95804 
C -0.784481 -2.95804 -1.536938 -2.646362 -2.09165 -2.09165 
C -2.646362 -1.536938 -2.95804 -0.784481 -2.95804 0 
C -2.95804 0.784481 -2.646362 1.536938 -2.09165 2.09165 
C -1.536938 2.646362 -0.784481 2.95804 0 2.95804 
z
" style="stroke: #e5c494"/>
    </defs>
    <g clip-path="url(#pf5db73a814)">
     <use xlink:href="#m98c36700d4" x="47.068636" y="110.366743" style="fill: #e5c494; stroke: #e5c494"/>
    </g>
   </g>
   <g id="legend_1">
    <g id="patch_7">
     <path d="M 34.6 334.144 
L 91 334.144 
Q 93.4 334.144 93.4 331.744 
L 93.4 285.244 
Q 93.4 282.844 91 282.844 
L 34.6 282.844 
Q 32.2 282.844 32.2 285.244 
L 32.2 331.744 
Q 32.2 334.144 34.6 334.144 
z
" style="fill: #ffffff; opacity: 0.8; stroke: #cccccc; stroke-linejoin: miter"/>
    </g>
    <g id="line2d_32">
     <path d="M 37 291.844 
L 49 291.844 
L 61 291.844 
" style="fill: none; stroke: #66c2a5; stroke-width: 2; stroke-linecap: square"/>
    </g>
    <g id="text_19">
     <text style="font: 12px 'SimHei', 'Microsoft YaHei', 'DejaVu Sans', 'Bitstream Vera Sans', 'Computer Modern Sans Serif', 'Lucida Grande', 'Verdana', 'Geneva', 'Lucid', 'Arial', 'Helvetica', 'Avant Garde', sans-serif; text-anchor: start" x="70.6" y="296.044" transform="rotate(-0 70.6 296.044)">ACC</text>
    </g>
    <g id="line2d_33">
     <path d="M 37 307.744 
L 49 307.744 
L 61 307.744 
" style="fill: none; stroke: #e78ac3; stroke-width: 2; stroke-linecap: square"/>
    </g>
    <g id="text_20">
     <text style="font: 12px 'SimHei', 'Microsoft YaHei', 'DejaVu Sans', 'Bitstream Vera Sans', 'Computer Modern Sans Serif', 'Lucida Grande', 'Verdana', 'Geneva', 'Lucid', 'Arial', 'Helvetica', 'Avant Garde', sans-serif; text-anchor: start" x="70.6" y="311.944" transform="rotate(-0 70.6 311.944)">NMI</text>
    </g>
    <g id="line2d_34">
     <path d="M 37 323.644 
L 49 323.644 
L 61 323.644 
" style="fill: none; stroke: #e5c494; stroke-width: 2; stroke-linecap: square"/>
    </g>
    <g id="text_21">
     <text style="font: 12px 'SimHei', 'Microsoft YaHei', 'DejaVu Sans', 'Bitstream Vera Sans', 'Computer Modern Sans Serif', 'Lucida Grande', 'Verdana', 'Geneva', 'Lucid', 'Arial', 'Helvetica', 'Avant Garde', sans-serif; text-anchor: start" x="70.6" y="327.844" transform="rotate(-0 70.6 327.844)">ARI</text>
    </g>
   </g>
  </g>
 </g>
 <defs>
  <clipPath id="pf5db73a814">
   <rect x="26.2" y="7.2" width="459.11" height="332.944"/>
  </clipPath>
 </defs>
</svg>
